<svg width="566" height="566" viewBox="0 0 566 566" fill="none" xmlns="http://www.w3.org/2000/svg">
<g clip-path="url(#clip0_1598_2)">
<mask id="mask0_1598_2" style="mask-type:alpha" maskUnits="userSpaceOnUse" x="122" y="129" width="341" height="196">
<mask id="mask1_1598_2" style="mask-type:luminance" maskUnits="userSpaceOnUse" x="106" y="98" width="404" height="245">
<path d="M509.729 98.3535H106.43V342.753H509.729V98.3535Z" fill="white"/>
</mask>
<g mask="url(#mask1_1598_2)">
<path d="M378.091 225.324C382.215 227.351 386.609 228.823 391.15 229.7C396.86 230.975 402.703 231.614 408.564 231.605C413.985 231.656 419.385 230.95 424.595 229.51C429.153 228.275 433.42 226.206 437.162 223.415C440.596 220.826 443.4 217.547 445.378 213.806C447.403 209.875 448.421 205.535 448.346 201.148C448.419 195.651 446.573 190.29 443.103 185.921C438.51 180.797 432.401 177.143 425.592 175.447L409.564 170.497C405.018 169.359 400.77 167.315 397.099 164.496C396.009 163.508 395.146 162.312 394.566 160.984C393.986 159.657 393.702 158.227 393.731 156.787C393.602 154.853 394.033 152.923 394.976 151.211C395.92 149.499 397.338 148.072 399.075 147.089C403.724 144.822 408.912 143.771 414.118 144.044C421.604 143.935 429.029 145.363 435.896 148.233C437.244 148.942 438.721 149.394 440.248 149.564C441.962 149.564 442.821 148.427 442.821 146.138V140.994C442.89 139.72 442.545 138.456 441.833 137.379C440.909 136.282 439.765 135.375 438.469 134.714C436.948 133.943 435.358 133.306 433.718 132.809C431.737 132.178 429.592 131.608 427.285 131.098C424.979 130.589 422.537 130.175 419.962 129.857C417.435 129.548 414.89 129.391 412.343 129.387C407.524 129.363 402.726 130.001 398.095 131.284C393.845 132.444 389.854 134.348 386.322 136.902C383.011 139.321 380.249 142.367 378.208 145.851C376.105 149.554 375.047 153.721 375.139 157.939C375.145 163.662 377.132 169.22 380.785 173.736C385.474 179.146 391.806 183.008 398.893 184.781L415.32 189.731C419.507 190.798 423.395 192.748 426.701 195.441C427.714 196.45 428.508 197.643 429.035 198.951C429.562 200.258 429.812 201.654 429.77 203.056C429.839 205.115 429.333 207.153 428.306 208.96C427.279 210.767 425.768 212.277 423.93 213.333C418.886 216.021 413.152 217.277 407.395 216.952C402.873 216.949 398.364 216.502 393.937 215.618C389.649 214.793 385.468 213.517 381.471 211.812C380.282 211.295 379.326 210.913 378.603 210.668C377.938 210.423 377.234 210.292 376.522 210.28C374.807 210.28 373.949 211.423 373.949 213.709V219.23C373.903 220.534 374.278 221.82 375.022 222.912C375.767 224.003 376.845 224.846 378.107 225.324" fill="#242B39"/>
<path d="M199.781 191.632C199.842 194.804 199.476 197.97 198.692 201.051C197.983 203.625 196.662 206.005 194.833 208.003C191.972 211.187 188.284 213.585 184.145 214.951C180.387 216.23 176.436 216.907 172.45 216.953C170.3 217.089 168.144 216.814 166.106 216.143C164.068 215.473 162.189 214.42 160.576 213.046C159.104 211.5 157.976 209.681 157.261 207.7C156.546 205.72 156.259 203.619 156.418 201.528C156.274 199.163 156.701 196.797 157.667 194.617C158.632 192.437 160.11 190.502 161.984 188.963C166.904 185.696 172.84 184.152 178.802 184.587C182.341 184.597 185.877 184.82 189.388 185.254C192.883 185.677 196.353 186.279 199.781 187.058V191.632ZM186.819 172.495C182.855 171.94 178.855 171.655 174.849 171.642C164.851 171.133 155.002 174.143 147.143 180.11C143.78 182.848 141.107 186.284 139.325 190.159C137.542 194.034 136.698 198.248 136.854 202.483C136.66 206.337 137.298 210.189 138.729 213.795C140.16 217.4 142.352 220.681 145.166 223.431C148.196 226.114 151.752 228.186 155.627 229.527C159.501 230.868 163.615 231.451 167.727 231.24C174.094 231.335 180.399 230.03 186.161 227.423C191.924 224.816 196.99 220.978 200.975 216.2C202.161 218.616 203.314 220.742 204.435 222.578C205.558 224.419 206.921 226.114 208.492 227.621C208.917 228.08 209.434 228.452 210.012 228.713C210.59 228.974 211.218 229.12 211.856 229.142C212.919 229.097 213.949 228.768 214.828 228.191L221.951 223.617C222.557 223.287 223.072 222.821 223.451 222.259C223.831 221.696 224.063 221.053 224.128 220.386C224.088 219.509 223.81 218.657 223.322 217.915C221.874 215.416 220.649 212.804 219.66 210.106C218.697 206.959 218.262 203.685 218.373 200.407V164.985C218.373 153.052 215.24 144.136 208.972 138.237C202.705 132.337 192.843 129.388 179.386 129.388C173.447 129.355 167.527 130.058 161.774 131.479C156.866 132.654 152.096 134.309 147.538 136.417C146.304 136.918 145.217 137.703 144.372 138.702C143.74 139.874 143.461 141.192 143.565 142.508V147.842C143.565 150.123 144.357 151.265 145.941 151.267C146.544 151.238 147.142 151.143 147.723 150.984C149.075 150.595 150.397 150.117 151.68 149.553C155.637 148.032 159.705 146.793 163.851 145.844C167.836 144.912 171.922 144.433 176.023 144.416C184.726 144.416 190.86 146.098 194.425 149.46C197.991 152.822 199.772 158.629 199.769 166.882V174.873C195.282 173.86 190.961 173.067 186.807 172.495" fill="#242B39"/>
<path d="M256.581 223.416C256.922 225.03 257.747 226.513 258.952 227.683C260.245 228.484 261.775 228.853 263.308 228.735H273.007C274.614 228.87 276.221 228.469 277.556 227.598C278.724 226.385 279.487 224.864 279.75 223.23L297.165 153.18L314.777 223.23C315.03 224.867 315.788 226.393 316.955 227.61C318.291 228.482 319.899 228.883 321.508 228.746H331.187C332.72 228.864 334.25 228.495 335.543 227.695C336.746 226.523 337.571 225.041 337.918 223.428L365.226 139.292C365.549 138.42 365.818 137.53 366.032 136.627C366.155 136.064 366.221 135.491 366.23 134.916C366.284 134.554 366.249 134.185 366.129 133.838C366.009 133.491 365.807 133.176 365.538 132.917C365.269 132.658 364.941 132.463 364.58 132.348C364.219 132.232 363.836 132.199 363.459 132.251H352.973C351.415 132.11 349.852 132.478 348.537 133.295C347.394 134.495 346.609 135.969 346.263 137.562L326.634 210.474L308.824 137.581C308.587 135.973 307.824 134.478 306.646 133.314C305.286 132.505 303.691 132.139 302.097 132.27H292.995C291.4 132.137 289.803 132.503 288.441 133.314C287.261 134.477 286.498 135.972 286.264 137.581L268.652 209.524L249.652 137.581C249.303 135.989 248.516 134.515 247.373 133.314C246.058 132.498 244.496 132.131 242.937 132.27H231.842C231.466 132.219 231.082 132.252 230.721 132.367C230.361 132.483 230.033 132.678 229.764 132.936C229.495 133.195 229.292 133.51 229.172 133.857C229.052 134.204 229.018 134.574 229.072 134.936C229.224 136.426 229.555 137.895 230.06 139.312L256.581 223.447" fill="#242B39"/>
<path d="M424.534 276.138C383.892 292.611 340.266 301.197 296.164 301.404C237.131 301.446 179.113 286.638 127.867 258.452C123.676 256.124 120.567 260.24 124.052 263.274C170.164 303.289 230.149 325.299 292.252 324.99C338.732 324.99 392.71 310.935 429.942 284.505C436.101 280.126 430.83 273.569 424.534 276.138Z" fill="#F68D11"/>
<path d="M401.028 261.243C397.749 263.458 398.318 266.515 401.951 266.089C413.957 264.708 440.668 261.623 445.431 267.485C450.194 273.347 440.136 297.527 435.643 308.323C434.28 311.586 437.204 312.905 440.273 310.434C460.244 294.361 465.41 260.685 461.321 255.824C457.232 250.963 422.342 246.843 401.028 261.255" fill="#F68D11"/>
</g>
</mask>
<g mask="url(#mask0_1598_2)">
<rect x="102.367" y="98.3535" width="407.333" height="244.4" fill="white"/>
</g>
</g>
<path d="M97.5464 435.392H91.7554L113.767 374.882H119.676L141.688 435.392H135.897L116.928 382.061H116.515L97.5464 435.392ZM101.712 412.198H131.731V417.162H101.712V412.198ZM171.189 436.337C167.131 436.337 163.596 435.323 160.582 433.294C157.588 431.265 155.264 428.488 153.609 424.962C151.954 421.436 151.127 417.418 151.127 412.907C151.127 408.357 151.964 404.309 153.639 400.764C155.333 397.218 157.677 394.441 160.67 392.432C163.664 390.403 167.141 389.389 171.1 389.389C174.134 389.389 176.881 389.98 179.343 391.161C181.806 392.324 183.834 393.968 185.43 396.096C187.045 398.203 188.059 400.665 188.473 403.482H183.155C182.603 400.921 181.274 398.735 179.166 396.923C177.078 395.091 174.419 394.175 171.189 394.175C168.293 394.175 165.733 394.963 163.507 396.539C161.281 398.095 159.538 400.271 158.277 403.068C157.036 405.846 156.416 409.066 156.416 412.73C156.416 416.413 157.027 419.673 158.248 422.51C159.469 425.326 161.183 427.532 163.389 429.128C165.614 430.723 168.215 431.521 171.189 431.521C173.198 431.521 175.03 431.147 176.684 430.398C178.359 429.63 179.757 428.547 180.88 427.148C182.022 425.75 182.79 424.085 183.184 422.155H188.503C188.109 424.893 187.134 427.335 185.578 429.482C184.041 431.61 182.042 433.284 179.58 434.505C177.137 435.726 174.34 436.337 171.189 436.337ZM214.946 436.426C212.208 436.426 209.706 435.894 207.441 434.83C205.176 433.747 203.373 432.191 202.034 430.162C200.695 428.113 200.025 425.632 200.025 422.716C200.025 420.471 200.448 418.58 201.295 417.044C202.142 415.507 203.344 414.247 204.9 413.262C206.456 412.277 208.298 411.499 210.425 410.928C212.552 410.356 214.896 409.913 217.457 409.598C219.998 409.283 222.145 409.007 223.898 408.771C225.671 408.534 227.02 408.16 227.946 407.648C228.872 407.136 229.334 406.309 229.334 405.166V404.103C229.334 401.01 228.409 398.577 226.557 396.805C224.725 395.012 222.086 394.116 218.639 394.116C215.369 394.116 212.7 394.835 210.632 396.273C208.583 397.711 207.145 399.405 206.318 401.355L201.325 399.553C202.349 397.071 203.767 395.091 205.58 393.614C207.392 392.117 209.421 391.043 211.666 390.393C213.911 389.724 216.187 389.389 218.491 389.389C220.224 389.389 222.027 389.615 223.898 390.068C225.789 390.521 227.542 391.309 229.157 392.432C230.772 393.535 232.082 395.081 233.087 397.071C234.091 399.04 234.594 401.542 234.594 404.575V435.392H229.334V428.212H229.009C228.379 429.551 227.443 430.851 226.203 432.112C224.962 433.373 223.406 434.407 221.534 435.214C219.663 436.022 217.467 436.426 214.946 436.426ZM215.655 431.61C218.452 431.61 220.874 430.989 222.923 429.748C224.971 428.507 226.547 426.863 227.65 424.814C228.773 422.746 229.334 420.471 229.334 417.989V411.43C228.94 411.804 228.281 412.139 227.355 412.434C226.449 412.73 225.395 412.996 224.193 413.232C223.012 413.449 221.83 413.636 220.648 413.794C219.466 413.951 218.402 414.089 217.457 414.207C214.896 414.522 212.71 415.015 210.898 415.685C209.086 416.354 207.697 417.28 206.732 418.462C205.767 419.624 205.284 421.121 205.284 422.953C205.284 425.71 206.269 427.848 208.239 429.364C210.208 430.861 212.68 431.61 215.655 431.61ZM267.418 436.337C263.696 436.337 260.436 435.352 257.639 433.382C254.842 431.413 252.655 428.665 251.08 425.139C249.523 421.613 248.745 417.507 248.745 412.819C248.745 408.15 249.523 404.063 251.08 400.557C252.655 397.031 254.852 394.293 257.668 392.343C260.485 390.374 263.765 389.389 267.507 389.389C270.265 389.389 272.559 389.881 274.391 390.866C276.223 391.831 277.69 393.033 278.794 394.471C279.897 395.909 280.753 397.307 281.364 398.666H281.837V374.882H287.125V435.392H281.984V426.971H281.364C280.753 428.35 279.887 429.768 278.764 431.226C277.641 432.664 276.154 433.875 274.303 434.86C272.471 435.845 270.176 436.337 267.418 436.337ZM268.039 431.521C270.974 431.521 273.475 430.723 275.543 429.128C277.612 427.513 279.187 425.297 280.271 422.48C281.374 419.644 281.925 416.394 281.925 412.73C281.925 409.106 281.384 405.905 280.3 403.128C279.217 400.331 277.641 398.144 275.573 396.568C273.505 394.973 270.993 394.175 268.039 394.175C265.005 394.175 262.445 395.002 260.357 396.657C258.289 398.292 256.713 400.508 255.63 403.305C254.566 406.102 254.034 409.244 254.034 412.73C254.034 416.256 254.576 419.437 255.659 422.273C256.742 425.11 258.318 427.365 260.386 429.039C262.474 430.694 265.025 431.521 268.039 431.521ZM322.949 436.337C318.714 436.337 315.051 435.352 311.958 433.382C308.866 431.393 306.472 428.645 304.779 425.139C303.104 421.613 302.267 417.556 302.267 412.966C302.267 408.397 303.104 404.339 304.779 400.793C306.472 397.228 308.807 394.441 311.781 392.432C314.775 390.403 318.232 389.389 322.151 389.389C324.614 389.389 326.987 389.842 329.272 390.748C331.557 391.634 333.605 393.003 335.418 394.855C337.249 396.687 338.697 399.001 339.761 401.798C340.824 404.575 341.356 407.865 341.356 411.666V414.266H305.901V409.628H335.979C335.979 406.712 335.388 404.093 334.206 401.768C333.044 399.424 331.419 397.573 329.331 396.214C327.263 394.855 324.87 394.175 322.151 394.175C319.276 394.175 316.745 394.943 314.558 396.48C312.372 398.016 310.658 400.045 309.417 402.566C308.196 405.087 307.576 407.845 307.556 410.839V413.616C307.556 417.221 308.176 420.372 309.417 423.071C310.678 425.75 312.46 427.828 314.765 429.305C317.07 430.782 319.798 431.521 322.949 431.521C325.096 431.521 326.977 431.186 328.592 430.517C330.227 429.847 331.596 428.951 332.699 427.828C333.822 426.685 334.669 425.435 335.24 424.076L340.234 425.701C339.544 427.611 338.412 429.374 336.836 430.989C335.28 432.604 333.33 433.904 330.986 434.889C328.661 435.854 325.983 436.337 322.949 436.337ZM355.442 435.392V390.009H360.553V396.982H361.026C361.932 394.638 363.439 392.796 365.546 391.457C367.674 390.098 370.224 389.418 373.199 389.418C376.331 389.418 378.901 390.157 380.91 391.634C382.939 393.092 384.456 395.101 385.46 397.662H385.844C386.869 395.14 388.533 393.141 390.838 391.664C393.162 390.167 395.979 389.418 399.288 389.418C403.503 389.418 406.832 390.748 409.274 393.407C411.717 396.046 412.938 399.907 412.938 404.989V435.392H407.679V404.989C407.679 401.404 406.763 398.715 404.931 396.923C403.099 395.13 400.686 394.234 397.692 394.234C394.225 394.234 391.556 395.298 389.685 397.425C387.814 399.553 386.878 402.251 386.878 405.521V435.392H381.501V404.516C381.501 401.443 380.644 398.962 378.931 397.071C377.217 395.18 374.804 394.234 371.692 394.234C369.604 394.234 367.723 394.746 366.049 395.771C364.394 396.795 363.084 398.223 362.119 400.055C361.174 401.867 360.701 403.955 360.701 406.319V435.392H355.442ZM431.396 452.41C430.352 452.41 429.377 452.312 428.471 452.115C427.565 451.918 426.846 451.701 426.314 451.465L427.732 446.826C429.525 447.377 431.12 447.574 432.519 447.417C433.917 447.279 435.158 446.649 436.241 445.526C437.325 444.423 438.29 442.729 439.137 440.444L440.792 435.835L424.098 390.009H429.8L443.273 428.448H443.687L457.16 390.009H462.862L443.657 442.571C442.85 444.758 441.855 446.58 440.673 448.037C439.492 449.515 438.123 450.608 436.566 451.317C435.03 452.046 433.307 452.41 431.396 452.41Z" fill="white"/>
<defs>
<clipPath id="clip0_1598_2">
<rect width="407.333" height="244.4" fill="white" transform="translate(74.1484 98.3535)"/>
</clipPath>
</defs>
</svg>
