<svg width="566" height="566" viewBox="0 0 566 566" fill="none" xmlns="http://www.w3.org/2000/svg">
<g clip-path="url(#clip0_1598_17)">
<mask id="mask0_1598_17" style="mask-type:alpha" maskUnits="userSpaceOnUse" x="55" y="78" width="1089" height="252">
<path d="M194.684 227.454H176.07V301.332H194.684V227.454Z" fill="#D8D8D8"/>
<path d="M344.958 248.642C340.129 246.074 334.733 244.755 329.264 244.806C326.603 244.69 323.947 245.113 321.455 246.051C318.963 246.989 316.686 248.422 314.762 250.263C312.839 252.104 311.308 254.316 310.262 256.765C309.216 259.214 308.677 261.849 308.677 264.512C308.677 267.175 309.216 269.81 310.262 272.259C311.308 274.708 312.839 276.92 314.762 278.761C316.686 280.603 318.963 282.035 321.455 282.973C323.947 283.911 326.603 284.335 329.264 284.218C334.731 284.247 340.121 282.93 344.958 280.383V300.183C339.454 301.904 333.725 302.796 327.958 302.832C322.846 302.945 317.764 302.036 313.008 300.158C308.253 298.281 303.92 295.472 300.265 291.897C296.61 288.322 293.706 284.052 291.723 279.34C289.74 274.627 288.719 269.565 288.719 264.452C288.719 259.34 289.74 254.278 291.723 249.565C293.706 244.853 296.61 240.583 300.265 237.008C303.92 233.433 308.253 230.624 313.008 228.747C317.764 226.869 322.846 225.96 327.958 226.073C333.726 226.099 339.456 226.992 344.958 228.722V248.642Z" fill="#D8D8D8"/>
<path d="M150.404 248.642C145.592 246.063 140.206 244.743 134.747 244.806C132.086 244.69 129.43 245.113 126.938 246.051C124.446 246.989 122.169 248.422 120.245 250.263C118.322 252.104 116.791 254.316 115.745 256.765C114.699 259.214 114.16 261.849 114.16 264.512C114.16 267.175 114.699 269.81 115.745 272.259C116.791 274.708 118.322 276.92 120.245 278.761C122.169 280.603 124.446 282.035 126.938 282.973C129.43 283.911 132.086 284.335 134.747 284.218C140.203 284.257 145.583 282.939 150.404 280.383V300.183C144.902 301.913 139.171 302.806 133.403 302.832C128.292 302.945 123.209 302.036 118.453 300.158C113.698 298.281 109.365 295.472 105.71 291.897C102.055 288.322 99.1509 284.052 97.1681 279.34C95.1854 274.627 94.1641 269.565 94.1641 264.452C94.1641 259.34 95.1854 254.278 97.1681 249.565C99.1509 244.853 102.055 240.583 105.71 237.008C109.365 233.433 113.698 230.624 118.453 228.747C123.209 226.869 128.292 225.96 133.403 226.073C139.171 226.094 144.903 226.987 150.404 228.722V248.642Z" fill="#D8D8D8"/>
<path d="M403.625 244.957C399.763 244.903 395.973 246 392.736 248.108C389.5 250.215 386.963 253.238 385.45 256.792C383.937 260.346 383.515 264.269 384.239 268.063C384.963 271.857 386.799 275.35 389.514 278.097C392.229 280.844 395.7 282.721 399.485 283.489C403.271 284.257 407.199 283.881 410.77 282.41C414.341 280.939 417.394 278.438 419.539 275.226C421.684 272.014 422.825 268.237 422.817 264.374C422.847 261.835 422.372 259.315 421.421 256.961C420.47 254.606 419.061 252.464 417.276 250.658C415.491 248.851 413.366 247.418 411.022 246.439C408.679 245.461 406.165 244.957 403.625 244.957ZM442.655 264.374C442.784 272.12 440.606 279.729 436.397 286.233C432.188 292.736 426.139 297.84 419.019 300.895C411.9 303.949 404.033 304.816 396.419 303.385C388.806 301.953 381.791 298.288 376.267 292.857C370.743 287.425 366.96 280.473 365.401 272.885C363.841 265.297 364.575 257.416 367.509 250.246C370.443 243.076 375.444 236.942 381.876 232.624C388.307 228.305 395.879 225.999 403.625 225.998C408.737 225.848 413.825 226.733 418.585 228.6C423.345 230.467 427.679 233.277 431.325 236.862C434.971 240.447 437.854 244.733 439.801 249.461C441.748 254.189 442.719 259.261 442.655 264.374Z" fill="#D8D8D8"/>
<path d="M265.381 244.266C260.622 242.958 255.729 242.197 250.798 242C243.12 242 239.284 244.511 239.284 248.064C239.284 252.553 244.733 254.129 247.803 255.089L252.945 256.703C257.826 257.742 262.217 260.392 265.411 264.226C268.606 268.061 270.419 272.858 270.561 277.847C270.561 296.423 254.238 302.638 239.856 302.638C233.114 302.553 226.393 301.885 219.766 300.641V283.647C225.503 285.281 231.42 286.196 237.382 286.372C246.629 286.372 250.892 283.685 250.892 279.466C250.892 275.247 247.056 273.596 242.605 272.134L238.769 270.828C228.405 267.563 219.578 261.461 219.578 249.22C219.578 235.408 229.943 226.192 247.094 226.192C253.234 226.275 259.344 227.073 265.3 228.572L265.381 244.266Z" fill="#D8D8D8"/>
<path d="M74.351 148.09C74.2133 145.725 73.1767 143.502 71.4535 141.876C69.7303 140.25 67.4508 139.345 65.0817 139.345C62.7126 139.345 60.4331 140.25 58.7099 141.876C56.9867 143.502 55.9502 145.725 55.8125 148.09V167.47C55.9502 169.835 56.9867 172.058 58.7099 173.684C60.4331 175.309 62.7126 176.215 65.0817 176.215C67.4508 176.215 69.7303 175.309 71.4535 173.684C73.1767 172.058 74.2133 169.835 74.351 167.47V148.09Z" fill="#D8D8D8"/>
<path d="M125.173 122.609C125.173 120.155 124.198 117.803 122.463 116.068C120.729 114.333 118.376 113.358 115.922 113.358C113.469 113.358 111.116 114.333 109.381 116.068C107.646 117.803 106.672 120.155 106.672 122.609V167.477C106.672 169.93 107.646 172.283 109.381 174.018C111.116 175.752 113.469 176.727 115.922 176.727C118.376 176.727 120.729 175.752 122.463 174.018C124.198 172.283 125.173 169.93 125.173 167.477V122.609Z" fill="#D8D8D8"/>
<path d="M175.977 87.7973C175.977 85.3439 175.003 82.991 173.268 81.2563C171.533 79.5215 169.18 78.5469 166.727 78.5469C164.274 78.5469 161.921 79.5215 160.186 81.2563C158.451 82.991 157.477 85.3439 157.477 87.7973V186.046C157.477 188.499 158.451 190.852 160.186 192.587C161.921 194.321 164.274 195.296 166.727 195.296C169.18 195.296 171.533 194.321 173.268 192.587C175.003 190.852 175.977 188.499 175.977 186.046V87.7973Z" fill="#D8D8D8"/>
<path d="M226.845 122.609C226.845 120.155 225.87 117.803 224.135 116.068C222.4 114.333 220.048 113.358 217.594 113.358C215.141 113.358 212.788 114.333 211.053 116.068C209.318 117.803 208.344 120.155 208.344 122.609V167.477C208.344 169.93 209.318 172.283 211.053 174.018C212.788 175.752 215.141 176.727 217.594 176.727C220.048 176.727 222.4 175.752 224.135 174.018C225.87 172.283 226.845 169.93 226.845 167.477V122.609Z" fill="#D8D8D8"/>
<path d="M277.577 148.089C277.658 146.828 277.479 145.563 277.052 144.373C276.624 143.184 275.958 142.094 275.093 141.172C274.228 140.251 273.183 139.516 272.023 139.013C270.864 138.511 269.613 138.252 268.349 138.252C267.085 138.252 265.834 138.511 264.674 139.013C263.514 139.516 262.47 140.251 261.605 141.172C260.74 142.094 260.073 143.184 259.646 144.373C259.219 145.563 259.04 146.828 259.12 148.089V167.469C259.04 168.73 259.219 169.995 259.646 171.185C260.073 172.374 260.74 173.464 261.605 174.386C262.47 175.307 263.514 176.042 264.674 176.544C265.834 177.047 267.085 177.306 268.349 177.306C269.613 177.306 270.864 177.047 272.023 176.544C273.183 176.042 274.228 175.307 275.093 174.386C275.958 173.464 276.624 172.374 277.052 171.185C277.479 169.995 277.658 168.73 277.577 167.469V148.089Z" fill="#D8D8D8"/>
<path d="M328.288 122.608C328.138 120.262 327.101 118.061 325.387 116.453C323.672 114.845 321.41 113.95 319.06 113.95C316.709 113.95 314.447 114.845 312.733 116.453C311.019 118.061 309.981 120.262 309.831 122.608V167.469C309.751 168.731 309.93 169.995 310.357 171.185C310.784 172.374 311.451 173.464 312.316 174.386C313.18 175.308 314.225 176.042 315.385 176.545C316.545 177.047 317.796 177.306 319.06 177.306C320.324 177.306 321.574 177.047 322.734 176.545C323.894 176.042 324.939 175.308 325.804 174.386C326.669 173.464 327.335 172.374 327.763 171.185C328.19 169.995 328.369 168.731 328.288 167.469V122.608Z" fill="#D8D8D8"/>
<path d="M379.304 87.8039C379.154 85.4582 378.116 83.2577 376.402 81.6496C374.688 80.0415 372.426 79.1465 370.075 79.1465C367.725 79.1465 365.463 80.0415 363.749 81.6496C362.034 83.2577 360.997 85.4582 360.847 87.8039V186.052C360.766 187.314 360.945 188.578 361.372 189.768C361.8 190.958 362.466 192.047 363.331 192.969C364.196 193.891 365.241 194.626 366.401 195.128C367.561 195.63 368.811 195.889 370.075 195.889C371.339 195.889 372.59 195.63 373.75 195.128C374.91 194.626 375.955 193.891 376.82 192.969C377.684 192.047 378.351 190.958 378.778 189.768C379.206 188.578 379.384 187.314 379.304 186.052V87.8039Z" fill="#D8D8D8"/>
<path d="M430.187 122.608C430.049 120.243 429.013 118.02 427.289 116.394C425.566 114.768 423.287 113.862 420.918 113.862C418.549 113.862 416.269 114.768 414.546 116.394C412.823 118.02 411.786 120.243 411.648 122.608V167.469C411.786 169.834 412.823 172.057 414.546 173.683C416.269 175.309 418.549 176.214 420.918 176.214C423.287 176.214 425.566 175.309 427.289 173.683C429.013 172.057 430.049 169.834 430.187 167.469V122.608Z" fill="#D8D8D8"/>
<path d="M480.937 148.089C481.017 146.828 480.838 145.563 480.411 144.373C479.984 143.184 479.317 142.094 478.452 141.172C477.587 140.251 476.543 139.516 475.383 139.013C474.223 138.511 472.972 138.252 471.708 138.252C470.444 138.252 469.194 138.511 468.034 139.013C466.874 139.516 465.829 140.251 464.964 141.172C464.099 142.094 463.433 143.184 463.005 144.373C462.578 145.563 462.399 146.828 462.48 148.089V167.469C462.399 168.73 462.578 169.995 463.005 171.185C463.433 172.374 464.099 173.464 464.964 174.386C465.829 175.307 466.874 176.042 468.034 176.544C469.194 177.047 470.444 177.306 471.708 177.306C472.972 177.306 474.223 177.047 475.383 176.544C476.543 176.042 477.587 175.307 478.452 174.386C479.317 173.464 479.984 172.374 480.411 171.185C480.838 169.995 481.017 168.73 480.937 167.469V148.089Z" fill="#D8D8D8"/>
<path d="M470.235 291.627V292.738H466.933V301.333H465.59V292.738H462.25V291.627H470.235Z" fill="#D8D8D8"/>
<path d="M470.93 291.627H473.039L475.958 299.568H475.996L478.834 291.627H480.905V301.339H479.524V293.353H479.449L476.492 301.339H475.236L472.355 293.353H472.279V301.339H470.936L470.93 291.627Z" fill="#D8D8D8"/>
<path d="M551.164 172.422V89.1777H562.91L589.773 131.396C595.294 140.051 600.255 149.051 604.626 158.341H604.858C603.898 147.21 603.603 137.078 603.603 124.108V89.1777H613.735V172.422H602.875L576.464 130.235C570.788 121.293 565.662 112.014 561.114 102.449H560.731C561.359 112.964 561.617 122.94 561.617 136.977V172.554L551.164 172.422Z" fill="#217DA7"/>
<path d="M564.614 275.656L555.963 301.834H544.852L573.133 218.628H586.097L614.498 301.834H602.984L594.12 275.662L564.614 275.656ZM591.904 267.25L583.743 243.3C581.903 237.888 580.673 232.935 579.443 227.951H579.191C577.936 232.904 576.617 237.995 575.01 243.017L566.849 267.08L591.904 267.25Z" fill="#217DA7"/>
</mask>
<g mask="url(#mask0_1598_17)">
<rect x="55.8125" y="78.5469" width="439.325" height="250.612" fill="white"/>
</g>
<mask id="mask1_1598_17" style="mask-type:alpha" maskUnits="userSpaceOnUse" x="-221" y="329" width="685" height="158">
<path d="M-1.72817 433.79C-4.15652 433.756 -6.53997 434.446 -8.57513 435.771C-10.6103 437.096 -12.2051 438.997 -13.1565 441.231C-14.108 443.466 -14.3731 445.933 -13.918 448.318C-13.463 450.704 -12.3083 452.9 -10.6012 454.627C-8.89398 456.355 -6.71145 457.535 -4.33138 458.018C-1.9513 458.501 0.518676 458.265 2.7641 457.34C5.00953 456.414 6.92887 454.842 8.2778 452.822C9.62673 450.803 10.3442 448.428 10.339 445.999C10.3578 444.402 10.0595 442.818 9.46151 441.337C8.86351 439.857 7.97765 438.51 6.85523 437.374C5.73282 436.239 4.39618 435.337 2.92279 434.722C1.44939 434.106 -0.13146 433.79 -1.72817 433.79ZM22.8127 445.999C22.8942 450.869 21.5244 455.654 18.8779 459.743C16.2313 463.833 12.4276 467.042 7.95116 468.962C3.47469 470.883 -1.47204 471.428 -6.25923 470.528C-11.0464 469.628 -15.4575 467.324 -18.9308 463.908C-22.4041 460.493 -24.7825 456.122 -25.7631 451.35C-26.7438 446.579 -26.2824 441.624 -24.4376 437.115C-22.5928 432.607 -19.4482 428.75 -15.4041 426.035C-11.3599 423.32 -6.59923 421.869 -1.72817 421.869C1.48553 421.774 4.68513 422.331 7.67822 423.505C10.6713 424.679 13.3961 426.446 15.6886 428.7C17.9811 430.954 19.794 433.649 21.0183 436.622C22.2426 439.594 22.8529 442.784 22.8127 445.999Z" fill="#D8D8D8"/>
<path d="M14.9691 356.86C14.8826 355.373 14.2308 353.975 13.1473 352.953C12.0637 351.931 10.6305 351.361 9.14082 351.361C7.65117 351.361 6.21786 351.931 5.13435 352.953C4.05083 353.975 3.39908 355.373 3.3125 356.86V385.068C3.39908 386.555 4.05083 387.953 5.13435 388.975C6.21786 389.998 7.65117 390.567 9.14082 390.567C10.6305 390.567 12.0637 389.998 13.1473 388.975C14.2308 387.953 14.8826 386.555 14.9691 385.068V356.86Z" fill="#D8D8D8"/>
<path d="M46.875 372.883C46.9257 372.089 46.8132 371.294 46.5445 370.546C46.2759 369.798 45.8567 369.113 45.3129 368.534C44.7691 367.954 44.1122 367.492 43.3829 367.176C42.6535 366.86 41.8671 366.697 41.0723 366.697C40.2775 366.697 39.4911 366.86 38.7618 367.176C38.0324 367.492 37.3755 367.954 36.8317 368.534C36.288 369.113 35.8688 369.798 35.6001 370.546C35.3314 371.294 35.219 372.089 35.2697 372.883V385.068C35.219 385.861 35.3314 386.657 35.6001 387.405C35.8688 388.153 36.288 388.838 36.8317 389.417C37.3755 389.997 38.0324 390.459 38.7618 390.775C39.4911 391.091 40.2775 391.254 41.0723 391.254C41.8671 391.254 42.6535 391.091 43.3829 390.775C44.1122 390.459 44.7691 389.997 45.3129 389.417C45.8567 388.838 46.2759 388.153 46.5445 387.405C46.8132 386.657 46.9257 385.861 46.875 385.068V372.883Z" fill="#D8D8D8"/>
<path d="M40.1539 463.136V463.834H38.0775V469.238H37.2328V463.834H35.1328V463.136H40.1539Z" fill="#D8D8D8"/>
<path d="M40.5938 463.136H41.9201L43.7556 468.129H43.7793L45.5635 463.136H46.8662V469.242H45.9977V464.221H45.9504L44.0911 469.242H43.3017L41.4898 464.221H41.4425V469.242H40.5977L40.5938 463.136Z" fill="#D8D8D8"/>
<path d="M91.0391 388.182V335.84H98.4246L115.315 362.386C118.787 367.828 121.907 373.487 124.655 379.328H124.801C124.197 372.329 124.012 365.958 124.012 357.803V335.84H130.383V388.182H123.554L106.947 361.656C103.378 356.033 100.155 350.199 97.2956 344.185H97.0548C97.4496 350.796 97.6114 357.069 97.6114 365.895V388.265L91.0391 388.182Z" fill="#217DA7"/>
<path d="M145.701 370.617C145.551 372.354 145.78 374.103 146.372 375.743C146.964 377.384 147.906 378.876 149.13 380.117C150.355 381.358 151.835 382.319 153.468 382.932C155.1 383.546 156.846 383.798 158.585 383.671C162.158 383.783 165.714 383.125 169.01 381.74L170.167 386.568C166.217 388.246 161.956 389.068 157.665 388.98C146.084 388.98 139.18 381.354 139.18 370.032C139.18 358.711 145.863 349.763 156.797 349.763C169.081 349.763 172.338 360.551 172.338 367.451C172.334 368.517 172.253 369.582 172.097 370.636L145.701 370.617ZM165.73 365.789C165.73 361.423 163.946 354.665 156.256 354.665C149.332 354.665 146.313 361.036 145.76 365.789H165.73Z" fill="#217DA7"/>
<path d="M189.033 339.8V350.588H198.684V355.72H189.033V375.997C189.033 380.655 190.335 383.237 194.164 383.237C195.494 383.25 196.82 383.096 198.112 382.779L198.423 387.91C196.482 388.601 194.428 388.919 192.368 388.85C191.011 388.944 189.65 388.747 188.375 388.27C187.101 387.793 185.944 387.049 184.983 386.087C182.913 383.264 181.975 379.769 182.354 376.289V355.727H176.531V350.596H182.346V341.584L189.033 339.8Z" fill="#217DA7"/>
<path d="M209.905 350.588L214.874 369.701C215.96 373.901 216.974 377.762 217.673 381.646H217.914C218.759 377.857 220.014 373.803 221.246 369.772L227.376 350.466H233.238L239.052 369.263C240.454 373.775 241.464 377.734 242.384 381.524H242.625C243.36 377.452 244.318 373.424 245.494 369.457L250.851 350.584H257.609L245.542 388.179H239.34L233.419 370.203C232.099 366.152 230.987 362.036 230.088 357.871H229.942C229.036 362.075 227.892 366.224 226.515 370.297L220.46 388.155H214.259L202.93 350.561L209.905 350.588Z" fill="#217DA7"/>
<path d="M297.574 369.073C297.796 371.644 297.475 374.232 296.631 376.67C295.787 379.108 294.438 381.341 292.674 383.224C290.91 385.106 288.769 386.596 286.391 387.597C284.013 388.598 281.451 389.086 278.871 389.031C268.687 389.031 260.844 381.575 260.844 369.725C260.844 357.129 269.074 349.767 279.499 349.767C290.295 349.743 297.574 357.586 297.574 369.073ZM267.771 369.468C267.771 377.698 272.599 383.947 279.187 383.947C285.775 383.947 290.603 377.793 290.603 369.342C290.603 362.971 287.418 354.863 279.333 354.863C271.249 354.863 267.775 362.315 267.775 369.456L267.771 369.468Z" fill="#217DA7"/>
<path d="M306.187 362.296C306.187 357.878 306.187 354.065 305.898 350.568H311.859L312.1 357.953H312.412C313.057 355.659 314.413 353.628 316.286 352.152C318.158 350.677 320.451 349.833 322.833 349.743C323.497 349.734 324.16 349.807 324.806 349.96V356.402C324.013 356.241 323.204 356.169 322.395 356.185C320.061 356.278 317.842 357.219 316.154 358.831C314.466 360.444 313.424 362.618 313.225 364.944C313.039 365.996 312.934 367.062 312.913 368.13V388.183H306.155L306.187 362.296Z" fill="#217DA7"/>
<path d="M338.68 367.778H338.826C339.765 366.475 341.068 364.833 342.157 363.531L353.186 350.548H361.417L346.938 366.017L363.564 388.17H355.275L342.173 370.194L338.68 374.094V388.233H331.93V333.041H338.68V367.778Z" fill="#217DA7"/>
<path d="M377.253 340.008C377.173 341.077 376.693 342.076 375.907 342.805C375.122 343.534 374.089 343.939 373.018 343.939C371.946 343.939 370.914 343.534 370.129 342.805C369.343 342.076 368.862 341.077 368.782 340.008C368.769 339.444 368.871 338.883 369.081 338.359C369.291 337.835 369.605 337.359 370.004 336.959C370.404 336.56 370.88 336.246 371.404 336.036C371.928 335.826 372.489 335.724 373.053 335.737C373.616 335.72 374.176 335.819 374.698 336.028C375.22 336.238 375.693 336.553 376.088 336.954C376.482 337.355 376.79 337.834 376.99 338.359C377.191 338.885 377.28 339.446 377.253 340.008ZM369.651 388.277V350.583H376.48V388.166L369.651 388.277Z" fill="#217DA7"/>
<path d="M387.788 360.768C387.788 356.884 387.788 353.698 387.5 350.584H393.555L393.95 356.809H394.096C395.326 354.609 397.133 352.788 399.324 351.542C401.514 350.296 404.003 349.672 406.522 349.739C411.733 349.739 419.794 352.826 419.794 365.738V388.179H412.965V366.468C412.965 360.413 410.722 355.368 404.28 355.368C402.205 355.39 400.192 356.081 398.541 357.337C396.889 358.594 395.686 360.349 395.111 362.343C394.785 363.373 394.63 364.449 394.653 365.529V388.139H387.788V360.768Z" fill="#217DA7"/>
<path d="M463.284 350.583C463.138 353.311 462.968 356.327 462.968 360.91V382.62C462.968 391.261 461.279 396.519 457.612 399.803C453.775 402.944 448.906 404.544 443.954 404.291C439.581 404.406 435.26 403.329 431.452 401.177L433.166 395.99C436.484 398.032 440.298 399.125 444.195 399.148C451.17 399.148 456.262 395.505 456.262 386.019V381.736H456.092C454.83 383.742 453.061 385.378 450.964 386.48C448.866 387.581 446.514 388.109 444.147 388.009C434.831 388.009 428.148 380.094 428.148 369.693C428.148 356.951 436.438 349.735 445.039 349.735C447.412 349.588 449.778 350.123 451.856 351.278C453.934 352.433 455.638 354.159 456.767 356.252H456.937L457.249 350.579L463.284 350.583ZM456.214 365.374C456.253 364.322 456.12 363.27 455.82 362.26C455.254 360.169 454.012 358.325 452.287 357.015C450.563 355.705 448.452 355.004 446.287 355.02C439.746 355.02 435.088 360.523 435.088 369.231C435.088 376.593 438.83 382.743 446.188 382.743C448.304 382.727 450.361 382.041 452.063 380.783C453.765 379.526 455.025 377.762 455.662 375.744C456.026 374.564 456.204 373.335 456.191 372.101L456.214 365.374Z" fill="#217DA7"/>
<path d="M99.4967 453.093L94.0572 469.554H87.0703L104.853 417.235H113.005L130.863 469.554H123.623L118.049 453.097L99.4967 453.093ZM116.656 447.808L111.524 432.749C110.368 429.346 109.594 426.231 108.82 423.097H108.662C107.873 426.212 107.044 429.413 106.034 432.571L100.902 447.701L116.656 447.808Z" fill="#217DA7"/>
<path d="M164.189 468.18C160.795 469.684 157.112 470.425 153.401 470.351C150.858 470.476 148.318 470.058 145.95 469.124C143.583 468.19 141.441 466.762 139.669 464.935C137.897 463.108 136.534 460.924 135.673 458.528C134.812 456.133 134.471 453.582 134.674 451.044C134.548 448.369 134.985 445.697 135.959 443.202C136.933 440.708 138.42 438.446 140.325 436.563C142.23 434.681 144.51 433.221 147.016 432.277C149.523 431.333 152.2 430.928 154.873 431.086C158.131 431.059 161.359 431.717 164.347 433.017L162.768 438.302C160.331 437.025 157.602 436.409 154.853 436.518C153.018 436.476 151.194 436.822 149.502 437.534C147.81 438.246 146.287 439.308 145.034 440.65C143.781 441.992 142.825 443.583 142.231 445.32C141.636 447.057 141.415 448.9 141.582 450.728C141.417 452.528 141.633 454.342 142.216 456.052C142.798 457.763 143.734 459.331 144.963 460.656C146.192 461.981 147.686 463.032 149.347 463.741C151.009 464.451 152.802 464.802 154.608 464.773C157.511 464.793 160.381 464.157 163.005 462.914L164.189 468.18Z" fill="#217DA7"/>
<path d="M193.01 469.554L192.481 464.726H192.256C190.921 466.502 189.184 467.936 187.187 468.909C185.19 469.882 182.99 470.367 180.769 470.323C179.29 470.434 177.804 470.236 176.406 469.743C175.008 469.249 173.727 468.471 172.645 467.457C171.563 466.443 170.703 465.215 170.12 463.851C169.537 462.488 169.244 461.018 169.258 459.535C169.258 450.456 177.343 445.467 191.869 445.538V444.748C192.018 443.585 191.902 442.402 191.528 441.29C191.153 440.179 190.531 439.166 189.709 438.33C188.886 437.493 187.884 436.855 186.779 436.462C185.673 436.07 184.493 435.934 183.327 436.064C179.865 436.075 176.474 437.043 173.529 438.863L171.986 434.351C175.712 432.107 179.992 430.953 184.341 431.019C195.828 431.019 198.627 438.863 198.627 446.39V460.435C198.576 463.447 198.778 466.457 199.231 469.435L193.01 469.554ZM191.995 450.393C184.539 450.223 176.068 451.55 176.068 458.84C175.994 459.716 176.112 460.597 176.414 461.422C176.715 462.247 177.192 462.997 177.812 463.619C178.432 464.242 179.18 464.721 180.004 465.026C180.829 465.33 181.709 465.451 182.585 465.381C184.573 465.429 186.524 464.843 188.156 463.707C189.789 462.572 191.017 460.946 191.664 459.065C191.911 458.368 192.044 457.635 192.058 456.894L191.995 450.393Z" fill="#217DA7"/>
<path d="M242.077 414.436V459.851C242.008 463.071 242.113 466.293 242.389 469.502H236.235L235.924 462.985H235.789C234.565 465.297 232.713 467.217 230.447 468.523C228.18 469.83 225.59 470.47 222.976 470.37C213.897 470.37 206.906 462.673 206.906 451.257C206.906 438.756 214.604 431.082 223.797 431.082C226.029 430.947 228.256 431.41 230.248 432.424C232.241 433.438 233.926 434.966 235.13 436.849H235.3V414.389L242.077 414.436ZM235.248 447.278C235.252 446.313 235.147 445.35 234.937 444.409C234.445 442.159 233.198 440.147 231.402 438.706C229.606 437.266 227.37 436.485 225.068 436.494C217.998 436.494 213.798 442.695 213.798 450.973C213.798 458.599 217.541 464.872 224.922 464.872C227.27 464.866 229.544 464.056 231.367 462.576C233.189 461.096 234.449 459.036 234.937 456.74C235.155 455.766 235.26 454.77 235.248 453.772V447.278Z" fill="#217DA7"/>
<path d="M257.216 452.012C257.067 453.749 257.296 455.498 257.888 457.138C258.48 458.779 259.421 460.271 260.646 461.512C261.871 462.753 263.351 463.714 264.983 464.327C266.615 464.941 268.361 465.193 270.101 465.066C273.677 465.165 277.233 464.492 280.526 463.092L281.682 467.92C277.732 469.597 273.472 470.419 269.181 470.331C257.599 470.331 250.695 462.705 250.695 451.364C250.695 440.023 257.378 431.118 268.312 431.118C280.597 431.118 283.853 441.906 283.853 448.806C283.849 449.873 283.769 450.937 283.612 451.992L257.216 452.012ZM277.245 447.184C277.245 442.842 275.461 436.084 267.772 436.084C260.844 436.084 257.828 442.455 257.276 447.184H277.245Z" fill="#217DA7"/>
<path d="M292.312 442.162C292.312 438.278 292.312 435.093 292 431.978H297.984L298.272 438.045H298.513C299.642 435.91 301.344 434.132 303.429 432.913C305.514 431.694 307.898 431.082 310.312 431.145C312.656 431.114 314.949 431.825 316.864 433.178C318.778 434.53 320.216 436.453 320.97 438.673H321.14C322.179 436.789 323.602 435.145 325.316 433.845C327.699 432.025 330.644 431.095 333.641 431.216C338.587 431.216 345.973 434.473 345.973 447.503V469.624H339.29V448.308C339.29 441.069 336.661 436.727 331.158 436.727C329.332 436.8 327.574 437.438 326.126 438.553C324.678 439.668 323.611 441.205 323.074 442.952C322.711 444.05 322.523 445.198 322.517 446.354V469.569H315.842V447.069C315.842 441.108 313.19 436.742 307.999 436.742C306.051 436.856 304.188 437.576 302.669 438.8C301.151 440.025 300.052 441.693 299.528 443.571C299.145 444.648 298.956 445.784 298.971 446.927V469.585H292.312V442.162Z" fill="#217DA7"/>
<path d="M358.558 431.982L366.788 454.183C367.633 456.594 368.573 459.638 369.2 461.88H369.37C370.069 459.634 370.842 456.748 371.782 454.036L379.239 431.979H386.47L376.207 458.765C371.379 471.65 367.977 478.266 363.323 482.292C360.958 484.477 358.064 486.008 354.927 486.733L353.237 480.989C355.418 480.257 357.44 479.118 359.198 477.634C361.688 475.591 363.656 472.985 364.941 470.031C365.221 469.521 365.41 468.965 365.498 468.389C365.44 467.774 365.285 467.172 365.04 466.605L351.102 431.982H358.558Z" fill="#217DA7"/>
</mask>
<g mask="url(#mask1_1598_17)">
<rect x="87.1328" y="329.155" width="374.963" height="77.8405" fill="white"/>
</g>
<mask id="mask2_1598_17" style="mask-type:alpha" maskUnits="userSpaceOnUse" x="-186" y="319" width="685" height="159">
<path d="M33.3968 424.298C30.9685 424.264 28.585 424.954 26.5499 426.279C24.5147 427.604 22.9199 429.505 21.9685 431.739C21.017 433.974 20.7519 436.441 21.207 438.826C21.662 441.212 22.8167 443.408 24.5238 445.135C26.231 446.863 28.4135 448.043 30.7936 448.526C33.1737 449.009 35.6437 448.773 37.8891 447.847C40.1345 446.922 42.0539 445.35 43.4028 443.33C44.7517 441.311 45.4692 438.935 45.464 436.507C45.4828 434.91 45.1845 433.326 44.5865 431.845C43.9885 430.365 43.1026 429.018 41.9802 427.882C40.8578 426.746 39.5212 425.845 38.0478 425.23C36.5744 424.614 34.9935 424.297 33.3968 424.298ZM57.9377 436.507C58.0192 441.377 56.6494 446.162 54.0029 450.251C51.3563 454.34 47.5526 457.55 43.0762 459.47C38.5997 461.391 33.653 461.936 28.8658 461.036C24.0786 460.136 19.6675 457.831 16.1942 454.416C12.7209 451.001 10.3425 446.629 9.36187 441.858C8.3812 437.087 8.84264 432.132 10.6874 427.623C12.5322 423.115 15.6768 419.258 19.7209 416.543C23.7651 413.827 28.5258 412.377 33.3968 412.377C36.6105 412.282 39.8101 412.839 42.8032 414.012C45.7963 415.186 48.5211 416.954 50.8136 419.208C53.1061 421.462 54.919 424.157 56.1433 427.129C57.3676 430.102 57.9779 433.292 57.9377 436.507Z" fill="#D8D8D8"/>
<path d="M18.1015 325.484C18.0073 324.009 17.3549 322.625 16.2771 321.614C15.1992 320.603 13.7768 320.04 12.2989 320.04C10.821 320.04 9.39856 320.603 8.32071 321.614C7.24287 322.625 6.59049 324.009 6.49622 325.484V387.26C6.44552 388.053 6.55798 388.849 6.82665 389.597C7.09532 390.345 7.51451 391.03 8.05831 391.609C8.60211 392.189 9.25897 392.651 9.98833 392.967C10.7177 393.283 11.5041 393.446 12.2989 393.446C13.0937 393.446 13.8801 393.283 14.6094 392.967C15.3388 392.651 15.9957 392.189 16.5395 391.609C17.0833 391.03 17.5024 390.345 17.7711 389.597C18.0398 388.849 18.1522 388.053 18.1015 387.26V325.484Z" fill="#D8D8D8"/>
<path d="M50.0863 347.367C49.9997 345.88 49.348 344.482 48.2644 343.46C47.1809 342.438 45.7476 341.868 44.258 341.868C42.7684 341.868 41.335 342.438 40.2515 343.46C39.168 344.482 38.5163 345.88 38.4297 347.367V375.575C38.5163 377.062 39.168 378.46 40.2515 379.482C41.335 380.504 42.7684 381.074 44.258 381.074C45.7476 381.074 47.1809 380.504 48.2644 379.482C49.348 378.46 49.9997 377.062 50.0863 375.575V347.367Z" fill="#D8D8D8"/>
<path d="M82 363.39C82.0507 362.596 81.9382 361.801 81.6695 361.053C81.4009 360.305 80.9817 359.62 80.4379 359.04C79.8941 358.461 79.2372 357.999 78.5079 357.683C77.7785 357.367 76.9921 357.204 76.1973 357.204C75.4025 357.204 74.6161 357.367 73.8868 357.683C73.1574 357.999 72.5005 358.461 71.9567 359.04C71.413 359.62 70.9938 360.305 70.7251 361.053C70.4564 361.801 70.344 362.596 70.3947 363.39V375.575C70.344 376.368 70.4564 377.163 70.7251 377.911C70.9938 378.659 71.413 379.344 71.9567 379.924C72.5005 380.504 73.1574 380.966 73.8868 381.282C74.6161 381.598 75.4025 381.76 76.1973 381.76C76.9921 381.76 77.7785 381.598 78.5079 381.282C79.2372 380.966 79.8941 380.504 80.4379 379.924C80.9817 379.344 81.4009 378.659 81.6695 377.911C81.9382 377.163 82.0507 376.368 82 375.575V363.39Z" fill="#D8D8D8"/>
<path d="M75.2789 453.643V454.341H73.2025V459.745H72.3578V454.341H70.2578V453.643H75.2789Z" fill="#D8D8D8"/>
<path d="M75.7188 453.643H77.0451L78.8806 458.636H78.9043L80.6885 453.643H81.9912V459.749H81.1227V454.728H81.0754L79.2161 459.749H78.4267L76.6148 454.728H76.5675V459.749H75.7227L75.7188 453.643Z" fill="#D8D8D8"/>
<path d="M126.164 378.69V326.348H133.55L150.44 352.894C153.912 358.336 157.032 363.995 159.78 369.836H159.926C159.322 362.837 159.137 356.466 159.137 348.311V326.348H165.508V378.69H158.679L142.072 352.164C138.503 346.541 135.28 340.707 132.421 334.692H132.18C132.575 341.304 132.736 347.577 132.736 356.403V378.773L126.164 378.69Z" fill="#217DA7"/>
<path d="M180.826 361.124C180.676 362.861 180.905 364.61 181.497 366.25C182.089 367.891 183.031 369.383 184.255 370.624C185.48 371.865 186.96 372.825 188.593 373.439C190.225 374.053 191.971 374.304 193.71 374.178C197.283 374.29 200.839 373.632 204.135 372.247L205.292 377.075C201.342 378.752 197.081 379.574 192.79 379.487C181.209 379.487 174.305 371.86 174.305 360.539C174.305 349.218 180.988 340.27 191.922 340.27C204.206 340.27 207.463 351.058 207.463 357.958C207.459 359.024 207.378 360.089 207.222 361.143L180.826 361.124ZM200.855 356.296C200.855 351.93 199.071 345.172 191.381 345.172C184.457 345.172 181.438 351.543 180.885 356.296H200.855Z" fill="#217DA7"/>
<path d="M224.158 330.307V341.095H233.809V346.226H224.158V366.504C224.158 371.162 225.46 373.744 229.289 373.744C230.619 373.757 231.945 373.603 233.237 373.286L233.548 378.417C231.607 379.107 229.553 379.426 227.493 379.357C226.136 379.451 224.775 379.254 223.5 378.777C222.226 378.3 221.069 377.556 220.108 376.594C218.038 373.771 217.1 370.276 217.479 366.796V346.234H211.656V341.103H217.471V332.091L224.158 330.307Z" fill="#217DA7"/>
<path d="M245.03 341.095L249.999 360.208C251.085 364.408 252.099 368.269 252.798 372.153H253.039C253.884 368.364 255.139 364.31 256.371 360.279L262.501 340.973H268.363L274.177 359.77C275.579 364.282 276.589 368.241 277.509 372.031H277.75C278.485 367.959 279.443 363.93 280.619 359.964L285.976 341.091H292.734L280.667 378.686H274.465L268.544 360.71C267.224 356.659 266.112 352.543 265.213 348.378H265.067C264.161 352.582 263.017 356.73 261.64 360.804L255.585 378.662H249.384L238.055 341.067L245.03 341.095Z" fill="#217DA7"/>
<path d="M332.699 359.58C332.921 362.151 332.6 364.739 331.756 367.177C330.912 369.615 329.563 371.848 327.799 373.731C326.035 375.613 323.894 377.103 321.516 378.104C319.138 379.104 316.576 379.593 313.996 379.538C303.812 379.538 295.969 372.081 295.969 360.231C295.969 347.635 304.199 340.273 314.624 340.273C325.42 340.25 332.699 348.093 332.699 359.58ZM302.896 359.975C302.896 368.205 307.724 374.454 314.312 374.454C320.9 374.454 325.728 368.3 325.728 359.849C325.728 353.477 322.543 345.37 314.458 345.37C306.374 345.37 302.9 352.822 302.9 359.963L302.896 359.975Z" fill="#217DA7"/>
<path d="M341.304 352.803C341.304 348.386 341.304 344.573 341.016 341.076H346.976L347.217 348.461H347.529C348.174 346.166 349.531 344.135 351.403 342.66C353.276 341.185 355.568 340.341 357.95 340.251C358.614 340.242 359.277 340.315 359.924 340.468V346.91C359.13 346.749 358.321 346.676 357.512 346.693C355.179 346.785 352.96 347.726 351.271 349.339C349.583 350.952 348.541 353.126 348.342 355.452C348.156 356.504 348.052 357.569 348.03 358.638V378.69H341.272L341.304 352.803Z" fill="#217DA7"/>
<path d="M373.797 358.286H373.943C374.882 356.983 376.185 355.341 377.275 354.038L388.304 341.055H396.534L382.055 356.525L398.681 378.678H390.392L377.29 360.702L373.797 364.602V378.741H367.047V323.549H373.797V358.286Z" fill="#217DA7"/>
<path d="M412.378 330.516C412.298 331.585 411.818 332.584 411.032 333.313C410.247 334.042 409.214 334.447 408.143 334.447C407.071 334.447 406.039 334.042 405.254 333.313C404.468 332.584 403.987 331.585 403.907 330.516C403.894 329.952 403.996 329.391 404.206 328.867C404.416 328.342 404.73 327.866 405.129 327.467C405.529 327.068 406.005 326.754 406.529 326.544C407.053 326.334 407.614 326.232 408.178 326.245C408.741 326.228 409.301 326.327 409.823 326.536C410.345 326.745 410.818 327.061 411.213 327.462C411.607 327.863 411.915 328.341 412.115 328.867C412.316 329.393 412.405 329.954 412.378 330.516ZM404.776 378.785V341.091H411.605V378.674L404.776 378.785Z" fill="#217DA7"/>
<path d="M422.905 351.275C422.905 347.391 422.905 344.205 422.617 341.091H428.672L429.067 347.316H429.213C430.443 345.116 432.251 343.295 434.441 342.049C436.631 340.803 439.121 340.179 441.64 340.246C446.85 340.246 454.911 343.333 454.911 356.245V378.686H448.082V356.975C448.082 350.92 445.84 345.875 439.398 345.875C437.322 345.897 435.309 346.588 433.658 347.844C432.006 349.101 430.803 350.856 430.228 352.85C429.902 353.88 429.747 354.956 429.77 356.036V378.646H422.905V351.275Z" fill="#217DA7"/>
<path d="M498.409 341.091C498.263 343.819 498.093 346.835 498.093 351.418V373.128C498.093 381.769 496.404 387.027 492.737 390.311C488.9 393.452 484.031 395.052 479.079 394.799C474.706 394.913 470.385 393.837 466.577 391.685L468.291 386.498C471.609 388.54 475.423 389.633 479.32 389.656C486.295 389.656 491.387 386.012 491.387 376.527V372.244H491.217C489.955 374.249 488.186 375.886 486.089 376.987C483.991 378.089 481.639 378.616 479.272 378.516C469.956 378.516 463.273 370.602 463.273 360.201C463.273 347.458 471.563 340.243 480.164 340.243C482.537 340.096 484.903 340.631 486.981 341.786C489.059 342.941 490.763 344.667 491.892 346.76H492.062L492.374 341.087L498.409 341.091ZM491.339 355.882C491.378 354.829 491.245 353.777 490.945 352.768C490.379 350.677 489.137 348.833 487.412 347.523C485.688 346.213 483.577 345.511 481.412 345.528C474.871 345.528 470.213 351.031 470.213 359.739C470.213 367.101 473.955 373.251 481.313 373.251C483.429 373.234 485.486 372.549 487.188 371.291C488.89 370.034 490.15 368.27 490.787 366.252C491.151 365.072 491.329 363.843 491.316 362.608L491.339 355.882Z" fill="#217DA7"/>
<path d="M134.622 443.6L129.182 460.061H122.195L139.978 407.742H148.13L165.988 460.061H158.748L153.174 443.604L134.622 443.6ZM151.781 438.315L146.649 423.255C145.493 419.853 144.719 416.738 143.945 413.604H143.787C142.998 416.719 142.169 419.92 141.159 423.078L136.027 438.208L151.781 438.315Z" fill="#217DA7"/>
<path d="M199.314 458.688C195.92 460.191 192.237 460.932 188.526 460.859C185.983 460.984 183.443 460.566 181.075 459.632C178.708 458.698 176.566 457.27 174.794 455.443C173.022 453.615 171.659 451.431 170.798 449.036C169.937 446.641 169.596 444.089 169.799 441.552C169.673 438.877 170.11 436.205 171.084 433.71C172.058 431.215 173.545 428.953 175.45 427.071C177.355 425.189 179.635 423.728 182.141 422.785C184.648 421.841 187.325 421.435 189.998 421.594C193.256 421.567 196.484 422.224 199.472 423.524L197.893 428.81C195.456 427.532 192.727 426.917 189.978 427.026C188.143 426.984 186.319 427.33 184.627 428.042C182.935 428.754 181.412 429.816 180.159 431.158C178.906 432.499 177.95 434.091 177.356 435.828C176.761 437.565 176.54 439.408 176.707 441.236C176.542 443.036 176.758 444.85 177.341 446.56C177.923 448.27 178.859 449.839 180.088 451.164C181.317 452.489 182.811 453.54 184.472 454.249C186.134 454.959 187.927 455.31 189.733 455.281C192.636 455.3 195.506 454.665 198.13 453.422L199.314 458.688Z" fill="#217DA7"/>
<path d="M228.127 460.061L227.598 455.234H227.373C226.039 457.01 224.301 458.444 222.304 459.417C220.307 460.39 218.107 460.875 215.886 460.831C214.407 460.942 212.922 460.744 211.523 460.25C210.125 459.757 208.844 458.979 207.762 457.964C206.68 456.95 205.82 455.723 205.237 454.359C204.655 452.996 204.361 451.526 204.376 450.043C204.376 440.964 212.46 435.975 226.986 436.046V435.256C227.136 434.093 227.019 432.91 226.645 431.798C226.271 430.686 225.649 429.674 224.826 428.838C224.003 428.001 223.001 427.363 221.896 426.97C220.79 426.578 219.61 426.442 218.444 426.572C214.982 426.583 211.591 427.551 208.647 429.371L207.103 424.859C210.829 422.615 215.11 421.461 219.458 421.527C230.945 421.527 233.744 429.371 233.744 436.898V450.943C233.693 453.955 233.895 456.965 234.348 459.943L228.127 460.061ZM227.112 440.901C219.656 440.731 211.185 442.057 211.185 449.348C211.112 450.224 211.23 451.105 211.531 451.93C211.832 452.755 212.309 453.505 212.929 454.127C213.55 454.749 214.298 455.229 215.122 455.534C215.946 455.838 216.826 455.959 217.702 455.889C219.69 455.937 221.641 455.35 223.274 454.215C224.906 453.079 226.134 451.454 226.781 449.573C227.028 448.876 227.162 448.142 227.176 447.402L227.112 440.901Z" fill="#217DA7"/>
<path d="M277.21 404.944V450.358C277.141 453.579 277.245 456.801 277.522 460.01H271.368L271.056 453.493H270.922C269.698 455.805 267.846 457.725 265.579 459.031C263.313 460.338 260.723 460.978 258.109 460.878C249.03 460.878 242.039 453.181 242.039 441.765C242.039 429.264 249.736 421.59 258.93 421.59C261.161 421.455 263.389 421.918 265.381 422.932C267.373 423.946 269.059 425.473 270.263 427.357H270.433V404.896L277.21 404.944ZM270.381 437.786C270.385 436.821 270.28 435.858 270.069 434.916C269.578 432.667 268.33 430.655 266.535 429.214C264.739 427.774 262.503 426.993 260.201 427.002C253.131 427.002 248.931 433.203 248.931 441.481C248.931 449.107 252.673 455.38 260.055 455.38C262.402 455.374 264.677 454.564 266.499 453.084C268.322 451.604 269.582 449.544 270.069 447.248C270.288 446.274 270.393 445.278 270.381 444.28V437.786Z" fill="#217DA7"/>
<path d="M292.341 442.518C292.192 444.256 292.421 446.005 293.013 447.645C293.605 449.285 294.546 450.778 295.771 452.019C296.996 453.26 298.476 454.22 300.108 454.834C301.74 455.447 303.486 455.699 305.226 455.572C308.802 455.672 312.358 454.999 315.651 453.599L316.807 458.426C312.857 460.104 308.597 460.926 304.306 460.838C292.724 460.838 285.82 453.212 285.82 441.871C285.82 430.53 292.503 421.625 303.437 421.625C315.722 421.625 318.978 432.413 318.978 439.313C318.974 440.379 318.894 441.444 318.737 442.499L292.341 442.518ZM312.37 437.691C312.37 433.349 310.586 426.591 302.897 426.591C295.969 426.591 292.953 432.962 292.401 437.691H312.37Z" fill="#217DA7"/>
<path d="M327.429 432.67C327.429 428.786 327.429 425.6 327.117 422.486H333.101L333.39 428.553H333.63C334.759 426.418 336.461 424.64 338.546 423.421C340.631 422.202 343.015 421.589 345.429 421.653C347.773 421.622 350.066 422.333 351.981 423.685C353.895 425.038 355.333 426.961 356.087 429.181H356.257C357.296 427.297 358.719 425.653 360.433 424.353C362.817 422.533 365.761 421.603 368.758 421.724C373.704 421.724 381.09 424.981 381.09 438.011V460.132H374.407V438.816C374.407 431.577 371.778 427.235 366.275 427.235C364.449 427.308 362.691 427.946 361.243 429.061C359.795 430.176 358.729 431.713 358.191 433.46C357.828 434.558 357.64 435.706 357.634 436.862V460.077H350.959V437.577C350.959 431.616 348.307 427.25 343.116 427.25C341.168 427.364 339.305 428.084 337.787 429.308C336.268 430.532 335.169 432.2 334.645 434.079C334.262 435.156 334.074 436.292 334.088 437.435V460.093H327.429V432.67Z" fill="#217DA7"/>
<path d="M393.691 422.49L401.921 444.69C402.766 447.102 403.706 450.146 404.333 452.388H404.503C405.202 450.142 405.975 447.256 406.915 444.544L414.371 422.486H421.603L411.34 449.273C406.512 462.158 403.109 468.773 398.456 472.8C396.091 474.985 393.197 476.516 390.059 477.24L388.37 471.497C390.551 470.764 392.573 469.626 394.33 468.142C396.821 466.099 398.789 463.493 400.074 460.539C400.354 460.029 400.543 459.473 400.63 458.897C400.572 458.282 400.418 457.68 400.173 457.113L386.234 422.49H393.691Z" fill="#217DA7"/>
</mask>
<g mask="url(#mask2_1598_17)">
<rect x="120.359" y="407.945" width="309.463" height="69.297" fill="white"/>
</g>
</g>
<defs>
<clipPath id="clip0_1598_17">
<rect width="566" height="566" rx="87.8965" fill="white"/>
</clipPath>
</defs>
</svg>
