<svg width="566" height="566" viewBox="0 0 566 566" fill="none" xmlns="http://www.w3.org/2000/svg">
<path d="M227.222 214.89C232.644 212.011 243.017 206.936 248.992 205.52C250.002 205.28 254.85 205.395 256.212 205.423C257.097 207.146 257.823 208.932 258.584 210.714C258.769 216.639 258.725 222.85 258.618 228.794C258.247 249.326 259.164 270.156 258.658 290.655C254.408 290.704 250.158 290.71 245.908 290.672C245.696 281.719 245.895 272.273 245.944 263.273C246.006 251.91 245.85 240.311 246.025 228.975L245.976 223.681C242.29 224.876 237.692 227.458 234.068 229.1C214.698 237.881 195.542 247.068 176.182 255.889L101.172 290.241L77.7017 300.915C74.7723 302.248 68.1252 305.069 65.6259 306.596C65.3544 311.058 65.677 315.598 65.6834 320.069C65.694 328.05 65.973 336.324 65.7659 344.288C69.6918 344.256 96.4455 343.63 98.7878 344.706C100.34 347.228 99.7689 352.816 99.6752 356.02C88.4479 356.139 77.22 356.163 65.9927 356.09L66.064 388.771L152.903 388.768C162.526 388.775 173.232 389.028 182.76 388.772C202.995 388.473 223.363 388.994 243.61 388.786C248.391 388.737 253.528 388.671 258.289 388.933C258.882 392.418 258.691 397.362 258.617 400.988C246.116 401.463 230.943 401.07 218.318 401.068L141.501 401.058L84.3101 401.051C74.9193 401.053 65.3406 401.162 55.9487 401.012C54.2644 400.984 53.6586 400.546 52.4721 399.449C51.7279 398.013 51.6006 305.942 52.0148 296.593C56.9793 294.034 63.1447 291.372 68.3078 288.991L99.08 274.823C105.247 271.961 111.398 269.063 117.532 266.129C121.003 264.481 125.888 262.044 129.425 260.769C131.756 259.534 134.188 258.375 136.589 257.281C146.975 252.551 157.287 247.306 167.791 242.874C171.183 240.1 189.163 232.461 194.39 230.097C204.962 225.317 216.58 219.18 227.222 214.89Z" fill="white"/>
<path d="M129.422 260.769C131.753 259.535 134.185 258.375 136.586 257.282C146.972 252.552 157.284 247.306 167.788 242.875L167.804 243.365C164.998 244.953 161.05 246.544 158.031 247.938C158.382 249.21 158.696 250.259 158.905 251.568C161.724 250.275 164.655 249.012 167.442 247.711L167.83 247.874C165.018 249.295 135.873 263.122 134.335 262.809L136.03 261.824C138.326 260.486 140.873 261.057 142.114 259.382C142.035 257.882 141.362 258.291 140.535 256.506C137.724 256.72 130.778 261.69 129.422 260.769Z" fill="white"/>
<path d="M227.227 214.89C232.649 212.011 243.022 206.936 248.997 205.52C250.007 205.28 254.855 205.395 256.217 205.423C257.102 207.146 257.828 208.932 258.589 210.714C249.53 210.65 247.791 210.435 239.464 215.081C238.267 215.748 235.069 216.622 233.61 217.255L233.373 217.091C234.215 216.319 233.687 216.785 234.62 216.516C237.739 215.616 241.009 213.635 244.027 212.311C242.383 211.577 240.757 210.803 239.152 209.988C237.398 210.827 228.629 215.19 227.477 215.072L227.227 214.89Z" fill="white"/>
<path d="M152.903 388.768C162.526 388.775 173.232 389.027 182.76 388.771C183.391 388.952 184.04 389.017 184.438 389.41C182.285 390.172 154.119 390.321 152.445 389.319L152.903 388.768Z" fill="white"/>
<path d="M245.977 223.681L247.299 223.008C248.99 223.887 247.81 227.265 247.389 228.719L246.962 229.025L246.504 228.655L246.026 228.975L245.977 223.681Z" fill="white"/>
<path d="M176.261 122.553C177.694 122.528 183.31 122.369 184.384 122.66C188.27 123.713 192.847 125.581 196.692 127.026L220.212 135.882C222.56 136.768 239.348 142.963 240.564 143.718C243.322 144.523 246.517 145.725 249.198 146.828C255.964 149.611 263.244 151.867 269.943 154.725C281.114 158.702 292.569 163.603 303.847 167.861L400.422 204.38L457.027 225.752C466.268 229.219 479.885 233.857 488.674 237.825C491.144 238.476 496.073 240.754 498.772 241.814C503.957 243.853 509.663 245.761 514.688 248.05L514.593 278.319C514.566 291.827 515.215 290.834 501.918 290.551C501.646 279.668 501.763 268.123 501.785 257.199C483.494 250.477 465.781 243.362 447.667 236.46L350.319 199.747L240.721 158.097C224.032 151.711 206.698 145.524 190.192 138.843C189.676 158.749 190.536 179.547 190.205 199.523C190.087 206.598 190.501 214.813 190.161 221.753C188.983 223.2 188.212 224.228 186.775 225.455C184.126 226.876 179.097 229.234 176.282 230.107C176.078 218.295 176.244 206.052 176.232 194.186L176.187 126.407L176.261 122.553Z" fill="white"/>
<path d="M176.269 122.553C177.702 122.528 183.318 122.369 184.392 122.66C188.278 123.713 192.855 125.581 196.7 127.026L220.219 135.882C222.567 136.768 239.356 142.963 240.572 143.718C243.329 144.523 246.525 145.725 249.206 146.828C255.972 149.611 263.252 151.867 269.951 154.725C281.122 158.702 292.577 163.603 303.855 167.861L400.43 204.38L457.035 225.752C466.276 229.219 479.893 233.857 488.681 237.825C486.281 238.132 454.888 225.364 449.309 223.592C450.325 225.726 450.983 226.68 453.293 227.412C457.737 228.822 462.503 230.768 466.819 232.494L466.645 232.709C450.237 226.234 432.642 220.03 416.044 213.786L290.635 166.649C283.624 164.009 276.887 161.039 270.027 158.429L209.106 135.789C203.845 133.888 198.606 131.933 193.386 129.922C184.625 126.551 185.649 126.225 176.195 126.407L176.269 122.553Z" fill="white"/>
<path d="M240.565 143.719C243.322 144.523 246.518 145.726 249.199 146.829C255.965 149.612 263.245 151.868 269.943 154.725L269.559 154.95C268.074 154.955 263.545 152.569 261.876 152.242C259.885 151.696 250.53 151.097 249.024 149.673C245.26 146.109 246.192 146.548 240.973 144.337L240.484 144.141L240.565 143.719Z" fill="white"/>
<path d="M186.899 137.827L190.199 138.843C189.682 158.749 190.542 179.547 190.211 199.523C190.093 206.598 190.507 214.813 190.167 221.753C188.989 223.2 188.218 224.228 186.781 225.455C186.349 196.72 186.822 166.662 186.899 137.827Z" fill="white"/>
<path d="M108.961 305.019L109.715 305.002C114.649 304.93 121.317 305.241 125.98 304.988C148.662 303.759 169.402 309.552 169.296 336.194C169.257 345.929 167.721 352.435 160.551 359.727C151.038 368.199 140.117 367.808 128.145 367.801L111.432 367.775L108.793 366.03L108.743 326.131C108.736 320.564 108.448 310.277 108.961 305.019Z" fill="white"/>
<path d="M402.519 304.998C413.811 304.647 425.789 304.938 437.061 305.115C452.271 305.353 460.236 318.255 454.666 332.145C452.649 337.176 447.909 339.782 443.15 341.658C447.898 348.641 455.222 359.342 459.243 366.503C455.304 366.788 451.676 366.706 447.734 366.662C443.44 359.892 436.783 348.976 432.117 342.796L413.15 342.821L413.139 366.682C409.591 366.7 406.044 366.691 402.497 366.654C402.136 347.164 402.151 324.475 402.519 304.998Z" fill="white"/>
<path d="M356.73 305.001C360.867 304.952 365.003 304.967 369.14 305.044C371.816 309.89 374.44 316.263 376.534 321.435C382.611 336.445 390.928 351.502 396.595 366.563C392.787 366.787 389.216 366.708 385.409 366.658C382.897 361.037 380.442 355.391 378.043 349.72L369.364 349.753L347.923 349.776C345.523 355.357 343.078 361.21 340.457 366.666C336.71 366.785 332.96 366.725 329.219 366.486C333.007 356.638 339.49 343.926 343.775 333.84C347.148 325.899 352.822 312.03 356.73 305.001Z" fill="white"/>
<path d="M463.779 305.007C478.416 304.502 496.137 304.968 511.01 304.958L511.031 314.169L474.427 314.208C474.472 319.678 474.445 325.148 474.349 330.618L508.253 330.604C508.444 333.624 508.37 336.526 508.333 339.545C498.745 339.612 489.158 339.629 479.566 339.593L474.444 339.632C474.567 345.552 474.567 351.473 474.445 357.394L511.111 357.422C511.223 360.56 511.17 363.569 511.122 366.703C495.871 366.865 479.023 366.91 463.84 366.626C463.701 363.454 463.702 360.165 463.737 356.987C463.93 339.704 463.369 322.273 463.779 305.007Z" fill="white"/>
<path d="M176.283 265.265C177.983 262.189 186.223 258.566 189.62 257.199C190.003 263.448 189.808 270.836 189.811 277.188L189.85 310.476L189.893 346.028C189.899 351.953 190.108 359.482 189.808 365.321C188.153 367.558 187.472 369.188 184.432 369.03L176.27 369.046C176.014 353.286 176.149 336.467 176.294 320.672C175.851 303.1 176.186 282.92 176.283 265.265Z" fill="white"/>
<path d="M176.289 265.265C177.989 262.189 186.229 258.566 189.626 257.199C190.008 263.448 189.814 270.836 189.817 277.188L189.856 310.476L189.899 346.028C189.905 351.953 190.114 359.482 189.813 365.321C188.158 367.558 187.478 369.188 184.438 369.03L184.518 368.705C185.383 368.706 185.347 368.746 186.126 368.399C187.231 366.284 186.541 362.37 186.606 359.952C186.863 350.374 186.674 340.728 186.702 331.149C186.875 307.543 186.92 283.936 186.835 260.33C182.962 262.511 180.047 263.327 176.289 265.265Z" fill="white"/>
<path d="M299.756 304.05C308.68 304.068 316.239 305.377 323.95 310.136C322.854 312.723 321.027 316.615 319.604 318.962C318.486 318.365 317.342 317.817 316.175 317.32C308.191 313.841 297.74 312.845 289.544 316.17C284.473 318.228 280.444 322.242 278.367 327.306C276.173 332.559 276.062 340.054 278.41 345.28C284.81 359.527 302.844 360.786 315.703 355.369L319.867 353.698C320.969 355.717 324.649 361.069 322.479 362.785C317.207 366.674 310.719 367.666 304.284 368.396C272.422 372.007 254.89 339.178 274.272 314.421C279.914 307.213 290.503 304.48 299.756 304.05Z" fill="white"/>
<path d="M195.125 305.011C200.359 304.857 238.386 304.776 239.675 305.497C240.927 307.674 240.43 312.229 240.338 314.89C228.73 314.987 217.122 314.982 205.514 314.876C205.537 320.136 205.519 325.396 205.46 330.656C209.152 330.638 235.491 330.24 237.104 331.021C237.616 331.269 237.593 331.606 237.778 332.1C237.808 334.755 237.755 337.485 237.735 340.146C226.994 340.236 216.252 340.264 205.51 340.229L205.518 367.332C202.63 367.425 197.753 368.014 195.486 366.448C194.609 364.6 194.682 310.091 195.125 305.011Z" fill="white"/>
<path d="M245.95 304.814C250.117 304.491 254.467 304.599 258.656 304.621C258.639 323.855 258.897 343.3 258.67 362.501C258.671 364.484 258.71 366.562 258.625 368.536L248.438 368.66C247.233 367.221 246.896 366.81 246.025 365.163C245.697 363.676 245.712 346.761 245.796 343.993C246.172 331.485 245.269 317.115 245.95 304.814Z" fill="white"/>
<path d="M246.031 365.164C246.41 361.676 246.19 354.071 246.355 349.913C246.633 354.445 246.361 359.932 246.418 364.619L246.808 364.632L247.604 363.267C248.997 362.531 252.151 363.321 253.814 363.118C255.151 362.955 256.761 362.497 258.071 362.154C258.072 359.954 257.958 355.979 258.196 353.924L258.676 362.501C258.677 364.484 258.716 366.562 258.63 368.536L248.444 368.661C247.239 367.221 246.902 366.811 246.031 365.164Z" fill="white"/>
<path d="M246.256 324.062C246.926 325.814 246.169 326.575 247.03 327.659C247.032 326.641 246.957 325.679 247.247 324.715C248.41 327.679 248.024 335.313 247.23 338.601L246.926 335.828L246.791 335.855L246.406 338.888C245.547 336.227 246.051 327.205 246.256 324.062Z" fill="white"/>
<path d="M481.672 400.05C482.375 397.779 485.292 388.466 486.953 387.741C488.821 388.493 490.956 395.275 491.738 397.395C492.17 398.565 492.894 399.672 491.909 400.588C490.056 399.828 489.811 398.175 489.236 396.429L484.978 396.415L483.439 400.745L479.532 400.672C478.452 398.465 477.829 397.04 476.338 395.084L475.609 395.082C475.231 395.666 474.605 399.486 474.424 400.466C473.624 400.872 474.048 400.754 473.098 400.64C472.325 399.567 472.682 389.552 472.695 387.432C475.22 387.383 477.669 387.1 479.75 388.772C482.178 390.723 480.405 393.381 478.611 394.85C479.644 396.477 480.693 398.369 481.672 400.05Z" fill="white"/>
<path d="M501.697 399.421C498.726 404.102 492.988 399.761 494.957 396.739C495.99 396.486 495.538 396.384 496.379 396.85C496.826 397.798 496.932 398.032 497.545 398.931L498.37 399.063C502.948 396.74 496.182 387.721 502.139 387.052L502.831 387.398C505.349 387.373 508.479 387.151 510.251 389.216C511.965 391.214 510.028 393.589 508.649 394.851C509.426 396.165 510.938 398.506 511.358 399.86L511.13 400.681L510.661 400.949C507.579 399.908 508.867 396.25 505.609 395.12L504.965 395.261C504.018 397.41 505.593 400.043 503.901 400.88C502.586 400.335 502.974 400.782 502.479 399.711L501.697 399.421Z" fill="white"/>
<path d="M501.697 399.421C498.726 404.102 492.988 399.761 494.957 396.739C495.99 396.486 495.538 396.384 496.379 396.85C496.826 397.798 496.932 398.032 497.545 398.931L498.37 399.063C502.948 396.74 496.182 387.721 502.139 387.052L502.831 387.398C502.836 390.836 502.99 396.472 502.479 399.711L501.697 399.421Z" fill="white"/>
<path d="M409.793 387.449C412.958 387.251 416.083 387.655 417.267 391.4C418.525 395.377 416.758 396.721 415.121 399.727C415.426 400.334 415.436 400.362 415.68 401.038L415.042 401.419C414.565 401.353 414.088 401.282 413.611 401.206C405.446 399.893 402.479 391.876 409.793 387.449Z" fill="white"/>
<path d="M344.582 387.438C347.091 387.38 350.006 387.1 351.959 388.95C354.095 390.973 352.064 393.46 350.592 394.895C351.339 396.131 353.796 399.474 353.115 400.687C351.725 400.698 351.973 400.922 351.191 400.222C350.264 398.307 349.424 396.592 348.053 394.96L347.435 394.938C346.881 396.001 346.556 399.013 346.354 400.349C345.542 400.885 345.993 400.74 344.915 400.579C344.281 399.532 344.575 389.379 344.582 387.438Z" fill="white"/>
<path d="M396.444 387.437C399 387.379 401.97 387.098 403.9 389.053C405.883 391.062 403.851 393.509 402.409 394.844C403.191 396.127 405.52 399.322 405.013 400.652C403.599 400.721 403.915 400.927 403.025 400.253C402.268 398.583 401.136 396.169 399.76 394.941L399.226 395.024C398.317 396.653 398.828 398.558 397.936 400.651C396.873 400.78 397.268 400.946 396.604 400.434C396.279 396.889 396.435 391.169 396.444 387.437Z" fill="white"/>
<path d="M276.683 387.213L278.026 387.389C280.022 388.602 283.333 394.681 284.706 396.857C284.638 394.585 283.884 388.753 285.418 387.385L286.142 387.456C287.098 388.998 286.633 398.359 286.573 400.96C286.429 400.947 285.46 400.862 285.33 400.776C283.051 399.257 280.013 393.143 278.705 390.783C278.755 393.315 279.577 399.446 277.68 400.844L277.044 400.688C276.28 399.123 276.644 389.65 276.683 387.213Z" fill="white"/>
<path d="M310.211 387.243C310.351 387.255 311.357 387.336 311.485 387.417C313.643 388.784 316.911 394.876 318.264 397.098C317.965 394.648 317.998 391.244 317.994 388.717C317.993 387.906 318.618 387.604 319.165 387.293L319.69 387.563C320.452 389.844 320.038 398.069 319.979 400.826C316.872 400.711 313.745 393.73 312.131 390.956C312.252 393.342 312.418 398.056 312.052 400.353L311.331 400.868L310.784 400.475C309.721 397.589 310.16 390.603 310.211 387.243Z" fill="white"/>
<path d="M292.711 387.476C294.789 387.275 297.397 386.914 298.851 388.672C298.023 390.678 294.671 388.815 292.014 389.948C287.755 393.935 293.204 401.981 297.057 397.459C297.241 396.371 297.22 396.449 296.731 395.448C295.146 395.008 294.538 395.029 293.614 393.802C295.343 393.083 297.057 393.249 298.937 393.251L298.947 393.548C299.178 400.349 299.597 400.988 292.402 400.691C287.055 397.08 286.741 390.653 292.711 387.476Z" fill="white"/>
<path d="M329.623 392.74C329.618 392.184 329.619 391.628 329.624 391.071C329.626 389.333 329.555 389.094 330.231 387.475L330.637 387.396C332.188 389.938 331.835 397.106 331.509 400.067C331.434 400.75 331.196 400.655 330.41 401.128C329.114 399.434 329.584 396.78 329.644 394.452L324.219 394.447C324.288 396.572 324.772 399.222 323.44 400.648L322.664 400.641L322.266 400.232C321.77 397.407 322.018 390.324 322.06 387.192C322.939 387.313 322.957 387.315 323.778 387.646C324.642 388.992 324.263 391.076 324.162 392.757L329.623 392.74Z" fill="white"/>
<path d="M337.987 386.901C339.611 388.185 343.819 399.128 343.383 400.746C340.761 400.228 341.402 397.045 338.88 396.301C337.89 396.342 337.245 396.41 336.275 396.527C335.535 397.197 335.111 399.063 334.619 400.249C333.736 400.926 334.225 400.759 333.093 400.741L332.602 400.229C332.737 398.624 336.913 388.292 337.987 386.901Z" fill="white"/>
<path d="M362.976 386.901C365.039 388.319 368.245 397.751 368.507 400.342L368.158 400.67L367.26 400.581C365.526 399.213 366.701 397.004 364.279 396.367C363.615 396.361 362.832 396.33 362.17 396.384C359.403 396.606 361.237 400.946 358.237 400.733L357.828 400.244C358.105 398.18 361.842 388.605 362.976 386.901Z" fill="white"/>
<path d="M389.576 387.198C390.079 387.362 390.445 387.471 390.762 387.944C391.787 389.475 395.468 399.147 395.404 400.376C394.599 400.961 395.048 400.834 393.99 400.68C392.296 399.125 393.501 397.16 391.227 396.376C384.907 396.392 388.855 397.928 386.102 400.599C384.981 400.757 385.413 400.922 384.672 400.372C384.619 398.442 388.481 389.182 389.576 387.198Z" fill="white"/>
<path d="M418.824 387.167C418.956 387.191 419.408 387.247 419.564 387.302C423.126 388.563 417.861 398.581 423.249 398.696C428.817 398.815 424.709 389.736 426.946 387.274C427.889 387.388 427.431 387.272 428.29 387.945L428.408 388.993C428.478 392.784 428.909 396.926 426.266 400.024C423.698 403.036 420.477 399.895 418.816 397.705C418.663 394.194 418.666 390.678 418.824 387.167Z" fill="white"/>
<path d="M461.794 387.168L462.906 387.372C464.869 389.004 462.178 399.282 466.13 398.886C472.247 398.272 467.656 390.144 469.956 387.272L470.523 387.233C471.544 388.164 471.257 387.601 471.397 388.993C471.439 391.769 471.924 396.541 470.388 398.82C468.957 400.944 465.202 401.67 463.383 399.679C460.831 396.886 461.649 390.808 461.794 387.168Z" fill="white"/>
<path d="M301.062 387.445C303.126 387.408 307.236 386.841 308.499 388.338L308.227 389.03C306.805 389.867 305.582 388.929 303.503 389.471C303.042 390.461 303.116 391.538 303.053 392.682C304.696 392.681 306.705 392.441 308.018 393.221L308.231 393.681C307.32 394.412 304.73 394.522 303.495 394.589C303.032 395.85 303.075 396.163 303.004 397.536C303.866 399.646 306.162 397.546 308.193 398.766C308.526 399.857 308.562 399.339 308.092 400.372C307.136 401.036 302.531 400.724 301.045 400.695C300.941 396.434 301.049 391.739 301.062 387.445Z" fill="white"/>
<path d="M303.049 392.681C304.691 392.68 306.701 392.44 308.014 393.221L308.227 393.68C307.315 394.411 304.726 394.521 303.491 394.588C303.027 395.849 303.071 396.162 302.999 397.535C302.734 395.866 302.931 394.37 303.049 392.681Z" fill="white"/>
<path d="M443.394 387.428C445.568 387.373 448.25 387.2 450.339 387.559C450.824 388.448 450.675 387.97 450.559 389.073C448.831 389.972 447.374 388.7 445.699 389.608C445.232 390.502 445.386 391.226 445.433 392.252C446.537 393.491 448.829 392.16 450.223 393.129L450.201 393.951C449.108 394.813 447.949 394.258 445.798 394.548L445.4 395.085C445.351 396.167 445.265 396.64 445.559 397.7C447.143 399.262 448.55 398.382 450.727 398.629C451.08 399.535 450.966 399.062 450.554 400.307C449.392 401.033 445.105 400.737 443.39 400.715C443.368 396.286 443.37 391.857 443.394 387.428Z" fill="white"/>
<path d="M267.689 387.464C270.894 387.355 272.079 387.066 275.021 388.27L274.966 388.886C273.076 389.399 270.626 389.004 269.712 389.739C269.394 394.899 272.412 391.755 274.4 393.159L274.343 394.073C272.471 395.3 270.472 392.926 269.502 395.819C269.599 396.797 269.696 397.352 269.877 398.299C271.424 399.013 272.906 397.934 274.709 398.691C275.127 399.635 275.056 399.146 274.85 400.218C273.806 401.023 269.364 400.709 267.638 400.711C267.598 396.296 267.615 391.88 267.689 387.464Z" fill="white"/>
<path d="M373.321 387.442C375.482 387.406 378.681 387.058 380.465 387.976L380.643 388.6C379.502 390.236 377.834 388.795 375.501 389.513C375.106 390.415 375.261 391.649 375.277 392.716C375.284 393.146 375.327 394.077 375.293 394.459L375.272 398.466C377.124 398.432 379.928 397.837 380.751 399.709C378.36 401.129 375.96 400.781 373.195 400.717C373.154 396.292 373.196 391.866 373.321 387.442Z" fill="white"/>
<path d="M432.438 387.49C434.824 387.38 439.762 387.157 441.946 387.591C442.409 388.44 442.287 387.99 442.141 389.001C441.097 389.579 439.712 389.384 438.462 389.35L438.569 396.646C438.593 398.356 439.041 399.962 437.539 400.879L436.991 400.596C435.92 398.313 436.358 392.155 436.413 389.374L433.536 389.341C432.535 388.687 432.859 388.954 432.438 387.49Z" fill="white"/>
<path d="M451.398 387.448C453.468 387.43 459.949 386.854 461.171 387.969L460.826 388.985C459.642 389.647 458.843 389.38 457.324 389.349L457.331 396.767C457.345 398.049 457.564 399.705 456.872 400.666C455.934 400.808 456.381 400.873 455.538 400.3C455.1 398.094 455.325 392.009 455.35 389.387L452.313 389.369C451.337 388.651 451.641 389.013 451.398 387.448Z" fill="white"/>
<path d="M354.723 387.216C356.062 387.437 355.963 387.196 356.731 387.973C357.075 391.209 356.902 397.613 356.775 400.965C356.241 400.866 355.795 400.74 355.269 400.602C354.121 398.686 354.673 389.947 354.723 387.216Z" fill="white"/>
<path d="M429.684 387.259L431.243 387.513C432.081 388.554 431.63 398.651 431.594 400.73L430.037 400.627C429.327 399.445 429.662 389.46 429.684 387.259Z" fill="white"/>
<path d="M375.289 392.716C376.92 392.685 378.272 392.457 379.651 393.216L379.831 393.728C378.517 394.759 377.029 394.484 375.305 394.46C375.339 394.077 375.296 393.146 375.289 392.716Z" fill="white"/>
</svg>
