<svg width="566" height="566" viewBox="0 0 566 566" fill="none" xmlns="http://www.w3.org/2000/svg">
<path d="M281.813 220.388C289.126 220.536 295.155 221.313 302.212 223.524C311.037 226.29 318.22 231.125 325.238 237.028C325.928 237.609 327.37 238.627 328.284 238.832C332.053 239.036 336.147 238.922 339.928 238.901L362.756 238.83C382.545 238.932 402.334 238.917 422.123 238.787C433.824 238.767 447.636 238.448 459.199 238.968L458.985 254.127C453.623 254.116 419.865 253.404 417.336 254.571C416.578 256.695 417.032 272.42 417.22 275.422C427.866 275.971 442.18 275.531 453.123 275.506C455.72 261.989 460.467 253.424 471.974 244.943C474.49 243.088 480.699 239.967 483.691 238.995C489.577 237.214 493.385 236.626 499.445 236.336C512.885 236.825 524.291 241.777 533.441 251.646C533.951 252.198 534.446 252.761 534.928 253.337C531.838 256.292 527.856 260.304 524.625 263.036C516.416 255.903 509.089 252.025 496.944 252.554C485.988 253.031 472.488 262.021 470.387 273.891C470.286 274.457 470.819 274.958 471.215 275.331L471.229 275.345C473.235 275.846 485.691 275.636 488.387 275.511C490.75 271.343 491.739 269.251 495.654 266.332C498.795 263.917 500.993 263.125 504.31 262.163C510.501 260.593 517.063 261.549 522.55 264.82C533.62 271.471 537.125 286.131 530.443 297.471C528.853 300.171 527.082 302.718 525.798 305.59C528.422 308.604 531.343 311.837 533.692 315.028C522.995 325.138 512.446 330.564 497.32 330.316C484.972 330.114 473.569 324.644 465.158 315.686C458.048 308.112 455.454 301.416 453.034 291.53C449.038 291.274 419.327 290.314 417.725 291.587C416.352 293.779 417.826 303.214 417.296 306.288C417.101 307.421 417.186 311.675 417.724 312.706C419.82 313.482 427.084 313.239 429.795 313.235L447.926 313.232C451.259 313.234 455.83 313.114 459.045 313.433C458.673 318.039 458.792 323.559 458.734 328.277C454.051 328.037 449.118 328.008 444.413 328.048C430.196 328.167 415.759 327.821 401.562 328.246L401.483 277.775L401.467 262.302C401.466 259.888 401.58 256.463 401.417 254.166C397.137 253.399 376.311 253.809 371.7 254.283C371.074 260.737 371.614 270.054 371.493 276.739C371.188 293.63 372.013 311.422 371.544 328.255C366.269 328.141 360.878 328.032 355.605 328.265L355.577 277.116L355.525 263.222C355.511 260.822 355.601 256.566 355.169 254.357C352.517 253.23 328.734 253.798 324.129 253.703C321.648 251.244 319.781 248.717 317.192 246.365C307.753 237.726 295.393 232.98 282.597 233.08C269.644 233.177 257.268 238.449 248.223 247.721C238.56 257.404 233.205 270.571 233.366 284.25C233.586 297.99 239.172 311.098 248.93 320.773C258.394 330.066 270.228 334.553 283.401 334.408C296.432 334.249 308.857 328.88 317.903 319.499C326.74 310.439 330.493 301.927 332.907 289.726L344.004 289.873L344.471 289.923L344.737 290.37C344.706 293.129 344.021 295.654 343.463 298.222C333.106 345.911 273.051 364.177 239.278 328.217C237.347 326.16 235.107 323.363 233.03 321.613C232.484 324.51 232.606 327.677 232.641 330.633L200 296.613L187.478 283.319C186.123 281.878 182.171 276.89 180.488 276.766C180.125 278.098 180.065 279.991 180.056 281.385C179.959 296.947 180.362 312.553 179.986 328.107C174.727 328.057 169.468 328.109 164.211 328.263C164.216 326.064 164.584 315.208 163.469 314.251C162.476 314.652 159.198 318.044 158.091 319.037C152.626 323.872 146.086 327.332 139.014 329.127C126.887 332.097 114.076 330.119 103.411 323.628C90.8985 316.012 84.676 305.497 81.3125 291.65C78.1601 291.184 47.5423 291.16 44.6211 291.771C44.2234 295.835 44.3929 301.339 44.3945 305.54L44.4072 328.258C39.2227 328.423 33.679 328.317 28.4678 328.302L28.4219 238.726C39.5111 238.019 53.0439 238.598 64.374 238.625L82.9873 238.661C86.962 238.669 91.6479 238.571 95.5498 238.926C95.4921 241.022 94.9472 246.787 96.4785 248.114C97.0043 248.187 97.5349 248.259 97.9951 247.914C101.49 245.29 104.529 243.425 108.532 241.568C115.122 238.972 119.044 238.402 126.113 237.655C137.641 237.884 145.285 239.728 155.016 246.554C157.728 248.457 160.322 250.83 163.05 252.627C163.356 246.676 163.4 242.061 163.33 236.066C168.811 240.984 175.386 247.873 180.644 253.148L217.325 290.353L217.738 290.308C219.055 286.663 218.329 245.861 218.319 238.499C222.414 238.413 228.251 238.47 232.286 238.804C231.966 241.267 232.254 243.829 232.47 246.299C234.017 245.186 236.843 241.699 238.321 240.102C243.611 234.383 248.225 230.833 255.062 227.292C265.147 222.406 271.049 221.251 281.813 220.388ZM157.824 299.4C171.725 272.501 144.768 242.873 116.577 252.351C108.114 255.213 101.115 261.288 97.0938 269.266C86.769 290.147 99.8086 313.161 122.231 317.061C127.822 317.911 131.523 317.662 137.02 316.43C146.722 313.232 153.114 308.515 157.824 299.4Z" fill="white"/>
<path d="M100.733 290.294C98.8843 284.858 101.121 277.395 103.759 272.493C104.307 271.474 106.542 269.798 107.079 268.814C109.356 264.645 109.635 262.892 114.807 262.946C114.399 263.424 114.237 263.653 113.907 264.189C114.371 264.405 114.748 264.217 115.244 264.062L114.605 265.08C113.813 265.163 113.757 264.833 113.149 264.758C111.386 264.541 110.045 266.075 109.053 267.301C108.965 267.41 108.878 267.521 108.792 267.632L109.769 270.412C109.274 272.295 107.669 276.896 110.686 277.815C111.527 278.071 113.455 277.39 114.375 277.124L114.56 277.464C114.281 278.099 114.253 278.215 113.53 278.439C105.199 281.03 109.007 273.158 108.432 270.375L107.828 270.189C105.287 272.545 103.536 275.095 102.776 278.49C103.302 279.657 104.577 282.33 104.099 283.534C103.27 282.567 102.952 280.945 102.194 280.396C99.7149 281.692 100.971 286.327 101.556 288.491L100.983 288.815C100.901 289.306 100.823 289.806 100.733 290.294Z" fill="white"/>
<path d="M103.753 294.067L104.246 294.426C105.068 295.513 108.745 300.448 109.883 300.581C111.973 300.826 112.113 299.077 113.709 300.941L113.152 301.962L112.137 302.621C108.631 303.014 108.557 300.904 106.341 298.661C106.017 298.333 104.046 297.011 103.524 296.638C103.169 295.829 103.531 295.061 103.753 294.067Z" fill="white"/>
<path d="M100.734 290.295C100.824 289.807 100.902 289.307 100.984 288.816L101.557 288.492C102.739 290.027 104.256 291.233 106.108 291.868L106.7 292.077L107.398 292.984L107.332 293.443C105.069 293.89 105.931 293.025 104.251 294.426L103.758 294.067C103.139 293.044 101.558 291.273 100.734 290.295Z" fill="white"/>
<path d="M120.526 275.625C120.251 274.326 119.992 272.707 119.354 271.548C118.745 270.439 117.9 271.495 117.133 270.293C117.536 269.91 118.429 269.957 119.028 269.922C119.738 269.012 118.826 268.849 119.416 267.771L120.031 267.834C121.174 269.65 118.925 273.985 123.15 274.744C123.497 274.975 123.912 275.225 124.187 275.528C121.751 275.445 121.585 276.472 119.444 277.044C119.505 276.413 119.982 276.157 120.526 275.625Z" fill="white"/>
<path d="M120.567 287.82C120.214 280.867 115.736 283.625 112.647 282.471L112.633 282.068C113.931 281.156 118.208 281.571 119.425 282.736C120.545 283.808 120.857 285.084 120.987 286.555L120.567 287.82Z" fill="white"/>
<path d="M106.529 286.855L106.979 286.026L107.287 286.336C107.215 287.496 107.396 291.471 106.696 292.077L106.105 291.868C105.989 290.217 106.104 288.455 106.529 286.855Z" fill="white"/>
<path d="M113.8 292.28C114.995 293.418 117.598 293.788 119.254 293.496C119.626 293.429 120.685 292.361 121.027 292.016C121.565 292.593 121.698 292.708 121.797 293.476C120.361 295.371 115.296 294.505 113.568 293.133L113.531 292.871L113.8 292.28Z" fill="white"/>
<path d="M111.648 289.171L111.703 288.009L111.923 287.892C112.636 289.608 112.764 290.749 113.796 292.28L113.527 292.871C112.651 291.968 112.108 290.358 111.648 289.171Z" fill="white"/>
<path d="M114.8 262.946C118.266 258.338 123.962 259.595 127.528 263.439C133.921 256.102 137.957 262.673 143.741 263.324C144.977 264.465 147.614 266.978 147.259 268.764C146.797 268.976 146.012 270.45 146.195 270.902L146.059 271.863L145.514 272.333C145.254 271.676 144.918 270.932 144.892 270.214C144.878 269.827 145.834 267.705 145.709 267.476C144.928 266.042 143.749 264.32 141.926 264.365C141.44 264.722 141.428 264.93 141.28 265.526C139.8 265.23 139.009 262.885 137.639 262.185C134.076 260.364 129.342 261.827 128.746 266.127C128.47 268.12 128.269 273.174 128.947 274.739L128.984 276.203C128.633 277.762 128.344 285.56 128.913 286.844L129.519 287.18L129.698 287.435L129.088 287.747L129.205 288.313C129.06 288.482 128.878 288.694 128.659 288.95C128.38 292.243 128.517 295.571 128.592 298.882C128.633 300.69 129.456 302.441 130.776 303.681C132.977 305.752 137.031 304.547 139.091 302.727L141.364 300.315C144.642 302.344 145.505 300.828 146.781 297.806C147.81 296.687 148.814 296.28 150.145 295.607L150.414 296.246C150.226 296.598 150.2 296.675 149.87 296.894L150.065 297.134C145.787 299.3 147.702 302.422 142.742 302.516C138.93 302.589 136.708 308.563 130.004 305.119C128.563 305.327 126.26 304.981 124.751 304.818C120.648 307.243 115.916 305.572 113.148 301.961L113.705 300.94C115.944 303.271 121.386 306.227 123.995 303.695C126.144 301.608 125.577 291.847 125.698 288.669C124.129 288.479 121.695 288.688 120.567 287.82L120.987 286.556C122.123 287.251 123.981 286.999 125.33 286.972C125.394 284.097 125.697 281.118 125.547 278.247C125.455 276.487 125.328 276.54 124.191 275.527C123.916 275.224 123.5 274.974 123.154 274.743C123.564 274.487 125.24 274.551 125.827 274.546C125.904 271.535 126.5 265.639 124.831 263.194C122.488 259.763 117.861 262.221 115.237 264.063C114.741 264.218 114.364 264.406 113.9 264.19C114.229 263.653 114.392 263.424 114.8 262.946Z" fill="white"/>
<path d="M146.199 270.902C146.015 270.45 146.801 268.976 147.263 268.764C149.901 271.047 152.845 273.088 152.932 277.004C152.537 278.363 154.385 280.419 154.617 280.92C155.236 282.259 154.483 290.728 153.375 291.327C148.963 293.711 151.574 295.555 150.808 296.926L150.069 297.134L149.874 296.894C150.204 296.675 150.23 296.599 150.418 296.246L150.148 295.607C150.118 295.264 150.006 294.696 149.947 294.335C149.301 293.733 149.508 293.901 148.476 293.87C144.469 293.336 148.315 289.688 146.24 284.741L146.641 284.699C150.089 285.952 146.769 291.19 147.782 293.024C151.688 293.443 156.3 281.648 152.255 280.614C151.548 281.024 151.191 282.027 150.813 282.799L150.568 282.872C150.166 281.362 151.197 280.009 151.961 278.767C151.939 278.64 151.915 278.514 151.89 278.388C151.445 276.174 149.066 270.273 146.199 270.902Z" fill="white"/>
<path d="M135.29 282.408C136.892 282.04 139.29 281.346 140.807 282.182C140.061 282.796 136.84 282.591 136.025 283.177C133.092 285.286 134.624 289.79 129.219 288.313L129.102 287.748L129.712 287.435L129.533 287.18C130.693 287.081 132.055 287.193 132.917 286.591C133.586 285.771 133.632 284.858 133.878 283.832L135.29 282.408Z" fill="white"/>
<path d="M128.953 274.739C135.637 275.517 133.089 269.018 134.842 268.224C136.582 270.851 134.237 271.484 133.207 274.339C133.78 274.86 135.13 275.921 135.243 276.589L135.08 277.121C134.354 277.186 133.818 276.661 133.206 276.151C132.976 275.958 132.748 275.763 132.521 275.566C131.127 275.744 130.336 276.188 128.991 276.203L128.953 274.739Z" fill="white"/>
<path d="M146.065 271.863C146.598 275.17 147.611 278.021 143.433 279.344C142.81 279.541 140.92 278.979 140.372 278.572C139.888 277.622 139.834 277.43 139.82 276.36L140.062 275.969L140.274 276.071C142.054 281.426 147.087 278.105 145.52 272.334L146.065 271.863Z" fill="white"/>
<path d="M132.29 294.73C132.161 293.768 131.966 292.725 132.099 291.776C132.244 291.882 132.389 291.986 132.535 292.089C135.195 293.941 136.262 293.829 139.472 293.253L139.945 293.727C138.348 294.643 134.339 294.611 132.29 294.73Z" fill="white"/>
<path d="M141.886 290.641C141.85 289.604 141.67 288.294 142.222 287.464L142.61 287.542C143.595 289.963 141.545 292.22 139.957 293.726L139.484 293.252C140.516 292.271 141.011 291.758 141.886 290.641Z" fill="white"/>
<circle cx="283.127" cy="283.685" r="44.6815" fill="white"/>
</svg>
