<svg width="566" height="566" viewBox="0 0 566 566" fill="none" xmlns="http://www.w3.org/2000/svg">
<g clip-path="url(#clip0_1598_624)">
<path d="M189.85 318.802C218.512 318.356 226.222 352.815 212.634 373.005C208.098 379.743 200.551 382.468 192.783 383.53C171.036 384.283 160.956 366.34 163.052 346.79C164.772 330.731 173.46 320.474 189.85 318.802Z" fill="white"/>
<path d="M228.572 319.797C243.191 320.304 271.064 314.794 269.303 338.979C268.921 344.231 261.906 349.237 261.906 349.237C261.906 349.237 277.565 352.489 269.652 372.772C260.758 385.508 242.569 382.578 228.562 382.439L228.572 319.797Z" fill="white"/>
<path d="M367.254 397.91C400.717 395.913 401.776 445.836 373.94 450.829C340.714 453.293 339.243 404.039 367.254 397.91Z" fill="white"/>
<path d="M103.536 398.59C113.536 398.763 127.062 397.5 135.012 404.163C146.381 413.696 145.229 432.216 136.753 442.99C127.117 451.604 115.842 450.024 103.522 449.925C103.436 432.813 103.441 415.701 103.536 398.59Z" fill="white"/>
<path d="M297.556 319.745C302.042 319.641 306.882 319.73 311.4 319.727C312.201 323.579 316.932 336.478 318.507 340.934C323.369 354.686 328.091 368.867 333.183 382.492C328.896 382.412 324.394 382.483 320.089 382.482C318.738 377.739 317.371 372.864 315.734 368.198C315.073 366.311 314.804 366.278 313.077 366.067C306.66 366.167 299.944 366.056 293.504 366.035C291.845 371.487 290.256 376.959 288.735 382.451L276.18 382.455C283.226 361.58 290.725 340.667 297.556 319.745Z" fill="white"/>
<path d="M93.4679 318.807C101.071 318.971 103.749 319.448 110.704 322.39C110.46 325.866 110.419 329.66 110.315 333.17C104.944 331.012 101.127 330.011 95.2854 329.685C69.6107 328.254 69.1285 373.578 94.3846 373.467C104.086 373.424 101.392 364.078 101.243 356.87L90.2831 357.041C90.0862 353.847 90.1382 350.104 90.1043 346.865L104.957 346.84L112.651 346.875L112.662 379.265C90.8694 387.578 65.9823 384.094 63.1869 355.447C61.238 335.495 72.431 320.363 93.4679 318.807Z" fill="white"/>
<path d="M425.328 319.743L462.334 319.709L462.284 330.351C453.97 330.208 445.657 330.147 437.345 330.167C437.107 335.086 437.264 340.391 437.322 345.345C444.473 345.503 452.384 345.287 459.591 345.225L459.815 355.249C453.986 355.2 443.379 354.861 438.017 355.422C436.978 356.58 437.254 357.502 437.125 359.318C436.996 363.198 437.236 368.318 437.306 372.287C445.306 372.257 454.414 372.391 462.309 371.804L462.359 382.439C450.217 382.611 437.585 382.459 425.41 382.461L425.328 319.743Z" fill="white"/>
<path d="M495.067 319.26C504.345 318.383 507.925 319.019 516.511 322.283C516.013 326.4 516.036 329.252 516.056 333.399L515.341 333.066C509.053 330.17 501.728 328.297 495.078 330.803C479.03 336.853 478.697 365.181 494.589 371.721C502.043 374.789 507.869 372.813 514.757 370.054L515.712 369.85C516.622 371.359 516.219 377.734 516.228 380.184C514.34 381.033 512.391 381.738 510.397 382.291C476.959 391.325 459.337 355.496 476.931 329.925C480.992 324.022 488.251 320.993 495.067 319.26Z" fill="white"/>
<path d="M373.438 319.76L417.585 319.722L417.537 330.444L401.014 330.415C400.882 342.307 401.014 354.388 401.034 366.294L401.023 382.469L388.687 382.419L388.709 330.466L373.483 330.504L373.438 319.76Z" fill="white"/>
<path d="M435.287 398.585L441.726 398.706C441.901 415.701 441.72 432.925 441.668 449.938L434.411 450.157C427.713 437.608 416.946 423.099 409.519 409.311C409.771 414.399 410.413 447.538 409.037 449.905C407.134 449.991 404.359 450.377 402.919 449.325C402.804 448.714 402.584 447.547 402.589 446.957C402.713 430.94 402.204 414.716 402.856 398.723L410.669 398.68C416.092 408.464 423.537 418.01 429.024 427.862C430.966 431.349 432.992 435.066 435.126 438.417C435.033 431.5 434.11 403.594 435.287 398.585Z" fill="white"/>
<path d="M256.769 398.822L265.357 398.782C271.122 416.019 277.503 433.037 283.132 450.248C280.538 449.906 277.279 450.081 274.615 450.143C273.107 445.671 272.528 439.695 269.404 436.682C268.406 435.719 265.561 436.016 264.112 436.069C259.952 436.039 255.959 436.006 251.801 435.797C250.699 440.102 248.659 445.842 247.258 450.179L239.094 449.861C241.339 444.698 243.987 436.275 245.875 430.785C249.574 420.154 253.204 409.499 256.769 398.822Z" fill="white"/>
<path d="M467.358 398.535L475.857 398.904C480.753 415.914 487.956 433.036 493.23 450.002L484.728 450.091L480.249 435.961L476.043 436.132C471.5 436.19 466.656 435.928 462.091 435.754C460.832 440.319 459.119 445.432 457.704 450.004L449.406 449.887C451.665 445.286 454.388 436.409 456.088 431.358C459.809 420.312 463.27 409.474 467.358 398.535Z" fill="white"/>
<path d="M123.882 319.777L135.802 319.717L135.815 372.275C143.618 372.342 151.164 372.083 158.96 371.826L159.102 382.432L123.844 382.445L123.882 319.777Z" fill="white"/>
<path d="M339.922 319.796L351.959 319.729L352.011 372.279L375.151 372.296L375.246 382.506L340.003 382.448L339.922 319.796Z" fill="white"/>
<path d="M184.908 398.616L189.985 398.572C189.833 407.805 190.207 417.229 190.109 426.458C189.992 433.409 189.777 440.613 184.541 445.795C177.789 452.726 163.36 453.063 156.617 446.031C149.416 438.522 151.377 421.875 151.494 412.061C151.379 407.707 151.537 403.135 151.626 398.763L159 398.666C159.172 409.622 158.608 420.457 159.143 431.463C159.564 440.134 165.449 445.79 174.152 443.697C188.846 440.163 178.364 407.092 182.946 399.035L184.908 398.616Z" fill="white"/>
<path d="M65.2511 398.826C71.2901 398.776 81.7384 398.423 87.4356 398.874C89.4274 398.726 91.5212 398.263 93.0241 399.426C94.6018 401.775 94.3822 402.375 93.5063 405.091C93.2686 405.164 92.585 405.407 92.3949 405.383C86.1477 405.787 79.2508 405.648 72.9492 405.648L72.9809 420.363L91.1002 420.299C91.1364 422.598 91.2473 424.153 90.6995 426.396C87.8317 427.487 76.6772 426.878 72.9289 426.762C72.8678 432.2 72.9628 437.774 72.9945 443.224C76.4101 443.204 91.5212 442.551 93.633 443.703C93.9612 444.926 94.0314 449.126 93.6104 449.243C88.5764 450.649 69.3367 449.973 65.2353 449.969C65.1357 432.922 65.1402 415.874 65.2511 398.826Z" fill="white"/>
<path d="M307.246 397.949C307.577 397.908 307.912 397.884 308.247 397.875C317.806 397.689 322.794 396.82 322.466 408.008C313.614 404.253 300.37 403.788 296.606 413.426C288.333 434.619 299.831 448.311 320.911 442.051L321.862 441.603L322.495 442.478C322.559 443.638 322.833 447.042 322.151 447.698C316.735 452.937 301.413 451.485 295.843 447.001C278.367 432.926 283.448 401.893 307.246 397.949Z" fill="white"/>
<path d="M219.099 397.952C225.021 397.592 228.325 398.094 233.914 399.963L233.683 408.153C198.533 391.544 194.081 454.636 231.913 441.956C232.859 441.303 232.418 441.41 233.579 441.57C234.278 443.446 233.801 446.629 233.629 448.742C225.059 451.473 215.77 452.474 207.891 447.117C195.91 438.97 194.753 419.273 202.388 407.871C206.413 401.863 212.205 399.197 219.099 397.952Z" fill="white"/>
<path d="M499.752 398.535L507.426 398.826C506.876 412.783 507.244 429.333 507.292 443.442C511.192 443.113 522.22 442.894 525.651 443.481C526.729 444.747 526.527 447.013 526.579 448.775L526.138 449.482C523.818 450.21 503.12 450.025 499.628 450.036C499.601 433.235 499.27 415.239 499.752 398.535Z" fill="white"/>
<path d="M331.404 398.817L338.942 398.8C339.035 412.608 339.743 436.808 338.786 449.904L331.536 449.919C331.035 445.248 331.332 436.109 331.327 431.112C331.321 420.512 331.006 409.362 331.404 398.817Z" fill="white"/>
<path d="M329.7 110.186L325.472 115.471L327.906 117.732L329.7 110.186Z" fill="white"/>
<path fill-rule="evenodd" clip-rule="evenodd" d="M273.348 63.6279C332.509 59.0621 384.195 103.264 388.863 162.417C393.533 221.57 349.422 273.334 290.276 278.105C230.985 282.889 179.066 238.644 174.386 179.346C169.705 120.046 214.04 68.2049 273.348 63.6279ZM340.906 226.977V163.181H287.224V182.181H321.906V217.646C311.385 224.943 298.571 229.232 284.713 229.232C248.823 229.232 219.906 200.48 219.906 165.232C219.906 129.983 248.823 101.232 284.713 101.232C300.177 101.232 314.343 106.569 325.472 115.471L329.7 110.186L332.779 97.2319C319.165 87.778 302.578 82.2319 284.713 82.2319C238.526 82.2321 200.906 119.295 200.906 165.232C200.906 211.169 238.526 248.232 284.713 248.232C304.626 248.232 322.95 241.342 337.341 229.83L340.906 226.977ZM342.133 122.718L341.406 119.732L340.666 122.777C339.281 128.47 334.708 132.837 328.957 133.956L322.406 135.232L328.957 136.507C334.708 137.627 339.281 141.993 340.666 147.686L341.406 150.732L342.133 147.745C343.524 142.021 348.137 137.642 353.925 136.55L360.906 135.232L353.925 133.914C348.137 132.821 343.524 128.442 342.133 122.718Z" fill="white"/>
</g>
<defs>
<clipPath id="clip0_1598_624">
<rect width="566" height="566" rx="87.8965" fill="white"/>
</clipPath>
</defs>
</svg>
