<svg width="566" height="566" viewBox="0 0 566 566" fill="none" xmlns="http://www.w3.org/2000/svg">
<path d="M148 428.915V54H196.336C217.661 54 227.612 73.1549 227.612 85.2434C227.612 123.745 229.034 197.812 229.034 197.434C263.118 167.659 283.056 155.725 317.176 155.725C390.186 155.725 410.397 222.79 410.057 223.47C367.976 227.635 341.028 247.296 332.814 256.606C313.859 216.369 277.37 228.677 278.318 227.257C241.165 231.044 229.034 263.864 227.612 279.801C228.086 320.512 228.75 402.027 227.612 402.406C222.684 425.128 201.549 429.546 191.597 428.915H148Z" fill="white"/>
<path d="M283.53 243.825C253.581 246.097 244.198 269.388 243.25 280.749C243.092 348.126 242.682 482.88 242.303 482.88C253.202 511.756 278.792 512.23 280.213 512.703C312.911 515.07 321.441 483.827 321.915 482.88C320.493 426.075 325.706 370.69 325.706 371.163C335.184 323.352 383.046 328.559 383.993 328.086C410.152 322.027 418.113 298.737 418.113 287.849C418.271 271.439 418.492 238.901 418.113 240.037C383.993 242.877 373.568 249.032 373.094 248.559C348.452 255.375 328.549 282.642 321.441 294.95C321.757 290.216 322.199 280.749 321.441 280.749C317.65 240.985 283.53 244.299 283.53 243.825Z" fill="white"/>
<path d="M387.311 338.027C398.305 339.163 412.426 330.611 418.113 326.193C417.797 360.907 417.355 430.146 418.113 429.389C392.523 431.756 365.512 429.862 365.038 429.389C335.468 421.436 336.289 387.258 340.396 371.163C345.609 339.447 387.311 337.554 387.311 338.027Z" fill="white"/>
<path d="M148 428.915V54H196.336C217.661 54 227.612 73.1549 227.612 85.2434C227.612 123.745 229.034 197.812 229.034 197.434C263.118 167.659 283.056 155.725 317.176 155.725C390.186 155.725 410.397 222.79 410.057 223.47C367.976 227.635 341.028 247.296 332.814 256.606C313.859 216.369 277.37 228.677 278.318 227.257C241.165 231.044 229.034 263.864 227.612 279.801C228.086 320.512 228.75 402.027 227.612 402.406C222.684 425.128 201.549 429.546 191.597 428.915H148Z" stroke="white" stroke-width="0.42172"/>
<path d="M283.53 243.825C253.581 246.097 244.198 269.388 243.25 280.749C243.092 348.126 242.682 482.88 242.303 482.88C253.202 511.756 278.792 512.23 280.213 512.703C312.911 515.07 321.441 483.827 321.915 482.88C320.493 426.075 325.706 370.69 325.706 371.163C335.184 323.352 383.046 328.559 383.993 328.086C410.152 322.027 418.113 298.737 418.113 287.849C418.271 271.439 418.492 238.901 418.113 240.037C383.993 242.877 373.568 249.032 373.094 248.559C348.452 255.375 328.549 282.642 321.441 294.95C321.757 290.216 322.199 280.749 321.441 280.749C317.65 240.985 283.53 244.299 283.53 243.825Z" stroke="white" stroke-width="0.42172"/>
<path d="M387.311 338.027C398.305 339.163 412.426 330.611 418.113 326.193C417.797 360.907 417.355 430.146 418.113 429.389C392.523 431.756 365.512 429.862 365.038 429.389C335.468 421.436 336.289 387.258 340.396 371.163C345.609 339.447 387.311 337.554 387.311 338.027Z" stroke="white" stroke-width="0.42172"/>
</svg>
