<svg width="566" height="566" viewBox="0 0 566 566" fill="none" xmlns="http://www.w3.org/2000/svg">
<g clip-path="url(#clip0_1598_481)">
<path d="M115.961 403.435V399.403C115.961 399.123 116.073 398.871 116.297 398.647C116.521 398.367 116.801 398.227 117.137 398.227H133.265V353.371H117.137C116.353 353.371 115.961 352.979 115.961 352.195V348.163C115.961 347.379 116.353 346.987 117.137 346.987H155.693C156.477 346.987 156.869 347.379 156.869 348.163V352.195C156.869 352.979 156.477 353.371 155.693 353.371H139.649L139.649 398.227H155.693C156.029 398.227 156.309 398.367 156.533 398.647C156.757 398.871 156.869 399.123 156.869 399.403V403.435C156.869 404.219 156.477 404.611 155.693 404.611H117.137C116.353 404.611 115.961 404.219 115.961 403.435ZM210.232 403.435V379.327L179.74 354.127V403.435C179.74 404.219 179.347 404.611 178.563 404.611H174.531C174.251 404.611 173.971 404.499 173.691 404.275C173.467 404.051 173.355 403.771 173.355 403.435V348.163C173.355 347.827 173.467 347.547 173.691 347.323C173.971 347.099 174.251 346.987 174.531 346.987H180.16C180.944 346.987 181.644 347.239 182.26 347.743L210.232 370.843V348.163C210.232 347.379 210.624 346.987 211.408 346.987H215.44C216.224 346.987 216.616 347.379 216.616 348.163V403.435C216.616 404.219 216.224 404.611 215.44 404.611H211.408C210.624 404.611 210.232 404.219 210.232 403.435ZM275.187 363.115C275.187 363.899 274.795 364.291 274.011 364.291H269.979C269.195 364.291 268.803 363.899 268.803 363.115V359.167C268.747 357.543 268.159 356.171 267.038 355.051C265.918 353.931 264.546 353.371 262.922 353.371H244.19C242.566 353.371 241.166 353.959 239.99 355.135C238.87 356.255 238.31 357.627 238.31 359.251L238.31 392.347C238.31 393.971 238.87 395.371 239.99 396.547C241.166 397.667 242.566 398.227 244.19 398.227H262.922C264.546 398.227 265.918 397.695 267.038 396.631C268.159 395.511 268.747 394.139 268.803 392.515V388.483C268.803 388.203 268.915 387.951 269.139 387.727C269.363 387.447 269.643 387.307 269.979 387.307H274.011C274.347 387.307 274.627 387.447 274.851 387.727C275.075 387.951 275.187 388.203 275.187 388.483V392.515C275.187 394.195 274.851 395.763 274.179 397.219C273.507 398.675 272.611 399.963 271.491 401.083C270.427 402.147 269.139 403.015 267.626 403.687C266.17 404.303 264.602 404.611 262.922 404.611H244.19C242.51 404.611 240.914 404.303 239.402 403.687C237.946 403.015 236.658 402.147 235.538 401.083C234.474 399.963 233.606 398.647 232.934 397.135C232.318 395.623 232.01 394.027 232.01 392.347V359.251C232.01 357.571 232.318 356.003 232.934 354.547C233.606 353.035 234.474 351.719 235.538 350.599C236.658 349.479 237.946 348.611 239.402 347.995C240.914 347.323 242.51 346.987 244.19 346.987H262.922C264.602 346.987 266.17 347.323 267.626 347.995C269.139 348.611 270.427 349.479 271.491 350.599C272.611 351.663 273.507 352.951 274.179 354.463C274.851 355.919 275.187 357.487 275.187 359.167V363.115ZM302.761 404.611C301.081 404.611 299.485 404.303 297.973 403.687C296.517 403.015 295.229 402.147 294.109 401.083C293.045 399.963 292.177 398.647 291.505 397.135C290.889 395.623 290.581 394.027 290.581 392.347L290.581 359.251C290.581 357.571 290.889 356.003 291.505 354.547C292.177 353.035 293.045 351.719 294.109 350.599C295.229 349.479 296.517 348.611 297.973 347.995C299.485 347.323 301.081 346.987 302.761 346.987H321.493C323.173 346.987 324.741 347.323 326.197 347.995C327.709 348.611 329.025 349.479 330.145 350.599C331.265 351.719 332.133 353.035 332.749 354.547C333.421 356.003 333.757 357.571 333.757 359.251V392.347C333.757 394.027 333.421 395.623 332.749 397.135C332.133 398.647 331.265 399.963 330.145 401.083C329.025 402.147 327.709 403.015 326.197 403.687C324.741 404.303 323.173 404.611 321.493 404.611H302.761ZM302.761 353.371C301.137 353.371 299.737 353.959 298.561 355.135C297.441 356.255 296.881 357.627 296.881 359.251V392.347C296.881 393.971 297.441 395.371 298.561 396.547C299.737 397.667 301.137 398.227 302.761 398.227H321.493C323.117 398.227 324.489 397.667 325.609 396.547C326.785 395.371 327.373 393.971 327.373 392.347L327.373 359.251C327.373 357.627 326.785 356.255 325.609 355.135C324.489 353.959 323.117 353.371 321.493 353.371H302.761ZM349.068 403.435V348.163C349.068 347.883 349.18 347.631 349.404 347.407C349.684 347.127 349.964 346.987 350.244 346.987H380.064C381.744 346.987 383.312 347.323 384.768 347.995C386.28 348.611 387.596 349.479 388.716 350.599C389.836 351.719 390.704 353.035 391.32 354.547C391.992 356.003 392.328 357.571 392.328 359.251V392.347C392.328 394.027 391.992 395.623 391.32 397.135C390.704 398.647 389.836 399.963 388.716 401.083C387.596 402.147 386.28 403.015 384.768 403.687C383.312 404.303 381.744 404.611 380.064 404.611H350.244C349.964 404.611 349.684 404.499 349.404 404.275C349.18 404.051 349.068 403.771 349.068 403.435ZM355.452 398.227H380.064C381.688 398.227 383.06 397.667 384.18 396.547C385.356 395.371 385.944 393.971 385.944 392.347V359.251C385.944 357.627 385.356 356.255 384.18 355.135C383.06 353.959 381.688 353.371 380.064 353.371H355.452V398.227ZM408.983 403.435V348.163C408.983 347.379 409.375 346.987 410.159 346.987H449.303C450.087 346.987 450.479 347.379 450.479 348.163V352.195C450.479 352.979 450.087 353.371 449.303 353.371H415.283V372.607H444.767C445.047 372.607 445.299 372.747 445.523 373.027C445.803 373.251 445.943 373.503 445.943 373.783V377.815C445.943 378.151 445.803 378.431 445.523 378.655C445.299 378.879 445.047 378.991 444.767 378.991H415.283V398.227H449.303C449.639 398.227 449.919 398.367 450.143 398.647C450.367 398.871 450.479 399.123 450.479 399.403V403.435C450.479 404.219 450.087 404.611 449.303 404.611H410.159C409.375 404.611 408.983 404.219 408.983 403.435Z" fill="white"/>
<path d="M122.329 467.476V438.369H112.317C111.862 438.369 111.634 438.141 111.634 437.685V435.341C111.634 434.885 111.862 434.658 112.317 434.658H136.052C136.508 434.658 136.736 434.885 136.736 435.341V437.685C136.736 438.141 136.508 438.369 136.052 438.369H126.041V467.476C126.041 467.672 125.959 467.835 125.797 467.965C125.666 468.095 125.52 468.16 125.357 468.16H123.013C122.557 468.16 122.329 467.932 122.329 467.476ZM146.419 467.476L146.419 435.341C146.419 434.885 146.647 434.658 147.103 434.658H169.861C170.317 434.658 170.545 434.885 170.545 435.341V437.685C170.545 438.141 170.317 438.369 169.861 438.369H150.082V449.553L167.224 449.553C167.387 449.553 167.533 449.634 167.663 449.797C167.826 449.927 167.908 450.074 167.908 450.237V452.581C167.908 452.776 167.826 452.939 167.663 453.069C167.533 453.2 167.387 453.265 167.224 453.265H150.082L150.082 464.448H169.861C170.056 464.448 170.219 464.53 170.349 464.693C170.48 464.823 170.545 464.969 170.545 465.132V467.476C170.545 467.932 170.317 468.16 169.861 468.16H147.103C146.647 468.16 146.419 467.932 146.419 467.476ZM204.794 444.034C204.794 444.49 204.566 444.718 204.11 444.718H201.766C201.31 444.718 201.082 444.49 201.082 444.034V441.739C201.05 440.795 200.708 439.997 200.057 439.346C199.406 438.695 198.608 438.369 197.664 438.369H186.773C185.829 438.369 185.015 438.711 184.331 439.395C183.68 440.046 183.354 440.844 183.354 441.788L183.354 461.03C183.354 461.974 183.68 462.788 184.331 463.472C185.015 464.123 185.829 464.448 186.773 464.448H197.664C198.608 464.448 199.406 464.139 200.057 463.521C200.708 462.869 201.05 462.072 201.082 461.128V458.783C201.082 458.621 201.148 458.474 201.278 458.344C201.408 458.181 201.571 458.1 201.766 458.1H204.11C204.306 458.1 204.468 458.181 204.599 458.344C204.729 458.474 204.794 458.621 204.794 458.783V461.128C204.794 462.104 204.599 463.016 204.208 463.862C203.817 464.709 203.296 465.458 202.645 466.109C202.027 466.728 201.278 467.232 200.399 467.623C199.552 467.981 198.641 468.16 197.664 468.16H186.773C185.796 468.16 184.868 467.981 183.989 467.623C183.143 467.232 182.394 466.728 181.743 466.109C181.124 465.458 180.619 464.693 180.229 463.814C179.871 462.935 179.692 462.007 179.692 461.03L179.692 441.788C179.692 440.811 179.871 439.899 180.229 439.053C180.619 438.174 181.124 437.409 181.743 436.758C182.394 436.106 183.143 435.602 183.989 435.244C184.868 434.853 185.796 434.658 186.773 434.658H197.664C198.641 434.658 199.552 434.853 200.399 435.244C201.278 435.602 202.027 436.106 202.645 436.758C203.296 437.376 203.817 438.125 204.208 439.004C204.599 439.851 204.794 440.762 204.794 441.739V444.034ZM235.135 467.476V453.265H217.407V467.476C217.407 467.932 217.179 468.16 216.723 468.16H214.428C213.972 468.16 213.744 467.932 213.744 467.476L213.744 435.341C213.744 434.885 213.972 434.658 214.428 434.658H216.723C217.179 434.658 217.407 434.885 217.407 435.341V449.553H235.135V435.341C235.135 434.885 235.363 434.658 235.819 434.658H238.163C238.619 434.658 238.847 434.885 238.847 435.341V467.476C238.847 467.932 238.619 468.16 238.163 468.16H235.819C235.363 468.16 235.135 467.932 235.135 467.476Z" fill="white"/>
<path d="M258.89 461.03V458.783C258.89 458.621 258.955 458.474 259.085 458.344C259.248 458.181 259.41 458.1 259.573 458.1H261.917C262.113 458.1 262.276 458.181 262.406 458.344C262.536 458.474 262.601 458.621 262.601 458.783V461.03C262.601 461.974 262.927 462.788 263.578 463.472C264.262 464.123 265.076 464.448 266.02 464.448H276.911C277.855 464.448 278.652 464.123 279.304 463.472C279.987 462.788 280.329 461.974 280.329 461.03V456.683C280.329 455.739 279.987 454.941 279.304 454.29C278.652 453.607 277.855 453.265 276.911 453.265L266.02 453.265C265.043 453.265 264.115 453.086 263.236 452.727C262.39 452.337 261.641 451.832 260.99 451.214C260.338 450.562 259.817 449.797 259.427 448.918C259.069 448.039 258.89 447.111 258.89 446.134V441.788C258.89 440.811 259.069 439.899 259.427 439.053C259.817 438.174 260.338 437.409 260.99 436.758C261.641 436.106 262.39 435.602 263.236 435.244C264.115 434.853 265.043 434.658 266.02 434.658H276.911C277.887 434.658 278.799 434.853 279.646 435.244C280.525 435.602 281.29 436.106 281.941 436.758C282.592 437.409 283.097 438.174 283.455 439.053C283.846 439.899 284.041 440.811 284.041 441.788V444.034C284.041 444.49 283.813 444.718 283.357 444.718H281.013C280.557 444.718 280.329 444.49 280.329 444.034V441.788C280.329 440.844 279.987 440.046 279.304 439.395C278.652 438.711 277.855 438.369 276.911 438.369H266.02C265.076 438.369 264.262 438.711 263.578 439.395C262.927 440.046 262.601 440.844 262.601 441.788V446.134C262.601 447.079 262.927 447.893 263.578 448.576C264.262 449.227 265.076 449.553 266.02 449.553H276.911C277.887 449.553 278.799 449.748 279.646 450.139C280.525 450.497 281.29 451.002 281.941 451.653C282.592 452.304 283.097 453.069 283.455 453.948C283.846 454.795 284.041 455.707 284.041 456.683L284.041 461.03C284.041 462.007 283.846 462.935 283.455 463.814C283.097 464.693 282.592 465.458 281.941 466.109C281.29 466.728 280.525 467.232 279.646 467.623C278.799 467.981 277.887 468.16 276.911 468.16H266.02C265.043 468.16 264.115 467.981 263.236 467.623C262.39 467.232 261.641 466.728 260.99 466.109C260.338 465.458 259.817 464.693 259.427 463.814C259.069 462.935 258.89 462.007 258.89 461.03ZM318.094 444.034C318.094 444.49 317.866 444.718 317.41 444.718H315.066C314.61 444.718 314.382 444.49 314.382 444.034V441.739C314.349 440.795 314.008 439.997 313.356 439.346C312.705 438.695 311.908 438.369 310.963 438.369H300.073C299.128 438.369 298.314 438.711 297.631 439.395C296.98 440.046 296.654 440.844 296.654 441.788V461.03C296.654 461.974 296.98 462.788 297.631 463.472C298.314 464.123 299.128 464.448 300.073 464.448H310.963C311.908 464.448 312.705 464.139 313.356 463.521C314.008 462.869 314.349 462.072 314.382 461.128V458.783C314.382 458.621 314.447 458.474 314.577 458.344C314.708 458.181 314.87 458.1 315.066 458.1H317.41C317.605 458.1 317.768 458.181 317.898 458.344C318.029 458.474 318.094 458.621 318.094 458.783V461.128C318.094 462.104 317.898 463.016 317.508 463.862C317.117 464.709 316.596 465.458 315.945 466.109C315.326 466.728 314.577 467.232 313.698 467.623C312.852 467.981 311.94 468.16 310.963 468.16H300.073C299.096 468.16 298.168 467.981 297.289 467.623C296.442 467.232 295.693 466.728 295.042 466.109C294.424 465.458 293.919 464.693 293.528 463.814C293.17 462.935 292.991 462.007 292.991 461.03V441.788C292.991 440.811 293.17 439.899 293.528 439.053C293.919 438.174 294.424 437.409 295.042 436.758C295.693 436.106 296.442 435.602 297.289 435.244C298.168 434.853 299.096 434.658 300.073 434.658H310.963C311.94 434.658 312.852 434.853 313.698 435.244C314.577 435.602 315.326 436.106 315.945 436.758C316.596 437.376 317.117 438.125 317.508 439.004C317.898 439.851 318.094 440.762 318.094 441.739V444.034ZM348.435 467.476V453.265H330.707V467.476C330.707 467.932 330.479 468.16 330.023 468.16H327.728C327.272 468.16 327.044 467.932 327.044 467.476V435.341C327.044 434.885 327.272 434.658 327.728 434.658L330.023 434.658C330.479 434.658 330.707 434.885 330.707 435.341V449.553H348.435V435.341C348.435 434.885 348.663 434.658 349.118 434.658H351.463C351.919 434.658 352.146 434.885 352.146 435.341L352.146 467.476C352.146 467.932 351.919 468.16 351.463 468.16H349.118C348.663 468.16 348.435 467.932 348.435 467.476ZM368.13 468.16C367.154 468.16 366.226 467.981 365.347 467.623C364.5 467.232 363.751 466.728 363.1 466.109C362.482 465.458 361.977 464.693 361.586 463.814C361.228 462.935 361.049 462.007 361.049 461.03V441.788C361.049 440.811 361.228 439.899 361.586 439.053C361.977 438.174 362.482 437.409 363.1 436.758C363.751 436.106 364.5 435.602 365.347 435.244C366.226 434.853 367.154 434.658 368.13 434.658H379.021C379.998 434.658 380.91 434.853 381.756 435.244C382.635 435.602 383.4 436.106 384.051 436.758C384.703 437.409 385.207 438.174 385.565 439.053C385.956 439.899 386.151 440.811 386.151 441.788V461.03C386.151 462.007 385.956 462.935 385.565 463.814C385.207 464.693 384.703 465.458 384.051 466.109C383.4 466.728 382.635 467.232 381.756 467.623C380.91 467.981 379.998 468.16 379.021 468.16L368.13 468.16ZM368.13 438.369C367.186 438.369 366.372 438.711 365.689 439.395C365.037 440.046 364.712 440.844 364.712 441.788V461.03C364.712 461.974 365.037 462.788 365.689 463.472C366.372 464.123 367.186 464.448 368.13 464.448H379.021C379.965 464.448 380.763 464.123 381.414 463.472C382.098 462.788 382.44 461.974 382.44 461.03L382.44 441.788C382.44 440.844 382.098 440.046 381.414 439.395C380.763 438.711 379.965 438.369 379.021 438.369H368.13ZM402.183 468.16C401.206 468.16 400.279 467.981 399.399 467.623C398.553 467.232 397.804 466.728 397.153 466.109C396.534 465.458 396.03 464.693 395.639 463.814C395.281 462.935 395.102 462.007 395.102 461.03V441.788C395.102 440.811 395.281 439.899 395.639 439.053C396.03 438.174 396.534 437.409 397.153 436.758C397.804 436.106 398.553 435.602 399.399 435.244C400.279 434.853 401.206 434.658 402.183 434.658H413.074C414.051 434.658 414.962 434.853 415.809 435.244C416.688 435.602 417.453 436.106 418.104 436.758C418.755 437.409 419.26 438.174 419.618 439.053C420.009 439.899 420.204 440.811 420.204 441.788V461.03C420.204 462.007 420.009 462.935 419.618 463.814C419.26 464.693 418.755 465.458 418.104 466.109C417.453 466.728 416.688 467.232 415.809 467.623C414.962 467.981 414.051 468.16 413.074 468.16H402.183ZM402.183 438.369C401.239 438.369 400.425 438.711 399.741 439.395C399.09 440.046 398.765 440.844 398.765 441.788V461.03C398.765 461.974 399.09 462.788 399.741 463.472C400.425 464.123 401.239 464.448 402.183 464.448H413.074C414.018 464.448 414.816 464.123 415.467 463.472C416.151 462.788 416.493 461.974 416.493 461.03V441.788C416.493 440.844 416.151 440.046 415.467 439.395C414.816 438.711 414.018 438.369 413.074 438.369H402.183ZM431.108 434.658H433.452C433.908 434.658 434.136 434.885 434.136 435.341V464.448H453.231C453.427 464.448 453.59 464.53 453.72 464.693C453.85 464.823 453.915 464.969 453.915 465.132V467.476C453.915 467.932 453.687 468.16 453.231 468.16H431.108C430.945 468.16 430.782 468.095 430.62 467.965C430.489 467.835 430.424 467.672 430.424 467.476V435.341C430.424 435.146 430.489 434.983 430.62 434.853C430.782 434.723 430.945 434.658 431.108 434.658Z" fill="white"/>
<path fill-rule="evenodd" clip-rule="evenodd" d="M149.4 310.266L105.269 207.962C104.497 206.172 104.504 204.14 105.291 202.356L149.383 102.295C150.504 99.7511 153.018 98.1094 155.798 98.1094H411.007C413.787 98.1094 416.304 99.7511 417.425 102.295L461.517 202.356C462.304 204.14 462.312 206.172 461.539 207.962L417.408 310.266C416.299 312.836 413.768 314.501 410.968 314.501H155.84C153.04 314.501 150.509 312.836 149.4 310.266ZM305.842 114.14H261.972C259.422 114.14 257.356 116.207 257.356 118.756V289.872C257.356 292.421 259.422 294.488 261.972 294.488H305.842C308.391 294.488 310.458 292.421 310.458 289.872V118.756C310.458 116.207 308.391 114.14 305.842 114.14ZM174.289 114.14H214.599C217.824 114.14 220.055 117.363 218.919 120.381L187.566 203.729C187.176 204.766 187.172 205.91 187.555 206.95L218.98 292.285C220.089 295.298 217.859 298.496 214.648 298.496H174.315C172.472 298.496 170.806 297.4 170.077 295.708L131.89 207.185C131.382 206.007 131.387 204.67 131.904 203.495L170.065 116.895C170.803 115.22 172.46 114.14 174.289 114.14ZM353.196 114.14H393.505C395.335 114.14 396.991 115.22 397.729 116.895L435.89 203.495C436.408 204.67 436.413 206.007 435.904 207.185L397.718 295.708C396.988 297.4 395.322 298.496 393.479 298.496H353.146C349.935 298.496 347.705 295.298 348.815 292.285L380.239 206.95C380.622 205.91 380.618 204.766 380.228 203.729L348.875 120.381C347.74 117.363 349.971 114.14 353.196 114.14Z" fill="white"/>
</g>
<defs>
<clipPath id="clip0_1598_481">
<rect width="566" height="566" rx="87.8965" fill="white"/>
</clipPath>
</defs>
</svg>
