<svg width="566" height="566" viewBox="0 0 566 566" fill="none" xmlns="http://www.w3.org/2000/svg">
<g clip-path="url(#clip0_1598_503)">
<g clip-path="url(#clip1_1598_503)">
<path d="M43.2031 245.799L43.2031 325.172C43.2031 338.065 53.6453 348.517 66.5262 348.517L142.715 348.519C144.433 348.519 145.826 347.125 145.826 345.406V325.172C145.826 323.453 144.433 322.059 142.715 322.059H109.796C108.971 322.059 108.18 322.387 107.597 322.971L90.282 340.302C88.0138 342.573 84.9377 343.848 81.7301 343.848C75.0507 343.848 69.636 338.428 69.636 331.742V245.799C69.636 244.08 68.2438 242.687 66.5263 242.687H46.3128C44.5954 242.687 43.2031 244.08 43.2031 245.799Z" fill="white"/>
<path fill-rule="evenodd" clip-rule="evenodd" d="M193.594 348.545H173.362C171.644 348.545 170.25 347.152 170.25 345.433V266.062C170.25 253.169 180.701 242.717 193.594 242.717L218.835 242.712C219.661 242.712 220.451 243.04 221.036 243.624L244.75 267.327C245.94 268.519 247.556 269.189 249.241 269.188L269.942 269.174C271.661 269.174 273.054 270.568 273.054 272.287V345.433C273.054 347.152 271.661 348.545 269.942 348.545H249.71C247.991 348.545 246.598 347.152 246.598 345.433V337.652C246.598 335.933 245.204 334.539 243.485 334.539H224.452C223.626 334.539 222.835 334.211 222.251 333.627L198.15 309.597C197.616 309.065 196.706 309.444 196.706 310.197L196.706 345.433C196.706 347.152 195.313 348.545 193.594 348.545ZM246.598 269.174H187.024C180.339 269.174 174.919 274.594 174.919 281.28C174.919 284.49 176.194 287.569 178.464 289.839L194.846 306.241C196.037 307.433 197.653 308.103 199.337 308.103L243.485 308.082C245.204 308.082 246.598 306.688 246.598 304.969V269.174Z" fill="white"/>
<path d="M397.158 348.518C398.617 348.518 399.482 346.885 398.662 345.678L374.078 309.527C373.513 308.71 372.582 308.223 371.588 308.223H352.223C349.863 308.223 348.442 310.781 349.596 312.764C349.64 312.839 349.687 312.913 349.739 312.986L373.937 347.222C374.504 348.034 375.431 348.518 376.421 348.518H397.158Z" fill="white"/>
<path d="M371.732 284.265C372.922 283.073 374.537 282.404 376.221 282.404L396.911 282.413C398.629 282.413 400.022 281.019 400.022 279.301V266.076C400.022 253.188 389.576 242.739 376.691 242.739H300.287C298.614 242.739 297.258 244.096 297.258 245.769V266.158C297.258 267.832 298.614 269.188 300.287 269.188H333.406C334.231 269.188 335.022 268.86 335.605 268.277L352.927 250.951C355.196 248.682 358.273 247.407 361.481 247.407C368.163 247.407 373.579 252.825 373.579 259.508V281.571C373.579 282.039 373.201 282.418 372.734 282.418H300.4C298.681 282.418 297.288 283.81 297.288 285.529V345.283C297.288 347 298.681 348.394 300.4 348.394H320.625C322.344 348.394 323.736 347 323.736 345.283V311.569C323.736 309.851 325.13 308.458 326.849 308.458L345.108 308.822C346.356 308.846 347.511 309.493 348.182 310.546L349.6 312.765C348.446 310.782 349.867 308.223 352.227 308.223H349.778C349.059 308.223 348.698 307.354 349.206 306.845L371.732 284.265Z" fill="white"/>
<path fill-rule="evenodd" clip-rule="evenodd" d="M447.672 348.545H427.441C425.722 348.545 424.328 347.152 424.328 345.433V266.062C424.328 253.169 434.779 242.717 447.672 242.717L472.913 242.712C473.739 242.712 474.53 243.04 475.114 243.624L498.828 267.327C500.019 268.519 501.634 269.189 503.319 269.188L524.02 269.174C525.739 269.174 527.132 270.568 527.132 272.287V345.433C527.132 347.152 525.739 348.545 524.02 348.545H503.788C502.07 348.545 500.676 347.152 500.676 345.433V337.652C500.676 335.933 499.282 334.539 497.564 334.539H478.531C477.705 334.539 476.913 334.211 476.329 333.627L452.228 309.597C451.694 309.065 450.785 309.444 450.785 310.197V345.433C450.785 347.152 449.391 348.545 447.672 348.545ZM500.676 269.174H441.102C434.417 269.174 428.997 274.594 428.997 281.28C428.997 284.49 430.272 287.569 432.542 289.839L448.924 306.241C450.115 307.433 451.731 308.103 453.415 308.103L497.564 308.082C499.282 308.082 500.676 306.688 500.676 304.969V269.174Z" fill="white"/>
</g>
<path d="M100.661 386.68V413.481H120.347V418.257H95.1056V386.68H100.661ZM130.851 410.85V406.123H149.661V410.85H130.851ZM123.542 418.257L137.332 386.68H143.277L157.165 418.257H151.171L139.086 389.75H141.523L129.487 418.257H123.542ZM161.87 418.257V386.68H177.951C181.817 386.68 184.773 387.411 186.82 388.873C188.899 390.302 189.938 392.382 189.938 395.11C189.938 396.865 189.532 398.262 188.72 399.301C187.941 400.308 186.82 401.072 185.358 401.591C183.896 402.079 182.174 402.387 180.193 402.517L180.388 402.225C181.817 402.257 183.165 402.387 184.432 402.615C185.732 402.81 186.869 403.167 187.843 403.687C188.85 404.207 189.63 404.937 190.182 405.88C190.767 406.789 191.059 407.975 191.059 409.437C191.059 411.386 190.572 412.994 189.597 414.261C188.623 415.528 187.275 416.503 185.553 417.185C183.831 417.835 181.849 418.192 179.608 418.257H161.87ZM167.426 413.53H178.779C180.891 413.53 182.532 413.173 183.701 412.458C184.871 411.711 185.455 410.558 185.455 408.998C185.455 407.764 185.098 406.87 184.383 406.318C183.669 405.733 182.743 405.36 181.606 405.197C180.501 405.035 179.316 404.954 178.049 404.954H167.426V413.53ZM167.426 400.324H177.61C179.722 400.324 181.346 399.967 182.483 399.252C183.652 398.505 184.237 397.336 184.237 395.744C184.237 394.185 183.652 393.08 182.483 392.43C181.346 391.748 179.852 391.407 178 391.407H167.426V400.324ZM208.125 418.257V386.68H226.788C229.128 386.68 231.158 387.021 232.88 387.704C234.601 388.353 235.933 389.377 236.875 390.774C237.818 392.138 238.289 393.892 238.289 396.036C238.289 397.466 238.045 398.7 237.558 399.74C237.07 400.747 236.388 401.575 235.511 402.225C234.634 402.875 233.611 403.378 232.441 403.736C231.304 404.093 230.086 404.32 228.786 404.418L228.299 404.077C230.378 404.109 232.1 404.304 233.464 404.661C234.829 404.986 235.868 405.62 236.583 406.562C237.298 407.471 237.655 408.82 237.655 410.606V418.257H232.149V410.899C232.149 409.664 231.921 408.706 231.467 408.024C231.044 407.309 230.297 406.822 229.225 406.562C228.185 406.269 226.691 406.123 224.742 406.123H213.68V418.257H208.125ZM213.68 401.591H226.788C228.738 401.591 230.216 401.104 231.223 400.13C232.23 399.155 232.733 397.872 232.733 396.28C232.733 394.753 232.23 393.584 231.223 392.771C230.216 391.927 228.738 391.504 226.788 391.504H213.68V401.591ZM262.108 418.842C258.405 418.842 255.172 418.176 252.411 416.844C249.682 415.512 247.554 413.628 246.027 411.191C244.533 408.755 243.786 405.847 243.786 402.469C243.786 399.09 244.533 396.182 246.027 393.746C247.554 391.277 249.682 389.393 252.411 388.093C255.172 386.761 258.405 386.095 262.108 386.095C265.844 386.095 269.076 386.761 271.805 388.093C274.534 389.393 276.646 391.277 278.14 393.746C279.667 396.182 280.43 399.09 280.43 402.469C280.43 405.847 279.667 408.755 278.14 411.191C276.646 413.628 274.534 415.512 271.805 416.844C269.076 418.176 265.844 418.842 262.108 418.842ZM262.108 413.969C264.577 413.969 266.754 413.546 268.638 412.702C270.522 411.857 272 410.59 273.072 408.901C274.177 407.179 274.729 405.035 274.729 402.469C274.729 399.935 274.177 397.823 273.072 396.134C272 394.412 270.522 393.129 268.638 392.284C266.754 391.407 264.577 390.968 262.108 390.968C259.672 390.968 257.495 391.407 255.578 392.284C253.662 393.129 252.151 394.412 251.047 396.134C249.942 397.823 249.39 399.935 249.39 402.469C249.39 405.035 249.942 407.179 251.047 408.901C252.151 410.59 253.662 411.857 255.578 412.702C257.495 413.546 259.672 413.969 262.108 413.969ZM286.787 418.257V386.68H302.867C306.733 386.68 309.69 387.411 311.736 388.873C313.815 390.302 314.855 392.382 314.855 395.11C314.855 396.865 314.449 398.262 313.637 399.301C312.857 400.308 311.736 401.072 310.274 401.591C308.812 402.079 307.091 402.387 305.109 402.517L305.304 402.225C306.733 402.257 308.082 402.387 309.348 402.615C310.648 402.81 311.785 403.167 312.76 403.687C313.767 404.207 314.546 404.937 315.099 405.88C315.683 406.789 315.976 407.975 315.976 409.437C315.976 411.386 315.488 412.994 314.514 414.261C313.539 415.528 312.191 416.503 310.469 417.185C308.747 417.835 306.766 418.192 304.524 418.257H286.787ZM292.342 413.53H303.696C305.807 413.53 307.448 413.173 308.618 412.458C309.787 411.711 310.372 410.558 310.372 408.998C310.372 407.764 310.014 406.87 309.3 406.318C308.585 405.733 307.659 405.36 306.522 405.197C305.418 405.035 304.232 404.954 302.965 404.954H292.342V413.53ZM292.342 400.324H302.526C304.638 400.324 306.262 399.967 307.399 399.252C308.569 398.505 309.154 397.336 309.154 395.744C309.154 394.185 308.569 393.08 307.399 392.43C306.262 391.748 304.768 391.407 302.916 391.407H292.342V400.324ZM338.866 418.842C335.163 418.842 331.93 418.176 329.169 416.844C326.44 415.512 324.312 413.628 322.786 411.191C321.291 408.755 320.544 405.847 320.544 402.469C320.544 399.09 321.291 396.182 322.786 393.746C324.312 391.277 326.44 389.393 329.169 388.093C331.93 386.761 335.163 386.095 338.866 386.095C342.602 386.095 345.835 386.761 348.563 388.093C351.292 389.393 353.404 391.277 354.898 393.746C356.425 396.182 357.188 399.09 357.188 402.469C357.188 405.847 356.425 408.755 354.898 411.191C353.404 413.628 351.292 415.512 348.563 416.844C345.835 418.176 342.602 418.842 338.866 418.842ZM338.866 413.969C341.335 413.969 343.512 413.546 345.396 412.702C347.28 411.857 348.758 410.59 349.83 408.901C350.935 407.179 351.487 405.035 351.487 402.469C351.487 399.935 350.935 397.823 349.83 396.134C348.758 394.412 347.28 393.129 345.396 392.284C343.512 391.407 341.335 390.968 338.866 390.968C336.43 390.968 334.253 391.407 332.337 392.284C330.42 393.129 328.909 394.412 327.805 396.134C326.7 397.823 326.148 399.935 326.148 402.469C326.148 405.035 326.7 407.179 327.805 408.901C328.909 410.59 330.42 411.857 332.337 412.702C334.253 413.546 336.43 413.969 338.866 413.969ZM335.991 382.538L342.082 374.79H349.246L341.108 382.538H335.991ZM359.669 386.68H389.979V391.456H359.669V386.68ZM372.095 390.871H377.602V418.257H372.095V390.871ZM395.593 386.68H401.148V418.257H395.593V386.68ZM442.939 407.195C442.614 409.632 441.753 411.727 440.356 413.481C438.96 415.203 437.092 416.535 434.753 417.477C432.446 418.387 429.75 418.842 426.664 418.842C424 418.842 421.547 418.484 419.305 417.77C417.096 417.055 415.163 416.015 413.507 414.651C411.882 413.254 410.615 411.548 409.706 409.534C408.829 407.488 408.39 405.149 408.39 402.517C408.39 399.853 408.829 397.514 409.706 395.5C410.615 393.486 411.882 391.781 413.507 390.384C415.163 388.954 417.096 387.882 419.305 387.168C421.547 386.453 424 386.095 426.664 386.095C429.782 386.095 432.495 386.567 434.801 387.509C437.14 388.451 439.008 389.799 440.405 391.553C441.802 393.307 442.647 395.419 442.939 397.888H437.579C437.124 396.426 436.409 395.192 435.435 394.185C434.46 393.145 433.226 392.349 431.731 391.797C430.269 391.245 428.58 390.968 426.664 390.968C424.26 390.968 422.099 391.423 420.183 392.333C418.266 393.21 416.755 394.509 415.651 396.231C414.579 397.92 414.043 400.016 414.043 402.517C414.043 404.986 414.579 407.082 415.651 408.803C416.755 410.493 418.266 411.776 420.183 412.653C422.099 413.53 424.26 413.969 426.664 413.969C428.58 413.969 430.269 413.709 431.731 413.189C433.193 412.637 434.411 411.857 435.386 410.85C436.361 409.81 437.075 408.592 437.53 407.195H442.939ZM452.35 410.85V406.123H471.16V410.85H452.35ZM445.041 418.257L458.831 386.68H464.776L478.664 418.257H472.67L460.586 389.75H463.022L450.986 418.257H445.041Z" fill="white"/>
</g>
<defs>
<clipPath id="clip0_1598_503">
<rect width="566" height="566" rx="87.8965" fill="white"/>
</clipPath>
<clipPath id="clip1_1598_503">
<rect width="483.927" height="105.935" fill="white" transform="translate(43.2031 242.685)"/>
</clipPath>
</defs>
</svg>
