<svg width="566" height="566" viewBox="0 0 566 566" fill="none" xmlns="http://www.w3.org/2000/svg">
<g clip-path="url(#clip0_1598_496)">
<g clip-path="url(#clip1_1598_496)">
<path d="M48.6016 199.798V332.429C48.6016 353.973 66.0503 371.44 87.5743 371.44L214.886 371.441C217.756 371.441 220.083 369.113 220.083 366.24V332.429C220.083 329.556 217.756 327.228 214.886 327.228H159.878C158.5 327.228 157.178 327.776 156.203 328.751L127.27 357.712C123.48 361.506 118.34 363.637 112.98 363.637C101.819 363.637 92.7707 354.58 92.7707 343.409V199.798C92.7707 196.925 90.4443 194.597 87.5744 194.597H53.7979C50.928 194.597 48.6016 196.925 48.6016 199.798Z" fill="white"/>
<path d="M305.165 365.964V199.64V199.64C305.165 196.768 302.836 194.44 299.963 194.44L266.154 194.438C263.282 194.438 260.953 196.767 260.953 199.638V199.639V365.964C260.953 368.836 263.282 371.165 266.154 371.165H299.963C302.836 371.165 305.165 368.836 305.165 365.964Z" fill="white"/>
<path fill-rule="evenodd" clip-rule="evenodd" d="M384.601 371.488H350.795C347.922 371.488 345.594 369.159 345.594 366.286V233.657C345.594 212.113 363.057 194.648 384.601 194.648L426.778 194.64C428.159 194.64 429.48 195.188 430.457 196.163L470.082 235.771C472.072 237.763 474.772 238.882 477.587 238.881L512.178 238.858C515.05 238.858 517.379 241.187 517.379 244.059V366.286C517.379 369.159 515.05 371.488 512.178 371.488H478.371C475.499 371.488 473.17 369.159 473.17 366.286V353.283C473.17 350.411 470.842 348.082 467.97 348.082H436.166C434.785 348.082 433.462 347.534 432.487 346.559L392.214 306.405C391.323 305.516 389.802 306.148 389.802 307.407V366.286C389.802 369.159 387.474 371.488 384.601 371.488ZM473.17 238.858H373.623C362.452 238.858 353.395 247.914 353.395 259.086C353.395 264.451 355.526 269.596 359.32 273.389L386.694 300.797C388.683 302.789 391.383 303.908 394.198 303.907L467.97 303.872C470.842 303.872 473.17 301.544 473.17 298.671V238.858Z" fill="white"/>
</g>
<path d="M192.145 407.892V441.474H216.813V447.458H185.184V407.892H192.145ZM229.974 438.177V432.255H253.542V438.177H229.974ZM220.815 447.458L238.095 407.892H245.544L262.945 447.458H255.435L240.293 411.739H243.346L228.264 447.458H220.815ZM268.841 447.458V407.892H288.99C293.834 407.892 297.539 408.808 300.103 410.64C302.708 412.431 304.011 415.036 304.011 418.455C304.011 420.653 303.502 422.404 302.484 423.706C301.507 424.968 300.103 425.925 298.271 426.576C296.44 427.187 294.282 427.573 291.799 427.736L292.043 427.37C293.834 427.411 295.524 427.573 297.111 427.858C298.739 428.103 300.164 428.55 301.385 429.202C302.647 429.853 303.624 430.769 304.316 431.949C305.049 433.089 305.415 434.575 305.415 436.406C305.415 438.849 304.805 440.864 303.583 442.451C302.362 444.039 300.673 445.26 298.516 446.115C296.358 446.929 293.875 447.377 291.066 447.458H268.841ZM275.802 441.535H290.028C292.674 441.535 294.73 441.088 296.195 440.192C297.661 439.256 298.393 437.811 298.393 435.857C298.393 434.31 297.946 433.191 297.05 432.499C296.155 431.766 294.995 431.298 293.57 431.094C292.186 430.891 290.7 430.789 289.113 430.789H275.802V441.535ZM275.802 424.989H288.563C291.209 424.989 293.244 424.541 294.669 423.645C296.134 422.709 296.867 421.244 296.867 419.249C296.867 417.295 296.134 415.911 294.669 415.097C293.244 414.242 291.372 413.815 289.052 413.815H275.802V424.989ZM327.959 407.892H334.92V447.458H327.959V407.892ZM351.077 438.177V432.255H374.645V438.177H351.077ZM341.918 447.458L359.197 407.892H366.647L384.048 447.458H376.538L361.396 411.739H364.448L349.367 447.458H341.918Z" fill="white"/>
</g>
<defs>
<clipPath id="clip0_1598_496">
<rect width="566" height="566" rx="87.8965" fill="white"/>
</clipPath>
<clipPath id="clip1_1598_496">
<rect width="468.781" height="177.185" fill="white" transform="translate(48.6016 194.438)"/>
</clipPath>
</defs>
</svg>
