<svg width="566" height="566" viewBox="0 0 566 566" fill="none" xmlns="http://www.w3.org/2000/svg">
<g clip-path="url(#clip0_1598_467)">
<g clip-path="url(#clip1_1598_467)">
<path d="M22.2578 229.002V314.467C22.2578 328.35 33.5015 339.605 47.3712 339.605L129.409 339.606C131.258 339.606 132.757 338.105 132.757 336.255V314.467C132.757 312.616 131.258 311.116 129.409 311.116H93.9623C93.0743 311.116 92.2225 311.469 91.5947 312.097L72.9504 330.759C70.5081 333.204 67.1959 334.577 63.7421 334.577C56.55 334.577 50.7196 328.741 50.7196 321.542V229.002C50.7196 227.151 49.2206 225.65 47.3713 225.65H25.6062C23.7569 225.65 22.2578 227.151 22.2578 229.002Z" fill="white"/>
<path d="M269.75 250.795V307.774C269.75 309.625 268.25 311.125 266.399 311.125L244.109 311.105C242.295 311.104 240.555 311.825 239.273 313.109L213.758 338.633C213.129 339.262 212.277 339.615 211.387 339.615H162.406C160.555 339.615 159.055 338.114 159.055 336.263V229.009C159.055 227.158 160.555 225.657 162.406 225.657H184.28C186.082 225.657 187.542 227.118 187.542 228.919V257.498V307.774C187.542 309.559 188.937 311.018 190.696 311.12H240.352C240.855 311.12 241.263 310.712 241.263 310.208V243.72V228.919C241.263 227.118 242.723 225.657 244.525 225.657H266.488C268.29 225.657 269.75 227.118 269.75 228.919V250.795Z" fill="white"/>
<path d="M324.372 336.076V228.9V228.899C324.372 227.049 322.872 225.549 321.02 225.549L299.234 225.548C297.383 225.548 295.883 227.048 295.883 228.899V228.899V336.076C295.883 337.927 297.383 339.427 299.234 339.427H321.02C322.872 339.427 324.372 337.927 324.372 336.076Z" fill="white"/>
<mask id="mask0_1598_467" style="mask-type:luminance" maskUnits="userSpaceOnUse" x="350" y="225" width="140" height="115">
<path d="M489.506 225.648H350.43V339.606H489.506V225.648Z" fill="white"/>
</mask>
<g mask="url(#mask0_1598_467)">
<path d="M427.253 339.643V311.008L422.134 310.986C421.246 310.986 420.394 311.34 419.767 311.968L401.122 330.63C398.68 333.075 395.368 334.448 391.914 334.448C384.721 334.448 378.892 328.612 378.892 321.413V254.926C378.892 254.422 379.299 254.014 379.802 254.014L457.58 254.009C459.43 254.009 460.928 252.508 460.928 250.657V228.873C460.928 227.022 459.43 225.521 457.58 225.521L408.741 225.52C407.852 225.52 407.001 225.873 406.372 226.501L380.88 252.025C379.599 253.309 377.861 254.03 376.048 254.029L353.778 254.008C351.929 254.008 350.43 255.509 350.43 257.36V314.338C350.43 328.221 361.673 339.475 375.543 339.475L427.253 339.643Z" fill="white"/>
<path d="M457.674 311.139L427.245 311.009V339.643H464.379C478.266 339.643 489.524 328.383 489.524 314.493V300.24C489.524 298.388 488.023 296.887 486.171 296.887L463.873 296.908C462.058 296.908 460.319 296.187 459.036 294.902L433.511 269.365C432.883 268.736 432.03 268.383 431.141 268.383H397.704C395.852 268.383 394.352 269.884 394.352 271.736V293.534C394.352 295.386 395.852 296.887 397.704 296.887L460.115 296.893C460.619 296.893 461.027 297.301 461.027 297.805V307.786C461.027 309.638 459.526 311.139 457.674 311.139Z" fill="white"/>
</g>
<path d="M544.13 336.076V228.9V228.899C544.13 227.049 542.629 225.549 540.778 225.549L518.992 225.548C517.141 225.548 515.641 227.048 515.641 228.899V228.899V336.076C515.641 337.927 517.141 339.427 518.992 339.427H540.778C542.629 339.427 544.13 337.927 544.13 336.076Z" fill="white"/>
</g>
<path d="M118.466 379.955V410.742H141.081V416.228H112.085V379.955H118.466ZM153.147 407.719V402.289H174.753V407.719H153.147ZM144.75 416.228L160.591 379.955H167.42L183.374 416.228H176.489L162.606 383.481H165.405L151.579 416.228H144.75ZM188.779 416.228V379.955H207.251C211.692 379.955 215.088 380.795 217.439 382.474C219.827 384.116 221.021 386.504 221.021 389.639C221.021 391.654 220.555 393.259 219.622 394.453C218.726 395.61 217.439 396.487 215.759 397.084C214.08 397.643 212.102 397.998 209.826 398.147L210.05 397.811C211.692 397.849 213.24 397.998 214.696 398.259C216.189 398.483 217.495 398.894 218.614 399.491C219.771 400.088 220.667 400.927 221.301 402.01C221.973 403.054 222.309 404.417 222.309 406.096C222.309 408.335 221.749 410.182 220.629 411.637C219.51 413.093 217.961 414.212 215.983 414.996C214.005 415.742 211.729 416.153 209.154 416.228H188.779ZM195.16 410.798H208.203C210.628 410.798 212.513 410.387 213.856 409.566C215.2 408.708 215.871 407.383 215.871 405.592C215.871 404.174 215.461 403.148 214.64 402.513C213.819 401.842 212.755 401.412 211.449 401.226C210.18 401.039 208.818 400.946 207.363 400.946H195.16V410.798ZM195.16 395.628H206.859C209.285 395.628 211.151 395.218 212.457 394.397C213.8 393.539 214.472 392.195 214.472 390.367C214.472 388.575 213.8 387.306 212.457 386.56C211.151 385.776 209.434 385.385 207.307 385.385H195.16V395.628ZM260.776 416.899C257.679 416.899 254.88 416.489 252.38 415.668C249.88 414.847 247.734 413.653 245.943 412.085C244.189 410.481 242.827 408.521 241.857 406.208C240.924 403.894 240.457 401.282 240.457 398.371C240.457 395.423 240.961 392.774 241.968 390.423C242.976 388.072 244.413 386.075 246.279 384.433C248.145 382.754 250.365 381.485 252.94 380.627C255.515 379.731 258.351 379.283 261.448 379.283C265.068 379.283 268.203 379.843 270.852 380.963C273.502 382.082 275.61 383.649 277.178 385.665C278.745 387.642 279.64 389.993 279.864 392.718H273.987C273.502 391.113 272.699 389.732 271.58 388.575C270.498 387.418 269.098 386.523 267.382 385.888C265.702 385.217 263.725 384.881 261.448 384.881C258.463 384.881 255.869 385.459 253.668 386.616C251.503 387.736 249.842 389.322 248.686 391.374C247.529 393.389 246.95 395.722 246.95 398.371C246.95 401.021 247.454 403.316 248.462 405.256C249.507 407.159 251.074 408.652 253.164 409.734C255.254 410.779 257.847 411.302 260.944 411.302C263.333 411.302 265.423 410.947 267.214 410.238C269.042 409.492 270.554 408.466 271.748 407.159C272.942 405.853 273.782 404.342 274.267 402.625L277.122 401.954C276.599 406.768 274.882 410.462 271.972 413.037C269.098 415.612 265.367 416.899 260.776 416.899ZM275.61 416.228C275.61 415.033 275.666 413.69 275.778 412.197C275.89 410.667 276.021 409.119 276.17 407.551C276.357 405.947 276.524 404.51 276.674 403.241H261.672V398.651H281.264V416.228H275.61ZM294.126 407.719V402.289H315.732V407.719H294.126ZM285.729 416.228L301.57 379.955H308.4L324.353 416.228H317.468L303.586 383.481H306.384L292.558 416.228H285.729ZM355.283 412.925H352.428L371.684 379.955H378.009V416.228H371.684V389.079L373.14 389.471L357.354 416.228H350.413L334.628 389.583L336.139 389.135V416.228H329.758V379.955H336.139L355.283 412.925ZM393.099 400.778V410.742H418.569V416.228H386.718V379.955H418.513V385.441H393.099V395.516H413.923V400.778H393.099ZM423.888 404.193H430.101C430.251 405.573 430.792 406.824 431.725 407.943C432.695 409.025 433.964 409.884 435.531 410.518C437.136 411.115 438.964 411.414 441.017 411.414C442.845 411.414 444.357 411.19 445.551 410.742C446.745 410.294 447.622 409.678 448.182 408.895C448.779 408.074 449.077 407.122 449.077 406.04C449.077 404.958 448.723 404.118 448.014 403.521C447.342 402.887 446.297 402.364 444.879 401.954C443.461 401.506 441.651 401.077 439.449 400.666C437.621 400.33 435.848 399.882 434.132 399.323C432.415 398.763 430.866 398.054 429.486 397.196C428.142 396.337 427.079 395.292 426.295 394.061C425.511 392.792 425.12 391.299 425.12 389.583C425.12 387.642 425.661 385.888 426.743 384.321C427.862 382.754 429.504 381.522 431.669 380.627C433.833 379.731 436.464 379.283 439.561 379.283C444.301 379.283 447.921 380.384 450.421 382.586C452.921 384.75 454.134 387.698 454.059 391.43H447.958C447.846 389.079 446.988 387.381 445.383 386.336C443.778 385.291 441.745 384.769 439.282 384.769C437.08 384.769 435.233 385.161 433.74 385.944C432.247 386.728 431.501 387.997 431.501 389.751C431.501 390.497 431.669 391.15 432.005 391.71C432.378 392.232 432.975 392.718 433.796 393.165C434.617 393.576 435.736 393.986 437.154 394.397C438.61 394.77 440.382 395.18 442.472 395.628C444.263 395.927 445.943 396.337 447.51 396.86C449.077 397.382 450.439 398.035 451.596 398.819C452.79 399.603 453.723 400.61 454.395 401.842C455.067 403.073 455.403 404.584 455.403 406.376C455.403 408.428 454.88 410.257 453.835 411.861C452.79 413.429 451.186 414.679 449.021 415.612C446.894 416.507 444.133 416.955 440.737 416.955C438.162 416.955 435.904 416.657 433.964 416.06C432.061 415.425 430.437 414.623 429.094 413.653C427.75 412.645 426.668 411.563 425.847 410.406C425.064 409.249 424.504 408.13 424.168 407.047C423.869 405.928 423.776 404.976 423.888 404.193Z" fill="white"/>
</g>
<defs>
<clipPath id="clip0_1598_467">
<rect width="566" height="566" rx="87.8965" fill="white"/>
</clipPath>
<clipPath id="clip1_1598_467">
<rect width="521.943" height="114.066" fill="white" transform="translate(22.2578 225.548)"/>
</clipPath>
</defs>
</svg>
