<svg width="566" height="566" viewBox="0 0 566 566" fill="none" xmlns="http://www.w3.org/2000/svg">
<g clip-path="url(#clip0_1598_782)">
<path fill-rule="evenodd" clip-rule="evenodd" d="M282.936 310.357C282.727 310.9 282.558 331.031 282.559 355.094C282.562 401.891 282.719 404.754 285.803 413.771C290.88 428.617 303.553 442.267 317.945 448.392C328.094 452.71 329.962 452.961 354.131 453.249C370.547 453.445 376.363 453.324 377.029 452.771C378.266 451.744 377.599 445.546 375.702 440.432C373.704 435.044 370.873 431.327 366.591 428.467C361.36 424.974 357.697 424.099 348.242 424.086C335.031 424.068 328.881 422.101 322.496 415.849C318.91 412.337 316.662 408.806 314.909 403.93C313.82 400.903 313.728 399.037 313.879 383.201L314.045 365.799L328.697 365.415C344.556 365 346.708 364.652 353.35 361.431C361.593 357.434 366.638 350.78 367.991 342.122C368.599 338.227 368.557 337.691 367.582 336.978C366.739 336.362 360.524 336.182 340.093 336.182C319.502 336.182 313.647 336.01 313.483 335.402C313.367 334.974 312.956 332.945 312.57 330.894C310.619 320.53 303.404 313.186 292.347 310.311C287.502 309.051 283.429 309.071 282.936 310.357ZM429.157 336.878C422.735 337.623 416.996 339.132 412.248 341.325C396.359 348.664 384.392 362.151 379.414 378.329C377.831 383.474 377.705 384.679 377.697 394.792C377.69 404.132 377.882 406.381 379.037 410.408C381.946 420.55 386.472 428.121 394.316 435.965C403.961 445.609 414.643 450.924 428.036 452.741C433.166 453.436 469.423 453.675 471.119 453.024C472.403 452.531 472.406 449.177 471.128 443.62C469.024 434.477 463.127 428.134 453.899 425.089C452.214 424.533 447.395 424.099 440.929 423.921C427.634 423.553 422.963 421.985 416.641 415.764C404.924 404.236 404.953 385.576 416.705 374.076C423.002 367.914 427.858 366.133 438.435 366.105C452.665 366.067 459.58 363.889 465.038 357.725C468.534 353.775 469.991 350.992 471.163 346.021C472.406 340.751 472.389 337.047 471.119 336.56C469.646 335.995 434.471 336.261 429.157 336.878ZM165.947 337.522C150.012 338.738 135.239 347.132 124.576 361.029C121.698 364.779 117.702 372.084 116.632 375.549C113.964 384.189 114.026 383.244 113.762 418.705L113.508 452.906L116.82 452.502C128.2 451.114 135.266 446.817 139.603 438.648C142.46 433.266 142.89 429.52 142.89 410.039C142.89 400.375 143.171 390.957 143.515 389.109C144.469 383.976 147.711 378.129 151.973 373.852C157.893 367.912 163.685 365.487 171.953 365.487C183.115 365.487 193.046 371.827 197.842 382.012C200.506 387.672 200.876 390.993 200.889 409.373C200.904 429.088 201.384 433.445 204.105 438.551C206.688 443.397 212.083 448.321 216.824 450.157C221.051 451.795 228.887 453.076 229.701 452.262C230 451.963 230.15 436.805 230.036 418.424C229.835 386.242 229.782 384.96 228.44 380.139C223.99 364.151 213.224 351.124 197.854 343.127C188.903 338.471 178.188 336.588 165.947 337.522ZM241.821 337.221C241.066 337.976 241.339 428.085 242.106 431.704C244.543 443.19 253.286 451.015 265.637 452.767C268.048 453.108 270.467 453.218 271.011 453.008C271.906 452.665 271.984 447.996 271.823 404.537L271.646 356.446L269.521 352.099C265.705 344.289 259.351 339.316 250.883 337.51C247.223 336.729 242.465 336.578 241.821 337.221ZM434.258 376.656C420.824 381.235 416.584 398.275 426.43 408.121C430.707 412.398 433.995 413.77 439.994 413.781C445.795 413.792 449.227 412.517 453.301 408.836C459.218 403.491 461.083 393.763 457.525 386.802C454.501 380.883 450.632 377.731 444.493 376.185C440.651 375.218 438.137 375.333 434.258 376.656Z" fill="white"/>
<path d="M186.368 103.558C190.229 94.9756 194.958 91.7957 209.148 88.2398C212.92 87.2946 216.217 86.4965 216.474 86.4666C217.467 86.35 216.874 87.5596 215.497 88.4618C214.703 88.9824 211.941 91.4995 209.36 94.0553C204.282 99.0846 199.771 102.364 192.936 105.996C190.536 107.271 187.805 108.981 186.867 109.795C184.963 111.448 175.166 123.833 175.166 124.587C175.166 125.606 176.215 124.949 179.346 121.966C183.362 118.14 185.405 117.259 194.683 115.356C202.736 113.703 203.848 113.585 203.848 114.377C203.848 115.391 195.417 123.657 193.248 124.768C189.55 126.665 185.077 127.549 179.139 127.556C175.353 127.561 173.234 127.824 172.807 128.343C171.64 129.761 165.736 141.983 165.933 142.573C166.039 142.893 167.477 141.896 169.128 140.358C172.447 137.267 175.926 135.519 181.655 134.065C183.745 133.534 186.359 132.783 187.465 132.395C188.571 132.007 189.662 131.874 189.889 132.101C190.513 132.726 185.343 140.331 182.623 142.789C178.979 146.081 176.839 146.923 170.279 147.646C166.965 148.012 163.972 148.531 163.626 148.8C163.28 149.069 162.633 150.644 162.189 152.3C161.4 155.239 161.038 156.649 159.558 162.561C158.355 167.365 159.054 168.273 161.175 164.663C164.118 159.657 167.465 156.838 175.062 152.972C178.935 151 182.227 149.386 182.377 149.386C183.929 149.386 178.717 160.684 175.545 164.194C172.867 167.158 169.702 168.749 163.501 170.246C161.029 170.843 158.732 171.663 158.395 172.068C158.059 172.473 157.588 176.334 157.348 180.647C156.679 192.691 157.99 196.532 160.038 188.527C161.68 182.11 163.664 179.821 174.805 171.483C176.835 169.963 178.597 168.821 178.72 168.944C179.207 169.431 177.45 178.571 176.254 181.772C174.469 186.554 170.39 190.451 164.878 192.64C157.879 195.419 157.573 195.711 158.042 199.148C158.388 201.681 160.311 211.667 161.282 215.973C161.919 218.795 162.997 216.844 163.69 211.617C164.078 208.689 165.01 205.062 165.761 203.559C167.268 200.541 178.117 188.917 178.794 189.594C179.548 190.348 178.976 202.167 178.058 204.835C176.364 209.749 172.978 213.307 166.749 216.718C162.177 219.221 162.186 219.19 164.532 224.98C167.539 232.4 171.38 239.897 171.982 239.525C172.267 239.349 172.362 236.562 172.193 233.333C171.968 229.022 172.14 226.715 172.84 224.66C173.81 221.813 182.576 208.339 183.11 208.873C183.78 209.544 185.141 218.585 185.136 222.337C185.128 227.887 183.268 231.731 178.642 235.752C176.676 237.461 174.528 239.114 173.869 239.424C171.578 240.501 172.094 241.694 179.078 251.487C181.83 255.344 184.431 258.501 184.856 258.501C185.282 258.501 185.8 259.173 186.006 259.995C186.485 261.904 199.504 274.318 200.247 273.575C200.735 273.086 199.932 270.587 198.16 267.083C197.859 266.488 197.622 263.963 197.634 261.472C197.651 257.956 198.069 255.896 199.503 252.266C200.518 249.694 201.35 246.975 201.351 246.224C201.356 243.493 202.575 244.222 204.872 248.331C210.975 259.243 210.775 262.455 203.381 272.222C201.74 274.389 201.499 275.07 202.109 275.806C203.893 277.957 218.067 286.559 219.825 286.559C220.416 286.559 219.807 285.257 218.054 282.773L215.383 278.985L215.167 270.302C215.049 265.526 215.105 261.619 215.293 261.619C216.122 261.619 223.625 269.982 224.892 272.32C226.557 275.393 226.642 277.747 225.287 283.144C224.095 287.887 224.328 288.796 226.876 289.356C229.916 290.024 229.111 290.726 224.892 291.087C222.748 291.27 217.937 292.288 214.2 293.349C204.163 296.2 198.131 296.931 191.53 296.098C185.704 295.363 180.033 293.63 176.846 291.612C174.518 290.138 174.648 290.078 182.337 289.122C201.265 286.768 201.857 286.763 215.305 288.836C218.531 289.333 218.123 288.071 214.405 286.055C210.892 284.15 201.934 278.405 200.815 277.339C199.875 276.445 197.16 276.676 189.902 278.27C183.13 279.757 173.507 279.16 167.996 276.91C163.176 274.943 152.72 268.686 152.72 267.77C152.72 267.447 154.04 267.326 155.682 267.499C157.311 267.671 162.396 267.973 166.983 268.171C177.755 268.636 183.26 269.911 192.313 274.037C195.775 275.614 197.613 276.134 197.609 275.534C197.607 275.254 194.346 271.808 190.363 267.876L183.122 260.727L172.753 260.693C162.75 260.661 162.232 260.596 158.07 258.849C155.697 257.852 151.628 255.425 149.029 253.455C144.154 249.76 137.334 243.105 139.018 243.686C139.541 243.866 142.627 244.632 145.876 245.389C160.184 248.72 162.605 249.393 166.339 251.078C168.514 252.06 172.658 254.314 175.548 256.086C178.438 257.858 180.962 259.148 181.158 258.953C181.353 258.758 180.384 257.07 179.004 255.203C177.624 253.335 175.055 249.601 173.294 246.903C169.62 241.274 169.38 241.069 166.437 241.041C163.384 241.012 154.236 239.349 150.695 238.18C144.947 236.282 138.414 230.449 132.395 221.84C128.92 216.87 128.771 215.431 131.963 217.666C132.701 218.184 135.582 219.582 138.365 220.772C150.968 226.167 155.798 229.159 163.943 236.614C169.434 241.64 169.462 241.373 164.598 230.443C162.843 226.499 161.026 222.414 160.559 221.365C159.813 219.684 159.038 219.25 154.045 217.719C140.472 213.555 135.192 209.244 130.304 198.332C128.601 194.531 126.526 188.466 126.826 188.166C127.286 187.706 144.471 201.18 147.86 204.658C149.816 206.665 152.918 210.413 154.754 212.985C156.589 215.557 158.356 217.521 158.679 217.349C159.372 216.982 159.414 217.358 157.853 209.867C155.306 197.645 155.119 195.83 155.188 183.903L155.257 171.881L153.212 170.143C143.241 161.665 139.683 156.115 139.229 148.329C138.904 142.763 140.178 133.716 141.341 133.33C141.77 133.188 142.12 133.391 142.12 133.781C142.12 134.172 143.698 137.633 145.627 141.472C150.364 150.897 151.775 154.838 153 162.056C154.163 168.907 154.47 169.962 155.3 169.962C155.995 169.962 156.023 169.863 157.363 162.792C157.947 159.706 158.825 155.797 159.314 154.105C159.802 152.414 160.202 150.36 160.202 149.542C160.202 148.194 157.399 143.429 155.42 141.412C154.986 140.97 153.735 138.731 152.639 136.436C149.338 129.519 150.091 122.12 155.097 112.287L156.684 109.17L157.83 114.47C160.736 127.913 160.935 129.587 160.578 137.54C160.078 148.663 160.78 149.055 164.456 139.701C165.135 137.974 166.7 134.724 167.934 132.478C169.168 130.233 170.178 128.032 170.178 127.587C170.178 127.143 171.09 125.727 172.205 124.44C173.319 123.153 175.286 120.587 176.575 118.738C177.865 116.89 179.887 114.261 181.069 112.897C183.355 110.26 183.35 110.269 186.368 103.558Z" fill="white"/>
<path d="M369.858 88.4587C369.086 87.9399 368.455 87.2615 368.455 86.9516C368.455 86.3637 368.704 86.4011 375.314 87.9873C383.146 89.8666 384.15 90.192 388.183 92.1586C393.431 94.7175 397.69 99.3028 399.626 104.48C400.917 107.934 410.325 121.707 413.947 125.447C414.646 126.169 415.219 127.058 415.219 127.424C415.219 127.79 416.42 130.426 417.887 133.282C419.355 136.138 421.36 140.369 422.342 142.684C423.326 144.999 424.365 146.892 424.651 146.892C424.938 146.892 424.994 142.977 424.776 138.192C424.397 129.861 424.47 129.079 426.496 119.798C427.659 114.467 428.793 110.105 429.015 110.105C429.236 110.105 429.881 111.081 430.447 112.274C435.514 122.951 436.181 129.587 432.864 136.304C431.766 138.527 429.545 142.159 427.928 144.376L424.987 148.406L426.02 153.105C427.226 158.593 428.921 166.55 429.311 168.559C429.461 169.331 429.802 169.962 430.07 169.962C430.709 169.962 432.054 166.204 432.054 164.417C432.054 160.357 435.04 151.546 439.54 142.325L444.37 132.429L445.199 135.764C445.655 137.598 446.024 142.325 446.02 146.269C446.012 152.884 445.876 153.705 444.264 156.869C443.101 159.151 440.437 162.306 436.3 166.301L430.083 172.304L430.148 184.071C430.216 196.427 429.454 203.559 427.099 212.62C426.394 215.335 425.917 217.656 426.041 217.779C426.711 218.449 428.349 216.774 431.261 212.441C435.344 206.366 440.046 201.638 446.943 196.674C449.899 194.546 453.662 191.699 455.304 190.346C456.947 188.993 458.42 188.015 458.577 188.172C459.006 188.602 456.161 196.624 454.22 200.453C449.635 209.497 445.09 213.113 433.318 217.075C429.041 218.515 425.342 220.077 425.098 220.547C424.855 221.018 423.76 223.647 422.667 226.39C421.572 229.134 419.87 232.984 418.883 234.946C416.161 240.36 416.541 241.167 420.207 237.753C428.22 230.289 432.541 227.349 441.406 223.329C444.321 222.007 448.765 219.958 451.281 218.776C453.797 217.594 455.964 216.735 456.096 216.867C456.765 217.536 447.762 229.282 443.9 232.776C439.375 236.871 433.059 239.286 423.948 240.403C415.463 241.444 415.707 241.345 413.668 244.608C412.643 246.248 410.193 249.834 408.223 252.578C405.095 256.933 403.977 259.125 404.882 259.125C405.026 259.125 407.341 257.763 410.026 256.098C412.71 254.433 416.15 252.438 417.669 251.664C420.569 250.185 428.747 247.665 432.989 246.941C434.361 246.707 437.998 245.858 441.071 245.055C444.144 244.251 446.799 243.733 446.969 243.904C447.428 244.362 440.52 250.473 435.171 254.338C427.45 259.917 424.883 260.643 412.555 260.733L402.098 260.81L394.942 267.917C385.914 276.885 385.738 277.525 393.266 274.003C398.78 271.424 403.238 269.916 407.809 269.088C411.309 268.453 432.754 267.153 433.187 267.55C433.381 267.727 429.866 270.08 423.636 273.943C415.363 279.071 405.846 280.266 393.098 277.775L386.436 276.474L382.902 278.866C380.957 280.183 379.086 281.4 378.743 281.571C375.148 283.369 367.832 288.059 367.832 288.566C367.832 288.965 368.74 289.083 370.17 288.871C371.221 288.716 373.616 288.36 375.953 288.014L377.496 287.784C383.213 286.935 391.994 287.314 399.218 288.724C401.906 289.248 405.327 289.677 406.819 289.677C410.67 289.677 410.774 290.628 407.127 292.476C401.839 295.155 396.916 296.146 389.031 296.118C381.863 296.093 380.141 295.789 366.627 292.166C364.078 291.483 360.781 290.924 359.301 290.924C356.19 290.924 355.717 289.972 358.522 289.356C361.087 288.792 361.371 287.697 360.142 283.086C358.694 277.652 358.841 275.501 360.904 271.904C362.46 269.193 369.658 261.366 370.147 261.856C370.244 261.952 370.37 265.516 370.426 269.775C370.537 278.06 370.202 279.353 366.76 283.951C363.59 288.184 366.251 287.25 377.006 280.354C380.508 278.109 383.521 275.908 383.7 275.465C383.879 275.021 382.513 272.674 380.666 270.249C374.932 262.724 374.789 259.312 379.808 249.772C382.631 244.406 383.269 243.584 383.642 244.836C383.786 245.321 384.965 249.015 386.26 253.044C388.441 259.823 388.568 260.613 387.959 263.644C387.597 265.445 386.715 268.379 385.997 270.163C385.28 271.949 384.944 273.563 385.251 273.753C385.957 274.19 398.822 261.94 399.327 260.349C399.605 259.47 398.82 258.317 396.274 255.871C392.079 251.841 389.655 247.237 389.655 243.3C389.655 240.98 393.437 227.736 394.376 226.769C394.506 226.634 394.797 227.055 395.021 227.704C395.246 228.353 396.811 231.78 398.5 235.318C402.202 243.077 402.646 245.976 401.172 252.797C400.566 255.604 400.264 258.095 400.501 258.332C401.059 258.89 402.961 256.563 408.356 248.727C412.629 242.521 413.527 240.237 411.934 239.626C411.498 239.459 409.409 237.874 407.29 236.103C404.67 233.914 402.908 231.802 401.781 229.499C400.28 226.43 400.155 225.63 400.443 220.952C400.755 215.898 401.709 210.422 402.502 209.139C402.72 208.784 403.497 209.5 404.228 210.729C404.957 211.958 407.022 215.09 408.814 217.689C412.823 223.499 413.535 226.015 413.255 233.384C413.134 236.567 413.293 239.229 413.61 239.319C414.335 239.528 416.097 236.196 419.933 227.367C422.298 221.925 422.816 220.165 422.299 219.34C421.935 218.76 419.915 217.303 417.811 216.102C409.072 211.117 406.966 207.455 406.603 196.618C406.468 192.588 406.577 189.291 406.844 189.291C407.112 189.291 409.817 191.887 412.855 195.059C419.162 201.644 421.189 205.296 421.766 211.114C422.273 216.233 422.665 217.634 423.389 216.911C424.968 215.332 428.205 197.211 427.138 195.925C426.758 195.467 424.551 194.296 422.235 193.323C414.24 189.965 411.285 187.337 409.241 181.766C408.373 179.399 406.493 171.225 406.49 169.807C406.488 168.639 408.497 169.777 414.284 174.221C420.866 179.277 423.709 182.744 425.109 187.421C426.479 192 427.035 193.125 427.718 192.703C428.679 192.109 427.978 172.397 426.973 171.776C426.551 171.515 424.365 170.841 422.115 170.277C412.899 167.969 409.472 165.319 405.853 157.702C403.472 152.689 402.305 149.386 402.916 149.386C404 149.386 418.283 157.177 419.764 158.576C420.767 159.523 422.425 161.771 423.45 163.571C426.019 168.084 426.713 168.346 426.162 164.595C425.446 159.716 422.725 149.762 421.899 148.996C421.483 148.61 418.477 148.002 415.219 147.644C409.242 146.988 407.78 146.495 404.188 143.92C402.174 142.477 397.114 136.146 395.535 133.091L394.658 131.396L396.677 132.026C397.787 132.372 399.818 132.925 401.19 133.254C404.132 133.96 410.665 136.192 412.347 137.066C412.997 137.404 414.756 138.812 416.257 140.195C417.758 141.578 419.122 142.573 419.29 142.406C419.666 142.029 415.565 133.077 413.562 129.902L412.086 127.564H406.236C399.485 127.564 393.428 126.003 390.54 123.519C389.539 122.658 388.553 121.953 388.35 121.953C387.762 121.951 381.479 114.332 381.8 114.01C382.221 113.591 390.436 115.011 395.888 116.446C401.215 117.847 403.391 119.044 406.49 122.274C407.69 123.525 409.184 124.827 409.81 125.168C410.788 125.7 410.863 125.627 410.339 124.649C409.057 122.259 400.479 111.441 398.657 109.917C397.607 109.04 395.082 107.42 393.045 106.319C386.293 102.667 381.062 98.8932 376.133 94.1208C373.453 91.5251 370.63 88.9774 369.858 88.4587Z" fill="white"/>
<path d="M167.785 102.204C168.869 100.047 171.147 96.7202 172.848 94.8123C174.549 92.9037 176.022 91.4253 176.122 91.527C176.221 91.6286 176.064 96.4814 175.772 102.311C175.234 113.074 175.056 113.943 171.549 122.84C170.145 126.402 170.1 126.359 167.447 118.953C165.085 112.36 165.185 107.377 167.785 102.204Z" fill="white"/>
<path d="M410.254 111.352C409.92 109.466 409.544 104.205 409.418 99.6613C409.291 95.1178 409.27 91.3998 409.372 91.3998C409.835 91.3998 413.066 95.1733 415.558 98.6226C420.15 104.98 420.93 110.959 418.154 118.523C415.783 124.981 415.688 125.164 415.046 124.523C413.973 123.45 410.898 114.998 410.254 111.352Z" fill="white"/>
<path d="M134.543 179.556C132.859 175.75 130.921 166.564 130.94 162.48L130.956 159.051L132.641 161.199C133.568 162.38 136.15 165.473 138.379 168.073C143.421 173.952 146.578 178.264 148.212 181.501C149.925 184.896 153.938 194.903 153.585 194.903C153.429 194.903 151.899 194.192 150.184 193.323C141.832 189.091 136.802 184.663 134.543 179.556Z" fill="white"/>
<path d="M451.393 163.104C451.575 162.932 452.278 161.95 452.956 160.921L454.188 159.051L454.375 162.611C454.61 167.102 453.042 174.803 450.937 179.497C448.919 184 444.437 188.214 437.549 192.087C434.77 193.65 432.369 194.802 432.213 194.647C431.773 194.206 435.69 184.38 437.828 180.562C439.462 177.644 442.761 172.892 443.888 171.833C444.071 171.661 445.76 169.697 447.641 167.468C449.523 165.239 451.212 163.275 451.393 163.104Z" fill="white"/>
<path d="M184.267 252.266C182.94 245.416 183.474 242.556 187.706 233.849C190.021 229.085 191.087 227.453 191.455 228.109C191.737 228.613 192.817 231.561 193.855 234.659C196.195 241.642 196.281 245.328 194.203 249.498C192.401 253.114 186.671 259.054 185.845 258.162C185.542 257.834 184.831 255.181 184.267 252.266Z" fill="white"/>
<path fill-rule="evenodd" clip-rule="evenodd" d="M280.852 82.6388C256.856 84.6104 231.982 98.082 215.748 117.899C206.256 129.486 200.363 141.097 195.81 157.18C192.964 167.234 192.329 187.035 194.48 198.644C198.266 219.075 207.075 236.228 221.18 250.639C227.999 257.605 235.584 263.647 241.882 267.132C247.985 270.508 258.541 275.373 262.421 276.598L267.059 278.063L268.344 276.301C269.051 275.332 270.685 273.386 271.975 271.976C274.068 269.69 274.274 269.176 273.878 267.23C272.326 259.607 276.575 251.855 283.689 249.328L286.725 248.25L288.116 242.309C289.725 235.436 290.079 234.808 292.344 234.808C294.75 234.808 295.933 236.011 296.327 238.861C297.016 252.491 301.475 250.241 303.251 252.491C309.798 259.35 308.551 262.244 308.551 265.273C308.551 267.068 306.992 267.23 307.71 268.794C309.621 270.11 312.452 272.833 314 274.845C315.957 277.389 317.13 278.406 317.85 278.184C318.42 278.009 320.85 277.268 323.251 276.538C328.26 275.014 338.78 270.072 344.741 266.442C367.42 252.63 384.881 228.359 390.151 203.32C392.219 193.498 392.421 191.478 392.36 181.186C392.291 169.457 391.493 163.508 388.673 153.706C385.96 144.276 380.497 132.428 376.043 126.317C375.168 125.116 373.336 122.591 371.971 120.705C367.821 114.968 355.53 103.246 349.438 99.2143C338.142 91.7384 326.346 86.7153 313.274 83.8141C306.997 82.4212 290.692 81.8301 280.852 82.6388ZM254.614 204.546C255.091 202.645 260.438 194.713 264.595 189.74C266.538 187.415 268.396 185.678 268.723 185.88C269.049 186.082 269.317 187.307 269.317 188.603C269.317 193.509 271.705 206.34 274.319 215.479C276.495 223.086 276.5 223.237 274.645 224.081C273.746 224.492 271.631 226.116 269.947 227.691C267.206 230.255 265.576 230.807 265.576 229.172C265.576 228.857 263.034 223.488 259.927 217.241C256.118 209.581 254.387 205.447 254.614 204.546ZM292.025 123.676C290.85 124.475 285.165 133.312 282.781 138.046C276.561 150.398 274.301 161.165 274.314 178.38C274.327 194.991 276.882 208.381 282.7 222.337C282.834 222.659 282.961 222.966 283.082 223.258C284.319 226.243 284.936 227.731 286.05 228.471C287.157 229.207 288.756 229.204 291.943 229.197C292.257 229.197 292.586 229.196 292.932 229.196H299.684L301.623 224.987C305.42 216.745 308.389 206.276 310.51 193.656C311.549 187.468 311.555 168.379 310.52 162.792C307.697 147.565 303.676 137.542 296.198 127.096C293.302 123.052 293.139 122.918 292.025 123.676ZM285.854 157.863C286.451 156.605 287.674 155.176 288.572 154.688C290.986 153.376 295.3 153.521 297.352 154.982C301.145 157.682 301.513 163.886 298.064 166.967C291.559 172.781 282.116 165.74 285.854 157.863ZM315.146 196.773C315.679 193.173 316.26 189.315 316.438 188.2C316.615 187.085 317.024 186.174 317.348 186.174C318.938 186.174 331.045 202.959 331.045 205.164C331.045 206.218 319.252 230.443 318.739 230.443C318.548 230.443 317.1 229.246 315.522 227.783C313.943 226.32 311.852 224.55 310.876 223.85L309.103 222.578L311.116 215.755C313.33 208.25 313.723 206.4 315.146 196.773Z" fill="white"/>
</g>
<defs>
<clipPath id="clip0_1598_782">
<rect width="566" height="566" rx="87.8965" fill="white"/>
</clipPath>
</defs>
</svg>
