<svg width="566" height="566" viewBox="0 0 566 566" fill="none" xmlns="http://www.w3.org/2000/svg">
<path fill-rule="evenodd" clip-rule="evenodd" d="M309.521 151.733C298.597 157.919 302.493 173.312 314.983 173.312C318.103 173.312 319.538 172.895 321.459 171.431C326.423 167.644 327.785 160.065 324.35 155.344C322.648 153.004 317.054 150.014 314.411 150.03C313.362 150.037 311.162 150.804 309.521 151.733ZM340.112 151.467C336.759 153.58 334.677 157.25 334.674 161.053C334.67 165.009 335.572 167.391 338.408 170.92C341.747 175.076 342.006 177.692 339.53 182.243C337.962 185.123 336.832 186.249 334.851 186.902C331.36 188.054 325.947 187.365 323.917 185.51C321.45 183.256 317.739 181.578 315.221 181.578C304.902 181.578 299.719 193.678 306.558 201.806C311.504 207.684 310.028 215.619 303.403 218.762C299.772 220.485 296.157 219.85 292.393 216.825C286.696 212.246 279.931 212.273 275.309 216.894C267.702 224.502 273.166 236.762 284.122 236.671C287.552 236.644 288.561 236.245 292.081 233.53C295.389 230.977 296.699 230.42 299.384 230.42C308.298 230.42 313.009 240.713 307.235 247.575C300.058 256.106 304.875 267.99 315.51 267.99C320.835 267.99 325.141 264.704 326.5 259.602C327.655 255.268 326.697 251.476 323.401 247.328C319.927 242.956 320.299 236.252 324.225 232.483C326.02 230.759 327.376 225.614 326.767 222.839C326.502 221.632 325.121 218.953 323.7 216.887C318.815 209.785 319.841 203.264 326.394 199.775C329.507 198.119 329.749 198.101 333.623 199.226C337.046 200.222 337.907 200.864 339.532 203.637C342.227 208.236 341.985 210.636 338.267 216.206C335.519 220.32 335.107 221.467 335.156 224.857C335.337 237.391 351.536 240.797 357.293 229.513C359.311 225.557 358.873 221.63 355.962 217.569C352.265 212.409 351.878 211.398 352.186 207.698C352.495 203.984 353.87 202.077 358.212 199.337C360.815 197.696 364.816 198.185 368.487 200.596C373.413 203.83 374.175 204.098 378.47 204.109C382.487 204.119 383.058 203.898 385.929 201.22C388.773 198.567 389.064 197.944 389.348 193.894C389.608 190.165 389.377 189.055 387.878 186.849C385.789 183.775 381.009 180.856 378.035 180.838C375.848 180.826 372.152 182.597 367.81 185.741C363.082 189.163 355.588 187.441 352.872 182.307C351.409 179.541 352.085 172.942 354.046 170.854C359.357 165.201 358.994 156.76 353.244 152.259C350.149 149.836 343.35 149.426 340.112 151.467ZM521.371 231.612C517.107 233.821 515.762 236.835 515.762 244.18C515.762 248.61 515.483 250.708 514.895 250.708C514.418 250.708 512.265 249.874 510.11 248.854C507.954 247.834 504.787 246.776 503.07 246.501C501.354 246.226 499.767 245.708 499.546 245.349C499.324 244.99 495.375 244.697 490.772 244.697C484.023 244.697 481.23 245.054 476.352 246.544C458.197 252.087 444.826 267.227 441.816 285.649C440.385 294.403 440.881 332.199 442.541 340.948C443.9 348.108 448.327 357.224 453.122 362.736C456.275 366.361 465.311 373.94 466.48 373.94C466.698 373.94 468.661 374.749 470.842 375.739C485.502 382.386 503.191 380.786 517.757 371.494C520.572 369.698 527.599 363.138 529.76 360.288C531.999 357.336 534.655 352.629 535.72 349.727C539.084 340.557 539.038 341.4 539.035 289.406L539.031 239.812L537.353 236.877C536.43 235.263 534.758 233.263 533.639 232.433C530.955 230.443 524.467 230.009 521.371 231.612ZM374.55 243.609C371.894 244.186 368.262 245.342 366.481 246.179C364.699 247.017 363.027 247.702 362.765 247.702C360.605 247.702 345.191 261.379 345.191 263.296C345.191 263.655 344.599 264.605 343.876 265.406C341.302 268.258 338.527 275.485 336.968 283.394C335.833 289.161 336.304 332.499 337.574 338.999C340.114 352.001 351.154 366.32 363.225 372.268C373.132 377.15 373.589 377.215 399.815 377.523C426.913 377.841 427.515 377.747 431.446 372.594C433.092 370.435 433.457 369.166 433.457 365.6C433.457 360.892 432.229 358.503 428.307 355.577C426.317 354.092 425.284 354.027 403.556 354.027C382.932 354.027 380.543 353.896 377.126 352.573C367.722 348.934 360.219 338.814 360.219 329.769V326.601H392.412C424.515 326.601 424.614 326.596 427.916 324.877C430.25 323.662 431.744 322.165 432.976 319.805C434.69 316.522 434.717 316.127 434.37 299.55C434.031 283.286 433.031 275.58 430.916 272.917C430.569 272.481 430.026 271.278 429.711 270.245C427.52 263.066 414.436 250.187 406.055 246.961C404.609 246.403 403.087 245.696 402.674 245.389C401.108 244.226 390.118 242.445 384.859 242.502C381.846 242.535 377.206 243.033 374.55 243.609ZM251.918 243.929C248.856 244.842 245.443 247.683 244.41 250.178C243.701 251.889 243.46 262.723 243.423 294.593L243.374 336.745L241.375 340.502C238.328 346.226 234.6 350.087 229.743 352.548C225.734 354.579 224.668 354.779 217.826 354.779C210.94 354.779 209.984 354.597 206.38 352.6C198.891 348.45 194.275 342.005 192.664 333.449C192.213 331.05 191.902 313.927 191.902 291.419C191.902 254.603 191.855 253.339 190.354 250.239C188.657 246.732 184.185 243.945 180.255 243.945C176.312 243.945 171.855 246.731 170.144 250.266C168.604 253.446 168.588 254.064 169.019 294.366C169.512 340.532 169.694 342.335 174.887 352.462C178.187 358.898 187.063 368.734 191.527 370.902C192.766 371.504 194.288 372.381 194.908 372.852C195.528 373.324 198.402 374.64 201.295 375.778C205.604 377.474 208.117 377.916 215.196 378.222C230.304 378.874 241.763 374.87 251.901 365.395C255.443 362.084 260.459 354.818 262.822 349.574C266.786 340.774 267.082 336.334 266.598 292.891C266.343 269.99 265.84 252.296 265.404 250.862C264.457 247.752 261.422 244.888 258.439 244.291C257.179 244.039 255.641 243.722 255.021 243.585C254.401 243.449 253.004 243.604 251.918 243.929ZM277.579 244.467C276.14 245.213 274.177 247.001 273.214 248.441L271.466 251.058L271.739 295.028L272.014 338.999L274.112 344.587C276.219 350.197 276.902 351.524 280.502 356.975C288.508 369.102 304.314 377.697 318.61 377.697C323.772 377.697 324.932 377.44 327.427 375.744C334.427 370.987 333.965 360.748 326.557 356.421C325.091 355.565 322.027 354.817 319.045 354.586C309.681 353.863 301.477 348.145 297.398 339.499C295.681 335.86 295.336 333.96 295.025 326.413L294.66 317.584H308.729C323.821 317.584 325.921 317.167 329.383 313.481C332.861 309.779 332.747 302.061 329.156 298.163C325.849 294.574 324.386 294.29 309.203 294.29H294.932L294.701 273.062C294.505 255.029 294.283 251.496 293.228 249.581C290.234 244.144 282.851 241.732 277.579 244.467ZM104.561 245.125C104.325 245.36 102.177 246.063 99.7865 246.688C84.8311 250.593 71.9932 263.217 66.6619 279.262C65.395 283.076 65.2891 286.786 65.2891 327.352V371.31L67.1 374.223C71.477 381.265 81.6767 381.398 86.2355 374.474L88.3184 371.31L88.0749 329.606L87.8315 287.903L90.2871 282.883C94.7332 273.794 102.53 268.585 112.398 268.112C124.199 267.546 133.357 273.761 137.748 285.316C139.203 289.142 139.308 291.051 139.382 314.954C139.427 329.005 139.68 347.664 139.947 356.416C140.388 370.948 140.566 372.514 141.999 374.45C145.14 378.69 150.944 380.225 155.946 378.135C159.077 376.826 160.565 375.208 162.222 371.31C163.373 368.602 163.451 365.915 163.001 344.259C162.727 331.034 162.366 312.606 162.198 303.307C161.85 284.015 161.641 282.206 158.973 275.504C151.376 256.413 133.802 244.697 112.763 244.697C108.487 244.697 104.796 244.889 104.561 245.125ZM377.693 266.037C372.746 267.651 367.256 271.541 364.494 275.387C359.842 281.866 359.202 284.035 358.856 294.478L358.539 304.058H385.378H412.218L411.911 294.478C411.645 286.152 411.351 284.343 409.66 280.661C405.469 271.531 396.699 265.659 386.623 265.237C383.118 265.09 379.64 265.402 377.693 266.037ZM479.163 269.503C473.587 272.251 468.479 277.144 466.261 281.863C463.27 288.225 462.929 291.978 463.356 313.827C463.686 330.731 464.001 335.243 465.089 338.623C467.562 346.318 472.601 351.887 480.197 355.326C482.996 356.593 485.302 356.976 490.271 357.001C495.955 357.029 497.24 356.769 501.166 354.8C506.339 352.204 512.592 346.273 514.551 342.105C516.664 337.606 516.919 333.208 516.491 308.567L516.094 285.649L513.715 281.516C510.672 276.227 506.693 272.397 501.485 269.743C498.024 267.979 496.252 267.601 490.589 267.421C484.338 267.221 483.474 267.378 479.163 269.503ZM108.015 282.378C101.839 285.54 99.8812 293.763 103.964 299.398C106.804 303.319 108.328 304.104 113.212 304.162C120.422 304.248 125.026 299.815 125.026 292.787C125.026 288.342 123.298 285.228 119.501 282.831C115.553 280.338 112.252 280.208 108.015 282.378ZM382.821 283.146C380.826 283.5 378.647 284.552 377.368 285.776C375.281 287.776 373.417 292.401 374.193 293.656C374.408 294.004 379.448 294.29 385.392 294.29C391.335 294.29 396.375 294.004 396.59 293.656C397.372 292.39 395.494 287.768 393.37 285.734C390.735 283.209 387.263 282.357 382.821 283.146ZM213.102 319.431C208.176 322.151 205.709 326.943 206.659 331.947C207.288 335.257 208.027 336.64 210.517 339.164C212.368 341.041 213.078 341.242 217.854 341.247C224.494 341.255 227.147 339.449 229.003 333.659C230.119 330.179 230.126 329.517 229.082 326.558C227.728 322.721 226.302 320.992 223.225 319.457C220.547 318.121 215.498 318.108 213.102 319.431ZM485.33 320.003C481.086 322.08 479.442 324.615 479.126 329.572C478.92 332.795 479.208 334.294 480.397 336.188C482.881 340.145 486.131 341.757 490.999 341.446C497.862 341.008 501.804 336.841 501.652 330.186C501.541 325.321 499.194 321.593 495.149 319.86C491.158 318.149 489.054 318.18 485.33 320.003ZM309.379 330.023C308.642 331.943 311.484 337.138 314.329 339.072C315.795 340.068 318.087 340.878 319.441 340.878H321.897V334.866V328.855H315.862C311.098 328.855 309.733 329.101 309.379 330.023Z" fill="white"/>
</svg>
