<svg width="566" height="566" viewBox="0 0 566 566" fill="none" xmlns="http://www.w3.org/2000/svg">
<path d="M101.994 430.181C102.01 425.119 102.829 420.095 104.416 415.316C105.968 410.489 108.352 406.002 111.449 402.08C114.578 398.145 118.429 394.911 122.773 392.57C127.515 390.059 132.77 388.799 138.08 388.902C144.879 388.902 150.678 390.593 155.475 393.976C160.129 397.182 163.845 401.681 166.209 406.973L161.708 409.77C160.483 407.12 158.864 404.692 156.913 402.576C153.513 398.899 149.164 396.345 144.4 395.229C142.183 394.691 139.915 394.416 137.64 394.409C133.153 394.311 128.715 395.415 124.746 397.616C121.09 399.693 117.875 402.53 115.296 405.954C112.694 409.418 110.711 413.349 109.443 417.555C108.139 421.755 107.47 426.144 107.461 430.562C107.438 439.95 110.552 449.048 116.262 456.271C118.948 459.61 122.239 462.355 125.944 464.347C129.659 466.368 133.787 467.41 137.971 467.382C140.36 467.367 142.739 467.053 145.058 466.448C147.5 465.829 149.849 464.861 152.04 463.57C154.328 462.2 156.424 460.503 158.269 458.529C160.239 456.393 161.859 453.93 163.065 451.24L167.792 453.689C166.523 456.757 164.741 459.561 162.529 461.969C160.352 464.317 157.868 466.329 155.152 467.944C152.442 469.573 149.535 470.81 146.51 471.622C143.58 472.419 140.567 472.829 137.54 472.842C132.537 472.9 127.603 471.618 123.204 469.116C118.903 466.653 115.092 463.345 111.979 459.373C105.575 451.119 102.052 440.813 101.998 430.167L101.994 430.181Z" fill="white"/>
<path d="M360.365 403.128C355.425 397.141 348.445 394.147 339.422 394.147C331.982 394.147 326.559 395.683 323.153 398.755C319.75 401.823 318.052 405.963 318.058 411.176C317.98 413.447 318.422 415.705 319.346 417.76C320.285 419.603 321.672 421.152 323.366 422.248C325.514 423.642 327.841 424.704 330.276 425.402C333.071 426.26 336.434 427.152 340.366 428.08C344.449 429.014 348.154 430.044 351.481 431.172C354.494 432.141 357.354 433.575 359.965 435.426C362.212 437.043 364.055 439.206 365.337 441.73C366.671 444.592 367.316 447.755 367.215 450.939C367.288 454.246 366.607 457.523 365.228 460.497C363.917 463.208 362.003 465.547 359.648 467.315C357.052 469.239 354.14 470.644 351.059 471.46C347.427 472.428 343.691 472.897 339.944 472.856C328.066 472.856 318.016 468.736 309.792 460.497L312.695 455.718C316.014 459.444 320.036 462.402 324.505 464.404C329.462 466.608 334.802 467.7 340.184 467.61C346.845 467.61 352.051 466.289 355.805 463.646C359.561 461.004 361.441 457.001 361.444 451.64C361.515 449.23 361 446.841 359.947 444.698C358.855 442.697 357.325 440.999 355.483 439.743C353.171 438.181 350.66 436.969 348.024 436.146C345.018 435.129 341.509 434.169 337.499 433.263C333.488 432.365 329.889 431.372 326.701 430.286C323.908 429.401 321.265 428.063 318.865 426.322C316.84 424.847 315.193 422.87 314.07 420.566C312.903 417.879 312.351 414.942 312.459 411.99C312.394 408.571 313.074 405.181 314.447 402.08C315.744 399.239 317.642 396.746 319.995 394.791C322.517 392.725 325.399 391.199 328.479 390.298C332.047 389.247 335.74 388.736 339.445 388.778C343.953 388.698 348.435 389.511 352.656 391.174C356.596 392.824 360.173 395.305 363.164 398.464L360.365 403.128Z" fill="white"/>
<path d="M463.992 466.787V472.156H413.188V389.36H463.983V394.729H418.669V427.261H463.983V432.392H418.669V466.792L463.992 466.787Z" fill="white"/>
<path d="M238.821 396.612L241.171 389.38H236.457L204.017 472.18H209.931L221.847 439.991L238.821 396.612Z" fill="white"/>
<path d="M273.397 472.18L241.17 389.38L238.819 396.612L256.958 444.899L267.593 472.18H273.397Z" fill="white"/>
<path d="M102.002 345.256V348.976C105.335 348.976 107.954 349.188 110.486 348.976C142.43 345.79 166.458 317.144 166.569 292.182C166.636 276.9 166.656 261.621 166.629 246.347H102.007C101.977 276.699 102.002 314.825 102.002 345.256Z" fill="white"/>
<path d="M463.882 104.291V92.9316C460.559 92.9316 457.958 92.7208 455.437 92.9316C423.639 96.1102 399.716 116.99 399.611 141.902C399.545 157.136 399.54 180.029 399.545 195.273H463.872C463.909 164.953 463.912 134.626 463.882 104.291Z" fill="white"/>
<path d="M258.735 92.8589C254.219 92.7534 249.616 93.0435 244.969 93.7714L170.063 105.502C151.138 108.465 133.857 118.455 121.364 133.653C108.871 148.852 101.997 168.25 101.994 188.316V305.499C113.648 282.934 148.269 278.282 148.269 278.282L229.476 265.57L229.512 265.559L268.569 259.451C286.362 256.664 302.736 247.657 315.037 233.89C327.337 220.122 334.843 202.401 336.337 183.6C336.523 181.295 336.628 178.958 336.628 176.611V176.036C336.57 164.889 334.379 153.867 330.185 143.623C318.103 114.09 290.373 93.6132 258.735 92.8589ZM229.255 145.142C233.734 144.917 238.21 145.648 242.412 147.291C246.613 148.934 250.453 151.455 253.698 154.7C256.943 157.945 259.526 161.847 261.29 166.171C263.054 170.494 263.963 175.147 263.961 179.85L263.931 179.823C263.935 188.146 261.087 196.193 255.906 202.498C250.726 208.803 243.558 212.946 235.709 214.173L185.782 222.011C185.782 222.011 171.386 223.936 166.588 233.299V184.718C166.59 176.39 169.443 168.34 174.628 162.032C179.814 155.724 186.986 151.578 194.841 150.348L225.92 145.485C227.027 145.311 228.133 145.195 229.255 145.142Z" fill="white"/>
<path d="M463.903 136.12C452.298 158.694 417.706 163.346 417.706 163.346L336.574 176.073H336.559L297.541 182.186C279.768 184.97 263.412 193.975 251.125 207.742C238.838 221.509 231.34 239.229 229.848 258.03C229.662 260.335 229.556 262.672 229.556 265.019V265.583H229.582C229.632 276.733 231.817 287.761 236.002 298.004C249.787 331.749 283.992 353.669 321.107 347.846L395.918 336.116C414.823 333.153 432.085 323.161 444.563 307.959C457.041 292.757 463.904 273.356 463.903 253.289V136.12ZM399.41 208.315L399.47 256.944C399.469 265.272 396.62 273.323 391.441 279.632C386.262 285.94 379.098 290.087 371.252 291.316L340.176 296.169C320.167 299.317 302.173 283.036 302.188 261.791C302.187 253.472 305.031 245.429 310.204 239.127C315.377 232.825 322.533 228.683 330.37 227.455L380.229 219.612C380.229 219.612 394.617 217.677 399.41 208.315Z" fill="white"/>
<path d="M268.615 259.54C286.395 256.75 302.758 247.723 315.051 233.923C327.344 220.123 334.847 202.36 336.342 183.512C336.528 181.202 336.628 178.864 336.628 176.506V175.94L297.57 182.069C279.789 184.861 263.426 193.89 251.134 207.692C238.842 221.494 231.341 239.259 229.848 258.107C229.662 260.418 229.556 262.755 229.556 265.114V265.679L268.615 259.54Z" fill="white"/>
</svg>
