<svg width="566" height="566" viewBox="0 0 566 566" fill="none" xmlns="http://www.w3.org/2000/svg">
<path fill-rule="evenodd" clip-rule="evenodd" d="M208.648 89.5298C203.205 91.1725 199.716 94.2536 197.216 99.6226C192.262 110.26 195.95 120.477 206.599 125.613C209.542 127.033 211.862 128.526 211.754 128.931C211.646 129.335 211.557 134.307 211.557 139.977V150.287H204.096C195.586 150.287 190.817 152.036 189.11 155.781C188.367 157.411 187.992 166.629 187.992 183.226C187.992 196.972 187.881 208.221 187.746 208.225C187.612 208.229 181.315 208.484 173.755 208.792L160.008 209.351L157.824 204.57C154.013 196.225 145.103 191.948 136.389 194.279C130.088 195.964 126.475 198.978 123.524 205.009C120.344 211.509 120.723 217.088 124.79 223.635C131.411 234.295 146.549 235.572 155.188 226.198L158.223 222.903L173.107 229.55L187.992 236.195V266.346C187.992 286.801 188.351 297.284 189.11 298.95C191.308 303.773 194.754 304.443 217.351 304.443C228.746 304.443 238.068 304.646 238.068 304.892C238.068 305.139 234.277 310.63 229.643 317.094L221.218 328.847L217.246 327.446C211.856 325.544 207.962 325.715 202.747 328.08C194.829 331.672 191.463 336.922 191.463 345.683C191.463 354.449 194.872 359.609 203.211 363.463C208.753 366.023 213.413 365.773 219.511 362.587C223.748 360.374 225.266 358.856 227.479 354.619C230.89 348.091 230.943 343.605 227.689 337.075C226.122 333.932 225.471 331.502 225.97 330.673C226.414 329.938 230.701 323.735 235.499 316.89L244.221 304.443H289.813C337.185 304.443 337.832 304.39 341.193 300.239C342.767 298.295 342.803 298.297 350.316 300.527C355.625 302.102 357.865 303.232 357.88 304.341C357.921 307.322 361.621 314.1 364.725 316.879C374.714 325.821 389.446 322.429 395.272 309.844C397.583 304.854 397.581 300.098 395.266 295.115C391.79 287.629 386.409 283.906 377.658 282.933L372.42 282.351L357.81 254.367L343.2 226.383L343.165 191.674L343.13 156.964L339.792 153.625L336.453 150.287H309.455H282.457L270.529 142.186C238.439 120.393 232.682 116.199 233.03 114.86C235.527 105.246 232.319 96.2125 224.855 91.8372C219.742 88.8415 213.755 87.9892 208.648 89.5298ZM226.325 123.322C224.457 124.643 221.474 126.203 219.697 126.789L216.467 127.856V139.072V150.287H245.138C261.085 150.287 273.395 149.915 272.876 149.448C271.207 147.945 231.97 121.67 230.83 121.291C230.221 121.088 228.193 122.003 226.325 123.322ZM194.43 157.379C193.146 159.211 192.901 163.459 192.901 183.89C192.901 199.454 193.255 208.218 193.883 208.218C194.423 208.218 194.865 207.164 194.865 205.876C194.865 204.587 196.092 201.185 197.592 198.314C199.851 193.989 201.299 192.577 206.051 190.07C209.204 188.406 211.732 186.728 211.67 186.34C211.608 185.952 211.557 178.786 211.557 170.416V155.196H203.758C196.811 155.196 195.791 155.435 194.43 157.379ZM216.491 171.152L216.517 187.108L222.546 190.053C228.468 192.947 229.278 193.889 233.807 203.139C233.973 203.479 295.93 184.068 296.5 183.497C296.685 183.314 296.334 181.288 295.723 178.997C294.874 175.817 294.899 173.754 295.828 170.282C296.497 167.78 296.92 165.638 296.767 165.522C296.615 165.406 293.086 163.035 288.925 160.253L281.36 155.196H248.913H216.467L216.491 171.152ZM291.09 155.64C291.09 155.885 292.968 157.35 295.263 158.896L299.436 161.707L304.793 158.452L310.15 155.196H300.62C295.379 155.196 291.09 155.396 291.09 155.64ZM323.001 157.525C329.963 160.799 334.326 167.651 334.272 175.226C334.244 179.142 331.168 185.904 327.951 189.12L325.437 191.635L331.583 203.609L337.73 215.583L337.991 187.696C338.312 153.366 338.948 155.193 326.661 155.206L318.092 155.216L323.001 157.525ZM280.78 193.488C271.06 196.632 256.623 201.237 248.699 203.722C235.051 208.003 234.259 208.39 233.67 211.07C233.329 212.625 231.749 215.949 230.158 218.457C228.568 220.963 227.267 223.216 227.267 223.461C227.267 223.896 228.678 225.508 243.943 242.508C247.984 247.009 251.787 251.37 252.395 252.2C253.385 253.555 253.92 253.542 257.586 252.075C262.241 250.213 266.241 250.001 269.971 251.418L272.544 252.396L287.572 221.716C301.286 193.716 302.469 190.885 301.111 189.317C300.292 188.371 299.36 187.638 299.038 187.685C298.717 187.732 290.501 190.344 280.78 193.488ZM302.732 201.292C300.766 205.372 294.21 218.891 288.164 231.335L277.172 253.961L280.449 259.232C283.193 263.646 283.726 265.441 283.726 270.268V276.031L290.108 277.897C293.618 278.923 305.579 282.444 316.687 285.721C327.795 288.997 337.184 291.679 337.552 291.679C337.92 291.679 338.221 277.033 338.221 259.132V226.585L329.751 210.275L321.281 193.966L313.795 193.921L306.309 193.875L302.732 201.292ZM167.23 213.853C161.741 214.14 160.626 214.499 160.204 216.115C159.928 217.171 160.013 218.228 160.395 218.463C161.481 219.135 187.243 230.802 187.638 230.802C187.833 230.802 187.992 226.825 187.992 221.965V213.128L180.873 213.32C176.957 213.426 170.819 213.666 167.23 213.853ZM192.901 223.286V233.445L220.253 245.87C235.295 252.704 248.109 258.295 248.728 258.295C249.345 258.295 249.851 257.875 249.851 257.363C249.851 256.851 243.626 249.365 236.018 240.729C223.087 226.05 222.026 225.085 219.753 225.949C212.299 228.783 201.461 224.082 197.416 216.26C196.525 214.538 195.145 213.128 194.349 213.128C193.166 213.128 192.901 214.989 192.901 223.286ZM343.15 264.827L343.13 293.451L349.91 295.511C353.639 296.643 357.121 297.57 357.646 297.57C358.172 297.57 359.161 296.22 359.845 294.571C360.527 292.922 362.57 290.174 364.382 288.463C366.195 286.754 367.663 284.9 367.644 284.344C367.625 283.787 362.111 272.728 355.39 259.767L343.17 236.202L343.15 264.827ZM192.901 267.502C192.901 294.256 193.029 296.4 194.718 297.928C196.325 299.382 199.163 299.541 219.431 299.307L242.329 299.043L247.184 292.371C251.662 286.216 251.919 285.567 250.491 283.989C246.996 280.128 244.685 272.903 245.283 267.709L245.857 262.713L221.204 251.421C207.645 245.211 195.731 239.813 194.727 239.425C192.973 238.748 192.901 239.849 192.901 267.502ZM280.289 281.813C280.289 282.327 278.302 284.115 275.873 285.786C271.045 289.108 264.182 290.407 259.179 288.947C256.419 288.142 256.001 288.397 252.551 293.006C250.526 295.711 248.869 298.287 248.869 298.73C248.869 299.172 268.256 299.534 291.952 299.534C329.05 299.534 335.204 299.33 336.257 298.061C336.929 297.251 337.297 296.588 337.074 296.588C336.851 296.588 324.775 293.053 310.237 288.733C283.791 280.873 280.289 280.065 280.289 281.813ZM116.067 405.015C106.226 408.526 101.07 416.384 101.133 427.771C101.164 433.241 101.706 435.785 103.641 439.554C106.568 445.253 110.547 447.761 121.185 450.607C130.14 453.004 132.812 455.708 129.5 459.021C127.405 461.115 120.89 460.978 109.441 458.6C104.311 457.533 100.002 456.656 99.8675 456.649C99.733 456.642 99.622 460.565 99.622 465.367V474.099L106.741 475.896C117.354 478.574 130.227 478.378 136.194 475.446C144.865 471.185 149.698 463.223 149.698 453.199C149.698 441.425 145.087 435.572 132.658 431.569C119.734 427.407 119.26 427.164 119.26 424.711C119.26 422.046 120.908 421.288 126.704 421.288C130.87 421.288 131.042 421.405 131.042 424.234V427.179H138.898H146.753V417.399V407.617L142.981 406.602C131.065 403.393 122.094 402.864 116.067 405.015ZM302.433 405.242C286.043 410.271 277.015 427.813 280.277 448.29C282.375 461.465 288.148 470.274 297.785 475.007C302.635 477.389 304.517 477.746 312.201 477.746C320.04 477.746 321.683 477.419 326.754 474.85C336.73 469.795 342.249 461.145 344.132 447.614C345.263 439.483 344.239 429.783 341.573 423.373C335.165 407.965 318.587 400.284 302.433 405.242ZM495.075 405.015C485.092 408.577 480.11 416.334 480.208 428.161C480.318 441.345 484.944 446.541 500.194 450.612C506.478 452.29 510.093 454.482 510.036 456.578C509.905 461.355 499.52 461.49 480.84 456.959C478.673 456.433 478.631 456.591 478.631 465.287V474.153L485.749 475.777C502.319 479.557 512.63 478.51 520.144 472.285C527.217 466.424 530.436 455.028 527.739 445.395C525.726 438.204 521.366 434.624 510.31 431.082C499.868 427.737 498.268 426.826 498.268 424.219C498.268 422.041 500.182 421.288 505.713 421.288C509.878 421.288 510.051 421.405 510.051 424.234V427.179H517.906H525.761V417.437V407.694L522.57 406.67C518.13 405.245 507.39 403.622 502.687 403.664C500.527 403.684 497.102 404.291 495.075 405.015ZM36.7812 413.433V422.27H40.2463H43.7114L43.6211 449.517L43.5298 476.765L52.3373 477.045L61.1438 477.327L61.7212 473.609C62.0393 471.565 62.2485 465.694 62.1866 460.563L62.0747 451.235L69.8021 450.634C74.0527 450.303 79.1094 449.364 81.0398 448.547C93.4322 443.301 96.9552 422.232 87.2385 411.477C81.8116 405.469 77.8153 404.596 55.7533 404.596H36.7812V413.433ZM153.626 413.433V422.27H157.062H160.499V440.926V459.582H157.062H153.626V468.419V477.256H169.336H185.046V468.419V459.582H182.101C180.424 459.582 179.134 459.053 179.108 458.354C179.067 457.257 179.09 428.271 179.136 423.988C179.15 422.737 179.957 422.27 182.101 422.27H185.046V413.433V404.596H169.336H153.626V413.433ZM187.992 413.398C187.992 422.17 188.019 422.27 190.408 422.27C192.374 422.27 193.006 422.957 193.796 425.952C194.329 427.978 197.02 438.692 199.775 449.763C202.529 460.833 205.22 471.549 205.753 473.573L206.723 477.256H213.439H220.156L221.12 473.573C228.063 447.054 230.538 437.977 230.763 438.203C230.911 438.351 233.075 446.425 235.572 456.146C238.069 465.866 240.345 474.593 240.629 475.537C241.056 476.957 242.319 477.256 247.887 477.256C253.458 477.256 254.716 476.957 255.136 475.537C255.416 474.593 258.338 463.656 261.631 451.235C269.665 420.918 269.18 422.27 272.02 422.27C274.36 422.27 274.398 422.128 274.398 413.433V404.596H266.269H258.14L253.87 422.024C251.521 431.61 249.293 439.794 248.919 440.21C248.545 440.626 246.765 434.219 244.963 425.973C243.162 417.726 241.295 409.543 240.814 407.787L239.94 404.596H232.196C225.681 404.596 224.37 404.868 223.921 406.314C223.629 407.259 221.634 415.483 219.49 424.589C217.346 433.695 215.438 441.301 215.248 441.489C215.06 441.678 213.379 433.564 211.513 423.46L208.121 405.087L198.056 404.807L187.992 404.527V413.398ZM350.003 413.347V422.27H353.44H356.877V449.8V477.329L365.959 477.047L375.041 476.765L375.071 463.316C375.088 455.919 375.348 449.62 375.65 449.318C376.785 448.183 379.433 452.594 384.904 464.736L390.542 477.256H400.221H409.898V468.419V459.582H406.63C403.668 459.582 403.145 459.12 401.061 454.673C399.797 451.973 397.97 449.046 397 448.169C395.323 446.651 395.385 446.475 398.31 444.487C409.909 436.6 407.972 413.575 395.179 407.269C391.117 405.266 389.07 405.059 370.377 404.756L350.003 404.424V413.347ZM411.862 413.433V422.27H415.299H418.735V449.763V477.256H428.156H437.576L437.258 466.517C437.083 460.611 437.179 455.538 437.472 455.246C437.764 454.953 442.097 459.786 447.1 465.984L456.196 477.256H464.959H473.721V468.419V459.582H470.874C468.446 459.582 466.707 457.989 459.091 448.794C454.177 442.86 450.156 437.591 450.156 437.085C450.156 436.293 453.755 431.543 471.983 408.278L474.868 404.596H464.684H454.499L446.321 414.906C441.824 420.576 437.864 425.216 437.522 425.216C437.18 425.217 437.051 420.578 437.235 414.907L437.57 404.596H424.716H411.862V413.433ZM62.2288 420.712C62.004 420.934 61.9676 424.027 62.1483 427.585L62.4782 434.052H66.3213C71.0324 434.052 74.093 431.345 74.093 427.179C74.093 423.045 71.0285 420.306 66.4019 420.306C64.3311 420.306 62.4537 420.489 62.2288 420.712ZM304.578 424.161C301.945 426.473 300.789 428.496 300.001 432.174C297.731 442.757 299.63 454.169 304.406 458.658C308.07 462.098 316.338 462.092 320.008 458.645C323.824 455.059 325.841 446.983 325.103 438.243C324.136 426.8 320.834 422.292 312.86 421.527C308.596 421.116 307.733 421.391 304.578 424.161ZM375.37 427.668L375.7 434.052H379.543C384.192 434.052 387.315 431.351 387.315 427.331C387.315 423.384 384.566 421.288 379.382 421.286L375.041 421.284L375.37 427.668Z" fill="#ECE3FC"/>
</svg>
