<svg width="566" height="566" viewBox="0 0 566 566" fill="none" xmlns="http://www.w3.org/2000/svg">
<g clip-path="url(#clip0_1598_517)">
<path d="M30.8594 402.622V309.17L126.365 402.622H30.8594Z" fill="white"/>
<path d="M30.8594 309.17H97.4911V368.69H30.8594V309.17Z" fill="white"/>
<path d="M126.365 338.93C126.365 355.366 113.562 368.69 97.7687 368.69C81.9755 368.69 69.1726 355.366 69.1726 338.93C69.1726 322.494 81.9755 309.17 97.7687 309.17C113.562 309.17 126.365 322.494 126.365 338.93Z" fill="white"/>
<path d="M30.8594 368.69V309.17L91.9384 368.69H30.8594Z" fill="white"/>
<path d="M177.214 354.95V401.509H162.971V395.168C161.528 397.226 159.556 398.895 157.058 400.174C154.615 401.398 151.894 402.01 148.895 402.01C145.342 402.01 142.204 401.231 139.484 399.674C136.763 398.061 134.653 395.752 133.154 392.748C131.654 389.744 130.905 386.212 130.905 382.151V354.95H145.064V380.232C145.064 383.347 145.869 385.767 147.479 387.492C149.09 389.216 151.255 390.078 153.976 390.078C156.752 390.078 158.946 389.216 160.556 387.492C162.166 385.767 162.971 383.347 162.971 380.232V354.95H177.214Z" fill="white"/>
<path d="M201.502 362.71C203.167 360.151 205.25 358.149 207.748 356.702C210.247 355.201 213.023 354.45 216.077 354.45V369.552H212.163C208.609 369.552 205.944 370.331 204.167 371.888C202.39 373.39 201.502 376.06 201.502 379.899V401.509H187.259V354.95H201.502V362.71Z" fill="white"/>
<path d="M219.868 378.146C219.868 373.363 220.756 369.163 222.533 365.547C224.366 361.931 226.836 359.15 229.946 357.203C233.055 355.256 236.526 354.283 240.357 354.283C243.633 354.283 246.493 354.95 248.936 356.285C251.435 357.62 253.35 359.373 254.683 361.542V354.95H268.925V401.509H254.683V394.918C253.295 397.087 251.351 398.839 248.853 400.174C246.41 401.509 243.55 402.177 240.274 402.177C236.498 402.177 233.055 401.203 229.946 399.257C226.836 397.254 224.366 394.445 222.533 390.829C220.756 387.158 219.868 382.93 219.868 378.146ZM254.683 378.23C254.683 374.67 253.684 371.861 251.685 369.802C249.741 367.744 247.353 366.715 244.522 366.715C241.69 366.715 239.274 367.744 237.275 369.802C235.332 371.805 234.36 374.586 234.36 378.146C234.36 381.706 235.332 384.543 237.275 386.657C239.274 388.715 241.69 389.744 244.522 389.744C247.353 389.744 249.741 388.715 251.685 386.657C253.684 384.599 254.683 381.79 254.683 378.23Z" fill="white"/>
<path d="M293.287 339.764V401.509H279.044V339.764H293.287Z" fill="white"/>
<path d="M345.484 342.935V354.366H329.992V401.509H315.75V354.366H300.258V342.935H345.484Z" fill="white"/>
<path d="M366.69 362.71C368.356 360.151 370.438 358.149 372.936 356.702C375.435 355.201 378.211 354.45 381.265 354.45V369.552H377.351C373.797 369.552 371.132 370.331 369.355 371.888C367.578 373.39 366.69 376.06 366.69 379.899V401.509H352.447V354.95H366.69V362.71Z" fill="white"/>
<path d="M385.056 378.146C385.056 373.363 385.945 369.163 387.721 365.547C389.554 361.931 392.025 359.15 395.134 357.203C398.244 355.256 401.714 354.283 405.545 354.283C408.821 354.283 411.681 354.95 414.124 356.285C416.623 357.62 418.538 359.373 419.871 361.542V354.95H434.114V401.509H419.871V394.918C418.483 397.087 416.54 398.839 414.041 400.174C411.598 401.509 408.738 402.177 405.462 402.177C401.686 402.177 398.244 401.203 395.134 399.257C392.025 397.254 389.554 394.445 387.721 390.829C385.945 387.158 385.056 382.93 385.056 378.146ZM419.871 378.23C419.871 374.67 418.872 371.861 416.873 369.802C414.929 367.744 412.542 366.715 409.71 366.715C406.878 366.715 404.463 367.744 402.464 369.802C400.52 371.805 399.548 374.586 399.548 378.146C399.548 381.706 400.52 384.543 402.464 386.657C404.463 388.715 406.878 389.744 409.71 389.744C412.542 389.744 414.929 388.715 416.873 386.657C418.872 384.599 419.871 381.79 419.871 378.23Z" fill="white"/>
<path d="M441.401 378.23C441.401 373.39 442.372 369.163 444.316 365.547C446.315 361.931 449.063 359.15 452.561 357.203C456.115 355.256 460.168 354.283 464.722 354.283C470.552 354.283 475.41 355.812 479.297 358.872C483.24 361.931 485.822 366.242 487.043 371.805H471.885C470.607 368.245 468.136 366.465 464.472 366.465C461.862 366.465 459.78 367.494 458.225 369.552C456.67 371.555 455.893 374.447 455.893 378.23C455.893 382.012 456.67 384.933 458.225 386.991C459.78 388.993 461.862 389.995 464.472 389.995C468.136 389.995 470.607 388.215 471.885 384.655H487.043C485.822 390.106 483.24 394.389 479.297 397.504C475.355 400.619 470.496 402.177 464.722 402.177C460.168 402.177 456.115 401.203 452.561 399.257C449.063 397.31 446.315 394.528 444.316 390.913C442.372 387.297 441.401 383.069 441.401 378.23Z" fill="white"/>
<path d="M522.878 401.509L508.719 381.985V401.509H494.477V339.764H508.719V373.891L522.795 354.95H540.369L521.046 378.313L540.536 401.509H522.878Z" fill="white"/>
<path d="M187.391 290.099V99.9443L381.723 290.099H187.391Z" fill="white"/>
<path d="M187.391 99.9443H322.972V221.055H187.391V99.9443Z" fill="white"/>
<path d="M381.723 160.5C381.723 193.943 355.672 221.055 323.537 221.055C291.401 221.055 265.35 193.943 265.35 160.5C265.35 127.056 291.401 99.9443 323.537 99.9443C355.672 99.9443 381.723 127.056 381.723 160.5Z" fill="white"/>
<path d="M187.391 221.055V99.9443L311.673 221.055H187.391Z" fill="white"/>
</g>
<defs>
<clipPath id="clip0_1598_517">
<rect width="566" height="566" rx="87.8965" fill="white"/>
</clipPath>
</defs>
</svg>
