<svg width="566" height="566" viewBox="0 0 566 566" fill="none" xmlns="http://www.w3.org/2000/svg">
<path fill-rule="evenodd" clip-rule="evenodd" d="M288.176 33.6699C271.071 44.1467 255.921 56.8648 244.196 70.5877C241.503 73.7398 234.724 83.0589 231.773 87.6634C221.44 103.791 212.849 123.946 208.209 142.948C205.198 155.28 204.354 163.679 204.382 181.024C204.404 194.094 204.611 197.786 205.72 204.885C207.014 213.16 210.38 227.29 212.824 234.707C216.947 247.219 225.366 263.892 233.753 276.155C236.024 279.475 237.766 282.307 237.625 282.448C236.78 283.293 221.266 275.12 213.745 269.868C199.458 259.889 185.968 245.511 176.356 230.015C172.478 223.762 166.44 211.407 164.175 205.088C159.055 190.803 155.653 173.364 155.639 161.342C155.635 157.452 155.531 157.098 154.321 156.802C153.599 156.625 145.525 156.555 136.378 156.645L119.749 156.809L119.569 162.935C118.778 189.999 130.34 226.383 148.311 253.379C165.176 278.715 188.867 299.759 215.481 313.044C258.953 334.745 312.662 337.514 357.782 320.383C382.122 311.142 401.684 298.523 420.006 280.246C439.746 260.554 452.842 239.528 462.311 212.324C468.022 195.917 471.743 174.651 471.208 161.477L471.019 156.809H453.222H435.425L434.959 162.644C432.808 189.596 426.477 210.303 414.441 229.747C409.161 238.278 405.902 242.533 399.004 249.909C391.41 258.027 383.331 264.97 374.74 270.759C364.828 277.439 352.859 283.732 352.859 282.263C352.859 282.033 355.344 278.115 358.381 273.556C382.109 237.939 391.019 197.281 384.603 153.898C382.759 141.423 377.762 124.787 371.849 111.429C358.463 81.1917 336.601 55.9026 307.345 36.8138C297.961 30.6911 296.563 29.8911 295.315 29.9331C294.711 29.953 291.498 31.6347 288.176 33.6699ZM292.685 69.6932C288.823 72.4893 278.597 82.5962 273.324 88.8304C259.419 105.269 248.196 127.786 243.515 148.64C240.557 161.812 239.973 167.503 239.984 183.066C239.993 195.65 240.177 198.683 241.326 205.142C244.069 220.568 248.196 233.075 255.163 247.073C261.295 259.394 268.027 269.144 277.821 279.89C282.692 285.234 294.071 295.391 295.187 295.391C296.946 295.391 311.544 281.615 318.161 273.709C328.142 261.786 337.939 244.781 342.65 231.206C345.396 223.289 348.389 211.601 349.744 203.489C351.411 193.512 351.265 169.453 349.474 159.177C347.573 148.267 345.281 139.916 341.298 129.384C338.636 122.345 334.166 113.139 330.892 107.952C330.137 106.754 329.519 105.642 329.519 105.48C329.519 104.946 322.925 95.63 319.387 91.1644C315.232 85.9216 299.559 70.2819 297.03 68.8558C295.254 67.854 295.216 67.861 292.685 69.6932ZM171.681 358.636C164.614 360.357 159.39 364.401 156.476 370.408C154.973 373.506 154.793 374.489 154.777 379.708C154.764 383.858 155.062 386.41 155.807 388.547C158.373 395.899 162.434 399.496 175.427 405.927C185.284 410.805 189.268 413.464 191.493 416.651C192.971 418.766 193.285 419.839 193.464 423.378C193.764 429.336 192.828 432.249 189.562 435.512C186.297 438.775 182.472 440.1 176.322 440.1C170.389 440.1 166.472 439.242 161.68 436.892C159.388 435.768 157.344 434.849 157.137 434.849C156.557 434.849 154.467 440.035 154.471 441.462C154.482 445.354 172.271 449.802 181.872 448.312C192.922 446.598 199.444 441.598 202.043 432.846C203.329 428.52 203.176 419.256 201.759 415.525C199.146 408.646 195.418 405.353 183.254 399.171C174.012 394.475 171.963 393.297 168.887 390.914C164.856 387.792 163.193 382.538 164.4 376.729C165.687 370.525 172.263 365.972 179.888 366.005C183.298 366.02 189.357 367.435 193.521 369.188C195.545 370.039 197.544 370.603 197.966 370.441C198.388 370.28 199.188 368.702 199.745 366.935C201.037 362.837 200.744 362.474 194.563 360.518C185.741 357.726 178.024 357.091 171.681 358.636ZM409.662 358.616C402.38 360.475 397.149 364.512 394.172 370.569C393.159 372.631 392.783 374.557 392.623 378.528C392.349 385.297 393.184 388.84 396.103 393.308C399.151 397.972 403.106 400.761 414.71 406.425C428.617 413.214 431.023 415.899 431.023 424.637C431.023 430.187 429.918 433.088 426.742 435.876C423.604 438.632 420.876 439.597 415.294 439.927C409.388 440.276 404.113 439.204 398.821 436.578C396.854 435.603 394.956 434.915 394.603 435.051C394.249 435.187 393.478 436.825 392.89 438.69C391.822 442.08 391.822 442.084 393.078 443.101C394.548 444.292 399.536 446.229 404.499 447.538C409.826 448.943 420.434 448.739 424.922 447.146C430.296 445.236 434.289 442.293 436.823 438.372C439.926 433.571 440.524 430.94 440.291 423.117C440.12 417.392 439.878 416.01 438.546 413.169C436.941 409.745 433.425 405.881 429.858 403.621C428.722 402.901 423.826 400.279 418.977 397.794C408.532 392.439 405.057 389.941 403.229 386.472C401.728 383.626 401.427 379.003 402.492 375.17C404.866 366.62 417.921 363.525 429.989 368.65C435.785 371.112 436.38 370.987 437.745 367.023C439.205 362.781 439.059 362.625 431.34 360.15C426.588 358.627 424.314 358.24 419.087 358.064C414.997 357.927 411.577 358.127 409.662 358.616ZM214.698 360.299C213.785 361.402 213.705 445.771 214.615 446.868C215.176 447.543 219.102 447.686 237.084 447.686C258.029 447.686 258.897 447.642 259.478 446.557C260.18 445.246 260.294 440.3 259.632 439.891C259.384 439.738 251.476 439.542 242.058 439.455C228.421 439.329 224.77 439.132 224.128 438.49C223.034 437.396 222.934 408.044 224.021 406.957C224.529 406.45 228.754 406.257 239.367 406.257C249.98 406.257 254.206 406.064 254.713 405.557C255.674 404.596 255.617 398.982 254.637 398.17C254.126 397.746 248.776 397.471 239.028 397.369L224.196 397.213V382.917V368.621L241.701 368.308C251.329 368.135 259.284 367.938 259.379 367.87C259.473 367.802 259.473 365.973 259.379 363.807L259.206 359.868L237.256 359.715C220.146 359.596 215.172 359.725 214.698 360.299ZM270.272 360.299C270.118 360.704 270.059 380.466 270.142 404.215L270.293 447.394L292.466 447.548C312.793 447.689 314.7 447.619 315.369 446.707C316.296 445.442 316.322 440.308 315.404 439.74C315.023 439.505 307.236 439.345 298.1 439.387C288.131 439.431 281.06 439.231 280.414 438.885C279.408 438.347 279.337 437.272 279.337 422.609C279.337 410.69 279.513 406.796 280.067 406.437C280.468 406.178 287.623 405.834 295.967 405.674L311.138 405.382L311.323 402.803C311.424 401.384 311.353 399.612 311.166 398.864L310.824 397.504H295.435C281.94 397.504 280.002 397.391 279.691 396.581C279.232 395.384 279.244 371.362 279.705 369.642L280.057 368.329H297.131C311.143 368.329 314.328 368.181 314.89 367.503C315.294 367.016 315.503 365.28 315.399 363.273L315.223 359.868L292.888 359.715C275.333 359.595 270.493 359.72 270.272 360.299ZM326.743 360.06C326.163 360.428 326.041 369.598 326.16 403.96L326.309 447.394L341.48 447.39C354.063 447.387 357.278 447.213 360.324 446.374C371.562 443.279 378.283 436.484 381.25 425.221C382.183 421.679 382.325 418.773 382.323 403.339C382.321 388.126 382.171 384.992 381.287 381.75C378.037 369.832 370.704 362.97 358.572 360.494C353.717 359.504 328.169 359.155 326.743 360.06ZM335.738 374.491C335.245 382.54 335.243 427.799 335.735 434.119L336.11 438.933L344.63 438.926C356.224 438.917 361.041 437.583 366.046 432.997C369.423 429.902 371.844 424.853 372.75 419.012C373.75 412.57 373.143 387.018 371.897 383.12C370.622 379.132 367.73 374.932 364.649 372.594C360.551 369.485 357.305 368.764 346.095 368.475L336.122 368.217L335.738 374.491ZM315.035 461.029C314.416 461.422 314.26 466.476 314.243 486.649C314.231 500.471 314.397 512.063 314.611 512.409C315.135 513.257 318.028 513.209 318.899 512.338C319.906 511.331 319.906 462.23 318.899 461.223C318.091 460.416 316.157 460.319 315.035 461.029ZM161.032 465.577C160.522 465.783 160.302 467.504 160.302 471.304C160.302 477.277 160.198 477.445 156.501 477.445C154.369 477.445 153.486 478.774 154.175 480.946C154.522 482.038 155.316 482.363 157.36 482.249C157.829 482.223 158.682 482.453 159.257 482.762C160.205 483.269 160.302 484.348 160.302 494.405C160.302 506.269 160.644 508.111 163.29 510.498C164.924 511.971 170.12 513.225 173.431 512.944C175.732 512.75 175.765 512.714 175.765 510.413V508.079L172.556 507.769C168.972 507.423 167.04 506.556 166.151 504.894C165.807 504.252 165.554 499.307 165.554 493.238C165.554 483.61 165.642 482.691 166.575 482.634C167.137 482.6 167.99 482.514 168.471 482.442C168.953 482.371 170.733 482.267 172.428 482.212C175.775 482.104 176.455 481.445 175.823 478.926C175.481 477.567 175.212 477.483 170.654 477.322L165.845 477.153L165.698 472.485C165.49 465.868 165.268 465.182 163.354 465.237C162.478 465.262 161.433 465.416 161.032 465.577ZM397.226 466.903C396.235 468.753 396.532 470.357 398.049 471.351C399.277 472.156 399.706 472.177 401.113 471.506C402.929 470.639 403.624 468.056 402.428 466.615C401.377 465.348 397.956 465.538 397.226 466.903ZM191.647 476.915C184.526 478.591 181.926 482.649 181.45 492.829C181.097 500.357 181.832 504.281 184.285 507.985C187.535 512.891 195.264 514.902 202.65 512.762C206.726 511.582 207.569 510.99 207.557 509.32C207.537 506.549 206.825 506.337 202.364 507.771C195.643 509.932 191.6 508.911 188.429 504.252C187.419 502.767 187.132 501.633 187.262 499.638L187.435 496.992L198.23 496.7L209.025 496.409L208.933 491.681C208.768 483.267 205.742 478.544 199.588 477.096C195.765 476.196 194.791 476.174 191.647 476.915ZM224.602 477.348C220.88 478.678 218.557 480.782 216.83 484.387C215.76 486.624 215.537 488.145 215.494 493.491C215.466 497.021 215.652 501.13 215.908 502.622C216.519 506.192 219.196 510.139 222.121 511.783C225.376 513.613 231.388 514.074 235.688 512.824C239.239 511.791 239.933 510.918 239.049 508.592C238.589 507.383 238.205 507.148 237.168 507.444C230.297 509.401 227.623 509.211 224.204 506.522C221.693 504.547 220.986 502.104 220.99 495.406C220.994 488.178 221.583 485.795 223.92 483.556C225.459 482.082 226.23 481.827 229.737 481.628C231.961 481.503 234.617 481.691 235.639 482.048C237.946 482.852 239.075 482.091 239.075 479.735C239.075 478.326 238.753 477.991 236.887 477.457C232.542 476.213 227.891 476.173 224.602 477.348ZM251.551 477.109C248.946 477.525 246.517 478.048 246.154 478.273C245.688 478.561 245.494 483.622 245.494 495.522V512.362L247.268 512.752C250.684 513.502 250.745 513.229 250.745 497.233C250.745 480.384 250.262 481.529 257.385 481.529C261.175 481.529 261.988 481.719 263.404 482.937L265.041 484.343L265.219 497.94C265.334 506.8 265.622 511.808 266.044 512.317C266.401 512.747 267.487 513.019 268.459 512.922C271.046 512.665 271.28 510.903 270.742 495.663C270.294 482.965 270.216 482.326 268.881 480.535C266.285 477.052 259.866 475.783 251.551 477.109ZM289.84 476.676C284.99 477.472 281.414 480.115 279.412 484.384C278.001 487.394 277.878 488.266 277.878 495.283C277.878 502.616 277.946 503.042 279.638 506.35C280.984 508.983 282.069 510.205 284.26 511.56C286.903 513.194 287.53 513.33 292.421 513.319C298.77 513.306 301.386 512.244 304.213 508.528C306.727 505.224 307.568 500.914 307.204 493.185C306.964 488.091 306.656 486.533 305.399 484.053C303.366 480.041 300.471 477.749 296.406 476.932C293.108 476.27 292.467 476.245 289.84 476.676ZM336.521 477.207C332.48 478.295 329.642 480.565 327.77 484.202C326.423 486.82 326.309 487.657 326.309 494.934C326.309 503.853 327.068 506.44 330.729 509.998C334.719 513.875 343.433 514.715 349.239 511.782C351.5 510.639 352.292 509.78 353.734 506.903C355.438 503.503 355.485 503.185 355.485 494.95C355.485 485.527 354.948 483.71 351.034 479.884C348.036 476.953 341.758 475.794 336.521 477.207ZM369.483 477.949C363.594 480.625 361.266 486.221 361.772 496.489C362.39 509.023 365.956 512.666 377.658 512.72L383.493 512.747L383.426 516.083C383.284 523.223 379.44 524.758 368.475 522.052C366.639 521.599 365.927 522.641 366.503 524.935C366.787 526.068 367.555 526.517 370.635 527.351C378.253 529.413 385.231 527.379 387.712 522.374C388.981 519.815 389.015 519.238 389.053 499.383C389.078 486.537 388.877 478.803 388.509 478.435C386.748 476.674 373.061 476.324 369.483 477.949ZM416.753 477.115C416.432 477.24 415.465 477.497 414.605 477.686C412.543 478.14 411.209 479.536 411.209 481.244C411.209 483.252 411.946 483.437 415.64 482.364C417.785 481.74 420.277 481.488 422.739 481.644C426.145 481.861 426.709 482.082 428.238 483.793C429.69 485.418 429.916 486.103 429.766 488.428L429.59 491.157L425.43 490.955C419.195 490.652 415.121 491.689 412.412 494.267C407.201 499.23 408.205 508.774 414.28 512.003C416.483 513.173 417.579 513.315 424.338 513.306C429.869 513.298 432.398 513.059 433.674 512.426L435.425 511.556L435.402 498.379C435.38 485.484 435.348 485.142 433.918 482.362C431.783 478.214 429.719 477.217 422.894 477.036C419.837 476.954 417.073 476.99 416.753 477.115ZM397.483 478.145C397.32 478.57 397.256 486.526 397.342 495.824C397.487 511.672 397.564 512.744 398.564 512.936C399.151 513.049 400.271 512.981 401.053 512.785L402.474 512.428L402.32 495.082L402.165 477.736L399.972 477.555C398.552 477.438 397.675 477.646 397.483 478.145ZM191.245 482.275C188.86 483.483 187.063 486.69 187.262 489.387L187.435 491.74L195.021 491.887C199.193 491.967 202.968 491.799 203.41 491.515C204.07 491.089 204.09 490.492 203.521 488.159C202.778 485.111 201.551 483.266 199.557 482.198C197.904 481.314 193.057 481.359 191.245 482.275ZM286.998 483.056C284.024 485.453 283.422 487.53 283.422 495.377C283.422 503.399 284.181 505.502 287.859 507.665C290.679 509.324 295.436 509.201 297.887 507.404C300.815 505.258 301.509 502.953 301.509 495.369C301.51 487.855 300.944 485.692 298.348 483.297C297.074 482.122 296.063 481.82 292.875 481.663C289.343 481.489 288.775 481.624 286.998 483.056ZM336.765 482.095C334.704 482.928 332.529 486.051 332.123 488.762C331.912 490.169 331.83 493.957 331.942 497.179C332.16 503.496 332.738 504.903 336.162 507.459C338.439 509.159 343.955 509.146 346.252 507.434C349.586 504.948 350.235 502.956 350.218 495.242C350.206 489.137 350.036 487.923 348.9 485.772C348.183 484.414 346.824 482.904 345.88 482.417C344.047 481.469 338.772 481.282 336.765 482.095ZM371.602 482.527C368.107 484.249 367.451 486.104 367.449 494.278C367.446 503.043 368.082 504.809 371.906 506.66C373.968 507.658 375.273 507.87 378.209 507.684C383.958 507.317 383.785 507.735 383.785 494.315C383.785 483.466 383.713 482.699 382.656 482.133C380.859 481.171 373.846 481.421 371.602 482.527ZM419.055 496.156C416.115 497.011 414.41 499.296 414.475 502.291C414.538 505.228 415.751 506.941 418.63 508.159C420.813 509.083 426.219 509.208 428.385 508.385C429.847 507.829 429.881 507.688 429.881 502.244C429.881 496.799 429.847 496.658 428.385 496.102C426.575 495.414 421.507 495.444 419.055 496.156Z" fill="white"/>
</svg>
