<svg width="566" height="566" viewBox="0 0 566 566" fill="none" xmlns="http://www.w3.org/2000/svg">
<path fill-rule="evenodd" clip-rule="evenodd" d="M428.494 187.061L411.101 187.508V215.61V243.711L402.226 239.408C394.524 235.672 391.428 235.027 378.773 234.528C355.319 233.601 341.144 238.831 325.753 254.093C315.481 264.281 310.274 273.179 306.846 286.406C304.004 297.373 303.976 317.845 306.785 328.635C315.796 363.23 347.733 384.82 381.639 379.242C391.562 377.609 402.654 373.236 409.326 368.326C412.483 366.002 412.52 366.034 412.52 371.117V376.26H435.948H459.375V281.13V186L452.631 186.307C448.921 186.476 438.061 186.815 428.494 187.061ZM50.4581 219.367V237.115H41.229H32V257.703V278.29H41.229H50.4581V286.809V295.329H58.2673H66.0765V303.138V310.947H58.2673H50.4581V324.286C50.4581 349.854 58.7472 365.529 75.7925 372.198C82.5325 374.835 87.4239 375.44 106.187 375.949L128.55 376.558V355.972V335.385L117.221 334.87C107.746 334.44 105.365 333.829 102.667 331.134C99.5992 328.07 99.4217 326.709 98.9971 303.102L98.5499 278.29H113.551H128.55V257.703V237.115H113.641H98.7331V219.367V201.618H74.5956H50.4581V219.367ZM197.566 234.932C170.762 242.615 150.546 262.909 144.097 288.607C141.662 298.313 143.079 326.824 146.409 335.084C155.442 357.503 173.287 372.782 196.951 378.36C208.889 381.176 232.963 381.132 244.063 378.275C254.197 375.667 268.049 369.28 273.907 364.515L277.988 361.194L269.006 345.5L260.023 329.807L252.513 334.612C236.572 344.808 217.629 346.098 204.654 337.87C198.948 334.251 192.465 326.55 192.449 323.371C192.446 322.786 213.755 322.306 239.802 322.306H287.163L287.977 313.432C291.254 277.677 274.877 248.594 244.85 236.849C234.978 232.989 208.147 231.9 197.566 234.932ZM210.954 270.004C203.805 272.076 198.617 276.233 194.579 283.122C192.624 286.459 191.023 289.612 191.023 290.129C191.023 290.646 202.844 291.069 217.291 291.069C231.738 291.069 243.558 290.555 243.558 289.927C243.558 289.298 241.674 285.814 239.372 282.184C233.058 272.23 221.042 267.079 210.954 270.004ZM375.072 270.39C359.666 276.012 350.29 296.57 354.306 315.918C355.721 322.73 357.199 325.297 363.317 331.57C375.83 344.4 387.582 345.191 399.933 334.032C411.551 323.537 414.791 310.412 409.81 294.015C403.969 274.783 389.675 265.063 375.072 270.39ZM480.183 330.582C478.241 332.729 477.834 336.504 477.834 352.37C477.834 378.066 476.588 376.97 505.795 376.97C534.146 376.97 533.208 377.816 533.208 352.282C533.208 326.729 534.633 327.985 505.66 327.985C485.058 327.985 482.276 328.269 480.183 330.582ZM488.231 338.777C487.142 341.614 490.595 343.966 492.965 341.999C495.113 340.216 493.871 336.504 491.126 336.504C490.013 336.504 488.711 337.527 488.231 338.777ZM501.931 351.692C499.219 359.265 496.789 365.973 496.529 366.601C496.268 367.228 497.636 367.741 499.569 367.741C502.133 367.741 503.324 366.781 503.974 364.191C504.737 361.153 505.674 360.642 510.49 360.642C515.306 360.642 516.243 361.153 517.006 364.191C517.659 366.793 518.845 367.741 521.444 367.741C523.682 367.741 524.753 367.085 524.344 365.966C523.986 364.991 521.595 358.282 519.028 351.058C514.738 338.985 514.058 337.924 510.611 337.924C507.154 337.924 506.475 339 501.931 351.692ZM508.142 350.703C506.645 356.31 506.675 356.382 510.49 356.382C514.305 356.382 514.335 356.31 512.839 350.703C512.005 347.579 510.949 345.023 510.49 345.023C510.032 345.023 508.975 347.579 508.142 350.703ZM487.773 357.092C487.773 366.794 488.025 367.741 490.612 367.741C493.199 367.741 493.452 366.794 493.452 357.092C493.452 347.39 493.199 346.443 490.612 346.443C488.025 346.443 487.773 347.39 487.773 357.092Z" fill="white"/>
</svg>
