<svg width="566" height="566" viewBox="0 0 566 566" fill="none" xmlns="http://www.w3.org/2000/svg">
<path d="M46.2314 129.247C67.7648 124.318 122.028 117.714 166.95 130.816C171.396 132.113 175.642 133.376 179.723 134.626C179.73 134.628 179.738 134.631 179.745 134.633H447.542C448.793 134.633 449.808 135.648 449.808 136.899V150.907C450.221 150.849 450.632 150.79 451.041 150.734C451.253 150.705 451.465 150.678 451.677 150.649C452.175 150.583 452.67 150.517 453.162 150.454C453.239 150.444 453.315 150.435 453.392 150.426C453.959 150.354 454.523 150.283 455.083 150.216C455.186 150.203 455.29 150.193 455.393 150.181C457.089 149.981 458.751 149.803 460.377 149.646C460.532 149.632 460.687 149.616 460.841 149.602C461.222 149.566 461.601 149.531 461.978 149.497C462.25 149.473 462.522 149.448 462.792 149.425C463.183 149.391 463.571 149.359 463.957 149.328C464.216 149.307 464.474 149.287 464.731 149.267C465.029 149.243 465.326 149.22 465.621 149.198C465.995 149.171 466.367 149.145 466.737 149.119C466.995 149.101 467.251 149.083 467.506 149.066C467.846 149.044 468.184 149.024 468.521 149.003C468.791 148.986 469.06 148.969 469.328 148.953C469.909 148.919 470.485 148.888 471.054 148.859C471.095 148.857 471.136 148.856 471.178 148.854C471.742 148.825 472.3 148.8 472.853 148.776C472.915 148.774 472.977 148.771 473.039 148.769C473.584 148.746 474.123 148.726 474.655 148.707C474.694 148.706 474.733 148.704 474.771 148.703C475.291 148.685 475.805 148.669 476.313 148.655C476.391 148.653 476.469 148.651 476.547 148.649C477.067 148.636 477.58 148.623 478.087 148.613C478.111 148.613 478.134 148.612 478.158 148.611C479.981 148.576 481.721 148.565 483.375 148.57C483.884 148.572 484.386 148.575 484.879 148.58C485.211 148.583 485.539 148.586 485.863 148.591C486.431 148.599 486.988 148.609 487.532 148.62C487.884 148.628 488.23 148.637 488.571 148.646C488.659 148.648 488.745 148.65 488.832 148.652C489.616 148.673 490.374 148.697 491.104 148.724C491.24 148.729 491.374 148.734 491.507 148.739C492.137 148.763 492.747 148.789 493.335 148.815C493.515 148.824 493.693 148.832 493.869 148.84C494.451 148.867 495.011 148.896 495.549 148.925C495.651 148.93 495.751 148.935 495.852 148.94C497.506 149.031 498.938 149.119 500.133 149.192C501.181 149.256 502.028 149.306 502.685 149.329C502.957 149.339 503.199 149.345 503.409 149.345L503.545 149.351C504.211 149.416 504.744 149.957 504.785 150.639C504.829 151.366 504.299 152.002 503.576 152.09C502.626 152.206 501.698 152.322 500.792 152.439C500.663 152.456 500.534 152.474 500.406 152.49C499.71 152.581 499.026 152.672 498.355 152.764C498.059 152.804 497.765 152.845 497.473 152.886C496.892 152.967 496.321 153.048 495.759 153.129C495.552 153.159 495.347 153.188 495.143 153.218C494.486 153.314 493.842 153.412 493.21 153.509C492.95 153.549 492.692 153.59 492.436 153.63C491.809 153.728 491.195 153.826 490.594 153.925C490.437 153.951 490.282 153.977 490.127 154.003C489.612 154.089 489.105 154.174 488.607 154.26C488.356 154.303 488.107 154.347 487.859 154.391C487.374 154.476 486.898 154.562 486.43 154.648C486.255 154.681 486.081 154.712 485.908 154.744C484.632 154.982 483.416 155.22 482.257 155.46C482.101 155.492 481.947 155.526 481.793 155.559C481.399 155.641 481.011 155.724 480.629 155.807C480.421 155.852 480.215 155.897 480.011 155.942C479.64 156.025 479.275 156.107 478.916 156.189C478.744 156.229 478.573 156.267 478.404 156.307C477.963 156.41 477.53 156.513 477.105 156.616C477.044 156.631 476.982 156.646 476.921 156.661C476.433 156.781 475.956 156.9 475.49 157.02C475.345 157.057 475.202 157.096 475.059 157.133C474.734 157.217 474.414 157.301 474.099 157.386C473.939 157.429 473.781 157.472 473.624 157.515C473.292 157.605 472.966 157.696 472.646 157.786C472.55 157.813 472.455 157.839 472.36 157.866C472.027 157.961 471.699 158.057 471.377 158.152C471.158 158.217 470.94 158.281 470.726 158.346C470.447 158.429 470.172 158.513 469.901 158.597C469.773 158.636 469.646 158.676 469.52 158.716C469.243 158.802 468.97 158.888 468.701 158.975C468.586 159.012 468.471 159.05 468.356 159.087C468.104 159.169 467.855 159.25 467.608 159.332C467.477 159.376 467.346 159.418 467.217 159.462C467.101 159.501 466.986 159.54 466.872 159.579C466.369 159.75 465.877 159.92 465.395 160.09C465.326 160.114 465.258 160.137 465.189 160.161C464.683 160.34 464.187 160.519 463.699 160.697C463.076 160.925 462.464 161.152 461.859 161.378C461.678 161.446 461.496 161.514 461.315 161.582C460.943 161.722 460.572 161.861 460.203 162C459.515 162.259 458.828 162.516 458.138 162.772C457.91 162.857 457.683 162.941 457.454 163.025C456.998 163.194 456.538 163.36 456.074 163.526C455.868 163.6 455.662 163.676 455.454 163.749C455.313 163.799 455.171 163.849 455.029 163.898C454.534 164.071 454.033 164.244 453.523 164.414C452.872 164.638 452.221 164.868 451.572 165.102C451.04 165.293 450.509 165.487 449.979 165.685C449.922 165.706 449.865 165.729 449.808 165.75V320.968C449.808 322.219 448.793 323.234 447.542 323.234H119.442C118.191 323.234 117.177 322.219 117.177 320.968V142.694C117.115 142.678 117.054 142.66 116.992 142.644C116.414 142.486 115.833 142.329 115.248 142.174C96.0624 137.073 73.3119 133.233 46.4746 131.967C45.7868 131.934 45.2282 131.399 45.167 130.713C45.1058 130.027 45.5602 129.401 46.2314 129.247ZM166.179 133.462C128.004 122.328 82.8049 125.629 57.4072 129.877C79.8079 131.567 99.2129 135.059 115.956 139.511C116.571 139.674 117.182 139.839 117.79 140.005C117.998 140.062 118.205 140.12 118.412 140.177C118.583 140.224 118.753 140.27 118.923 140.317C119.035 140.349 119.147 140.381 119.259 140.412C119.86 140.58 120.458 140.749 121.053 140.919C121.282 140.985 121.512 141.05 121.74 141.116C122.514 141.34 123.282 141.565 124.044 141.793C159.044 152.256 181.322 166.68 194.46 175.925C195.611 176.735 196.766 177.54 197.925 178.343L201.407 180.745L202.401 181.43L202.402 181.431L202.404 181.432C202.406 181.433 202.409 181.434 202.41 181.436C202.412 181.437 202.414 181.438 202.415 181.438L205.849 183.805C222.968 195.632 239.676 207.894 246.831 226.106C251.145 237.089 252.966 247.617 251.261 257.244C249.549 266.912 244.305 275.534 234.76 282.692C234.431 282.939 234.097 283.177 233.762 283.413C233.269 283.759 232.77 284.093 232.264 284.416C231.814 284.703 231.36 284.982 230.899 285.251C230.678 285.38 230.457 285.508 230.233 285.634C229.845 285.852 229.453 286.062 229.059 286.269C228.125 286.757 227.174 287.215 226.207 287.643C225.515 287.948 224.816 288.238 224.109 288.514C223.97 288.568 223.831 288.623 223.69 288.677C223.614 288.706 223.537 288.734 223.461 288.763C223.261 288.838 223.062 288.913 222.861 288.985C222.743 289.028 222.623 289.07 222.504 289.112C222.336 289.172 222.169 289.232 222.001 289.29C221.167 289.578 220.325 289.847 219.477 290.1C219.457 290.106 219.437 290.111 219.417 290.117C219.246 290.168 219.075 290.217 218.903 290.267C218.778 290.303 218.654 290.339 218.528 290.374C218.043 290.51 217.556 290.64 217.067 290.766C216.964 290.792 216.861 290.82 216.757 290.846C215.987 291.04 215.213 291.221 214.437 291.391C214.313 291.418 214.189 291.445 214.064 291.472C214.014 291.482 213.963 291.492 213.912 291.503C213.431 291.605 212.949 291.702 212.466 291.795C212.225 291.841 211.983 291.886 211.742 291.93C211.619 291.952 211.496 291.975 211.373 291.997C211.176 292.032 210.979 292.067 210.782 292.101C210.695 292.116 210.607 292.131 210.52 292.146C210.353 292.174 210.186 292.2 210.019 292.228C209.866 292.252 209.713 292.278 209.56 292.302C209.457 292.318 209.355 292.334 209.253 292.35C209.07 292.378 208.886 292.405 208.703 292.433C208.378 292.481 208.053 292.529 207.729 292.573C207.27 292.636 206.812 292.694 206.354 292.751C206.233 292.766 206.112 292.781 205.991 292.796C205.656 292.836 205.32 292.872 204.985 292.909C204.72 292.939 204.455 292.971 204.189 292.998C203.902 293.028 203.614 293.053 203.326 293.081C202.996 293.113 202.667 293.146 202.338 293.175C202.183 293.188 202.029 293.2 201.874 293.213C201.44 293.249 201.007 293.286 200.574 293.318C200.185 293.347 199.795 293.371 199.407 293.396C199.214 293.409 199.022 293.424 198.829 293.436C198.507 293.455 198.185 293.472 197.864 293.489C197.577 293.505 197.289 293.522 197.003 293.536C196.731 293.549 196.46 293.559 196.189 293.571C195.887 293.585 195.585 293.6 195.284 293.611C194.822 293.629 194.362 293.643 193.904 293.657C193.798 293.66 193.691 293.665 193.585 293.668C193.254 293.678 192.924 293.686 192.596 293.693C192.325 293.7 192.054 293.707 191.785 293.712C191.567 293.716 191.35 293.719 191.133 293.723C190.791 293.728 190.451 293.734 190.112 293.738C189.852 293.742 189.593 293.744 189.335 293.746C189.038 293.749 188.743 293.752 188.449 293.754C188.212 293.755 187.976 293.755 187.74 293.756C187.435 293.757 187.13 293.759 186.828 293.759C186.162 293.759 185.505 293.755 184.856 293.752C184.458 293.75 184.064 293.751 183.673 293.748C182.604 293.741 181.562 293.731 180.552 293.722H180.55C180.361 293.72 180.173 293.718 179.986 293.716C178.928 293.706 177.908 293.698 176.931 293.694C186.21 297.228 198.483 300.338 210.579 302.694C225.452 305.592 239.871 307.314 247.872 307.314C255.888 307.314 268.187 305.974 280.627 303.659C293.077 301.343 305.531 298.077 313.896 294.274C328.886 287.461 344.508 277.006 362.49 264.967C362.494 264.964 362.497 264.962 362.501 264.96L362.502 264.959L362.504 264.958L362.505 264.957C362.519 264.948 362.533 264.939 362.547 264.93C362.836 264.736 363.126 264.541 363.417 264.347C363.537 264.266 363.658 264.185 363.778 264.104L363.854 264.055C363.973 263.975 364.092 263.895 364.211 263.815L369.456 260.311C369.673 260.166 369.891 260.023 370.111 259.882C370.177 259.84 370.243 259.798 370.31 259.756C370.757 259.473 371.212 259.196 371.673 258.927C371.738 258.889 371.803 258.851 371.868 258.813C372.337 258.543 372.812 258.279 373.294 258.021C373.35 257.992 373.405 257.962 373.461 257.933C373.592 257.863 373.724 257.795 373.855 257.727C374.122 257.589 374.39 257.452 374.659 257.318C374.725 257.286 374.79 257.253 374.855 257.221C375.539 256.884 376.233 256.561 376.937 256.249C377.036 256.205 377.136 256.161 377.235 256.117C377.519 255.993 377.804 255.871 378.09 255.751C378.139 255.73 378.188 255.709 378.237 255.688L378.437 255.605C379.018 255.365 379.606 255.133 380.198 254.908L380.612 254.753C380.644 254.741 380.675 254.729 380.707 254.718C381.047 254.592 381.389 254.467 381.731 254.346C381.772 254.331 381.812 254.317 381.853 254.303C382.241 254.166 382.631 254.032 383.022 253.901C383.046 253.893 383.071 253.886 383.095 253.878C383.423 253.769 383.751 253.661 384.081 253.556C384.214 253.513 384.347 253.471 384.479 253.43C384.726 253.352 384.974 253.276 385.222 253.201C385.345 253.164 385.469 253.126 385.593 253.089C385.943 252.984 386.294 252.882 386.646 252.781C386.774 252.745 386.902 252.71 387.03 252.674C387.265 252.608 387.5 252.543 387.735 252.479C387.899 252.434 388.062 252.39 388.226 252.347C388.523 252.267 388.821 252.19 389.119 252.113C389.173 252.1 389.226 252.085 389.279 252.071C389.661 251.974 390.043 251.88 390.426 251.787C390.539 251.76 390.652 251.734 390.766 251.707C391.008 251.649 391.251 251.591 391.493 251.535C391.646 251.5 391.798 251.464 391.95 251.43C392.199 251.373 392.449 251.318 392.698 251.264C393.048 251.187 393.398 251.112 393.747 251.039C393.839 251.02 393.931 251 394.022 250.98C394.603 250.86 395.183 250.745 395.762 250.634C395.856 250.616 395.951 250.598 396.046 250.58C396.56 250.482 397.074 250.388 397.586 250.297C397.628 250.289 397.671 250.282 397.713 250.274C397.739 250.27 397.766 250.265 397.792 250.261C398.349 250.163 398.905 250.069 399.458 249.979C399.564 249.961 399.67 249.944 399.776 249.927C400.228 249.854 400.677 249.784 401.125 249.717C401.277 249.694 401.429 249.671 401.581 249.648C402.094 249.573 402.603 249.5 403.11 249.43C403.207 249.416 403.304 249.404 403.4 249.391C403.851 249.329 404.298 249.27 404.743 249.213C404.881 249.195 405.019 249.177 405.157 249.16C405.67 249.096 406.179 249.035 406.684 248.977C406.755 248.968 406.827 248.96 406.898 248.952C407.174 248.92 407.449 248.889 407.723 248.859C407.817 248.849 407.912 248.839 408.006 248.829C408.592 248.765 409.173 248.705 409.746 248.648C409.859 248.637 409.971 248.625 410.083 248.614C410.736 248.55 411.38 248.491 412.013 248.435C412.232 248.415 412.45 248.396 412.666 248.378C413.138 248.338 413.604 248.299 414.063 248.263C414.242 248.249 414.419 248.235 414.596 248.222C415.83 248.127 417.014 248.045 418.137 247.973C418.889 247.924 419.615 247.88 420.31 247.84C420.405 247.834 420.499 247.829 420.593 247.823L423.002 247.688L424.464 247.604C424.998 247.574 425.493 247.546 425.949 247.518C426.1 247.508 426.246 247.498 426.388 247.488C426.619 247.473 426.838 247.458 427.046 247.442C427.114 247.437 427.181 247.431 427.247 247.426C425.569 245.761 423.189 243.976 420.188 242.193C416.166 239.803 411.121 237.468 405.386 235.461C393.909 231.444 379.764 228.772 365.648 229.535C364.863 229.578 364.094 229.612 363.339 229.642C363.29 229.644 363.241 229.647 363.192 229.648C363.066 229.653 362.941 229.657 362.815 229.661C362.14 229.685 361.477 229.706 360.825 229.72C360.245 229.732 359.673 229.738 359.11 229.742C358.921 229.744 358.732 229.746 358.545 229.746C358.493 229.746 358.441 229.746 358.389 229.746C358.067 229.746 357.748 229.747 357.433 229.744C357.417 229.744 357.402 229.743 357.387 229.743C357.042 229.74 356.7 229.736 356.361 229.729C356.304 229.728 356.247 229.727 356.19 229.726C355.902 229.72 355.616 229.712 355.332 229.704C355.108 229.698 354.885 229.69 354.664 229.682C354.557 229.678 354.45 229.675 354.343 229.671C354.113 229.662 353.885 229.651 353.658 229.64C353.541 229.634 353.425 229.629 353.309 229.623C353.1 229.612 352.893 229.599 352.688 229.587C352.564 229.58 352.442 229.572 352.319 229.564C352.093 229.55 351.868 229.534 351.645 229.518C351.549 229.511 351.454 229.504 351.359 229.497C351.177 229.483 350.996 229.467 350.816 229.452C350.661 229.439 350.506 229.426 350.352 229.412C350.261 229.404 350.172 229.394 350.082 229.386C349.849 229.364 349.618 229.342 349.388 229.317C349.326 229.311 349.264 229.304 349.202 229.297C348.958 229.271 348.716 229.244 348.476 229.216C348.323 229.198 348.172 229.177 348.021 229.158C347.895 229.142 347.768 229.127 347.643 229.11C347.458 229.086 347.275 229.06 347.093 229.034C346.968 229.017 346.844 229 346.721 228.981C346.493 228.948 346.266 228.912 346.041 228.876C345.994 228.868 345.947 228.861 345.9 228.854C345.654 228.813 345.41 228.771 345.167 228.729C345.122 228.721 345.076 228.713 345.031 228.705C344.847 228.672 344.663 228.637 344.48 228.603C344.359 228.58 344.239 228.557 344.118 228.533C343.987 228.508 343.857 228.481 343.728 228.454C343.576 228.423 343.425 228.393 343.274 228.361C343.155 228.336 343.036 228.309 342.918 228.283C342.762 228.249 342.607 228.214 342.452 228.179C342.325 228.149 342.198 228.119 342.071 228.089C341.927 228.054 341.783 228.02 341.64 227.984C341.522 227.955 341.406 227.924 341.289 227.895C341.138 227.856 340.988 227.818 340.838 227.778C340.735 227.751 340.632 227.722 340.529 227.694C340.359 227.648 340.19 227.602 340.021 227.554C339.923 227.526 339.825 227.497 339.728 227.469C339.573 227.424 339.42 227.379 339.267 227.333C339.147 227.297 339.028 227.26 338.909 227.223C338.77 227.179 338.63 227.136 338.491 227.092C338.378 227.056 338.265 227.018 338.152 226.981C338.006 226.933 337.859 226.885 337.713 226.836C337.617 226.803 337.521 226.77 337.425 226.736C337.267 226.682 337.108 226.628 336.951 226.571C336.842 226.532 336.733 226.492 336.624 226.452C336.492 226.404 336.361 226.356 336.229 226.307C336.081 226.251 335.934 226.194 335.786 226.137C335.725 226.113 335.664 226.09 335.603 226.066C335.571 226.054 335.54 226.041 335.509 226.028C335.458 226.008 335.407 225.99 335.356 225.97C335.268 225.934 335.179 225.897 335.091 225.861C334.979 225.816 334.867 225.771 334.755 225.725C334.613 225.666 334.471 225.606 334.329 225.546C334.234 225.506 334.139 225.466 334.044 225.425C333.916 225.37 333.789 225.314 333.662 225.258C333.533 225.201 333.403 225.144 333.273 225.086C333.124 225.019 332.976 224.95 332.827 224.882C332.756 224.849 332.686 224.816 332.615 224.783C332.478 224.719 332.34 224.654 332.203 224.589C332.083 224.531 331.962 224.474 331.842 224.416C331.734 224.364 331.627 224.31 331.52 224.257C331.378 224.187 331.237 224.117 331.096 224.046C330.993 223.994 330.891 223.942 330.788 223.89C330.664 223.826 330.541 223.763 330.417 223.698C330.271 223.622 330.126 223.546 329.98 223.469C329.894 223.423 329.808 223.377 329.722 223.331C329.594 223.263 329.466 223.194 329.339 223.124C329.204 223.05 329.069 222.976 328.934 222.901C328.849 222.855 328.765 222.807 328.681 222.76C328.533 222.677 328.385 222.594 328.237 222.51C328.155 222.463 328.072 222.416 327.989 222.368C327.834 222.279 327.679 222.189 327.523 222.099C327.402 222.028 327.28 221.956 327.158 221.884C327.072 221.833 326.986 221.782 326.9 221.73C326.731 221.629 326.561 221.527 326.391 221.424C326.319 221.38 326.247 221.337 326.176 221.293C326.024 221.2 325.873 221.107 325.721 221.013C325.636 220.96 325.552 220.907 325.467 220.854C325.256 220.723 325.046 220.588 324.835 220.454C324.536 220.264 324.234 220.073 323.933 219.877C323.706 219.73 323.48 219.581 323.252 219.431C323.01 219.271 322.766 219.111 322.521 218.947C322.237 218.757 321.952 218.563 321.665 218.368C321.452 218.223 321.237 218.078 321.022 217.931C320.749 217.743 320.475 217.552 320.199 217.36C319.951 217.188 319.7 217.014 319.449 216.838C319.245 216.695 319.041 216.55 318.835 216.404C318.478 216.152 318.118 215.898 317.756 215.639C317.633 215.551 317.511 215.463 317.388 215.375C316.982 215.084 316.572 214.79 316.158 214.491C315.94 214.333 315.72 214.174 315.499 214.014C315.218 213.81 314.934 213.604 314.648 213.396C313.87 212.83 313.075 212.249 312.262 211.654C312.045 211.496 311.827 211.337 311.607 211.177L311.536 211.125C311.364 210.999 311.192 210.873 311.019 210.746C309.637 209.736 308.198 208.685 306.689 207.593C306.678 207.584 306.666 207.576 306.655 207.567C253.212 166.301 228.284 152.93 185.7 139.378C183.489 138.674 181.23 137.97 178.916 137.261C174.85 136.015 170.616 134.756 166.179 133.462ZM488.898 151.414C485.941 151.333 482.605 151.295 478.924 151.354C478.839 151.356 478.753 151.357 478.668 151.358C478.305 151.365 477.939 151.373 477.569 151.381C477.408 151.384 477.245 151.389 477.082 151.393C476.707 151.402 476.329 151.412 475.948 151.423C475.847 151.426 475.746 151.429 475.645 151.433C475.216 151.446 474.783 151.46 474.346 151.476C474.223 151.48 474.101 151.485 473.978 151.489C473.621 151.503 473.262 151.517 472.9 151.532C472.435 151.552 471.965 151.574 471.491 151.598C471.384 151.603 471.277 151.607 471.17 151.612C470.611 151.64 470.047 151.672 469.477 151.705C469.31 151.715 469.144 151.725 468.977 151.735C468.483 151.765 467.985 151.796 467.482 151.829C467.447 151.831 467.411 151.835 467.375 151.837C466.845 151.872 466.311 151.91 465.771 151.95C465.585 151.964 465.397 151.978 465.209 151.992C464.737 152.028 464.261 152.066 463.781 152.105C463.627 152.118 463.472 152.131 463.316 152.145C462.831 152.186 462.341 152.229 461.849 152.274C461.692 152.289 461.536 152.303 461.379 152.317C458.086 152.625 454.64 153.017 451.053 153.513C450.905 153.533 450.757 153.554 450.609 153.575C449.996 153.661 449.378 153.75 448.756 153.842C448.681 153.853 448.607 153.864 448.532 153.875C447.797 153.985 447.057 154.099 446.311 154.218C446.262 154.225 446.214 154.232 446.165 154.24C443.776 154.622 441.331 155.05 438.833 155.529C438.708 155.553 438.583 155.578 438.457 155.603C437.762 155.737 437.064 155.875 436.361 156.018C436.213 156.048 436.064 156.078 435.915 156.108C435.153 156.264 434.387 156.425 433.616 156.591C433.552 156.605 433.487 156.618 433.423 156.632C433.13 156.695 432.838 156.76 432.544 156.824C432.175 156.905 431.805 156.987 431.434 157.07C431.188 157.126 430.941 157.18 430.694 157.236C430.158 157.359 429.619 157.484 429.078 157.611C428.863 157.662 428.648 157.712 428.433 157.764C427.868 157.898 427.301 158.036 426.731 158.176C426.514 158.229 426.296 158.284 426.077 158.338C425.587 158.46 425.094 158.584 424.601 158.71C424.435 158.752 424.27 158.793 424.104 158.836C423.51 158.989 422.913 159.146 422.314 159.305C422.076 159.368 421.838 159.432 421.599 159.496C421.053 159.643 420.505 159.792 419.956 159.943C419.725 160.007 419.494 160.073 419.263 160.138C418.746 160.282 418.227 160.428 417.707 160.577C417.54 160.625 417.373 160.673 417.205 160.722C416.546 160.912 415.885 161.106 415.222 161.304C415.09 161.343 414.959 161.381 414.827 161.421C414.15 161.624 413.471 161.831 412.789 162.042C412.66 162.082 412.531 162.122 412.402 162.162C411.778 162.356 411.151 162.554 410.522 162.755C410.42 162.788 410.317 162.82 410.214 162.854C409.484 163.088 408.752 163.327 408.018 163.57C407.934 163.598 407.851 163.626 407.768 163.653C407.019 163.902 406.268 164.156 405.514 164.415C356.508 181.238 329.073 202.892 322.526 208.925C327.209 214.306 341.255 223.343 365.677 220.65C377.463 207.525 407.796 180.143 443.47 165.292L445.189 164.588C445.748 164.363 446.309 164.142 446.87 163.923C447.022 163.864 447.175 163.805 447.327 163.746C447.531 163.667 447.735 163.588 447.939 163.51C448.203 163.409 448.467 163.309 448.731 163.21C448.804 163.183 448.877 163.155 448.949 163.128C449.486 162.928 450.023 162.731 450.562 162.537C450.714 162.482 450.866 162.428 451.019 162.374C451.554 162.183 452.091 161.993 452.629 161.809L452.641 161.805C453.262 161.597 453.87 161.387 454.469 161.176C454.722 161.086 454.973 160.994 455.224 160.904C455.666 160.745 456.106 160.586 456.544 160.425C456.742 160.352 456.939 160.279 457.137 160.206C458.375 159.745 459.611 159.277 460.894 158.797C460.964 158.77 461.036 158.744 461.107 158.718C461.671 158.507 462.242 158.295 462.824 158.083C463.285 157.915 463.754 157.747 464.231 157.578C464.368 157.53 464.505 157.482 464.643 157.434C465.094 157.275 465.554 157.117 466.024 156.958C466.142 156.918 466.261 156.877 466.38 156.837C466.491 156.8 466.602 156.764 466.714 156.727C466.958 156.646 467.204 156.563 467.453 156.482C467.603 156.434 467.755 156.385 467.907 156.336C468.202 156.241 468.501 156.147 468.804 156.053C468.88 156.029 468.956 156.005 469.032 155.981C469.862 155.725 470.724 155.468 471.626 155.211C471.706 155.188 471.787 155.166 471.867 155.144C472.228 155.042 472.594 154.94 472.968 154.838C473.078 154.808 473.189 154.777 473.301 154.747C473.675 154.646 474.056 154.546 474.444 154.445C474.554 154.417 474.664 154.388 474.774 154.359C475.721 154.116 476.71 153.873 477.746 153.631C477.948 153.584 478.153 153.537 478.358 153.49C478.701 153.412 479.049 153.333 479.402 153.255C479.612 153.208 479.823 153.163 480.036 153.116C480.378 153.042 480.725 152.968 481.076 152.894C481.307 152.845 481.54 152.796 481.775 152.747C482.942 152.506 484.163 152.267 485.443 152.028C485.583 152.002 485.723 151.977 485.864 151.951C486.36 151.86 486.865 151.768 487.379 151.678C487.634 151.633 487.892 151.587 488.152 151.542C488.399 151.499 488.648 151.457 488.898 151.414Z" fill="white" stroke="white" stroke-width="2.75539" stroke-linejoin="round"/>
<path d="M523.382 370.645H476.921V441.885H523.382V426.398H495.506V414.009H512.541V398.521H495.506V386.132H523.382V370.645Z" fill="white"/>
<path d="M365.414 370.645V441.885H383.998L383.224 401.619L408.003 441.885H426.588V370.645H408.778L408.003 410.137L386.321 370.645H365.414Z" fill="white"/>
<path d="M428.911 370.645V386.132H442.849V441.885H461.434V386.132H475.372V370.645H428.911Z" fill="white"/>
<path d="M43.2812 370.645V386.132H55.671V441.885H74.2555V370.645H43.2812Z" fill="white"/>
<path d="M106.779 370.645H77.3529V441.885H97.4862L144.722 370.645H123.04L95.9375 412.24V386.132H106.779V370.645Z" fill="white"/>
<path d="M194.281 370.645H173.373L128.965 438.788L127.686 441.111H150.917L176.471 400.845V440.337H195.055L220.609 400.845V441.111H237.645V370.645H218.286L194.281 408.588V370.645Z" fill="white"/>
<path d="M260.101 370.645H241.517V441.885H260.101V370.645Z" fill="white"/>
<path fill-rule="evenodd" clip-rule="evenodd" d="M263.198 370.645V441.885H281.009V414.783L300.367 441.885L321.275 441.111L344.506 402.393V441.885H362.316V370.645H342.183L311.208 425.624L302.691 414.783C308.885 412.46 320.656 403.787 318.178 387.68C315.7 371.574 294.947 370.645 291.075 370.645H263.198ZM291.185 383.034H280.234V401.619H291.185C296.256 401.619 300.367 397.508 300.367 392.437V392.216C300.367 387.145 296.256 383.034 291.185 383.034Z" fill="white"/>
</svg>
