<svg width="743" height="303" viewBox="0 0 743 303" fill="none" xmlns="http://www.w3.org/2000/svg">
<g clip-path="url(#clip0_1780_241)">
<path fill-rule="evenodd" clip-rule="evenodd" d="M742.647 190.088H471.701V302.814H742.647V190.088ZM488.502 211.82H519.025V262.293H560.409V281.385H519.025H496.436V219.437C495.458 216.493 494.653 214.838 488.502 211.82ZM651.826 211.922C656.534 213.694 658.117 215.427 659.667 219.437V233.045H673.201V228.983H697.4C698.531 228.983 699.626 229.378 700.497 230.099L700.665 230.238C703.049 232.212 702.897 235.912 700.359 237.684C699.572 238.234 698.635 238.529 697.675 238.529H673.201L659.667 255.794H699.149L702.044 260.262L699.149 265.543H659.667V282.502H702.098C705.359 282.502 708.568 281.599 711.353 279.904C723.352 272.601 722.548 254.866 709.884 248.786C722.875 240.703 721.883 221.491 708.129 214.786L706.332 213.911C703.51 212.535 700.411 211.823 697.271 211.83L651.826 211.922ZM600.726 211.82H570.204C576.354 214.838 577.159 216.493 578.137 219.437V281.385H600.726V265.156H619.488V281.385H642.076V237.165C642.076 223.168 630.729 211.82 616.731 211.82H611.554H600.726ZM600.726 230.913V246.063H619.488V230.913H600.726Z" fill="white"/>
<path d="M511.836 118.188V161.358C511.836 161.721 511.542 162.015 511.181 162.015H592.85C593.211 162.015 593.505 161.721 593.505 161.358V125.418C593.505 125.055 593.211 124.761 592.85 124.761H518.384C514.768 124.761 511.836 121.819 511.836 118.188Z" fill="white"/>
<path d="M511.186 0.00231934H472.356C471.995 0.00231934 471.701 0.296564 471.701 0.659555L472.326 139.788C472.392 152.083 482.34 162.015 494.59 162.015H511.186C511.548 162.015 511.841 161.721 511.841 161.358V118.189V0.659555C511.841 0.296564 511.548 0.00231934 511.186 0.00231934Z" fill="white"/>
<path d="M164.395 87.6872C164.395 87.5201 164.693 87.3842 165.061 87.3842H204.563C204.93 87.3842 205.229 87.5201 205.229 87.6872V161.709C205.229 161.876 204.93 162.011 204.563 162.011H165.061C164.693 162.011 164.395 161.876 164.395 161.709V87.6872Z" fill="white"/>
<path d="M318.226 87.6018C318.226 87.4347 318.524 87.2996 318.892 87.2996H358.393C358.761 87.2996 359.059 87.4347 359.059 87.6018V161.624C359.059 161.792 358.761 161.927 358.393 161.927H318.892C318.524 161.927 318.226 161.792 318.226 161.624V87.6018Z" fill="white"/>
<path d="M689.162 67.3686C689.162 67.0056 689.455 66.7113 689.817 66.7113H740.518C740.88 66.7113 741.173 67.0056 741.173 67.3686V94.3422C741.173 94.7054 740.88 94.9995 740.518 94.9995H689.817C689.455 94.9995 689.162 94.7054 689.162 94.3422V67.3686Z" fill="white"/>
<path d="M741.349 0.657237V36.5971C741.349 36.9601 741.056 37.2544 740.694 37.2544H663.022C659.406 37.2544 656.474 40.197 656.474 43.8269V118.186C656.474 121.816 659.405 124.759 663.022 124.759H740.694C741.056 124.759 741.349 125.053 741.349 125.416V161.356C741.349 161.719 741.056 162.013 740.694 162.013H642.429C630.179 162.013 620.231 152.081 620.165 139.785L619.541 22.4659C619.475 10.0778 629.462 0 641.805 0H740.694C741.056 0 741.349 0.294245 741.349 0.657237Z" fill="white"/>
<path d="M164.743 117.526C164.743 117.163 165.036 116.869 165.397 116.869H191.707C192.069 116.869 192.361 117.163 192.361 117.526V161.604C192.361 161.967 192.069 162.262 191.707 162.262H165.397C165.036 162.262 164.743 161.967 164.743 161.604V117.526Z" fill="white"/>
<path d="M164.736 0.657237V36.5971C164.736 36.9601 165.03 37.2544 165.391 37.2544H243.063C246.68 37.2544 249.612 40.197 249.612 43.8269V78.7607C249.612 82.39 246.68 85.3331 243.063 85.3331H165.391C165.03 85.3331 164.736 85.6272 164.736 85.9904V121.93C164.736 122.293 165.03 122.587 165.391 122.587H263.656C275.906 122.587 285.855 112.655 285.92 100.36L286.545 22.4659C286.61 10.0778 276.623 0 264.281 0H165.391C165.03 0 164.736 0.294245 164.736 0.657237Z" fill="white"/>
<path d="M318.226 117.526C318.226 117.163 318.518 116.869 318.88 116.869H345.19C345.551 116.869 345.845 117.163 345.845 117.526V161.604C345.845 161.967 345.551 162.262 345.19 162.262H318.88C318.518 162.262 318.226 161.967 318.226 161.604V117.526Z" fill="white"/>
<path d="M318.226 0.657237V36.5971C318.226 36.9601 318.519 37.2544 318.881 37.2544H396.553C400.168 37.2544 403.1 40.197 403.1 43.8269V78.7607C403.1 82.39 400.169 85.3331 396.553 85.3331H318.881C318.519 85.3331 318.226 85.6272 318.226 85.9904V121.93C318.226 122.293 318.519 122.587 318.881 122.587H417.145C429.395 122.587 439.344 112.655 439.409 100.36L440.033 22.4659C440.099 10.0778 430.112 0 417.769 0H318.881C318.519 0 318.226 0.294245 318.226 0.657237Z" fill="white"/>
<path d="M52.0918 67.5861H80.2113V95.8744H52.0918V67.5861Z" fill="white"/>
<path d="M97.6096 161.356C97.6096 161.719 97.9029 162.013 98.2646 162.013H132.274C132.636 162.013 132.929 161.719 132.929 161.356V22.3466C132.929 10.0049 122.961 0 110.665 0H22.2631C9.96705 0 -0.000976562 10.0049 -0.000976562 22.3466V161.356C-0.000976562 161.719 0.292246 162.013 0.653896 162.013H34.6636C35.0252 162.013 35.3183 161.719 35.3183 161.356V46.2772C35.3183 42.6473 38.25 39.7047 41.8666 39.7047H91.0617C94.6776 39.7047 97.6096 42.6473 97.6096 46.2772V161.356Z" fill="white"/>
</g>
<defs>
<clipPath id="clip0_1780_241">
<rect width="742.647" height="303" fill="white"/>
</clipPath>
</defs>
</svg>
