<svg width="612" height="536" viewBox="0 0 612 536" fill="none" xmlns="http://www.w3.org/2000/svg">
<g clip-path="url(#clip0_1780_180)">
<mask id="mask0_1780_180" style="mask-type:alpha" maskUnits="userSpaceOnUse" x="72" y="46" width="512" height="295">
<mask id="mask1_1780_180" style="mask-type:luminance" maskUnits="userSpaceOnUse" x="48" y="0" width="607" height="368">
<path d="M654.131 0H48.4689V367.031H654.131V0Z" fill="white"/>
</mask>
<g mask="url(#mask1_1780_180)">
<path d="M456.446 190.681C462.639 193.725 469.238 195.936 476.057 197.253C484.632 199.167 493.407 200.127 502.209 200.113C510.35 200.19 518.46 199.13 526.284 196.967C533.129 195.113 539.537 192.005 545.157 187.815C550.314 183.927 554.524 179.002 557.494 173.384C560.536 167.481 562.065 160.962 561.952 154.374C562.061 146.119 559.289 138.068 554.078 131.508C547.181 123.812 538.006 118.324 527.78 115.778L503.711 108.344C496.883 106.635 490.505 103.565 484.99 99.3311C483.354 97.848 482.059 96.0518 481.188 94.0581C480.317 92.0643 479.889 89.9172 479.933 87.755C479.739 84.8509 480.387 81.9519 481.803 79.3806C483.22 76.8092 485.351 74.6663 487.958 73.1903C494.941 69.7854 502.732 68.2081 510.549 68.617C521.792 68.4537 532.942 70.5987 543.255 74.909C545.279 75.9737 547.498 76.6522 549.79 76.9072C552.364 76.9072 553.654 75.2002 553.654 71.763V64.0378C553.759 62.1235 553.24 60.2255 552.171 58.6081C550.784 56.9602 549.066 55.5988 547.119 54.6057C544.835 53.4485 542.447 52.4912 539.985 51.7452C537.009 50.7975 533.789 49.9411 530.324 49.176C526.86 48.4108 523.194 47.7894 519.325 47.3117C515.531 46.8481 511.71 46.6126 507.884 46.6068C500.647 46.5694 493.441 47.5287 486.486 49.4556C480.104 51.1971 474.11 54.057 468.807 57.8915C463.834 61.5246 459.687 66.0986 456.621 71.3318C453.463 76.892 451.874 83.1508 452.012 89.4853C452.021 98.0793 455.005 106.426 460.491 113.208C467.533 121.333 477.043 127.133 487.686 129.795L512.354 137.229C518.643 138.831 524.482 141.76 529.446 145.804C530.968 147.319 532.16 149.111 532.951 151.075C533.743 153.039 534.118 155.135 534.055 157.24C534.158 160.332 533.399 163.393 531.857 166.107C530.315 168.821 528.046 171.088 525.285 172.673C517.71 176.711 509.098 178.596 500.453 178.109C493.663 178.104 486.891 177.433 480.242 176.105C473.803 174.866 467.524 172.95 461.521 170.39C459.736 169.613 458.301 169.04 457.215 168.671C456.216 168.303 455.159 168.106 454.09 168.088C451.513 168.088 450.225 169.805 450.225 173.238V181.529C450.156 183.488 450.719 185.419 451.837 187.058C452.955 188.697 454.574 189.963 456.47 190.681" fill="#242B39"/>
<path d="M188.67 140.084C188.761 144.847 188.212 149.602 187.035 154.229C185.969 158.094 183.985 161.668 181.238 164.669C176.942 169.451 171.403 173.052 165.188 175.103C159.544 177.025 153.611 178.04 147.624 178.109C144.396 178.314 141.159 177.9 138.098 176.894C135.037 175.886 132.215 174.306 129.793 172.243C127.582 169.921 125.888 167.189 124.814 164.215C123.74 161.24 123.31 158.086 123.549 154.946C123.332 151.393 123.973 147.84 125.423 144.566C126.874 141.292 129.093 138.386 131.907 136.076C139.296 131.17 148.211 128.85 157.163 129.504C162.479 129.518 167.789 129.853 173.062 130.506C178.311 131.141 183.521 132.045 188.67 133.215V140.084ZM169.204 111.345C163.251 110.511 157.244 110.082 151.228 110.063C136.212 109.299 121.421 113.82 109.619 122.781C104.569 126.892 100.554 132.052 97.878 137.871C95.2017 143.691 93.9333 150.019 94.1683 156.379C93.8767 162.168 94.8353 167.952 96.9837 173.367C99.1322 178.781 102.424 183.709 106.651 187.839C111.201 191.867 116.542 194.98 122.36 196.994C128.179 199.008 134.357 199.882 140.532 199.566C150.093 199.709 159.562 197.748 168.216 193.833C176.869 189.919 184.479 184.154 190.463 176.979C192.243 180.607 193.975 183.799 195.659 186.557C197.345 189.322 199.393 191.867 201.752 194.131C202.39 194.82 203.166 195.378 204.034 195.771C204.903 196.163 205.845 196.382 206.803 196.414C208.4 196.348 209.946 195.853 211.267 194.987L221.963 188.118C222.874 187.623 223.647 186.922 224.217 186.078C224.786 185.233 225.135 184.268 225.234 183.265C225.173 181.948 224.755 180.669 224.022 179.554C221.847 175.802 220.008 171.879 218.523 167.827C217.076 163.102 216.424 158.185 216.591 153.262V100.066C216.591 82.1453 211.885 68.7555 202.473 59.8962C193.061 51.037 178.25 46.6074 158.041 46.6074C149.121 46.558 140.232 47.6134 131.592 49.7475C124.221 51.5123 117.058 53.9974 110.212 57.1639C108.359 57.9162 106.727 59.0945 105.458 60.5953C104.51 62.3551 104.09 64.3342 104.247 66.3105V74.3211C104.247 77.7468 105.436 79.4615 107.814 79.4654C108.72 79.4209 109.618 79.2782 110.491 79.0401C112.52 78.4559 114.506 77.7376 116.432 76.8904C122.376 74.6072 128.485 72.7457 134.711 71.3208C140.696 69.9209 146.831 69.2013 152.99 69.1769C166.06 69.1769 175.273 71.7014 180.627 76.7505C185.981 81.7996 188.656 90.521 188.652 102.915V114.916C181.913 113.393 175.424 112.203 169.186 111.345" fill="#242B39"/>
<path d="M273.969 187.815C274.482 190.24 275.72 192.467 277.53 194.224C279.471 195.426 281.77 195.981 284.071 195.803H298.638C301.051 196.006 303.464 195.403 305.469 194.096C307.222 192.273 308.369 189.989 308.764 187.536L334.917 82.3376L361.366 187.536C361.745 189.994 362.885 192.286 364.637 194.113C366.643 195.423 369.059 196.026 371.474 195.82H386.01C388.312 195.997 390.61 195.443 392.551 194.241C394.359 192.481 395.598 190.255 396.119 187.833L437.128 61.4809C437.614 60.1709 438.018 58.8345 438.34 57.4785C438.524 56.6333 438.623 55.7729 438.636 54.9093C438.717 54.3656 438.666 53.8111 438.485 53.29C438.305 52.7688 438.001 52.2953 437.597 51.9069C437.193 51.5185 436.701 51.2259 436.159 51.0523C435.617 50.8787 435.041 50.829 434.475 50.9069H418.728C416.388 50.6956 414.041 51.2476 412.066 52.4741C410.35 54.2764 409.17 56.4901 408.65 58.8826L379.172 168.38L352.426 58.9117C352.07 56.496 350.925 54.2518 349.156 52.5032C347.113 51.2881 344.717 50.7386 342.324 50.9361H328.654C326.259 50.736 323.86 51.2857 321.816 52.5032C320.044 54.2494 318.898 56.4948 318.546 58.9117L292.096 166.953L263.564 58.9117C263.039 56.5198 261.857 54.3069 260.142 52.5032C258.166 51.2779 255.82 50.7261 253.479 50.9361H236.818C236.252 50.8581 235.676 50.9079 235.134 51.0814C234.592 51.255 234.1 51.5476 233.696 51.936C233.292 52.3244 232.988 52.798 232.808 53.3191C232.627 53.8403 232.576 54.3947 232.657 54.9384C232.885 57.1769 233.383 59.3823 234.141 61.5101L273.969 187.862" fill="#242B39"/>
<path d="M526.192 266.989C465.157 291.729 399.642 304.624 333.41 304.934C244.756 304.996 157.627 282.759 80.667 240.429C74.3741 236.934 69.7045 243.115 74.9374 247.671C144.187 307.764 234.27 340.818 327.535 340.355C397.337 340.355 478.399 319.248 534.314 279.556C543.562 272.978 535.646 263.133 526.192 266.989Z" fill="#F68D11"/>
<path d="M490.882 244.623C485.958 247.95 486.812 252.541 492.269 251.9C510.3 249.826 550.413 245.194 557.566 253.997C564.718 262.8 549.613 299.113 542.866 315.326C540.819 320.226 545.21 322.207 549.819 318.495C579.812 294.359 587.57 243.784 581.429 236.484C575.287 229.185 522.891 222.997 490.882 244.641" fill="#F68D11"/>
</g>
</mask>
<g mask="url(#mask0_1780_180)">
<rect x="42.3763" width="611.719" height="367.031" fill="white"/>
</g>
</g>
<path d="M35.1383 505.509H26.4416L59.498 414.637H68.3722L101.429 505.509H92.7318L64.2457 425.419H63.6245L35.1383 505.509ZM41.3946 470.678H86.4755V478.132H41.3946V470.678ZM145.732 506.929C139.638 506.929 134.329 505.405 129.803 502.359C125.307 499.312 121.816 495.141 119.331 489.846C116.847 484.551 115.604 478.517 115.604 471.743C115.604 464.91 116.861 458.831 119.376 453.506C121.92 448.182 125.44 444.011 129.936 440.994C134.432 437.947 139.653 436.423 145.599 436.423C150.154 436.423 154.281 437.311 157.978 439.086C161.676 440.831 164.723 443.301 167.119 446.496C169.544 449.661 171.068 453.358 171.689 457.588H163.702C162.874 453.743 160.877 450.459 157.712 447.738C154.577 444.987 150.583 443.612 145.732 443.612C141.384 443.612 137.538 444.795 134.196 447.161C130.853 449.498 128.235 452.767 126.342 456.967C124.478 461.138 123.547 465.975 123.547 471.477C123.547 477.008 124.464 481.904 126.298 486.163C128.132 490.393 130.705 493.706 134.018 496.102C137.361 498.498 141.265 499.696 145.732 499.696C148.749 499.696 151.5 499.134 153.985 498.01C156.499 496.857 158.6 495.23 160.286 493.13C162.001 491.029 163.155 488.53 163.747 485.631H171.733C171.142 489.743 169.678 493.411 167.341 496.635C165.033 499.83 162.031 502.344 158.333 504.178C154.665 506.012 150.465 506.929 145.732 506.929ZM211.444 507.062C207.333 507.062 203.576 506.263 200.174 504.666C196.772 503.039 194.066 500.702 192.054 497.655C190.043 494.579 189.037 490.852 189.037 486.474C189.037 483.102 189.673 480.262 190.945 477.955C192.217 475.647 194.021 473.754 196.358 472.275C198.695 470.796 201.461 469.628 204.656 468.77C207.85 467.912 211.371 467.246 215.216 466.773C219.032 466.3 222.256 465.886 224.889 465.531C227.551 465.176 229.577 464.614 230.968 463.845C232.358 463.076 233.053 461.833 233.053 460.118V458.52C233.053 453.876 231.663 450.223 228.882 447.561C226.131 444.869 222.167 443.523 216.991 443.523C212.08 443.523 208.072 444.603 204.966 446.762C201.89 448.921 199.731 451.465 198.488 454.394L190.989 451.687C192.528 447.96 194.657 444.987 197.379 442.769C200.1 440.52 203.147 438.908 206.519 437.932C209.892 436.926 213.308 436.423 216.769 436.423C219.372 436.423 222.079 436.764 224.889 437.444C227.729 438.124 230.361 439.308 232.787 440.994C235.213 442.65 237.18 444.972 238.688 447.96C240.197 450.918 240.951 454.675 240.951 459.23V505.509H233.053V494.727H232.565C231.618 496.738 230.213 498.691 228.35 500.584C226.486 502.477 224.149 504.03 221.339 505.243C218.529 506.456 215.231 507.062 211.444 507.062ZM212.509 499.83C216.71 499.83 220.348 498.898 223.425 497.034C226.501 495.171 228.867 492.701 230.524 489.624C232.21 486.518 233.053 483.102 233.053 479.375V469.524C232.462 470.086 231.471 470.589 230.08 471.033C228.72 471.477 227.137 471.876 225.333 472.231C223.558 472.556 221.783 472.837 220.008 473.074C218.233 473.311 216.636 473.518 215.216 473.695C211.371 474.168 208.087 474.908 205.366 475.914C202.644 476.919 200.559 478.31 199.109 480.084C197.66 481.83 196.935 484.078 196.935 486.829C196.935 490.97 198.414 494.18 201.372 496.457C204.33 498.705 208.043 499.83 212.509 499.83ZM290.246 506.929C284.656 506.929 279.76 505.45 275.56 502.492C271.359 499.534 268.076 495.407 265.709 490.112C263.372 484.817 262.204 478.65 262.204 471.61C262.204 464.599 263.372 458.461 265.709 453.196C268.076 447.901 271.374 443.789 275.604 440.861C279.834 437.902 284.759 436.423 290.38 436.423C294.521 436.423 297.967 437.163 300.718 438.642C303.469 440.091 305.673 441.896 307.329 444.055C308.986 446.215 310.272 448.315 311.189 450.356H311.899V414.637H319.842V505.509H312.121V492.863H311.189C310.272 494.934 308.971 497.064 307.285 499.253C305.599 501.412 303.365 503.231 300.585 504.71C297.834 506.189 294.388 506.929 290.246 506.929ZM291.178 499.696C295.586 499.696 299.342 498.498 302.448 496.102C305.554 493.677 307.921 490.349 309.548 486.119C311.204 481.859 312.033 476.979 312.033 471.477C312.033 466.034 311.219 461.227 309.592 457.056C307.965 452.856 305.599 449.572 302.493 447.206C299.387 444.81 295.615 443.612 291.178 443.612C286.623 443.612 282.777 444.854 279.642 447.339C276.536 449.794 274.169 453.122 272.542 457.322C270.945 461.523 270.146 466.241 270.146 471.477C270.146 476.771 270.96 481.549 272.587 485.808C274.214 490.068 276.58 493.455 279.686 495.969C282.822 498.454 286.652 499.696 291.178 499.696ZM373.641 506.929C367.281 506.929 361.779 505.45 357.135 502.492C352.491 499.504 348.897 495.378 346.353 490.112C343.838 484.817 342.581 478.724 342.581 471.831C342.581 464.969 343.838 458.875 346.353 453.551C348.897 448.197 352.402 444.011 356.869 440.994C361.365 437.947 366.556 436.423 372.443 436.423C376.14 436.423 379.705 437.104 383.136 438.465C386.567 439.796 389.644 441.852 392.365 444.632C395.116 447.383 397.29 450.859 398.888 455.059C400.485 459.23 401.284 464.17 401.284 469.879V473.784H348.039V466.818H393.208C393.208 462.44 392.321 458.505 390.546 455.015C388.801 451.495 386.36 448.714 383.225 446.673C380.119 444.632 376.525 443.612 372.443 443.612C368.124 443.612 364.323 444.765 361.039 447.072C357.756 449.38 355.182 452.427 353.319 456.213C351.485 459.999 350.553 464.141 350.523 468.637V472.808C350.523 478.221 351.455 482.954 353.319 487.006C355.212 491.029 357.889 494.15 361.35 496.369C364.811 498.587 368.908 499.696 373.641 499.696C376.865 499.696 379.69 499.194 382.116 498.188C384.571 497.182 386.627 495.836 388.283 494.15C389.969 492.434 391.241 490.556 392.099 488.515L399.598 490.955C398.562 493.825 396.862 496.472 394.495 498.898C392.158 501.323 389.23 503.276 385.71 504.755C382.219 506.204 378.196 506.929 373.641 506.929ZM422.437 505.509V437.355H430.113V447.827H430.823C432.184 444.307 434.446 441.541 437.612 439.529C440.806 437.488 444.637 436.468 449.104 436.468C453.807 436.468 457.667 437.577 460.685 439.796C463.731 441.985 466.009 445.002 467.518 448.847H468.094C469.633 445.061 472.132 442.059 475.593 439.84C479.084 437.592 483.314 436.468 488.283 436.468C494.613 436.468 499.613 438.465 503.281 442.458C506.949 446.422 508.783 452.22 508.783 459.851V505.509H500.885V459.851C500.885 454.468 499.509 450.43 496.758 447.738C494.007 445.046 490.383 443.7 485.887 443.7C480.681 443.7 476.673 445.298 473.863 448.492C471.053 451.687 469.647 455.74 469.647 460.65V505.509H461.572V459.141C461.572 454.527 460.285 450.8 457.712 447.96C455.138 445.12 451.515 443.7 446.841 443.7C443.705 443.7 440.88 444.469 438.366 446.008C435.881 447.546 433.914 449.69 432.465 452.441C431.045 455.163 430.335 458.298 430.335 461.848V505.509H422.437ZM536.503 531.067C534.935 531.067 533.47 530.919 532.11 530.623C530.749 530.327 529.669 530.002 528.871 529.647L531.001 522.681C533.692 523.509 536.088 523.805 538.189 523.568C540.289 523.361 542.152 522.414 543.779 520.728C545.406 519.072 546.856 516.528 548.128 513.096L550.612 506.175L525.543 437.355H534.106L554.34 495.082H554.961L575.194 437.355H583.758L554.916 516.291C553.704 519.575 552.21 522.311 550.435 524.5C548.66 526.718 546.604 528.36 544.267 529.425C541.96 530.519 539.372 531.067 536.503 531.067Z" fill="white"/>
<defs>
<clipPath id="clip0_1780_180">
<rect width="611.719" height="367.031" fill="white"/>
</clipPath>
</defs>
</svg>
