<svg width="1203" height="613" viewBox="0 0 1203 613" fill="none" xmlns="http://www.w3.org/2000/svg">
<mask id="mask0_1780_62" style="mask-type:alpha" maskUnits="userSpaceOnUse" x="292" y="0" width="1634" height="377">
<path d="M501.437 223.624H473.484V334.571H501.437V223.624Z" fill="#D8D8D8"/>
<path d="M727.116 255.444C719.863 251.587 711.761 249.607 703.546 249.683C699.551 249.509 695.562 250.145 691.819 251.553C688.076 252.962 684.658 255.113 681.769 257.878C678.88 260.644 676.581 263.965 675.01 267.643C673.44 271.321 672.63 275.278 672.63 279.277C672.63 283.276 673.44 287.234 675.01 290.912C676.581 294.589 678.88 297.911 681.769 300.676C684.658 303.441 688.076 305.593 691.819 307.002C695.562 308.41 699.551 309.046 703.546 308.871C711.757 308.915 719.851 306.936 727.116 303.111V332.846C718.85 335.431 710.246 336.771 701.585 336.825C693.909 336.995 686.276 335.63 679.134 332.81C671.992 329.99 665.486 325.771 659.997 320.402C654.508 315.033 650.146 308.622 647.169 301.545C644.191 294.467 642.657 286.866 642.657 279.188C642.657 271.509 644.191 263.908 647.169 256.831C650.146 249.753 654.508 243.342 659.997 237.973C665.486 232.604 671.992 228.386 679.134 225.566C686.276 222.746 693.909 221.38 701.585 221.551C710.247 221.59 718.853 222.931 727.116 225.529V255.444Z" fill="#D8D8D8"/>
<path d="M434.937 255.444C427.711 251.571 419.622 249.589 411.424 249.683C407.429 249.509 403.44 250.145 399.697 251.553C395.954 252.962 392.535 255.113 389.647 257.878C386.758 260.644 384.459 263.965 382.888 267.643C381.318 271.321 380.508 275.278 380.508 279.277C380.508 283.276 381.318 287.234 382.888 290.912C384.459 294.589 386.758 297.911 389.647 300.676C392.535 303.441 395.954 305.593 399.697 307.002C403.44 308.41 407.429 309.046 411.424 308.871C419.618 308.929 427.698 306.95 434.937 303.111V332.846C426.675 335.444 418.068 336.785 409.407 336.825C401.73 336.995 394.097 335.63 386.955 332.81C379.814 329.99 373.307 325.771 367.818 320.402C362.329 315.033 357.968 308.622 354.99 301.545C352.012 294.467 350.479 286.866 350.479 279.188C350.479 271.509 352.012 263.908 354.99 256.831C357.968 249.753 362.329 243.342 367.818 237.973C373.307 232.604 379.814 228.386 386.955 225.566C394.097 222.746 401.73 221.38 409.407 221.551C418.069 221.582 426.677 222.923 434.937 225.529V255.444Z" fill="#D8D8D8"/>
<path d="M815.223 249.909C809.423 249.828 803.731 251.476 798.87 254.641C794.009 257.806 790.2 262.346 787.928 267.682C785.655 273.019 785.022 278.911 786.109 284.609C787.196 290.306 789.954 295.552 794.031 299.677C798.109 303.803 803.321 306.622 809.006 307.775C814.69 308.928 820.59 308.364 825.953 306.155C831.315 303.945 835.9 300.189 839.121 295.366C842.343 290.542 844.057 284.87 844.044 279.069C844.089 275.256 843.377 271.472 841.949 267.936C840.52 264.4 838.404 261.182 835.724 258.47C833.043 255.758 829.851 253.604 826.332 252.135C822.812 250.665 819.037 249.909 815.223 249.909ZM873.836 279.069C874.031 290.702 870.759 302.129 864.438 311.896C858.117 321.663 849.033 329.328 838.341 333.915C827.65 338.502 815.835 339.803 804.401 337.653C792.968 335.504 782.432 330 774.137 321.843C765.841 313.687 760.161 303.246 757.819 291.85C755.476 280.454 756.578 268.619 760.984 257.852C765.39 247.084 772.901 237.872 782.56 231.387C792.219 224.902 803.589 221.438 815.223 221.437C822.899 221.211 830.541 222.54 837.689 225.344C844.838 228.148 851.346 232.369 856.821 237.752C862.296 243.136 866.626 249.572 869.55 256.672C872.475 263.773 873.932 271.391 873.836 279.069Z" fill="#D8D8D8"/>
<path d="M607.603 248.873C600.456 246.908 593.108 245.766 585.702 245.469C574.172 245.469 568.412 249.24 568.412 254.576C568.412 261.317 576.595 263.684 581.205 265.126L588.927 267.549C596.257 269.11 602.851 273.09 607.648 278.848C612.446 284.606 615.169 291.81 615.381 299.302C615.381 327.199 590.869 336.533 569.269 336.533C559.145 336.406 549.051 335.403 539.1 333.535V308.014C547.715 310.467 556.601 311.842 565.555 312.105C579.442 312.105 585.844 308.07 585.844 301.735C585.844 295.399 580.083 292.92 573.399 290.723L567.638 288.762C552.073 283.859 538.818 274.695 538.818 256.311C538.818 235.57 554.383 221.73 580.14 221.73C589.361 221.853 598.537 223.052 607.481 225.303L607.603 248.873Z" fill="#D8D8D8"/>
<path d="M320.721 104.437C320.515 100.885 318.958 97.5466 316.37 95.105C313.782 92.6635 310.359 91.3035 306.801 91.3035C303.243 91.3035 299.82 92.6635 297.232 95.105C294.644 97.5466 293.088 100.885 292.881 104.437V133.541C293.088 137.092 294.644 140.431 297.232 142.873C299.82 145.314 303.243 146.674 306.801 146.674C310.359 146.674 313.782 145.314 316.37 142.873C318.958 140.431 320.515 137.092 320.721 133.541V104.437Z" fill="#D8D8D8"/>
<path d="M397.041 66.1698C397.041 62.4854 395.577 58.9519 392.972 56.3467C390.367 53.7414 386.834 52.2778 383.149 52.2778C379.465 52.2778 375.931 53.7414 373.326 56.3467C370.721 58.9519 369.257 62.4854 369.257 66.1698V133.551C369.257 137.235 370.721 140.769 373.326 143.374C375.931 145.979 379.465 147.443 383.149 147.443C386.834 147.443 390.367 145.979 392.972 143.374C395.577 140.769 397.041 137.235 397.041 133.551V66.1698Z" fill="#D8D8D8"/>
<path d="M473.344 13.892C473.344 10.2076 471.88 6.6741 469.275 4.06886C466.67 1.46361 463.136 0 459.452 0C455.767 0 452.234 1.46361 449.629 4.06886C447.023 6.6741 445.56 10.2076 445.56 13.892V161.438C445.56 165.122 447.023 168.656 449.629 171.261C452.234 173.866 455.767 175.33 459.452 175.33C463.136 175.33 466.67 173.866 469.275 171.261C471.88 168.656 473.344 165.122 473.344 161.438V13.892Z" fill="#D8D8D8"/>
<path d="M549.738 66.1698C549.738 62.4854 548.275 58.9519 545.669 56.3467C543.064 53.7414 539.531 52.2778 535.846 52.2778C532.162 52.2778 528.629 53.7414 526.023 56.3467C523.418 58.9519 521.954 62.4854 521.954 66.1698V133.551C521.954 137.235 523.418 140.769 526.023 143.374C528.629 145.979 532.162 147.443 535.846 147.443C539.531 147.443 543.064 145.979 545.669 143.374C548.275 140.769 549.738 137.235 549.738 133.551V66.1698Z" fill="#D8D8D8"/>
<path d="M625.92 104.436C626.041 102.542 625.773 100.643 625.131 98.8563C624.49 97.0697 623.488 95.4336 622.19 94.0492C620.891 92.6647 619.322 91.5612 617.58 90.8069C615.838 90.0525 613.96 89.6633 612.061 89.6633C610.163 89.6633 608.285 90.0525 606.543 90.8069C604.801 91.5612 603.232 92.6647 601.933 94.0492C600.635 95.4336 599.633 97.0697 598.992 98.8563C598.35 100.643 598.081 102.542 598.202 104.436V133.54C598.081 135.435 598.35 137.334 598.992 139.12C599.633 140.907 600.635 142.543 601.933 143.928C603.232 145.312 604.801 146.415 606.543 147.17C608.285 147.924 610.163 148.313 612.061 148.313C613.96 148.313 615.838 147.924 617.58 147.17C619.322 146.415 620.891 145.312 622.19 143.928C623.488 142.543 624.49 140.907 625.131 139.12C625.773 137.334 626.041 135.435 625.92 133.54V104.436Z" fill="#D8D8D8"/>
<path d="M702.085 66.1688C701.86 62.6463 700.302 59.3416 697.727 56.9266C695.153 54.5116 691.756 53.1675 688.226 53.1675C684.696 53.1675 681.299 54.5116 678.725 56.9266C676.15 59.3416 674.592 62.6463 674.367 66.1688V133.54C674.246 135.435 674.514 137.334 675.156 139.121C675.798 140.907 676.799 142.543 678.098 143.928C679.397 145.312 680.965 146.416 682.707 147.17C684.449 147.924 686.328 148.313 688.226 148.313C690.124 148.313 692.002 147.924 693.744 147.17C695.486 146.416 697.055 145.312 698.354 143.928C699.653 142.543 700.654 140.907 701.296 139.121C701.937 137.334 702.206 135.435 702.085 133.54V66.1688Z" fill="#D8D8D8"/>
<path d="M778.692 13.9013C778.466 10.3787 776.908 7.07403 774.334 4.65902C771.76 2.24401 768.362 0.899902 764.833 0.899902C761.303 0.899902 757.905 2.24401 755.331 4.65902C752.757 7.07403 751.199 10.3787 750.974 13.9013V161.447C750.853 163.342 751.121 165.241 751.763 167.027C752.404 168.814 753.406 170.45 754.704 171.835C756.003 173.219 757.572 174.322 759.314 175.077C761.056 175.831 762.934 176.22 764.833 176.22C766.731 176.22 768.609 175.831 770.351 175.077C772.093 174.322 773.662 173.219 774.961 171.835C776.26 170.45 777.261 168.814 777.902 167.027C778.544 165.241 778.813 163.342 778.692 161.447V13.9013Z" fill="#D8D8D8"/>
<path d="M855.107 66.1695C854.9 62.6177 853.343 59.2793 850.755 56.8377C848.168 54.3961 844.744 53.0361 841.186 53.0361C837.629 53.0361 834.205 54.3961 831.618 56.8377C829.03 59.2793 827.473 62.6177 827.266 66.1695V133.541C827.473 137.093 829.03 140.431 831.618 142.873C834.205 145.314 837.629 146.674 841.186 146.674C844.744 146.674 848.168 145.314 850.755 142.873C853.343 140.431 854.9 137.093 855.107 133.541V66.1695Z" fill="#D8D8D8"/>
<path d="M931.315 104.436C931.436 102.542 931.168 100.643 930.526 98.8563C929.884 97.0697 928.883 95.4336 927.584 94.0492C926.285 92.6647 924.717 91.5612 922.975 90.8069C921.233 90.0525 919.354 89.6633 917.456 89.6633C915.558 89.6633 913.68 90.0525 911.938 90.8069C910.196 91.5612 908.627 92.6647 907.328 94.0492C906.029 95.4336 905.028 97.0697 904.386 98.8563C903.745 100.643 903.476 102.542 903.597 104.436V133.54C903.476 135.435 903.745 137.334 904.386 139.12C905.028 140.907 906.029 142.543 907.328 143.928C908.627 145.312 910.196 146.415 911.938 147.17C913.68 147.924 915.558 148.313 917.456 148.313C919.354 148.313 921.233 147.924 922.975 147.17C924.717 146.415 926.285 145.312 927.584 143.928C928.883 142.543 929.884 140.907 930.526 139.12C931.168 137.334 931.436 135.435 931.315 133.54V104.436Z" fill="#D8D8D8"/>
<path d="M915.248 319.996V321.665H910.289V334.572H908.271V321.665H903.256V319.996H915.248Z" fill="#D8D8D8"/>
<path d="M916.297 319.996H919.465L923.849 331.922H923.905L928.167 319.996H931.278V334.581H929.204V322.589H929.091L924.65 334.581H922.764L918.437 322.589H918.324V334.581H916.306L916.297 319.996Z" fill="#D8D8D8"/>
<path d="M1036.79 140.98V15.9663H1054.43L1094.77 79.3687C1103.06 92.3666 1110.51 105.882 1117.08 119.833H1117.42C1115.98 103.117 1115.54 87.9009 1115.54 68.4229V15.9663H1130.76V140.98H1114.44L1074.78 77.6245C1066.26 64.1958 1058.56 50.2608 1051.73 35.8968H1051.16C1052.1 51.6885 1052.48 66.6693 1052.48 87.75V141.178L1036.79 140.98Z" fill="#217DA7"/>
<path d="M1167.35 99.0252C1166.99 103.175 1167.54 107.352 1168.95 111.27C1170.36 115.187 1172.61 118.751 1175.54 121.715C1178.46 124.68 1182 126.974 1185.9 128.439C1189.79 129.904 1193.96 130.506 1198.12 130.203C1206.65 130.471 1215.15 128.899 1223.02 125.593L1225.78 137.123C1216.35 141.13 1206.17 143.093 1195.92 142.884C1168.26 142.884 1151.77 124.669 1151.77 97.6298C1151.77 70.5907 1167.73 49.2178 1193.85 49.2178C1223.19 49.2178 1230.97 74.9841 1230.97 91.464C1230.96 94.0106 1230.76 96.5533 1230.39 99.0723L1167.35 99.0252ZM1215.18 87.4949C1215.18 77.0677 1210.92 60.9272 1192.56 60.9272C1176.02 60.9272 1168.81 76.1437 1167.49 87.4949H1215.18Z" fill="#217DA7"/>
<path d="M1056.98 296.011L1043.99 335.325H1027.3L1069.77 210.369H1089.24L1131.89 335.325H1114.6L1101.29 296.021L1056.98 296.011ZM1097.96 283.387L1085.71 247.42C1082.94 239.293 1081.1 231.855 1079.25 224.369H1078.87C1076.99 231.808 1075.01 239.454 1072.59 246.996L1060.34 283.133L1097.96 283.387Z" fill="#217DA7"/>
<path d="M1211.51 332.044C1203.41 335.636 1194.61 337.406 1185.75 337.23C1179.67 337.529 1173.61 336.53 1167.95 334.3C1162.3 332.069 1157.18 328.658 1152.95 324.294C1148.72 319.93 1145.46 314.714 1143.41 308.993C1141.35 303.272 1140.54 297.178 1141.02 291.118C1140.72 284.729 1141.76 278.348 1144.09 272.389C1146.42 266.43 1149.97 261.028 1154.52 256.532C1159.07 252.036 1164.51 248.548 1170.5 246.295C1176.49 244.041 1182.88 243.072 1189.26 243.451C1197.05 243.386 1204.75 244.957 1211.89 248.061L1208.12 260.685C1202.3 257.634 1195.78 256.165 1189.22 256.424C1184.83 256.323 1180.48 257.15 1176.44 258.851C1172.39 260.552 1168.76 263.088 1165.76 266.292C1162.77 269.497 1160.49 273.298 1159.07 277.447C1157.65 281.595 1157.12 285.997 1157.52 290.364C1157.13 294.662 1157.64 298.994 1159.03 303.079C1160.42 307.164 1162.66 310.911 1165.59 314.075C1168.53 317.239 1172.1 319.75 1176.07 321.444C1180.04 323.138 1184.32 323.978 1188.63 323.908C1195.57 323.954 1202.42 322.437 1208.69 319.468L1211.51 332.044Z" fill="#217DA7"/>
</mask>
<g mask="url(#mask0_1780_62)">
<rect x="292.886" width="659.764" height="376.36" fill="white"/>
</g>
<mask id="mask1_1780_62" style="mask-type:alpha" maskUnits="userSpaceOnUse" x="-122" y="376" width="1027" height="237">
<path d="M9.16821 516.965H-8.40845V586.727H9.16821V516.965Z" fill="#D8D8D8"/>
<path d="M151.079 536.973C146.519 534.548 141.424 533.303 136.259 533.351C133.747 533.241 131.239 533.641 128.885 534.527C126.532 535.412 124.382 536.765 122.566 538.504C120.749 540.243 119.304 542.331 118.316 544.644C117.329 546.956 116.819 549.445 116.819 551.959C116.819 554.474 117.329 556.962 118.316 559.275C119.304 561.587 120.749 563.676 122.566 565.414C124.382 567.153 126.532 568.506 128.885 569.392C131.239 570.277 133.747 570.677 136.259 570.567C141.421 570.594 146.511 569.351 151.079 566.945V585.642C145.882 587.267 140.471 588.11 135.026 588.144C130.199 588.251 125.4 587.393 120.909 585.619C116.419 583.846 112.327 581.194 108.876 577.818C105.424 574.442 102.682 570.411 100.81 565.96C98.9376 561.51 97.9731 556.731 97.9731 551.903C97.9731 547.075 98.9376 542.295 100.81 537.845C102.682 533.395 105.424 529.364 108.876 525.988C112.327 522.612 116.419 519.96 120.909 518.186C125.4 516.413 130.199 515.555 135.026 515.662C140.472 515.687 145.884 516.53 151.079 518.163V536.973Z" fill="#D8D8D8"/>
<path d="M206.465 533.493C202.818 533.442 199.239 534.478 196.183 536.468C193.126 538.458 190.731 541.313 189.302 544.668C187.874 548.024 187.475 551.729 188.159 555.311C188.842 558.894 190.576 562.192 193.14 564.786C195.704 567.38 198.981 569.152 202.556 569.878C206.13 570.603 209.839 570.248 213.211 568.859C216.584 567.469 219.466 565.108 221.492 562.075C223.518 559.042 224.595 555.475 224.587 551.828C224.615 549.43 224.167 547.051 223.269 544.827C222.371 542.604 221.041 540.581 219.355 538.876C217.67 537.17 215.662 535.816 213.45 534.892C211.237 533.968 208.863 533.492 206.465 533.493ZM243.32 551.828C243.442 559.142 241.385 566.327 237.411 572.469C233.436 578.61 227.724 583.43 221.001 586.314C214.279 589.198 206.85 590.016 199.661 588.665C192.471 587.313 185.847 583.852 180.631 578.724C175.415 573.595 171.843 567.03 170.37 559.864C168.897 552.699 169.59 545.257 172.361 538.487C175.131 531.717 179.854 525.924 185.927 521.846C192.001 517.769 199.15 515.591 206.465 515.59C211.291 515.448 216.096 516.284 220.591 518.047C225.086 519.81 229.178 522.464 232.621 525.849C236.064 529.234 238.786 533.281 240.625 537.745C242.464 542.21 243.38 547 243.32 551.828Z" fill="#D8D8D8"/>
<path d="M75.9272 532.841C71.4334 531.606 66.8131 530.888 62.1563 530.701C54.9063 530.701 51.2843 533.072 51.2843 536.428C51.2843 540.666 56.4298 542.154 59.3286 543.061L64.1837 544.585C68.7931 545.566 72.939 548.068 75.9556 551.689C78.9722 555.31 80.6846 559.839 80.8178 564.55C80.8178 582.091 65.4049 587.96 51.8237 587.96C45.4579 587.88 39.111 587.25 32.854 586.075V570.028C38.2708 571.571 43.8582 572.435 49.4881 572.601C58.2201 572.601 62.2452 570.063 62.2452 566.08C62.2452 562.096 58.6232 560.537 54.4202 559.156L50.7982 557.923C41.011 554.84 32.6761 549.078 32.6761 537.518C32.6761 524.477 42.4633 515.774 58.6588 515.774C64.4571 515.852 70.2266 516.606 75.8501 518.021L75.9272 532.841Z" fill="#D8D8D8"/>
<path d="M39.5365 417.962C39.5365 415.645 38.6162 413.423 36.978 411.785C35.3399 410.147 33.1182 409.227 30.8015 409.227C28.4848 409.227 26.2631 410.147 24.6249 411.785C22.9868 413.423 22.0665 415.645 22.0665 417.962V460.329C22.0665 462.646 22.9868 464.868 24.6249 466.506C26.2631 468.144 28.4848 469.064 30.8015 469.064C33.1182 469.064 35.3399 468.144 36.978 466.506C38.6162 464.868 39.5365 462.646 39.5365 460.329V417.962Z" fill="#D8D8D8"/>
<path d="M87.4403 442.023C87.5164 440.832 87.3475 439.638 86.944 438.514C86.5406 437.391 85.9111 436.362 85.0944 435.492C84.2777 434.621 83.2913 433.927 82.1959 433.453C81.1006 432.979 79.9197 432.734 78.726 432.734C77.5324 432.734 76.3515 432.979 75.2561 433.453C74.1608 433.927 73.1743 434.621 72.3577 435.492C71.541 436.362 70.9115 437.391 70.508 438.514C70.1046 439.638 69.9357 440.832 70.0118 442.023V460.323C69.9357 461.514 70.1046 462.708 70.508 463.832C70.9115 464.955 71.541 465.984 72.3577 466.854C73.1743 467.725 74.1608 468.418 75.2561 468.893C76.3515 469.367 77.5324 469.612 78.726 469.612C79.9197 469.612 81.1006 469.367 82.1959 468.893C83.2913 468.418 84.2777 467.725 85.0944 466.854C85.9111 465.984 86.5406 464.955 86.944 463.832C87.3475 462.708 87.5164 461.514 87.4403 460.323V442.023Z" fill="#D8D8D8"/>
<path d="M135.331 417.961C135.189 415.746 134.209 413.668 132.591 412.15C130.972 410.631 128.836 409.786 126.617 409.786C124.397 409.786 122.261 410.631 120.642 412.15C119.024 413.668 118.044 415.746 117.902 417.961V460.323C117.826 461.514 117.995 462.708 118.398 463.831C118.802 464.955 119.432 465.983 120.248 466.854C121.065 467.725 122.051 468.418 123.147 468.893C124.242 469.367 125.423 469.612 126.617 469.612C127.81 469.612 128.991 469.367 130.086 468.893C131.182 468.418 132.168 467.725 132.985 466.854C133.802 465.983 134.431 464.955 134.835 463.831C135.238 462.708 135.407 461.514 135.331 460.323V417.961Z" fill="#D8D8D8"/>
<path d="M183.498 385.096C183.356 382.881 182.376 380.803 180.758 379.285C179.139 377.766 177.003 376.921 174.783 376.921C172.564 376.921 170.428 377.766 168.809 379.285C167.19 380.803 166.211 382.881 166.069 385.096V477.87C165.993 479.061 166.162 480.255 166.565 481.379C166.969 482.502 167.598 483.531 168.415 484.401C169.232 485.272 170.218 485.966 171.314 486.44C172.409 486.914 173.59 487.159 174.783 487.159C175.977 487.159 177.158 486.914 178.253 486.44C179.349 485.966 180.335 485.272 181.152 484.401C181.968 483.531 182.598 482.502 183.001 481.379C183.405 480.255 183.574 479.061 183.498 477.87V385.096Z" fill="#D8D8D8"/>
<path d="M231.54 417.962C231.41 415.728 230.431 413.629 228.804 412.094C227.177 410.559 225.024 409.704 222.787 409.704C220.55 409.704 218.397 410.559 216.77 412.094C215.143 413.629 214.164 415.728 214.034 417.962V460.323C214.164 462.557 215.143 464.656 216.77 466.191C218.397 467.726 220.55 468.581 222.787 468.581C225.024 468.581 227.177 467.726 228.804 466.191C230.431 464.656 231.41 462.557 231.54 460.323V417.962Z" fill="#D8D8D8"/>
<path d="M279.463 442.023C279.539 440.832 279.37 439.638 278.967 438.514C278.563 437.391 277.934 436.362 277.117 435.492C276.301 434.621 275.314 433.927 274.219 433.453C273.123 432.979 271.942 432.734 270.749 432.734C269.555 432.734 268.374 432.979 267.279 433.453C266.184 433.927 265.197 434.621 264.381 435.492C263.564 436.362 262.934 437.391 262.531 438.514C262.127 439.638 261.958 440.832 262.035 442.023V460.323C261.958 461.514 262.127 462.708 262.531 463.832C262.934 464.955 263.564 465.984 264.381 466.854C265.197 467.725 266.184 468.418 267.279 468.893C268.374 469.367 269.555 469.612 270.749 469.612C271.942 469.612 273.123 469.367 274.219 468.893C275.314 468.418 276.301 467.725 277.117 466.854C277.934 465.984 278.563 464.955 278.967 463.832C279.37 462.708 279.539 461.514 279.463 460.323V442.023Z" fill="#D8D8D8"/>
<path d="M269.364 577.562V578.612H266.246V586.727H264.977V578.612H261.823V577.562H269.364Z" fill="#D8D8D8"/>
<path d="M270.02 577.562H272.012L274.769 585.061H274.804L277.484 577.562H279.44V586.733H278.136V579.193H278.065L275.272 586.733H274.087L271.366 579.193H271.295V586.733H270.026L270.02 577.562Z" fill="#D8D8D8"/>
<path d="M345.789 465V386.394H356.88L382.246 426.26C387.46 434.433 392.145 442.932 396.272 451.704H396.491C395.584 441.193 395.306 431.625 395.306 419.378V386.394H404.873V465H394.618L369.679 425.164C364.319 416.72 359.479 407.958 355.184 398.926H354.823C355.416 408.856 355.659 418.275 355.659 431.53V465.125L345.789 465Z" fill="#217DA7"/>
<path d="M427.878 438.62C427.653 441.23 427.997 443.856 428.887 446.32C429.776 448.783 431.189 451.024 433.029 452.888C434.868 454.751 437.091 456.194 439.542 457.115C441.993 458.037 444.615 458.415 447.227 458.224C452.593 458.393 457.933 457.404 462.883 455.326L464.62 462.576C458.688 465.095 452.29 466.329 445.846 466.198C428.453 466.198 418.085 454.745 418.085 437.743C418.085 420.741 428.121 407.302 444.542 407.302C462.99 407.302 467.881 423.504 467.881 433.866C467.875 435.467 467.754 437.066 467.519 438.65L427.878 438.62ZM457.957 431.37C457.957 424.814 455.278 414.665 443.73 414.665C433.332 414.665 428.797 424.233 427.967 431.37H457.957Z" fill="#217DA7"/>
<path d="M492.946 392.341V408.542H507.44V416.248H492.946V446.701C492.946 453.696 494.903 457.573 500.653 457.573C502.65 457.592 504.641 457.361 506.581 456.885L507.049 464.592C504.133 465.628 501.048 466.107 497.956 466.002C495.918 466.144 493.873 465.847 491.959 465.132C490.046 464.416 488.309 463.298 486.864 461.853C483.756 457.614 482.347 452.365 482.916 447.139V416.26H474.172V408.554H482.904V395.02L492.946 392.341Z" fill="#217DA7"/>
<path d="M524.295 408.542L531.758 437.246C533.389 443.553 534.912 449.351 535.961 455.184H536.323C537.591 449.493 539.477 443.405 541.326 437.352L550.532 408.358H559.336L568.068 436.588C570.172 443.364 571.69 449.309 573.071 455H573.433C574.537 448.885 575.975 442.836 577.742 436.878L585.787 408.536H595.935L577.813 464.995H568.5L559.608 437.999C557.626 431.915 555.956 425.734 554.605 419.479H554.386C553.025 425.792 551.307 432.023 549.24 438.141L540.146 464.959H530.834L513.82 408.501L524.295 408.542Z" fill="#217DA7"/>
<path d="M655.957 436.302C656.291 440.162 655.808 444.05 654.54 447.711C653.273 451.372 651.248 454.726 648.599 457.553C645.949 460.38 642.734 462.618 639.163 464.121C635.592 465.623 631.744 466.357 627.87 466.274C612.576 466.274 600.797 455.076 600.797 437.28C600.797 418.364 613.157 407.308 628.813 407.308C645.026 407.273 655.957 419.052 655.957 436.302ZM611.201 436.895C611.201 449.255 618.45 458.639 628.344 458.639C638.238 458.639 645.488 449.397 645.488 436.705C645.488 427.138 640.704 414.961 628.564 414.961C616.423 414.961 611.206 426.153 611.206 436.877L611.201 436.895Z" fill="#217DA7"/>
<path d="M668.884 426.124C668.884 419.491 668.884 413.764 668.452 408.512H677.403L677.764 419.603H678.233C679.202 416.157 681.239 413.107 684.051 410.891C686.863 408.676 690.305 407.409 693.883 407.273C694.88 407.26 695.876 407.369 696.847 407.599V417.274C695.655 417.032 694.441 416.923 693.225 416.948C689.721 417.087 686.389 418.5 683.853 420.922C681.317 423.344 679.753 426.608 679.454 430.102C679.174 431.682 679.018 433.282 678.986 434.886V465H668.837L668.884 426.124Z" fill="#217DA7"/>
<path d="M717.684 434.358H717.903C719.314 432.402 721.27 429.936 722.906 427.98L739.469 408.482H751.829L730.085 431.714L755.054 464.983H742.605L722.93 437.986L717.684 443.843V465.077H707.547V382.191H717.684V434.358Z" fill="#217DA7"/>
<path d="M775.611 392.654C775.491 394.259 774.769 395.759 773.589 396.854C772.41 397.948 770.86 398.557 769.25 398.557C767.641 398.557 766.091 397.948 764.912 396.854C763.732 395.759 763.01 394.259 762.89 392.654C762.87 391.807 763.023 390.964 763.338 390.177C763.654 389.39 764.126 388.675 764.725 388.075C765.325 387.476 766.039 387.004 766.826 386.689C767.613 386.373 768.456 386.221 769.304 386.24C770.148 386.214 770.989 386.362 771.774 386.677C772.558 386.991 773.268 387.465 773.861 388.067C774.453 388.67 774.915 389.388 775.216 390.178C775.517 390.967 775.652 391.81 775.611 392.654ZM764.194 465.142V408.535H774.449V464.976L764.194 465.142Z" fill="#217DA7"/>
<path d="M791.429 423.83C791.429 417.997 791.429 413.213 790.996 408.536H800.09L800.683 417.884H800.902C802.749 414.581 805.463 411.846 808.753 409.974C812.042 408.103 815.78 407.167 819.563 407.267C827.388 407.267 839.494 411.903 839.494 431.293V464.994H829.238V432.39C829.238 423.297 825.871 415.72 816.196 415.72C813.08 415.754 810.057 416.791 807.576 418.678C805.096 420.565 803.29 423.201 802.425 426.195C801.936 427.742 801.704 429.358 801.738 430.979V464.935H791.429V423.83Z" fill="#217DA7"/>
<path d="M904.804 408.536C904.584 412.632 904.33 417.161 904.33 424.044V456.648C904.33 469.625 901.792 477.521 896.285 482.453C890.523 487.17 883.211 489.573 875.774 489.193C869.208 489.364 862.719 487.748 857 484.516L859.573 476.726C864.556 479.793 870.285 481.434 876.136 481.469C886.611 481.469 894.258 475.997 894.258 461.752V455.32H894.003C892.108 458.332 889.451 460.79 886.301 462.444C883.151 464.098 879.62 464.89 876.065 464.74C862.074 464.74 852.038 452.854 852.038 437.234C852.038 418.098 864.487 407.262 877.404 407.262C880.968 407.041 884.521 407.845 887.642 409.58C890.763 411.314 893.322 413.906 895.017 417.049H895.271L895.74 408.53L904.804 408.536ZM894.187 430.748C894.245 429.168 894.045 427.588 893.594 426.071C892.745 422.932 890.879 420.162 888.289 418.195C885.699 416.228 882.53 415.174 879.278 415.199C869.455 415.199 862.46 423.463 862.46 436.54C862.46 447.596 868.08 456.832 879.129 456.832C882.307 456.808 885.396 455.778 887.952 453.889C890.508 452.001 892.4 449.352 893.357 446.321C893.904 444.55 894.172 442.704 894.151 440.85L894.187 430.748Z" fill="#217DA7"/>
<path d="M358.482 562.481L350.313 587.201H339.821L366.527 508.631H378.768L405.586 587.201H394.714L386.344 562.487L358.482 562.481ZM384.251 554.543L376.545 531.928C374.808 526.818 373.646 522.141 372.484 517.434H372.247C371.061 522.111 369.817 526.919 368.299 531.661L360.593 554.383L384.251 554.543Z" fill="#217DA7"/>
<path d="M455.642 585.138C450.545 587.397 445.015 588.51 439.441 588.399C435.623 588.587 431.809 587.959 428.253 586.556C424.697 585.154 421.481 583.009 418.819 580.265C416.158 577.521 414.112 574.241 412.819 570.644C411.525 567.047 411.014 563.215 411.318 559.405C411.128 555.387 411.786 551.375 413.248 547.628C414.71 543.881 416.944 540.484 419.805 537.658C422.666 534.831 426.09 532.638 429.854 531.221C433.618 529.803 437.637 529.194 441.652 529.432C446.545 529.392 451.393 530.379 455.88 532.331L453.508 540.269C449.849 538.35 445.751 537.427 441.623 537.589C438.866 537.526 436.128 538.046 433.586 539.116C431.045 540.185 428.758 541.78 426.876 543.795C424.994 545.81 423.56 548.2 422.666 550.808C421.773 553.417 421.441 556.185 421.693 558.93C421.445 561.633 421.769 564.357 422.644 566.925C423.519 569.494 424.924 571.85 426.77 573.839C428.615 575.829 430.859 577.408 433.354 578.473C435.85 579.538 438.542 580.066 441.255 580.022C445.615 580.051 449.924 579.097 453.864 577.23L455.642 585.138Z" fill="#217DA7"/>
<path d="M498.919 587.201L498.125 579.951H497.787C495.783 582.619 493.174 584.772 490.175 586.234C487.176 587.695 483.872 588.423 480.536 588.357C478.316 588.523 476.085 588.226 473.984 587.485C471.884 586.744 469.961 585.575 468.336 584.052C466.711 582.529 465.42 580.685 464.545 578.638C463.669 576.59 463.229 574.383 463.25 572.156C463.25 558.521 475.391 551.028 497.206 551.135V549.949C497.431 548.202 497.255 546.426 496.694 544.757C496.132 543.087 495.198 541.566 493.962 540.31C492.727 539.054 491.222 538.095 489.562 537.506C487.901 536.917 486.129 536.712 484.378 536.908C479.179 536.924 474.087 538.378 469.664 541.111L467.347 534.335C472.942 530.965 479.37 529.232 485.901 529.332C503.152 529.332 507.355 541.111 507.355 552.416V573.508C507.278 578.03 507.581 582.552 508.262 587.023L498.919 587.201ZM497.396 558.427C486.198 558.172 473.476 560.163 473.476 571.113C473.366 572.427 473.544 573.75 473.996 574.989C474.448 576.229 475.165 577.355 476.096 578.289C477.027 579.224 478.151 579.945 479.389 580.401C480.626 580.858 481.948 581.041 483.263 580.935C486.249 581.007 489.179 580.126 491.631 578.421C494.082 576.716 495.927 574.274 496.898 571.45C497.269 570.403 497.47 569.302 497.491 568.19L497.396 558.427Z" fill="#217DA7"/>
<path d="M572.607 504.428V572.63C572.503 577.466 572.66 582.305 573.075 587.124H563.833L563.365 577.337H563.163C561.325 580.81 558.544 583.693 555.14 585.655C551.736 587.617 547.847 588.578 543.921 588.428C530.287 588.428 519.788 576.869 519.788 559.725C519.788 540.951 531.348 529.427 545.154 529.427C548.505 529.223 551.85 529.919 554.842 531.442C557.834 532.964 560.365 535.259 562.174 538.088H562.428V504.357L572.607 504.428ZM562.351 553.749C562.356 552.3 562.199 550.854 561.883 549.44C561.145 546.062 559.272 543.04 556.574 540.877C553.877 538.714 550.52 537.541 547.063 537.554C536.446 537.554 530.138 546.867 530.138 559.298C530.138 570.751 535.758 580.171 546.844 580.171C550.369 580.162 553.785 578.945 556.522 576.723C559.259 574.501 561.151 571.407 561.883 567.959C562.211 566.496 562.368 565 562.351 563.501V553.749Z" fill="#217DA7"/>
<path d="M595.348 560.856C595.123 563.466 595.467 566.092 596.356 568.556C597.246 571.019 598.659 573.26 600.498 575.124C602.338 576.987 604.56 578.43 607.012 579.351C609.463 580.273 612.085 580.651 614.697 580.46C620.068 580.61 625.408 579.599 630.353 577.496L632.09 584.746C626.158 587.266 619.759 588.5 613.316 588.368C595.923 588.368 585.555 576.915 585.555 559.884C585.555 542.853 595.591 529.479 612.012 529.479C630.46 529.479 635.35 545.681 635.35 556.043C635.344 557.644 635.223 559.243 634.989 560.827L595.348 560.856ZM625.427 553.606C625.427 547.086 622.747 536.937 611.199 536.937C600.796 536.937 596.267 546.505 595.437 553.606H625.427Z" fill="#217DA7"/>
<path d="M648.041 546.066C648.041 540.233 648.041 535.449 647.573 530.772H656.56L656.993 539.883H657.354C659.049 536.676 661.606 534.007 664.737 532.176C667.867 530.345 671.448 529.425 675.073 529.521C678.593 529.474 682.037 530.542 684.912 532.573C687.788 534.604 689.946 537.493 691.079 540.826H691.334C692.895 537.997 695.031 535.528 697.606 533.576C701.185 530.842 705.608 529.446 710.108 529.628C717.536 529.628 728.627 534.518 728.627 554.087V587.307H718.591V555.296C718.591 544.424 714.643 537.903 706.379 537.903C703.637 538.014 700.996 538.972 698.822 540.646C696.647 542.321 695.046 544.629 694.239 547.252C693.694 548.901 693.412 550.625 693.403 552.362V587.225H683.378V553.435C683.378 544.483 679.395 537.927 671.599 537.927C668.675 538.098 665.877 539.178 663.596 541.017C661.315 542.856 659.666 545.361 658.878 548.182C658.303 549.799 658.02 551.505 658.042 553.221V587.248H648.041V546.066Z" fill="#217DA7"/>
<path d="M747.544 530.778L759.904 564.117C761.172 567.739 762.583 572.31 763.526 575.677H763.781C764.83 572.304 765.992 567.97 767.403 563.898L778.601 530.772H789.461L774.048 571C766.798 590.349 761.688 600.284 754.699 606.331C751.148 609.613 746.801 611.911 742.09 613L739.553 604.375C742.827 603.274 745.865 601.565 748.504 599.336C752.244 596.267 755.2 592.354 757.129 587.918C757.55 587.152 757.833 586.317 757.965 585.452C757.878 584.529 757.646 583.624 757.278 582.773L736.346 530.778H747.544Z" fill="#217DA7"/>
</mask>
<g mask="url(#mask1_1780_62)">
<rect x="339.928" y="376.355" width="563.107" height="116.898" fill="white"/>
</g>
<mask id="mask2_1780_62" style="mask-type:alpha" maskUnits="userSpaceOnUse" x="-70" y="362" width="1028" height="237">
<path d="M61.9222 502.709H44.3456V572.471H61.9222V502.709Z" fill="#D8D8D8"/>
<path d="M203.833 522.717C199.273 520.292 194.178 519.047 189.013 519.095C186.501 518.985 183.993 519.385 181.639 520.271C179.286 521.156 177.136 522.509 175.32 524.248C173.503 525.987 172.058 528.075 171.07 530.388C170.083 532.7 169.573 535.189 169.573 537.703C169.573 540.218 170.083 542.706 171.07 545.019C172.058 547.331 173.503 549.42 175.32 551.158C177.136 552.897 179.286 554.25 181.639 555.136C183.993 556.021 186.501 556.421 189.013 556.311C194.175 556.339 199.265 555.095 203.833 552.689V571.386C198.636 573.011 193.225 573.854 187.78 573.888C182.953 573.995 178.154 573.137 173.663 571.363C169.173 569.59 165.081 566.938 161.63 563.562C158.178 560.186 155.436 556.155 153.564 551.704C151.692 547.254 150.727 542.475 150.727 537.647C150.727 532.819 151.692 528.04 153.564 523.589C155.436 519.139 158.178 515.108 161.63 511.732C165.081 508.356 169.173 505.704 173.663 503.931C178.154 502.157 182.953 501.299 187.78 501.406C193.226 501.431 198.638 502.274 203.833 503.908V522.717Z" fill="#D8D8D8"/>
<path d="M20.1082 522.717C15.5645 520.282 10.4785 519.036 5.32367 519.095C2.81157 518.985 0.303232 519.385 -2.05015 520.271C-4.40353 521.156 -6.55323 522.509 -8.36968 524.248C-10.1861 525.987 -11.6317 528.075 -12.6193 530.388C-13.6069 532.7 -14.116 535.189 -14.116 537.703C-14.116 540.218 -13.6069 542.706 -12.6193 545.019C-11.6317 547.331 -10.1861 549.42 -8.36968 551.158C-6.55323 552.897 -4.40353 554.25 -2.05015 555.136C0.303232 556.021 2.81157 556.421 5.32367 556.311C10.4758 556.348 15.5563 555.103 20.1082 552.689V571.386C14.9127 573.02 9.50122 573.863 4.05507 573.888C-0.771738 573.995 -5.57127 573.137 -10.0618 571.363C-14.5524 569.59 -18.6435 566.938 -22.095 563.562C-25.5465 560.186 -28.2888 556.155 -30.1611 551.704C-32.0334 547.254 -32.9978 542.475 -32.9978 537.647C-32.9978 532.819 -32.0334 528.04 -30.1611 523.589C-28.2888 519.139 -25.5465 515.108 -22.095 511.732C-18.6435 508.356 -14.5524 505.704 -10.0618 503.931C-5.57127 502.157 -0.771738 501.299 4.05507 501.406C9.50166 501.425 14.914 502.269 20.1082 503.908V522.717Z" fill="#D8D8D8"/>
<path d="M259.228 519.237C255.582 519.186 252.002 520.222 248.946 522.212C245.889 524.202 243.494 527.057 242.066 530.413C240.637 533.768 240.239 537.473 240.922 541.056C241.605 544.638 243.339 547.936 245.903 550.53C248.467 553.124 251.745 554.897 255.319 555.622C258.893 556.347 262.603 555.993 265.975 554.603C269.347 553.214 272.229 550.852 274.255 547.819C276.281 544.787 277.358 541.22 277.35 537.572C277.379 535.175 276.931 532.795 276.033 530.572C275.135 528.349 273.804 526.326 272.119 524.62C270.433 522.915 268.426 521.561 266.213 520.637C264 519.713 261.626 519.237 259.228 519.237ZM296.083 537.572C296.205 544.887 294.148 552.072 290.174 558.213C286.199 564.354 280.487 569.174 273.764 572.058C267.042 574.942 259.613 575.761 252.424 574.409C245.234 573.057 238.61 569.597 233.394 564.468C228.178 559.339 224.606 552.774 223.133 545.609C221.661 538.443 222.354 531.002 225.124 524.231C227.894 517.461 232.617 511.668 238.69 507.591C244.764 503.513 251.913 501.335 259.228 501.334C264.055 501.192 268.86 502.028 273.355 503.791C277.849 505.554 281.941 508.208 285.384 511.593C288.827 514.979 291.55 519.025 293.388 523.49C295.227 527.954 296.143 532.745 296.083 537.572Z" fill="#D8D8D8"/>
<path d="M128.681 518.585C124.187 517.35 119.567 516.632 114.91 516.445C107.66 516.445 104.038 518.817 104.038 522.172C104.038 526.41 109.184 527.898 112.083 528.805L116.938 530.329C121.547 531.31 125.693 533.813 128.71 537.433C131.726 541.054 133.439 545.584 133.572 550.295C133.572 567.836 118.159 573.704 104.578 573.704C98.212 573.625 91.865 572.994 85.608 571.819V555.772C91.0248 557.315 96.6123 558.179 102.242 558.345C110.974 558.345 114.999 555.808 114.999 551.824C114.999 547.84 111.377 546.281 107.174 544.9L103.552 543.667C93.765 540.584 85.4302 534.822 85.4302 523.263C85.4302 510.221 95.2174 501.519 111.413 501.519C117.211 501.596 122.981 502.35 128.604 503.765L128.681 518.585Z" fill="#D8D8D8"/>
<path d="M44.2617 370.834C44.2617 368.518 43.3414 366.296 41.7033 364.658C40.0652 363.02 37.8434 362.099 35.5267 362.099C33.2101 362.099 30.9883 363.02 29.3502 364.658C27.712 366.296 26.7917 368.518 26.7917 370.834V463.608C26.7917 465.925 27.712 468.147 29.3502 469.785C30.9883 471.423 33.2101 472.343 35.5267 472.343C37.8434 472.343 40.0652 471.423 41.7033 469.785C43.3414 468.147 44.2617 465.925 44.2617 463.608V370.834Z" fill="#D8D8D8"/>
<path d="M92.2997 403.706C92.2997 401.389 91.3794 399.167 89.7412 397.529C88.1031 395.891 85.8813 394.971 83.5647 394.971C81.248 394.971 79.0262 395.891 77.3881 397.529C75.75 399.167 74.8297 401.389 74.8297 403.706V446.074C74.8297 448.39 75.75 450.612 77.3881 452.25C79.0262 453.888 81.248 454.809 83.5647 454.809C85.8813 454.809 88.1031 453.888 89.7412 452.25C91.3794 450.612 92.2997 448.39 92.2997 446.074V403.706Z" fill="#D8D8D8"/>
<path d="M140.194 427.767C140.27 426.576 140.101 425.382 139.698 424.258C139.294 423.135 138.665 422.106 137.848 421.236C137.032 420.365 136.045 419.671 134.95 419.197C133.855 418.723 132.674 418.478 131.48 418.478C130.286 418.478 129.105 418.723 128.01 419.197C126.915 419.671 125.928 420.365 125.112 421.236C124.295 422.106 123.665 423.135 123.262 424.258C122.858 425.382 122.69 426.576 122.766 427.767V446.067C122.69 447.258 122.858 448.452 123.262 449.576C123.665 450.699 124.295 451.728 125.112 452.598C125.928 453.469 126.915 454.163 128.01 454.637C129.105 455.111 130.286 455.356 131.48 455.356C132.674 455.356 133.855 455.111 134.95 454.637C136.045 454.163 137.032 453.469 137.848 452.598C138.665 451.728 139.294 450.699 139.698 449.576C140.101 448.452 140.27 447.258 140.194 446.067V427.767Z" fill="#D8D8D8"/>
<path d="M188.085 403.705C187.943 401.49 186.964 399.412 185.345 397.894C183.726 396.375 181.59 395.53 179.371 395.53C177.151 395.53 175.015 396.375 173.396 397.894C171.778 399.412 170.798 401.49 170.656 403.705V446.067C170.58 447.258 170.749 448.452 171.153 449.576C171.556 450.699 172.186 451.728 173.002 452.598C173.819 453.469 174.805 454.163 175.901 454.637C176.996 455.111 178.177 455.356 179.371 455.356C180.564 455.356 181.745 455.111 182.84 454.637C183.936 454.163 184.922 453.469 185.739 452.598C186.556 451.728 187.185 450.699 187.589 449.576C187.992 448.452 188.161 447.258 188.085 446.067V403.705Z" fill="#D8D8D8"/>
<path d="M236.261 370.84C236.119 368.625 235.14 366.547 233.521 365.029C231.902 363.51 229.766 362.665 227.547 362.665C225.327 362.665 223.191 363.51 221.572 365.029C219.954 366.547 218.974 368.625 218.832 370.84V463.614C218.756 464.805 218.925 466 219.329 467.123C219.732 468.246 220.362 469.275 221.178 470.146C221.995 471.016 222.981 471.71 224.077 472.184C225.172 472.659 226.353 472.903 227.547 472.903C228.74 472.903 229.921 472.659 231.017 472.184C232.112 471.71 233.098 471.016 233.915 470.146C234.732 469.275 235.361 468.246 235.765 467.123C236.168 466 236.337 464.805 236.261 463.614V370.84Z" fill="#D8D8D8"/>
<path d="M284.294 403.706C284.164 401.472 283.185 399.373 281.558 397.838C279.931 396.303 277.778 395.448 275.541 395.448C273.304 395.448 271.151 396.303 269.524 397.838C267.897 399.373 266.918 401.472 266.788 403.706V446.067C266.918 448.301 267.897 450.4 269.524 451.935C271.151 453.47 273.304 454.325 275.541 454.325C277.778 454.325 279.931 453.47 281.558 451.935C283.185 450.4 284.164 448.301 284.294 446.067V403.706Z" fill="#D8D8D8"/>
<path d="M332.217 427.767C332.293 426.576 332.124 425.382 331.721 424.258C331.317 423.135 330.688 422.106 329.871 421.236C329.055 420.365 328.068 419.671 326.973 419.197C325.877 418.723 324.697 418.478 323.503 418.478C322.309 418.478 321.128 418.723 320.033 419.197C318.938 419.671 317.951 420.365 317.135 421.236C316.318 422.106 315.688 423.135 315.285 424.258C314.881 425.382 314.713 426.576 314.789 427.767V446.067C314.713 447.258 314.881 448.452 315.285 449.576C315.688 450.699 316.318 451.728 317.135 452.598C317.951 453.469 318.938 454.163 320.033 454.637C321.128 455.111 322.309 455.356 323.503 455.356C324.697 455.356 325.877 455.111 326.973 454.637C328.068 454.163 329.055 453.469 329.871 452.598C330.688 451.728 331.317 450.699 331.721 449.576C332.124 448.452 332.293 447.258 332.217 446.067V427.767Z" fill="#D8D8D8"/>
<path d="M322.127 563.306V564.356H319.009V572.471H317.74V564.356H314.587V563.306H322.127Z" fill="#D8D8D8"/>
<path d="M322.783 563.306H324.775L327.532 570.805H327.567L330.247 563.306H332.203V572.477H330.899V564.937H330.828L328.036 572.477H326.85L324.129 564.937H324.058V572.477H322.789L322.783 563.306Z" fill="#D8D8D8"/>
<path d="M398.543 450.744V372.138H409.634L435 412.005C440.214 420.177 444.899 428.676 449.026 437.448H449.245C448.338 426.937 448.06 417.369 448.06 405.122V372.138H457.627V450.744H447.372L422.433 410.908C417.073 402.464 412.233 393.702 407.939 384.67H407.577C408.17 394.6 408.413 404.019 408.413 417.275V450.869L398.543 450.744Z" fill="#217DA7"/>
<path d="M480.632 424.364C480.407 426.973 480.751 429.6 481.641 432.063C482.53 434.527 483.943 436.768 485.783 438.631C487.622 440.495 489.845 441.938 492.296 442.859C494.747 443.781 497.369 444.159 499.981 443.968C505.348 444.137 510.687 443.148 515.637 441.069L517.374 448.319C511.442 450.839 505.044 452.073 498.6 451.942C481.207 451.942 470.839 440.489 470.839 423.487C470.839 406.485 480.875 393.046 497.296 393.046C515.744 393.046 520.635 409.248 520.635 419.61C520.629 421.211 520.508 422.81 520.273 424.394L480.632 424.364ZM510.711 417.114C510.711 410.558 508.032 400.409 496.484 400.409C486.086 400.409 481.551 409.977 480.721 417.114H510.711Z" fill="#217DA7"/>
<path d="M545.7 378.085V394.286H560.194V401.993H545.7V432.445C545.7 439.44 547.657 443.317 553.407 443.317C555.404 443.337 557.395 443.106 559.335 442.629L559.803 450.336C556.887 451.372 553.802 451.851 550.71 451.747C548.672 451.889 546.627 451.592 544.713 450.876C542.8 450.16 541.063 449.042 539.618 447.597C536.51 443.358 535.101 438.109 535.67 432.884V402.004H526.926V394.298H535.658V380.764L545.7 378.085Z" fill="#217DA7"/>
<path d="M577.049 394.286L584.512 422.99C586.143 429.297 587.666 435.095 588.715 440.928H589.077C590.346 435.237 592.231 429.149 594.08 423.096L603.286 394.102H612.09L620.822 422.332C622.926 429.107 624.444 435.053 625.825 440.744H626.187C627.291 434.629 628.729 428.579 630.496 422.622L638.541 394.28H648.689L630.567 450.739H621.254L612.362 423.743C610.38 417.659 608.71 411.478 607.359 405.223H607.14C605.779 411.536 604.061 417.767 601.994 423.885L592.901 450.703H583.588L566.574 394.245L577.049 394.286Z" fill="#217DA7"/>
<path d="M708.711 422.046C709.045 425.907 708.562 429.794 707.295 433.455C706.027 437.117 704.002 440.47 701.353 443.297C698.703 446.124 695.488 448.362 691.917 449.865C688.346 451.367 684.498 452.101 680.624 452.019C665.33 452.019 653.551 440.821 653.551 423.025C653.551 404.108 665.911 393.052 681.567 393.052C697.78 393.017 708.711 404.796 708.711 422.046ZM663.955 422.639C663.955 434.999 671.205 444.383 681.098 444.383C690.992 444.383 698.242 435.141 698.242 422.45C698.242 412.882 693.458 400.705 681.318 400.705C669.177 400.705 663.961 411.898 663.961 422.621L663.955 422.639Z" fill="#217DA7"/>
<path d="M721.638 411.868C721.638 405.235 721.638 399.508 721.205 394.256H730.157L730.518 405.348H730.987C731.956 401.901 733.993 398.851 736.805 396.635C739.617 394.42 743.059 393.153 746.637 393.017C747.634 393.004 748.63 393.113 749.601 393.343V403.018C748.409 402.777 747.194 402.667 745.979 402.692C742.475 402.831 739.142 404.244 736.607 406.666C734.071 409.088 732.507 412.352 732.208 415.846C731.928 417.426 731.772 419.026 731.74 420.63V450.745H721.591L721.638 411.868Z" fill="#217DA7"/>
<path d="M770.438 420.103H770.657C772.068 418.146 774.024 415.68 775.66 413.724L792.223 394.227H804.583L782.839 417.459L807.808 450.727H795.359L775.684 423.731L770.438 429.587V450.822H760.301V367.936H770.438V420.103Z" fill="#217DA7"/>
<path d="M828.365 378.399C828.245 380.003 827.523 381.504 826.343 382.598C825.164 383.693 823.614 384.301 822.005 384.301C820.395 384.301 818.845 383.693 817.666 382.598C816.486 381.504 815.764 380.003 815.644 378.399C815.624 377.551 815.777 376.708 816.092 375.921C816.408 375.134 816.88 374.419 817.479 373.82C818.079 373.22 818.794 372.748 819.581 372.433C820.368 372.118 821.21 371.965 822.058 371.984C822.902 371.958 823.743 372.107 824.528 372.421C825.312 372.736 826.022 373.209 826.615 373.811C827.207 374.414 827.669 375.133 827.97 375.922C828.271 376.711 828.406 377.555 828.365 378.399ZM816.948 450.887V394.28H827.203V450.721L816.948 450.887Z" fill="#217DA7"/>
<path d="M844.183 409.574C844.183 403.741 844.183 398.957 843.75 394.28H852.844L853.437 403.628H853.656C855.503 400.325 858.217 397.59 861.507 395.718C864.796 393.847 868.534 392.911 872.318 393.011C880.143 393.011 892.248 397.647 892.248 417.038V450.739H881.992V418.134C881.992 409.041 878.625 401.465 868.95 401.465C865.834 401.498 862.811 402.535 860.331 404.422C857.85 406.309 856.044 408.945 855.179 411.939C854.69 413.486 854.458 415.102 854.492 416.723V450.679H844.183V409.574Z" fill="#217DA7"/>
<path d="M957.567 394.28C957.348 398.376 957.093 402.905 957.093 409.788V442.392C957.093 455.369 954.556 463.265 949.049 468.197C943.287 472.914 935.974 475.317 928.537 474.937C921.971 475.108 915.482 473.492 909.763 470.26L912.336 462.47C917.319 465.537 923.048 467.178 928.899 467.213C939.374 467.213 947.021 461.741 947.021 447.496V441.064H946.766C944.872 444.076 942.215 446.533 939.065 448.188C935.914 449.842 932.383 450.634 928.828 450.484C914.838 450.484 904.802 438.598 904.802 422.978C904.802 403.842 917.251 393.005 930.168 393.005C933.732 392.785 937.284 393.589 940.405 395.324C943.526 397.058 946.085 399.65 947.78 402.793H948.035L948.503 394.274L957.567 394.28ZM946.95 416.492C947.008 414.911 946.808 413.332 946.357 411.815C945.508 408.675 943.643 405.906 941.053 403.939C938.462 401.972 935.293 400.918 932.041 400.943C922.218 400.943 915.223 409.207 915.223 422.284C915.223 433.34 920.843 442.576 931.893 442.576C935.07 442.552 938.159 441.522 940.715 439.633C943.271 437.745 945.163 435.096 946.12 432.065C946.667 430.294 946.935 428.448 946.914 426.594L946.95 416.492Z" fill="#217DA7"/>
<path d="M411.236 548.225L403.067 572.945H392.575L419.281 494.375H431.522L458.34 572.945H447.468L439.098 548.231L411.236 548.225ZM437.005 540.288L429.299 517.672C427.562 512.562 426.4 507.885 425.238 503.178H425.001C423.815 507.855 422.571 512.663 421.053 517.405L413.347 540.128L437.005 540.288Z" fill="#217DA7"/>
<path d="M508.397 570.882C503.299 573.14 497.769 574.253 492.195 574.143C488.377 574.331 484.563 573.703 481.007 572.3C477.451 570.898 474.235 568.753 471.573 566.009C468.912 563.265 466.866 559.985 465.573 556.388C464.279 552.791 463.768 548.959 464.072 545.148C463.882 541.131 464.54 537.119 466.002 533.372C467.464 529.625 469.698 526.228 472.559 523.401C475.42 520.575 478.844 518.382 482.608 516.964C486.372 515.547 490.392 514.938 494.406 515.176C499.299 515.135 504.147 516.123 508.634 518.075L506.262 526.013C502.603 524.094 498.505 523.17 494.377 523.333C491.62 523.27 488.882 523.79 486.34 524.86C483.799 525.929 481.512 527.523 479.63 529.539C477.748 531.554 476.314 533.944 475.42 536.552C474.527 539.161 474.195 541.929 474.447 544.674C474.199 547.377 474.523 550.101 475.398 552.669C476.273 555.238 477.679 557.594 479.524 559.583C481.369 561.573 483.613 563.151 486.108 564.217C488.604 565.282 491.296 565.81 494.009 565.766C498.369 565.795 502.678 564.841 506.618 562.974L508.397 570.882Z" fill="#217DA7"/>
<path d="M551.673 572.945L550.879 565.695H550.541C548.537 568.363 545.928 570.516 542.929 571.978C539.93 573.439 536.626 574.167 533.29 574.101C531.07 574.267 528.839 573.97 526.738 573.229C524.638 572.488 522.715 571.319 521.09 569.796C519.465 568.273 518.174 566.43 517.299 564.382C516.423 562.334 515.983 560.127 516.004 557.9C516.004 544.266 528.145 536.773 549.96 536.879V535.694C550.185 533.946 550.01 532.171 549.448 530.501C548.886 528.831 547.952 527.311 546.716 526.055C545.481 524.799 543.976 523.84 542.316 523.25C540.655 522.661 538.883 522.456 537.132 522.652C531.933 522.668 526.841 524.123 522.418 526.855L520.101 520.079C525.696 516.71 532.124 514.976 538.655 515.076C555.906 515.076 560.109 526.855 560.109 538.16V559.252C560.032 563.774 560.335 568.296 561.016 572.768L551.673 572.945ZM550.15 544.171C538.952 543.916 526.23 545.908 526.23 556.857C526.12 558.171 526.298 559.494 526.75 560.734C527.203 561.973 527.919 563.099 528.85 564.033C529.782 564.968 530.905 565.689 532.143 566.146C533.38 566.603 534.702 566.785 536.017 566.68C539.003 566.751 541.933 565.871 544.385 564.165C546.836 562.46 548.681 560.018 549.652 557.195C550.024 556.147 550.224 555.046 550.245 553.934L550.15 544.171Z" fill="#217DA7"/>
<path d="M625.37 490.172V558.374C625.267 563.211 625.423 568.049 625.839 572.868H616.597L616.128 563.081H615.927C614.088 566.554 611.307 569.437 607.903 571.399C604.499 573.361 600.611 574.322 596.684 574.173C583.05 574.173 572.551 562.613 572.551 545.469C572.551 526.695 584.111 515.171 597.917 515.171C601.269 514.968 604.613 515.663 607.605 517.186C610.598 518.709 613.129 521.003 614.937 523.832H615.192V490.101L625.37 490.172ZM615.115 539.494C615.12 538.044 614.963 536.598 614.646 535.184C613.909 531.806 612.035 528.784 609.338 526.621C606.641 524.458 603.284 523.285 599.826 523.298C589.209 523.298 582.902 532.611 582.902 545.042C582.902 556.495 588.521 565.915 599.607 565.915C603.132 565.906 606.548 564.689 609.285 562.467C612.022 560.245 613.914 557.152 614.646 553.703C614.975 552.24 615.132 550.744 615.115 549.245V539.494Z" fill="#217DA7"/>
<path d="M648.102 546.601C647.877 549.21 648.221 551.837 649.11 554.3C650 556.763 651.413 559.004 653.252 560.868C655.092 562.732 657.314 564.174 659.766 565.095C662.217 566.017 664.839 566.395 667.451 566.205C672.822 566.354 678.162 565.343 683.107 563.241L684.844 570.491C678.912 573.01 672.513 574.244 666.07 574.113C648.677 574.113 638.309 562.66 638.309 545.628C638.309 528.597 648.345 515.223 664.766 515.223C683.214 515.223 688.104 531.425 688.104 541.787C688.098 543.388 687.977 544.987 687.743 546.571L648.102 546.601ZM678.181 539.351C678.181 532.83 675.501 522.681 663.953 522.681C653.55 522.681 649.021 532.249 648.191 539.351H678.181Z" fill="#217DA7"/>
<path d="M700.795 531.81C700.795 525.977 700.795 521.193 700.327 516.516H709.314L709.747 525.627H710.108C711.803 522.421 714.36 519.751 717.491 517.92C720.621 516.089 724.202 515.17 727.827 515.265C731.347 515.218 734.791 516.287 737.667 518.317C740.542 520.348 742.7 523.237 743.833 526.57H744.088C745.649 523.742 747.785 521.272 750.36 519.32C753.939 516.586 758.362 515.19 762.862 515.372C770.29 515.372 781.381 520.262 781.381 539.831V573.052H771.345V541.04C771.345 530.168 767.397 523.647 759.133 523.647C756.391 523.758 753.751 524.716 751.576 526.391C749.402 528.065 747.8 530.373 746.993 532.996C746.448 534.645 746.166 536.369 746.157 538.106V572.969H736.132V539.179C736.132 530.227 732.149 523.671 724.353 523.671C721.429 523.842 718.631 524.923 716.35 526.761C714.069 528.6 712.42 531.105 711.632 533.927C711.057 535.543 710.774 537.25 710.796 538.965V572.992H700.795V531.81Z" fill="#217DA7"/>
<path d="M800.298 516.522L812.658 549.861C813.926 553.483 815.337 558.054 816.28 561.421H816.535C817.584 558.048 818.746 553.714 820.157 549.642L831.355 516.516H842.215L826.802 556.744C819.552 576.093 814.442 586.028 807.453 592.075C803.902 595.357 799.555 597.655 794.844 598.744L792.307 590.118C795.581 589.018 798.619 587.309 801.258 585.08C804.998 582.011 807.954 578.098 809.883 573.662C810.304 572.895 810.587 572.061 810.719 571.196C810.632 570.272 810.4 569.368 810.032 568.517L789.1 516.522H800.298Z" fill="#217DA7"/>
</mask>
<g mask="url(#mask2_1780_62)">
<rect x="389.83" y="494.679" width="464.742" height="104.068" fill="white"/>
</g>
</svg>
