<svg width="463" height="279" viewBox="0 0 463 279" fill="none" xmlns="http://www.w3.org/2000/svg">
<path d="M175.44 92.4029C180.863 89.5235 191.236 84.4494 197.21 83.0329C198.221 82.7933 203.069 82.9083 204.43 82.9354C205.316 84.6591 206.042 86.4451 206.803 88.2273C206.988 94.1516 206.943 100.363 206.836 106.307C206.466 126.839 207.383 147.669 206.877 168.168C202.627 168.217 198.377 168.223 194.127 168.185C193.915 159.232 194.114 149.786 194.163 140.786C194.224 129.423 194.069 117.824 194.244 106.488L194.195 101.194C190.509 102.389 185.911 104.971 182.287 106.613C162.917 115.394 143.76 124.581 124.401 133.402L49.3908 167.754L25.9205 178.428C22.9911 179.761 16.3439 182.582 13.8446 184.109C13.5732 188.571 13.8957 193.111 13.9021 197.582C13.9128 205.563 14.1917 213.836 13.9846 221.801C17.9106 221.769 44.6643 221.143 47.0065 222.219C48.5588 224.741 47.9876 230.329 47.8939 233.533C36.6666 233.652 25.4387 233.676 14.2114 233.603L14.2827 266.284L101.121 266.281C110.745 266.288 121.45 266.541 130.979 266.285C151.213 265.985 171.582 266.507 191.828 266.299C196.609 266.25 201.746 266.184 206.508 266.446C207.101 269.931 206.909 274.875 206.835 278.5C194.335 278.976 179.162 278.582 166.537 278.581L89.72 278.571L32.5288 278.564C23.138 278.565 13.5593 278.675 4.16745 278.524C2.48316 278.497 1.87738 278.059 0.690821 276.962C-0.053373 275.526 -0.180604 183.455 0.233547 174.106C5.19804 171.547 11.3635 168.885 16.5265 166.503L47.2988 152.336C53.4658 149.474 59.6169 146.576 65.7503 143.642C69.2217 141.994 74.1068 139.557 77.6436 138.282C79.9752 137.047 82.4069 135.888 84.8082 134.794C95.1934 130.064 105.506 124.818 116.01 120.387C119.402 117.613 137.382 109.973 142.608 107.61C153.18 102.83 164.798 96.6929 175.44 92.4029Z" fill="white"/>
<path d="M77.6416 138.281C79.9732 137.047 82.4049 135.888 84.8062 134.794C95.1914 130.064 105.504 124.818 116.008 120.387L116.024 120.877C113.218 122.465 109.27 124.057 106.251 125.45C106.602 126.722 106.916 127.772 107.125 129.08C109.944 127.788 112.875 126.524 115.662 125.223L116.05 125.386C113.237 126.808 84.0929 140.634 82.555 140.321L84.2499 139.337C86.5453 137.998 89.0925 138.569 90.3334 136.895C90.2546 135.394 89.5817 135.803 88.7545 134.019C85.9438 134.233 78.9974 139.202 77.6416 138.281Z" fill="white"/>
<path d="M175.441 92.4029C180.864 89.5235 191.237 84.4494 197.211 83.0329C198.222 82.7933 203.07 82.9083 204.431 82.9354C205.317 84.6591 206.043 86.4451 206.804 88.2273C197.745 88.1634 196.006 87.9484 187.679 92.5935C186.482 93.261 183.284 94.1346 181.825 94.768L181.588 94.6035C182.43 93.8322 181.902 94.298 182.835 94.0292C185.954 93.1285 189.224 91.1482 192.242 89.8238C190.598 89.0902 188.972 88.3157 187.367 87.5012C185.613 88.3402 176.844 92.7031 175.692 92.585L175.441 92.4029Z" fill="white"/>
<path d="M101.118 266.281C110.742 266.288 121.447 266.541 130.976 266.284C131.607 266.465 132.256 266.53 132.654 266.923C130.501 267.685 102.335 267.835 100.661 266.832L101.118 266.281Z" fill="white"/>
<path d="M194.196 101.194L195.519 100.52C197.209 101.4 196.03 104.777 195.609 106.231L195.182 106.537L194.723 106.167L194.245 106.488L194.196 101.194Z" fill="white"/>
<path d="M124.479 0.0661406C125.912 0.0411211 131.528 -0.118571 132.602 0.172613C136.487 1.22556 141.065 3.09349 144.91 4.53876L168.429 13.3951C170.777 14.2809 187.566 20.4756 188.782 21.231C191.539 22.0353 194.735 23.2379 197.416 24.3408C204.182 27.1238 211.462 29.3798 218.16 32.2374C229.332 36.2144 240.786 41.1161 252.065 45.3742L348.64 81.8929L405.245 103.265C414.486 106.731 428.103 111.37 436.891 115.338C439.361 115.989 444.291 118.267 446.99 119.327C452.174 121.366 457.881 123.273 462.906 125.562L462.81 155.832C462.784 169.34 463.433 168.347 450.136 168.063C449.864 157.181 449.981 145.636 450.003 134.712C431.712 127.99 413.999 120.875 395.885 113.973L298.537 77.2596L188.938 35.6097C172.249 29.2239 154.916 23.0372 138.41 16.3559C137.893 36.2613 138.754 57.0598 138.423 77.0354C138.305 84.1106 138.718 92.326 138.378 99.266C137.201 100.713 136.429 101.74 134.993 102.967C132.344 104.389 127.314 106.747 124.499 107.62C124.296 95.808 124.462 83.5644 124.449 71.6983L124.405 3.92019L124.479 0.0661406Z" fill="white"/>
<path d="M124.487 0.0661406C125.92 0.0411211 131.536 -0.118571 132.61 0.172613C136.495 1.22556 141.073 3.09349 144.918 4.53876L168.437 13.3951C170.785 14.2809 187.574 20.4756 188.79 21.231C191.547 22.0353 194.743 23.2378 197.424 24.3408C204.19 27.1238 211.469 29.3798 218.168 32.2374C229.34 36.2144 240.794 41.1161 252.073 45.3742L348.648 81.8929L405.253 103.265C414.494 106.731 428.11 111.37 436.899 115.338C434.498 115.645 403.105 102.876 397.527 101.105C398.543 103.239 399.201 104.193 401.511 104.925C405.955 106.335 410.721 108.28 415.036 110.007L414.863 110.222C398.454 103.747 380.86 97.5423 364.262 91.2991L238.852 44.1615C231.842 41.5217 225.105 38.5513 218.244 35.9413L157.324 13.3019C152.063 11.401 146.824 9.44577 141.604 7.43516C132.843 4.06393 133.867 3.7376 124.413 3.92019L124.487 0.0661406Z" fill="white"/>
<path d="M188.785 21.231C191.543 22.0353 194.738 23.2378 197.42 24.3408C204.186 27.1238 211.465 29.3798 218.164 32.2374L217.779 32.462C216.295 32.4668 211.766 30.0809 210.097 29.7546C208.106 29.2079 198.751 28.6096 197.245 27.185C193.481 23.6216 194.413 24.0597 189.193 21.8495L188.705 21.6536L188.785 21.231Z" fill="white"/>
<path d="M135.114 15.3398L138.414 16.3561C137.897 36.2614 138.757 57.06 138.426 77.0356C138.308 84.1107 138.722 92.3262 138.382 99.2661C137.204 100.713 136.433 101.74 134.996 102.967C134.564 74.2329 135.037 44.1745 135.114 15.3398Z" fill="white"/>
<path d="M57.1786 182.532L57.9329 182.515C62.8671 182.442 69.535 182.753 74.1977 182.501C96.8802 181.271 117.62 187.065 117.514 213.707C117.474 223.442 115.939 229.947 108.769 237.24C99.2554 245.712 88.3352 245.32 76.3632 245.313L59.6502 245.288L57.0109 243.542L56.9604 203.643C56.954 198.077 56.666 187.79 57.1786 182.532Z" fill="white"/>
<path d="M68.6748 192.214C70.7504 192.271 75.7771 192.428 77.6664 192.259C94.6833 190.742 106.562 197.151 105.103 216.026C104.666 221.679 103.339 224.962 99.2608 229.417C90.2197 236.406 79.7606 234.924 68.5689 234.864L68.5705 207.092C68.5668 202.527 68.4039 196.696 68.6748 192.214Z" fill="#360584"/>
<path d="M350.736 182.51C362.028 182.16 374.006 182.451 385.277 182.628C400.488 182.866 408.453 195.768 402.883 209.658C400.866 214.688 396.126 217.295 391.367 219.171C396.115 226.154 403.438 236.855 407.46 244.016C403.52 244.301 399.892 244.218 395.951 244.175C391.656 237.405 385 226.489 380.334 220.309L361.367 220.334L361.356 244.194C357.808 244.212 354.261 244.203 350.713 244.167C350.353 224.676 350.367 201.988 350.736 182.51Z" fill="white"/>
<path d="M361.356 191.718C369.197 191.668 377.034 191.362 384.844 191.994C393.843 192.723 396.108 202.738 390.94 208.901C384.792 213.121 369.204 211.708 361.324 211.688L361.356 191.718Z" fill="#360584"/>
<path d="M304.948 182.514C309.084 182.465 313.221 182.48 317.357 182.557C320.033 187.403 322.658 193.776 324.751 198.948C330.829 213.958 339.146 229.015 344.813 244.076C341.005 244.3 337.434 244.221 333.627 244.171C331.115 238.55 328.659 232.904 326.261 227.233L317.582 227.266L296.141 227.289C293.741 232.87 291.296 238.723 288.675 244.18C284.928 244.298 281.178 244.238 277.437 244C281.225 234.151 287.708 221.44 291.993 211.353C295.365 203.412 301.039 189.544 304.948 182.514Z" fill="white"/>
<path d="M310.971 193.086C311.728 194.322 312.263 195.668 312.849 196.989C316.047 204.194 318.918 211.548 322.383 218.631C318.807 218.688 315.125 218.653 311.54 218.66L300.047 218.607C302.937 210.783 307.709 201.417 310.971 193.086Z" fill="#360584"/>
<path d="M411.998 182.519C426.634 182.015 444.356 182.481 459.229 182.471L459.25 191.682L422.646 191.721C422.69 197.191 422.664 202.661 422.567 208.131L456.471 208.117C456.663 211.137 456.589 214.038 456.551 217.058C446.964 217.125 437.377 217.141 427.784 217.106L422.663 217.145C422.786 223.065 422.786 228.986 422.664 234.907L459.33 234.934C459.442 238.073 459.389 241.082 459.341 244.216C444.089 244.377 427.241 244.423 412.059 244.138C411.92 240.966 411.921 237.678 411.956 234.5C412.149 217.217 411.588 199.786 411.998 182.519Z" fill="white"/>
<path d="M124.503 142.777C126.203 139.702 134.443 136.079 137.84 134.712C138.222 140.961 138.028 148.349 138.031 154.701L138.07 187.989L138.113 223.541C138.119 229.465 138.328 236.995 138.027 242.834C136.372 245.071 135.692 246.701 132.652 246.543L124.49 246.559C124.234 230.799 124.368 213.98 124.514 198.185C124.071 180.613 124.406 160.433 124.503 142.777Z" fill="white"/>
<path d="M124.506 142.777C126.206 139.702 134.445 136.079 137.843 134.712C138.225 140.961 138.031 148.349 138.033 154.701L138.073 187.989L138.115 223.541C138.122 229.465 138.331 236.995 138.03 242.834C136.375 245.071 135.695 246.701 132.655 246.543L132.735 246.218C133.6 246.219 133.563 246.259 134.343 245.912C135.448 243.797 134.758 239.883 134.822 237.465C135.079 227.887 134.891 218.241 134.919 208.662C135.092 185.056 135.136 161.449 135.052 137.843C131.179 140.024 128.264 140.84 124.506 142.777Z" fill="white"/>
<path d="M247.978 181.563C256.902 181.581 264.461 182.89 272.171 187.649C271.076 190.235 269.249 194.128 267.826 196.475C266.707 195.878 265.563 195.33 264.397 194.833C256.413 191.354 245.962 190.358 237.765 193.683C232.694 195.741 228.666 199.755 226.589 204.819C224.394 210.072 224.284 217.567 226.632 222.793C233.031 237.04 251.066 238.299 263.925 232.882L268.088 231.211C269.19 233.23 272.87 238.581 270.701 240.298C265.429 244.187 258.941 245.179 252.505 245.909C220.644 249.52 203.112 216.691 222.493 191.934C228.136 184.726 238.725 181.993 247.978 181.563Z" fill="white"/>
<path d="M143.342 182.524C148.575 182.37 186.603 182.289 187.892 183.01C189.144 185.187 188.646 189.742 188.555 192.403C176.947 192.5 165.338 192.495 153.73 192.389C153.754 197.649 153.736 202.909 153.677 208.169C157.368 208.151 183.707 207.753 185.32 208.534C185.833 208.781 185.81 209.119 185.995 209.613C186.025 212.268 185.971 214.997 185.952 217.659C175.21 217.749 164.469 217.777 153.727 217.742L153.735 244.845C150.846 244.938 145.97 245.527 143.702 243.96C142.826 242.113 142.899 187.603 143.342 182.524Z" fill="white"/>
<path d="M194.166 182.327C198.333 182.004 202.682 182.112 206.872 182.134C206.855 201.368 207.112 220.813 206.886 240.014C206.887 241.997 206.926 244.075 206.84 246.049L196.654 246.173C195.449 244.734 195.112 244.323 194.241 242.676C193.913 241.189 193.928 224.274 194.012 221.506C194.388 208.998 193.485 194.628 194.166 182.327Z" fill="white"/>
<path d="M194.25 242.676C194.628 239.189 194.409 231.584 194.574 227.426C194.852 231.958 194.58 237.445 194.636 242.131L195.027 242.145L195.823 240.78C197.216 240.044 200.37 240.834 202.033 240.631C203.37 240.467 204.98 240.01 206.29 239.667C206.291 237.467 206.176 233.492 206.415 231.436L206.894 240.014C206.895 241.997 206.934 244.075 206.849 246.049L196.663 246.173C195.458 244.734 195.121 244.323 194.25 242.676Z" fill="white"/>
<path d="M194.477 201.575C195.147 203.326 194.39 204.088 195.251 205.171C195.253 204.154 195.177 203.192 195.468 202.227C196.631 205.192 196.245 212.826 195.451 216.113L195.147 213.34L195.012 213.367L194.626 216.4C193.768 213.74 194.272 204.718 194.477 201.575Z" fill="white"/>
<path d="M429.891 277.562C430.593 275.292 433.511 265.979 435.172 265.254C437.04 266.006 439.175 272.788 439.957 274.908C440.388 276.078 441.112 277.185 440.128 278.101C438.275 277.341 438.03 275.688 437.455 273.942L433.197 273.928L431.658 278.258L427.751 278.185C426.67 275.978 426.047 274.553 424.557 272.597L423.828 272.595C423.45 273.179 422.824 276.999 422.643 277.979C421.843 278.385 422.267 278.267 421.317 278.153C420.544 277.08 420.901 267.064 420.914 264.945C423.439 264.896 425.888 264.613 427.969 266.285C430.397 268.236 428.624 270.894 426.83 272.363C427.863 273.99 428.911 275.882 429.891 277.562Z" fill="white"/>
<path d="M422.962 266.865C424.315 266.815 425.497 266.679 426.54 267.548C427.115 268.648 426.886 269.239 426.71 270.483C425.23 270.761 424.549 271.056 423.298 270.577C422.68 269.537 422.914 268.132 422.962 266.865Z" fill="#360584"/>
<path d="M449.917 276.934C446.947 281.615 441.209 277.274 443.178 274.251C444.211 273.999 443.758 273.897 444.6 274.363C445.047 275.311 445.153 275.544 445.765 276.444L446.59 276.576C451.168 274.253 444.403 265.234 450.359 264.565L451.051 264.911C453.569 264.886 456.699 264.664 458.472 266.729C460.186 268.727 458.248 271.102 456.87 272.364C457.647 273.678 459.159 276.019 459.579 277.373L459.35 278.194L458.882 278.462C455.8 277.421 457.088 273.763 453.83 272.633L453.186 272.774C452.238 274.923 453.814 277.556 452.121 278.393C450.806 277.848 451.195 278.295 450.7 277.224L449.917 276.934Z" fill="white"/>
<path d="M449.917 276.934C446.947 281.615 441.209 277.274 443.178 274.251C444.211 273.999 443.758 273.897 444.6 274.363C445.047 275.311 445.153 275.544 445.765 276.444L446.59 276.576C451.168 274.253 444.403 265.234 450.359 264.565L451.051 264.911C451.057 268.349 451.211 273.985 450.7 277.224L449.917 276.934Z" fill="white"/>
<path d="M450.366 264.565L451.058 264.911C451.063 268.349 451.217 273.985 450.706 277.224L449.924 276.934C450.328 274.256 450.264 267.616 450.366 264.565Z" fill="#360584"/>
<path d="M452.998 266.774C454.749 266.829 455.542 266.709 456.724 267.884C456.995 269.023 456.798 269.445 456.538 270.577C455.404 270.744 454.179 271.1 453.242 270.568C452.636 269.532 452.918 268.041 452.998 266.774Z" fill="#360584"/>
<path d="M358.012 264.961C361.177 264.763 364.302 265.167 365.485 268.912C366.743 272.889 364.977 274.233 363.34 277.239C363.645 277.846 363.655 277.874 363.899 278.55L363.261 278.931C362.783 278.865 362.306 278.794 361.83 278.718C353.665 277.406 350.698 269.388 358.012 264.961Z" fill="white"/>
<path d="M358.553 266.558C360.415 266.489 361.729 266.449 362.76 268.225C363.663 269.813 363.908 271.692 363.443 273.458C363.176 274.438 362.873 274.888 362.08 275.375L360.131 274.649L359.537 275.001L359.404 275.962L358.435 276.092C355.433 274.91 355.808 268.902 358.553 266.558Z" fill="#360584"/>
<path d="M292.803 264.951C295.312 264.893 298.227 264.613 300.18 266.463C302.316 268.486 300.285 270.973 298.813 272.408C299.56 273.644 302.017 276.987 301.335 278.2C299.945 278.211 300.194 278.435 299.412 277.735C298.484 275.82 297.645 274.105 296.273 272.473L295.655 272.451C295.102 273.514 294.777 276.526 294.575 277.862C293.763 278.398 294.214 278.252 293.136 278.092C292.501 277.045 292.796 266.892 292.803 264.951Z" fill="white"/>
<path d="M294.841 266.83C296.202 266.839 297.408 266.713 298.458 267.549C299.054 268.651 298.823 269.2 298.63 270.453C297.192 270.763 296.441 271.042 295.195 270.584C294.552 269.539 294.793 268.117 294.841 266.83Z" fill="#360584"/>
<path d="M344.659 264.95C347.215 264.892 350.184 264.611 352.115 266.566C354.098 268.575 352.066 271.022 350.624 272.357C351.406 273.64 353.735 276.835 353.228 278.165C351.814 278.234 352.13 278.44 351.24 277.766C350.483 276.096 349.35 273.682 347.975 272.454L347.441 272.537C346.532 274.166 347.043 276.071 346.151 278.164C345.088 278.293 345.482 278.459 344.819 277.947C344.493 274.402 344.649 268.681 344.659 264.95Z" fill="white"/>
<path d="M346.747 266.827C348.099 266.835 349.312 266.711 350.331 267.577C350.878 268.646 350.631 269.264 350.437 270.466C348.924 270.769 348.359 271.042 347.087 270.58C346.464 269.535 346.7 268.103 346.747 266.827Z" fill="#360584"/>
<path d="M224.902 264.725L226.245 264.902C228.24 266.115 231.552 272.194 232.925 274.369C232.857 272.097 232.103 266.266 233.637 264.898L234.361 264.968C235.317 266.511 234.851 275.872 234.792 278.473C234.648 278.459 233.679 278.375 233.549 278.288C231.269 276.769 228.231 270.655 226.924 268.295C226.974 270.827 227.795 276.959 225.899 278.357L225.263 278.201C224.499 276.635 224.863 267.163 224.902 264.725Z" fill="white"/>
<path d="M258.429 264.756C258.569 264.768 259.575 264.849 259.703 264.93C261.861 266.297 265.129 272.389 266.482 274.611C266.183 272.161 266.215 268.757 266.212 266.23C266.211 265.419 266.836 265.117 267.382 264.806L267.908 265.076C268.67 267.357 268.255 275.582 268.197 278.339C265.09 278.224 261.963 271.243 260.349 268.469C260.47 270.855 260.636 275.569 260.269 277.866L259.549 278.381L259.002 277.988C257.939 275.102 258.377 268.116 258.429 264.756Z" fill="white"/>
<path d="M240.931 264.988C243.01 264.787 245.617 264.427 247.071 266.184C246.244 268.191 242.892 266.327 240.235 267.46C235.976 271.447 241.424 279.493 245.277 274.971C245.462 273.883 245.441 273.961 244.951 272.96C243.367 272.52 242.758 272.541 241.834 271.314C243.564 270.596 245.277 270.761 247.157 270.763L247.168 271.06C247.399 277.861 247.818 278.5 240.623 278.204C235.276 274.592 234.961 268.166 240.931 264.988Z" fill="white"/>
<path d="M277.842 270.253C277.837 269.697 277.837 269.141 277.843 268.584C277.844 266.846 277.774 266.607 278.45 264.988L278.856 264.909C280.406 267.451 280.054 274.619 279.728 277.58C279.653 278.263 279.415 278.168 278.628 278.641C277.333 276.947 277.803 274.293 277.863 271.965L272.437 271.96C272.507 274.085 272.991 276.735 271.659 278.16L270.883 278.154L270.484 277.745C269.989 274.92 270.237 267.836 270.279 264.705C271.158 264.826 271.175 264.828 271.997 265.159C272.861 266.505 272.482 268.589 272.381 270.27L277.842 270.253Z" fill="white"/>
<path d="M286.207 264.415C287.832 265.699 292.04 276.642 291.604 278.259C288.982 277.741 289.623 274.559 287.101 273.814C286.111 273.855 285.465 273.923 284.495 274.04C283.755 274.71 283.332 276.576 282.839 277.763C281.957 278.439 282.445 278.273 281.314 278.255L280.822 277.742C280.957 276.137 285.134 265.806 286.207 264.415Z" fill="white"/>
<path d="M286.363 268.207C287.019 269.198 287.758 271.253 287.313 272.357C285.871 272.036 285.969 272.316 285.349 271.418C285.478 270.211 285.914 269.334 286.363 268.207Z" fill="#360584"/>
<path d="M311.195 264.415C313.258 265.833 316.463 275.264 316.725 277.855L316.377 278.183L315.479 278.094C313.745 276.726 314.92 274.517 312.498 273.88C311.833 273.874 311.051 273.844 310.389 273.897C307.622 274.119 309.456 278.459 306.456 278.246L306.047 277.757C306.324 275.693 310.061 266.119 311.195 264.415Z" fill="white"/>
<path d="M337.796 264.711C338.298 264.875 338.665 264.984 338.981 265.457C340.007 266.988 343.688 276.661 343.623 277.889C342.818 278.474 343.267 278.348 342.21 278.193C340.516 276.638 341.721 274.673 339.447 273.889C333.127 273.905 337.075 275.441 334.321 278.112C333.2 278.27 333.633 278.435 332.892 277.885C332.838 275.955 336.701 266.695 337.796 264.711Z" fill="white"/>
<path d="M367.043 264.679C367.176 264.704 367.628 264.759 367.784 264.814C371.346 266.075 366.08 276.093 371.469 276.208C377.037 276.327 372.929 267.248 375.166 264.786C376.109 264.901 375.65 264.784 376.51 265.457L376.628 266.506C376.698 270.296 377.128 274.438 374.486 277.536C371.917 280.548 368.697 277.408 367.035 275.217C366.882 271.706 366.886 268.19 367.043 264.679Z" fill="white"/>
<path d="M410.009 264.68L411.121 264.884C413.083 266.516 410.393 276.794 414.345 276.398C420.462 275.785 415.871 267.656 418.17 264.785L418.738 264.745C419.759 265.677 419.471 265.113 419.611 266.505C419.654 269.281 420.139 274.054 418.603 276.333C417.172 278.457 413.417 279.182 411.598 277.192C409.046 274.399 409.863 268.32 410.009 264.68Z" fill="white"/>
<path d="M249.282 264.958C251.345 264.921 255.456 264.353 256.719 265.851L256.447 266.543C255.025 267.38 253.802 266.442 251.723 266.984C251.262 267.973 251.335 269.05 251.273 270.195C252.915 270.193 254.925 269.954 256.238 270.734L256.451 271.193C255.54 271.925 252.95 272.034 251.715 272.102C251.251 273.362 251.295 273.675 251.224 275.048C252.086 277.159 254.381 275.058 256.413 276.279C256.746 277.369 256.782 276.851 256.312 277.884C255.355 278.549 250.751 278.236 249.265 278.207C249.16 273.946 249.269 269.251 249.282 264.958Z" fill="white"/>
<path d="M251.268 270.194C252.91 270.193 254.919 269.953 256.233 270.734L256.446 271.193C255.534 271.924 252.944 272.034 251.709 272.101C251.246 273.362 251.289 273.675 251.218 275.048C250.952 273.379 251.15 271.883 251.268 270.194Z" fill="white"/>
<path d="M391.612 264.941C393.786 264.886 396.468 264.713 398.556 265.072C399.041 265.961 398.892 265.482 398.777 266.586C397.049 267.485 395.591 266.213 393.917 267.121C393.45 268.015 393.604 268.739 393.651 269.765C394.755 271.004 397.047 269.673 398.44 270.642L398.419 271.464C397.326 272.326 396.167 271.771 394.016 272.061L393.618 272.598C393.569 273.68 393.482 274.153 393.777 275.213C395.36 276.775 396.768 275.895 398.945 276.142C399.298 277.048 399.184 276.575 398.772 277.82C397.609 278.546 393.323 278.25 391.607 278.228C391.586 273.799 391.588 269.37 391.612 264.941Z" fill="white"/>
<path d="M215.907 264.976C219.111 264.867 220.297 264.578 223.239 265.783L223.184 266.398C221.293 266.912 218.844 266.516 217.93 267.251C217.612 272.411 220.63 269.267 222.618 270.671L222.561 271.586C220.689 272.813 218.69 270.438 217.72 273.332C217.817 274.309 217.914 274.864 218.095 275.812C219.642 276.525 221.124 275.446 222.927 276.203C223.345 277.147 223.274 276.658 223.068 277.731C222.024 278.536 217.581 278.221 215.856 278.224C215.816 273.808 215.833 269.392 215.907 264.976Z" fill="white"/>
<path d="M321.541 264.955C323.703 264.919 326.901 264.571 328.686 265.489L328.864 266.113C327.723 267.749 326.055 266.308 323.722 267.026C323.327 267.927 323.482 269.161 323.498 270.229C323.505 270.659 323.548 271.589 323.514 271.972L323.493 275.979C325.345 275.944 328.148 275.35 328.972 277.221C326.58 278.642 324.18 278.294 321.416 278.23C321.375 273.804 321.417 269.379 321.541 264.955Z" fill="white"/>
<path d="M380.657 265.002C383.044 264.892 387.982 264.669 390.166 265.103C390.629 265.953 390.506 265.502 390.361 266.514C389.317 267.091 387.931 266.896 386.682 266.862L386.789 274.158C386.813 275.868 387.261 277.474 385.759 278.391L385.211 278.108C384.14 275.826 384.578 269.667 384.633 266.886L381.756 266.853C380.755 266.2 381.078 266.466 380.657 265.002Z" fill="white"/>
<path d="M399.613 264.96C401.682 264.942 408.164 264.366 409.386 265.481L409.041 266.497C407.857 267.16 407.058 266.892 405.539 266.862L405.546 274.28C405.559 275.561 405.779 277.217 405.087 278.178C404.149 278.32 404.595 278.385 403.753 277.812C403.315 275.606 403.54 269.521 403.565 266.899L400.528 266.881C399.552 266.164 399.855 266.526 399.613 264.96Z" fill="white"/>
<path d="M302.938 264.729C304.277 264.95 304.178 264.709 304.946 265.486C305.29 268.722 305.117 275.126 304.99 278.478C304.455 278.379 304.01 278.253 303.484 278.115C302.336 276.199 302.888 267.46 302.938 264.729Z" fill="white"/>
<path d="M377.902 264.771L379.462 265.025C380.299 266.067 379.848 276.163 379.813 278.243L378.256 278.139C377.546 276.958 377.881 266.973 377.902 264.771Z" fill="white"/>
<path d="M323.506 270.228C325.137 270.198 326.489 269.969 327.868 270.728L328.048 271.24C326.733 272.271 325.246 271.996 323.522 271.972C323.556 271.589 323.513 270.659 323.506 270.228Z" fill="white"/>
</svg>
