<svg width="478" height="274" viewBox="0 0 478 274" fill="none" xmlns="http://www.w3.org/2000/svg">
<path d="M233.875 0.311341C239.861 -0.278236 248.388 0.0232064 254.253 0.765883C263.759 1.96786 268.442 5.938 277.737 0.788707C284.554 3.53024 287.567 6.46005 289.438 13.6643C307.776 21.5085 326.479 49.1312 330.8 67.8797C331.719 71.8717 333.395 76.5303 333.623 80.606C334.327 93.1554 334.465 105.851 330.773 117.998C330.021 120.501 329.638 123.818 327.94 125.876C324.402 125.913 317.598 118.497 314.851 116.105C305.442 107.92 296.572 97.4479 286.395 90.3198C285.771 95.0687 284.892 96.3411 282.42 100.306C281.52 95.1781 281.291 89.4725 280.952 84.2424C279.732 82.8626 278.539 81.4485 277.265 80.1172C276.258 79.0655 275.288 78.3989 273.787 78.4103C269.896 78.4388 239.519 113.557 234.287 119.219C229.894 119.398 224.89 119.719 220.567 119.264C224.344 112.197 241.497 94.0912 247.887 87.8207C240.487 81.4942 230.805 68.8649 223.355 64.9223C221.864 72.5136 215.486 85.7106 212.264 93.2391C211.642 91.923 211.007 90.6136 210.36 89.3108C209.197 86.9791 208.192 84.7102 205.691 83.8791C203.055 86.8479 196.391 98.7193 193.982 102.828C186.964 114.902 179.856 126.923 172.66 138.89C174.083 141.253 176.314 143.462 178.106 145.623C196.33 167.602 223.756 178.707 252.126 175.359C265.892 173.734 275.045 169.549 287.258 163.193C288.751 148.814 297.712 144.42 307.46 156.163C307.836 163.545 307.148 165.097 300.872 169.289C291.609 169.045 292.322 169.795 283.97 174.005C264.923 183.606 245.099 186.01 224.123 182.578C220.374 181.965 214.511 179.988 210.806 178.831C185.656 169.877 160.581 144.886 154.018 117.548C153.756 116.454 156.055 114.162 156.903 113.386C164.302 106.613 172.196 99.113 179.34 92.1655L224.327 47.8046C234.187 55.7639 244.391 71.2327 255.2 78.4816C256.857 79.5923 270.302 64.3251 273.84 61.8812C277.9 64.4678 284.343 71.5874 288.101 75.0155C299.094 85.044 313.271 100.703 325.227 109.253C324.894 93.3304 327.896 85.838 322.463 68.4588C316.173 48.3333 302.997 30.0526 284.24 20.0156C281.288 21.131 279.049 21.7891 275.999 22.6268C270.993 19.4593 269.545 16.2936 265.782 11.8385C248.118 5.6898 226.687 7.82844 209.615 15.0964C188.894 23.9429 172.598 40.7744 164.4 61.7976C162.137 67.6914 161.545 73.7118 159.318 79.2604C161.813 82.6752 163.395 85.2161 165.305 88.9571C162.588 95.8114 161.037 97.583 154.032 99.8034C147.642 97.5364 146.199 95.3949 143.021 89.7482L143.14 89.5058C146.296 83.2163 151.005 80.1505 152.477 73.0138C160.309 35.0346 194.464 3.53975 233.875 0.311341Z" fill="#FEFEFE"/>
<path d="M180.069 218.71C187.761 218.695 216.73 217.67 221.854 220.02C225.677 221.774 228.18 225.201 229.57 229.073C230.808 232.522 230.799 235.327 229.216 238.665C226.563 244.259 223.133 246.612 217.412 248.661C221.707 256.868 225.939 265.11 230.106 273.384C227.761 273.536 219.877 274.389 218.446 272.9C215.376 266.642 211.075 256.44 206.785 251.255C203.541 247.335 195.501 248.257 190.344 248.298C189.976 256.247 190.176 265.724 190.153 273.78C186.645 273.76 183.537 273.608 180.038 273.397C180.541 256.124 180.195 236.09 180.069 218.71Z" fill="#FEFEFE"/>
<path d="M190.434 228.075C198.629 228.637 208.181 228.222 216.534 228.286C220.003 230.667 222.075 232.573 219.082 236.714C218.541 237.167 217.434 237.9 216.767 237.966C208.552 238.784 198.695 238.408 190.408 238.551C190.247 235.171 190.38 231.48 190.434 228.075Z" fill="#360584"/>
<path d="M253.752 218.779C266.66 218.593 280.468 218.537 293.379 218.661C293.52 221.149 293.976 225.819 292.641 227.808C290.575 228.689 257.297 228.244 252.107 228.378C247.411 231.033 248.269 233.507 248.416 238.336C260.18 238.387 272.082 238.121 283.814 238.329L283.771 248.052C274.68 248.708 257.876 248.425 248.537 248.216L248.354 252.858C248.32 255.293 248.107 260.387 249.291 262.321C252.621 264.579 287.08 263.627 293.488 263.648C293.309 266.387 293.494 270.518 293.535 273.355C284.252 273.859 274.802 273.71 265.481 273.725C260.502 273.425 254.249 274.293 249.411 273.229C243.486 271.928 238.173 265.072 238.222 259.048C238.281 251.659 238.305 244.568 238.181 237.226C238.09 231.873 238.622 227.103 242.376 222.993C245.707 219.337 249.167 219.004 253.752 218.779Z" fill="#FEFEFE"/>
<path d="M435.204 218.748C448.123 218.115 463.129 218.873 476.661 218.459C477.126 222.677 477.134 224.228 476.436 228.403C466.043 228.046 455.089 228.486 444.633 228.234C441.614 228.162 435.446 227.902 433.117 230.087C431.735 231.384 432.047 236.274 432.06 238.341C443.877 238.254 455.695 238.243 467.513 238.307C467.241 241.035 467.405 245.117 467.44 247.954C463.119 248.298 433.676 247.808 432.305 248.704L432.191 250.182C431.939 253.561 431.313 259.58 433.123 262.429C436.204 264.453 470.765 263.604 476.7 263.58C476.783 266.903 477.008 269.953 477.038 273.367C469.908 274.112 460.044 273.572 452.687 273.719C446.414 273.536 439.548 274.115 433.352 273.273C428.233 272.578 422.385 265.816 422.156 260.762C421.982 256.933 421.844 252.525 422.045 248.767C422.351 243.063 421.329 235.524 422.445 230.077C422.923 227.806 423.91 225.674 425.333 223.843C428.116 220.262 430.986 219.279 435.204 218.748Z" fill="#FEFEFE"/>
<path d="M171.616 218.435L171.896 218.476C173.171 220.27 172.371 226.255 172.142 228.455C160.603 227.955 148.717 228.47 137.147 228.188C128.96 227.988 127.129 230.215 127.376 238.255C128.999 238.214 130.699 238.217 132.325 238.255C142.3 238.486 152.414 238.003 162.374 238.332C162.668 241.765 162.827 244.355 162.853 247.809C159.484 248.462 152.853 248.302 149.194 248.311L127.491 248.341C127.213 254.075 126.193 258.224 129.317 263.01C134.558 264.029 149.526 263.664 155.586 263.649C161.182 263.659 166.779 263.621 172.375 263.534C172.511 266.901 172.567 270.27 172.541 273.64C164.964 273.958 156.474 273.611 148.768 273.721C142.614 273.809 135.011 273.971 128.959 273.19C126.695 272.898 124.908 271.875 123.169 270.444C120.068 267.892 117.913 264.278 117.87 259.964C117.77 249.92 117.009 238.293 118.459 228.386C118.811 226.699 119.848 225.22 120.858 223.922C126.297 216.926 134.677 219.021 142.396 218.706C151.793 218.322 162.224 219.286 171.616 218.435Z" fill="#FEFEFE"/>
<path d="M52.5347 218.462C53.3399 218.385 53.6679 218.294 54.401 218.685C55.6848 220.778 54.9166 225.763 54.7153 228.463C42.439 227.603 28.3516 228.624 15.9272 228.37C10.0492 228.25 9.41344 233.406 9.97968 238.194C21.5443 238.325 33.1102 238.332 44.6754 238.215C45.0631 241.666 45.0917 244.544 45.1469 248.005C35.3992 248.912 20.2462 248.08 9.79332 248.387C9.43812 251.045 9.53681 253.836 9.44135 256.507C9.14069 264.917 16.6487 263.692 22.4313 263.675L36.4051 263.634C42.415 263.621 48.7645 263.708 54.7419 263.434C54.8926 267.114 55.064 270.142 54.7737 273.822C40.911 273.396 26.8691 274.067 12.9986 273.581C9.62902 273.462 7.64131 272.014 5.15683 269.937C-1.89726 264.041 0.485281 255.196 0.158649 247.154C0.0703347 241.177 -0.383586 234.418 0.803459 228.562C1.54828 224.948 6.40426 220.264 10.0271 219.381C15.8662 218.218 22.6872 218.655 28.6672 218.677C36.6233 218.768 44.5812 218.696 52.5347 218.462Z" fill="#FEFEFE"/>
<path d="M315.234 218.758C315.256 218.756 315.278 218.754 315.3 218.751C324.495 218.806 333.807 218.04 342.913 219.297C347.979 219.996 356.133 230.369 352.657 233.885C350.447 234.252 346.222 234.007 343.832 233.942C343.381 232.118 342.868 230.665 341.223 229.507C340.39 228.913 339.424 228.535 338.411 228.404C332.51 227.642 322.002 228.646 315.807 228.671C313.511 228.681 310.477 232.388 311.226 234.832C313.043 240.765 323.061 238.67 327.64 238.997C334.116 239.155 340.431 238.317 346.082 242.117C358.86 250.636 354.184 270.246 339.499 273.365C334.635 273.81 318.704 274.15 314.336 273.102C312.047 272.551 309.905 271.506 308.062 270.039C303.223 266.228 301.989 261.983 301.3 256.171C318.876 254.495 306.332 264.558 322.926 263.636C330.777 263.201 338.368 266.187 343.278 258.902C343.402 257.16 343.309 255.371 343.259 253.621C337.206 242.895 315.936 253.3 306.891 245.549C299.698 239.386 299.541 227.861 306.848 221.78C309.71 219.397 311.677 219.108 315.234 218.758Z" fill="#FEFEFE"/>
<path d="M59.9023 217.964C62.379 218.532 70.3416 218.236 71.6949 219.982C74.793 223.978 85.0718 249.489 88.8427 250.376C89.8564 249.993 90.2025 246.719 91.0681 245.585C93.9351 241.83 102.935 219.442 106.375 218.664L106.545 218.627C108.611 218.16 113.4 218.319 116.121 218.091C114.867 221.726 110.634 229.496 108.739 233.131C104.258 241.508 100.144 250.144 95.7767 258.585C93.4954 262.993 91.2694 267.458 89.2999 272.015C88.6512 272.493 88.9421 272.373 87.9193 272.234C85.7556 270.767 83.8179 265.783 82.5471 263.264L74.9268 248.252L65.7772 230.385C64.2044 227.338 60.7205 221.03 59.9023 217.964Z" fill="#FEFEFE"/>
<path d="M358.828 218.466C363.565 218.95 372.774 218.718 377.685 218.716L414.278 218.711L414.201 228.076C406.737 228.253 399.269 228.266 391.804 228.113C391.181 234.952 391.483 244.944 391.494 251.974L391.459 273.613C388.118 273.665 384.777 273.683 381.436 273.667C381.172 263.778 381.389 253.832 381.336 243.94C381.307 238.769 381.545 233.294 381.099 228.173C373.84 228.077 365.992 228.303 358.688 228.376C358.565 225.66 358.333 221.051 358.828 218.466Z" fill="#FEFEFE"/>
</svg>
