<svg width="632" height="163" viewBox="0 0 632 163" fill="none" xmlns="http://www.w3.org/2000/svg">
<path d="M291.223 11.5045C297.764 9.01253 308.211 5.94734 314.904 8.33602C309.608 8.78535 299.941 9.80684 295.101 11.7561C293.49 11.2058 292.908 11.349 291.223 11.5045Z" fill="#360584"/>
<path d="M291.233 11.5045C292.919 11.349 293.5 11.2058 295.111 11.7561C290.761 13.1329 287.837 14.2633 283.782 16.3708C284.092 12.9837 288.528 12.2885 291.233 11.5045Z" fill="#360584"/>
<path d="M549.85 29.9907C550.046 29.724 550.264 29.4729 550.499 29.2399C554.315 25.5113 562.97 26.7981 568.184 26.8955C559.537 27.4789 558.373 27.5669 549.85 29.9907Z" fill="#360584"/>
<path d="M314.911 8.33594C323.421 8.50844 330.436 9.41247 338.649 11.9863C348.92 15.2048 357.28 20.8317 365.448 27.7021C366.251 28.378 367.93 29.5622 368.993 29.8008C373.38 30.0385 378.144 29.9058 382.544 29.8818L409.11 29.7988C432.141 29.9169 455.172 29.9002 478.202 29.749C491.82 29.7261 507.893 29.3535 521.351 29.959L521.102 47.6016C514.859 47.5883 475.575 46.7595 472.631 48.1182C471.748 50.5902 472.277 68.8902 472.495 72.3838C484.885 73.0225 501.545 72.5112 514.28 72.4814C517.302 56.7512 522.827 46.7831 536.218 36.9131C539.147 34.7543 546.373 31.1214 549.855 29.9902C556.704 27.918 561.136 27.2333 568.189 26.8955C583.831 27.4652 597.105 33.2277 607.754 44.7139C608.346 45.3557 608.923 46.0119 609.483 46.6816C605.888 50.1203 601.253 54.7901 597.493 57.9697C587.939 49.6682 579.413 45.155 565.278 45.7705C552.528 46.3257 536.816 56.7882 534.371 70.6025C534.254 71.2613 534.874 71.8442 535.335 72.2783L535.351 72.2939C537.686 72.8771 552.182 72.6328 555.319 72.4873C558.069 67.6373 559.221 65.2022 563.776 61.8057C567.431 58.9952 569.99 58.0729 573.851 56.9531C581.056 55.1262 588.693 56.2386 595.078 60.0459C607.962 67.7855 612.041 84.8466 604.265 98.0439C602.413 101.187 600.353 104.151 598.858 107.493C601.912 111 605.311 114.764 608.045 118.478C595.595 130.243 583.319 136.558 565.716 136.27C551.345 136.034 538.074 129.669 528.286 119.243C520.011 110.429 516.993 102.636 514.177 91.1309C509.528 90.8322 474.948 89.7152 473.083 91.1963C471.485 93.7473 473.2 104.727 472.584 108.305C472.357 109.623 472.457 114.575 473.082 115.775C475.522 116.678 483.976 116.395 487.131 116.391L508.231 116.388C512.11 116.39 517.43 116.25 521.172 116.62C520.739 121.981 520.877 128.406 520.81 133.896C515.359 133.617 509.618 133.584 504.143 133.63C487.597 133.768 470.795 133.366 454.272 133.86L454.182 75.123L454.162 57.1152C454.161 54.3055 454.294 50.3194 454.104 47.6455C449.124 46.7525 424.887 47.2313 419.52 47.7832C418.792 55.2938 419.42 66.1362 419.279 73.917C418.924 93.5742 419.884 114.281 419.339 133.87C413.2 133.738 406.926 133.611 400.789 133.882L400.757 74.3555L400.695 58.1855C400.678 55.3925 400.784 50.4395 400.281 47.8691C397.195 46.5571 369.517 47.2178 364.157 47.1074C361.27 44.245 359.097 41.3047 356.084 38.5674C345.098 28.5131 330.714 22.9896 315.822 23.1064C300.748 23.2196 286.344 29.3537 275.817 40.1445C264.572 51.414 258.341 66.7384 258.528 82.6582C258.784 98.6483 265.285 113.904 276.641 125.164C287.655 135.978 301.428 141.199 316.759 141.031C331.924 140.846 346.384 134.598 356.912 123.681C367.196 113.137 371.563 103.23 374.373 89.0303L387.287 89.2021L387.831 89.2598L388.141 89.7803C388.104 92.9914 387.308 95.9299 386.658 98.918C374.605 154.419 304.713 175.676 265.409 133.826C263.162 131.432 260.553 128.178 258.137 126.142C257.501 129.512 257.644 133.198 257.684 136.638L219.696 97.0469L205.123 81.5742C203.546 79.8972 198.947 74.0924 196.989 73.9482C196.566 75.4992 196.496 77.7022 196.485 79.3242C196.373 97.4355 196.842 115.598 196.405 133.699C190.284 133.64 184.164 133.7 178.046 133.879C178.052 131.319 178.48 118.684 177.182 117.572C176.026 118.039 172.211 121.988 170.923 123.144C164.563 128.771 156.951 132.797 148.721 134.886C134.608 138.342 119.7 136.04 107.288 128.485C92.7258 119.622 85.4838 107.385 81.5693 91.2705C77.9005 90.7281 42.2645 90.7009 38.8672 91.4121C38.4045 96.1406 38.6016 102.546 38.6035 107.435L38.6191 133.873C32.5854 134.066 26.1341 133.942 20.0693 133.925L20.0156 29.6768C32.9213 28.8546 48.6705 29.5277 61.8564 29.5596L83.5176 29.6025C88.1434 29.6118 93.5975 29.4968 98.1387 29.9102C98.0715 32.3498 97.4376 39.0575 99.2197 40.6025C99.8315 40.6872 100.449 40.7728 100.984 40.3711C105.052 37.317 108.588 35.1464 113.247 32.9854C120.916 29.9631 125.481 29.3005 133.708 28.4316C147.123 28.6979 156.02 30.844 167.345 38.7881C170.501 41.0027 173.52 43.7633 176.694 45.8545C177.05 38.9292 177.102 33.5579 177.02 26.582C183.399 32.3049 191.051 40.3222 197.17 46.4619L239.859 89.7607L240.34 89.707C241.872 85.4641 241.029 37.98 241.018 29.4131C245.783 29.3125 252.574 29.3791 257.27 29.7676C256.898 32.6347 257.234 35.6165 257.484 38.4912C259.284 37.196 262.574 33.1379 264.294 31.2783C270.45 24.6233 275.82 20.4924 283.778 16.3711C295.515 10.6847 302.383 9.34026 314.911 8.33594ZM170.613 100.29C186.791 68.9845 155.419 34.5044 122.61 45.5342C112.761 48.865 104.616 55.9357 99.9355 65.2197C87.9197 89.5216 103.095 116.305 129.19 120.843C135.697 121.833 140.004 121.543 146.401 120.108C157.693 116.386 165.131 110.898 170.613 100.29Z" fill="white"/>
<path d="M129.19 120.843C131.259 119.045 143.856 119.092 146.401 120.108C140.004 121.543 135.697 121.832 129.19 120.843Z" fill="#360584"/>
<path d="M120.558 57.8647C124.591 52.5013 131.22 53.9641 135.371 58.4376C142.811 49.8999 147.507 57.5466 154.238 58.3044C155.677 59.632 158.746 62.5565 158.333 64.6349C161.403 67.2917 164.829 69.6677 164.93 74.2249C164.471 75.8063 166.622 78.1997 166.891 78.7822C167.612 80.341 166.736 90.1971 165.446 90.8941C160.312 93.6683 163.35 95.8141 162.458 97.4103L161.598 97.6521C156.619 100.173 158.848 103.806 153.077 103.916C148.64 104 146.054 110.954 138.251 106.944C136.574 107.188 133.894 106.784 132.138 106.595C127.364 109.417 121.856 107.472 118.635 103.27L117.453 104.038C113.373 104.494 113.287 102.039 110.709 99.4287C110.332 99.0466 108.038 97.5079 107.43 97.0741C107.017 96.1328 107.438 95.2387 107.697 94.0827C106.977 92.8918 105.136 90.8307 104.178 89.6928C102.027 83.3667 104.63 74.6807 107.699 68.9759C108.337 67.7895 110.938 65.8396 111.564 64.694C114.213 59.8431 114.539 57.8025 120.558 57.8647Z" fill="#360584"/>
<path d="M121.066 59.164C124.12 57.021 129.504 54.1597 132.231 58.1526C134.174 60.9985 133.48 67.8608 133.39 71.365C132.708 71.3708 130.757 71.2958 130.28 71.5938C130.683 71.8628 131.166 72.1531 131.486 72.5067C132.809 73.6846 132.957 73.6239 133.065 75.6714C133.239 79.0126 132.886 82.4805 132.812 85.8262C131.242 85.8573 129.08 86.1508 127.758 85.3413L127.269 86.8128C128.582 87.8227 131.415 87.5796 133.24 87.8013C133.099 91.4994 133.759 102.859 131.258 105.288C128.222 108.235 121.889 104.795 119.283 102.082L118.635 103.271L117.453 104.038C113.373 104.494 113.287 102.04 110.709 99.4289C110.332 99.0468 108.038 97.5081 107.43 97.0743C107.017 96.133 107.438 95.2388 107.697 94.0829C106.977 92.892 105.136 90.8309 104.178 89.693C102.027 83.3669 104.63 74.6809 107.699 68.9761C108.337 67.7897 110.938 65.8398 111.564 64.6942C114.213 59.8433 114.539 57.8027 120.558 57.8649C120.083 58.4213 119.893 58.6879 119.51 59.3126C120.05 59.5633 120.488 59.3447 121.066 59.164Z" fill="#360584"/>
<path d="M104.178 89.693C102.027 83.3669 104.63 74.6809 107.699 68.9761C108.337 67.7897 110.938 65.8398 111.564 64.6942C114.213 59.8432 114.539 57.8026 120.558 57.8649C120.083 58.4213 119.893 58.6879 119.51 59.3126C120.05 59.5632 120.488 59.3447 121.066 59.164L120.322 60.3489C119.401 60.4457 119.335 60.0614 118.628 59.9742C116.576 59.7213 115.016 61.5075 113.861 62.9341C113.758 63.0611 113.657 63.1893 113.557 63.3185L114.694 66.5549C114.118 68.7453 112.25 74.1003 115.761 75.1697C116.74 75.4677 118.984 74.6757 120.054 74.3654L120.27 74.7617C119.946 75.5001 119.912 75.6352 119.071 75.8964C109.376 78.9117 113.807 69.7506 113.138 66.5115L112.435 66.295C109.478 69.0362 107.441 72.0043 106.556 75.9558C107.168 77.3135 108.652 80.4239 108.095 81.8256C107.131 80.7006 106.761 78.8122 105.878 78.174C102.993 79.6817 104.455 85.0756 105.136 87.5951L104.469 87.972C104.373 88.5429 104.282 89.1247 104.178 89.693Z" fill="white"/>
<path d="M107.693 94.0833L108.267 94.5009C109.223 95.7661 113.502 101.508 114.827 101.664C117.26 101.949 117.422 99.9129 119.279 102.083L118.632 103.271L117.45 104.038C113.369 104.495 113.283 102.04 110.705 99.4293C110.328 99.0472 108.034 97.5085 107.426 97.0747C107.014 96.1334 107.434 95.2392 107.693 94.0833Z" fill="white"/>
<path d="M104.174 89.6927C104.278 89.1244 104.369 88.5425 104.465 87.9716L105.131 87.5947C106.506 89.3811 108.272 90.7846 110.428 91.523L111.116 91.7667L111.929 92.8218L111.852 93.3565C109.218 93.8763 110.221 92.8696 108.266 94.5002L107.692 94.0825C106.972 92.8916 105.132 90.8305 104.174 89.6927Z" fill="white"/>
<path d="M127.217 72.6186C126.896 71.107 126.595 69.2237 125.853 67.8738C125.144 66.584 124.16 67.813 123.268 66.4133C123.737 65.9685 124.776 66.0228 125.474 65.9821C126.299 64.9225 125.238 64.7337 125.925 63.4792L126.641 63.5526C127.97 65.666 125.353 70.7101 130.271 71.5939C130.674 71.8628 131.157 72.1531 131.477 72.5067C128.642 72.4091 128.448 73.6052 125.958 74.2711C126.029 73.5366 126.584 73.2386 127.217 72.6186Z" fill="white"/>
<path d="M127.268 86.8125C126.857 78.7214 121.646 81.9307 118.05 80.5879L118.034 80.1192C119.546 79.0569 124.523 79.5405 125.939 80.8963C127.243 82.1434 127.605 83.6284 127.757 85.3411L127.268 86.8125Z" fill="white"/>
<path d="M110.923 85.6891C110.096 84.7879 109.948 85.7493 109.181 83.8834C109.572 82.2859 111.845 82.3214 113.204 82.6059C113.167 83.6959 112.238 83.6455 111.841 84.9631L111.805 85.0853L111.447 84.7252L110.923 85.6891Z" fill="#360584"/>
<path d="M110.919 85.6888L111.442 84.7249L111.801 85.085C111.717 86.4355 111.928 91.0614 111.113 91.7667L110.425 91.523C110.29 89.6022 110.424 87.5508 110.919 85.6888Z" fill="white"/>
<path d="M119.385 92.0031C120.776 93.3271 123.805 93.7583 125.732 93.4176C126.166 93.3407 127.398 92.0968 127.796 91.6953C128.421 92.3677 128.577 92.5015 128.692 93.3944C127.021 95.6003 121.126 94.5923 119.116 92.9961L119.072 92.6909L119.385 92.0031Z" fill="white"/>
<path d="M116.887 88.3847L116.95 87.0328L117.206 86.8958C118.037 88.8928 118.186 90.2208 119.386 92.0032L119.074 92.6911L119.117 92.9963C118.525 93.0932 117.781 93.0079 117.169 92.964C115.477 91.8487 116.264 90.001 116.887 88.3847Z" fill="#360584"/>
<path d="M116.883 88.3847L116.946 87.0328L117.202 86.8958C118.032 88.8928 118.182 90.2208 119.382 92.0032L119.069 92.6911C118.05 91.6399 117.417 89.7656 116.883 88.3847Z" fill="white"/>
<path d="M120.558 57.8647C124.591 52.5013 131.22 53.9641 135.371 58.4376C142.811 49.8999 147.507 57.5466 154.239 58.3044C155.677 59.632 158.746 62.5565 158.334 64.6349C157.796 64.8821 156.882 66.5974 157.095 67.123L156.937 68.2414L156.303 68.789C156 68.0242 155.609 67.1585 155.578 66.3226C155.562 65.8726 156.675 63.4025 156.529 63.1363C155.62 61.4675 154.249 59.4633 152.127 59.5156C151.561 59.9315 151.548 60.173 151.375 60.867C149.652 60.5228 148.732 57.7932 147.138 56.9788C142.991 54.8596 137.482 56.5626 136.788 61.5669C136.466 63.8855 136.233 69.7672 137.021 71.5885L137.065 73.2933C136.657 75.1074 136.32 84.1819 136.983 85.6767L137.688 86.0672L137.896 86.3639L137.186 86.7279L137.323 87.3861C137.154 87.5826 136.942 87.8302 136.687 88.1276C136.362 91.9595 136.522 95.8328 136.609 99.6867C136.657 101.79 137.615 103.828 139.15 105.272C141.712 107.682 146.43 106.28 148.827 104.161L151.473 101.354C155.288 103.716 156.292 101.951 157.777 98.4337C158.975 97.1317 160.143 96.6584 161.692 95.8755L162.005 96.619C161.787 97.0289 161.756 97.1174 161.372 97.3728L161.599 97.6521C156.62 100.173 158.849 103.806 153.077 103.916C148.641 104 146.055 110.954 138.252 106.944C136.575 107.188 133.895 106.784 132.138 106.595C127.364 109.417 121.857 107.472 118.636 103.27L119.283 102.082C121.889 104.795 128.223 108.235 131.258 105.287C133.76 102.859 133.1 91.4992 133.241 87.8011C131.415 87.5794 128.582 87.8225 127.27 86.8126L127.758 85.3411C129.081 86.1506 131.243 85.8571 132.812 85.826C132.887 82.4803 133.239 79.0124 133.065 75.6712C132.958 73.6237 132.81 73.6845 131.486 72.5065C131.167 72.1529 130.683 71.8626 130.28 71.5936C130.758 71.2956 132.708 71.3706 133.391 71.3648C133.48 67.8606 134.174 60.9983 132.231 58.1524C129.505 54.1595 124.12 57.0208 121.067 59.1638C120.489 59.3445 120.05 59.5631 119.511 59.3124C119.894 58.6877 120.083 58.4211 120.558 57.8647Z" fill="white"/>
<path d="M132.13 106.595C133.471 105.346 133.751 104.857 134.694 103.282C135.949 104.763 136.707 105.726 138.243 106.945C136.566 107.188 133.886 106.785 132.13 106.595Z" fill="#360584"/>
<path d="M157.091 67.1231C156.877 66.5975 157.791 64.8823 158.329 64.635C161.399 67.2919 164.825 69.6678 164.926 74.2251C164.467 75.8065 166.618 78.1999 166.887 78.7824C167.608 80.3411 166.732 90.1973 165.442 90.8942C160.307 93.6684 163.346 95.8142 162.454 97.4105L161.594 97.6523L161.367 97.373C161.752 97.1176 161.782 97.029 162 96.6191L161.687 95.8756C161.652 95.4761 161.521 94.8147 161.452 94.3951C160.701 93.6936 160.941 93.8895 159.741 93.8533C155.077 93.2327 159.553 88.9864 157.138 83.2298L157.605 83.1806C161.618 84.6385 157.755 90.7345 158.932 92.8693C163.478 93.3562 168.846 79.63 164.139 78.4262C163.315 78.9033 162.9 80.0709 162.46 80.9696L162.175 81.0543C161.707 79.297 162.907 77.7228 163.797 76.2765C163.771 76.1291 163.743 75.9823 163.714 75.8356C163.196 73.2592 160.427 66.3919 157.091 67.1231Z" fill="white"/>
<path d="M144.391 80.5136C146.256 80.085 149.047 79.2781 150.811 80.2512C149.944 80.9649 146.194 80.727 145.247 81.4084C141.833 83.8632 143.616 89.1052 137.326 87.3861L137.189 86.728L137.9 86.364L137.691 86.0672C139.041 85.9521 140.627 86.0821 141.629 85.3819C142.408 84.4277 142.462 83.3648 142.748 82.1707L144.391 80.5136Z" fill="white"/>
<path d="M137.023 71.5884C144.802 72.4948 141.837 64.9305 143.877 64.0063C145.902 67.064 143.173 67.8004 141.974 71.1229C142.641 71.7299 144.213 72.9648 144.343 73.7419L144.154 74.3613C143.309 74.4369 142.685 73.826 141.972 73.2318C141.705 73.0075 141.44 72.7805 141.176 72.551C139.554 72.7586 138.632 73.2758 137.067 73.2932L137.023 71.5884Z" fill="white"/>
<path d="M148.821 104.161C149.484 101.774 147.928 100.911 148.274 99.7429C150.3 99.2127 153.464 100.764 155.296 101.254C156.04 99.5657 156.22 99.1856 157.657 98.0503L157.77 98.4337C156.286 101.951 155.281 103.716 151.466 101.354L148.821 104.161Z" fill="#360584"/>
<path d="M156.93 68.2417C157.551 72.0904 158.729 75.4077 153.866 76.9477C153.142 77.1765 150.942 76.5229 150.304 76.0497C149.741 74.9435 149.679 74.7198 149.663 73.4752L149.944 73.0195L150.191 73.1384C152.262 79.3708 158.119 75.5053 156.295 68.7893L156.93 68.2417Z" fill="white"/>
<path d="M159.734 93.8538C160.935 93.89 160.694 93.6941 161.446 94.3955C161.514 94.8151 161.646 95.4765 161.68 95.8761C160.132 96.659 158.964 97.1322 157.765 98.4343L157.652 98.0509C157.807 94.4389 159.483 95.0026 159.734 93.8538Z" fill="#360584"/>
<path d="M140.909 94.8536C140.759 93.7345 140.532 92.521 140.687 91.4167C140.855 91.5396 141.023 91.6611 141.194 91.7801C144.29 93.9362 145.532 93.8056 149.266 93.1352L149.817 93.6867C147.959 94.7528 143.293 94.7159 140.909 94.8536Z" fill="white"/>
<path d="M152.065 90.0959C152.023 88.8888 151.813 87.365 152.456 86.3984L152.908 86.4889C154.054 89.3065 151.668 91.9339 149.821 93.6866L149.27 93.1351C150.471 91.9934 151.047 91.3954 152.065 90.0959Z" fill="white"/>
<path d="M39.1286 47.6221C42.3236 47.3968 46.649 47.5045 49.8841 47.5727C63.971 47.8701 78.6155 46.9631 92.6325 47.9212C88.6703 55.148 86.8973 56.1746 83.7621 65.0938C82.9202 67.7018 82.4479 69.7998 81.8566 72.4854C77.6611 72.5184 40.9445 72.6703 39.4186 71.9805C39.0369 71.8078 38.9761 71.5583 38.8713 71.1917C38.1766 68.7615 38.3354 49.031 39.1286 47.6221Z" fill="#360584"/>
<path d="M563.346 117.743C550.666 116.028 540.887 108.299 535.431 96.7395C534.826 95.4568 533.3 92.6949 534.274 91.5046C536.877 90.4838 550.346 90.9325 553.797 91.0534C555.202 93.8411 556.529 97.0698 558.233 99.5699C563.582 107.417 572.129 111.276 581.516 111.134C582.938 111.113 586.215 110.605 587.024 111.049L587.169 111.639C586.238 113.626 580.672 115.782 578.635 116.587C573.099 118.105 568.962 118.572 563.346 117.743Z" fill="#360584"/>
<path d="M563.343 117.743C563.916 117.567 564.693 116.854 565.065 116.791C568.488 116.212 575.611 115.258 578.633 116.587C573.097 118.105 568.96 118.572 563.343 117.743Z" fill="#360584"/>
<path d="M582.588 65.2354C589.422 65.1772 593.871 68.3122 595.98 75.1323C596.369 76.3878 596.428 77.8709 595.732 79.0359C591.096 82.211 592.155 69.8451 584.478 69.7701C578.784 69.7145 575.017 71.3295 574.041 77.5709C573.052 83.8939 579.222 87.9617 582.81 91.8564C584.052 93.2373 585.21 96.413 586.748 98.306C586.959 98.4359 587.177 98.5549 587.401 98.6635C590.359 100.069 591.654 95.8512 594.537 94.8232C595.729 95.0023 596.065 96.2106 596.056 97.1908C596 103.161 588.06 105.604 583.776 102.075C581.136 99.8977 580.562 96.0574 578.97 94.3513C574.372 89.4235 570.155 87.0644 569.529 79.6488C569.233 76.0465 570.411 72.4783 572.794 69.7604C575.683 66.4056 578.448 65.5432 582.588 65.2354Z" fill="#360584"/>
<path d="M568.334 63.7495C568.598 63.9179 569.479 64.504 569.616 64.6575C571.978 67.3037 567.078 71.8397 566.567 76.9969C565.905 83.6787 570.538 88.2024 570.613 91.4563C570.425 92.5088 569.83 92.8392 568.995 93.4902C564.016 92.717 562.005 82.8059 562.147 78.5402C562.351 72.3769 563.948 68.1384 568.334 63.7495Z" fill="#360584"/>
<path d="M581.495 73.635C583.012 74.0856 583.49 73.9977 585.073 73.8128C588.632 76.6103 589.75 80.6775 585.362 83.2978C579.508 84.342 578.415 81.9279 578.294 76.8495C579.507 75.2319 579.967 74.8595 581.495 73.635Z" fill="#360584"/>
<path d="M266.995 94.738C263.73 89.3293 263.584 78.537 264.788 72.5548C270.121 46.0262 292.8 26.9031 320.467 29.9769C325.148 30.497 333.839 31.9598 336.694 35.5194C318.875 27.673 298.139 30.6956 283.3 43.3024C268.462 55.9093 262.13 75.885 266.995 94.738Z" fill="#360584"/>
<circle cx="316.445" cy="82" r="52" fill="white"/>
</svg>
