<svg width="801" height="801" viewBox="0 0 801 801" fill="none" xmlns="http://www.w3.org/2000/svg">
<path d="M88.3544 390.059C89.6287 394.724 90.4798 399.549 91.3875 404.303C94.7171 406.858 96.5075 408.389 100.772 408.991L101.972 410.064L101.953 411.056C100.921 411.73 100.29 412.134 99.1784 412.664C95.6723 414.382 91.9285 418.597 90.4821 422.084C86.3263 420.815 86.5617 417.921 83.2185 415.172C81.6273 413.863 78.3837 412.797 77.209 411.322C79.4747 407.524 86.109 407.102 87.0484 401.721C87.9538 397.067 88.1529 394.811 88.3544 390.059Z" fill="#360584"/>
<path d="M100.773 408.991C104.976 409.415 111.989 409.768 115.751 410.587C112.53 410.897 107.982 411.213 104.881 411.716C102.996 412.008 101.045 412.278 99.1797 412.664C100.291 412.134 100.923 411.73 101.955 411.056L101.973 410.064L100.773 408.991Z" fill="#360584"/>
<path d="M304.443 395.62C333.105 395.174 340.815 429.633 327.227 449.823C322.691 456.56 315.145 459.286 307.376 460.347C285.629 461.101 275.549 443.157 277.645 423.607C279.366 407.548 288.053 397.291 304.443 395.62Z" fill="white"/>
<path d="M303.813 406.327C325.525 404.95 327.63 443.992 308.254 450.293C297.754 450.638 292.269 445.107 290.524 434.925C288.575 423.549 290.434 408.773 303.813 406.327Z" fill="#360584"/>
<path d="M343.165 396.615C357.785 397.121 385.657 391.612 383.896 415.797C383.514 421.049 376.5 426.055 376.5 426.055C376.5 426.055 392.158 429.307 384.245 449.59C375.352 462.326 357.162 459.395 343.156 459.257L343.165 396.615Z" fill="white"/>
<path d="M355.036 431.06C365.905 431.036 379.636 432.244 371.109 447.171C365.851 450.124 360.946 449.791 355.124 449.793L355.036 431.06Z" fill="#360584"/>
<path d="M355.036 406.582C364.355 406.434 375.84 406.671 369.885 419.797C365.774 422.817 360.02 422.128 355.038 422.067L355.036 406.582Z" fill="#360584"/>
<path d="M481.849 474.728C515.312 472.73 516.372 522.654 488.535 527.647C455.309 530.111 453.838 480.857 481.849 474.728Z" fill="white"/>
<path d="M481.949 482.031C503.771 480.345 505.917 513.263 488.669 520.579C468.23 524.284 463.39 490.306 481.949 482.031Z" fill="#360584"/>
<path d="M218.13 475.408C228.13 475.581 241.657 474.318 249.606 480.982C260.976 490.514 259.824 509.034 251.347 519.808C241.711 528.422 230.437 526.842 218.116 526.743C218.03 509.631 218.035 492.52 218.13 475.408Z" fill="white"/>
<path d="M225.827 482.154C231.604 482.599 238.765 482.194 243.333 486.172C251.724 493.481 251.176 507.308 244.492 515.45C238.788 520.719 232.778 520.085 225.531 520.091C225.816 510.022 224.806 491.056 225.827 482.154Z" fill="#360584"/>
<path d="M412.149 396.562C416.635 396.458 421.474 396.548 425.992 396.544C426.794 400.396 431.524 413.295 433.1 417.751C437.962 431.504 442.683 445.685 447.776 459.31C443.489 459.23 438.987 459.301 434.682 459.299C433.331 454.556 431.963 449.682 430.327 445.015C429.666 443.129 429.397 443.095 427.67 442.885C421.253 442.984 414.537 442.873 408.097 442.853C406.438 448.304 404.849 453.777 403.328 459.269L390.772 459.273C397.819 438.398 405.318 417.485 412.149 396.562Z" fill="white"/>
<path d="M418.528 408.779C419.735 409.69 426.047 430.485 426.948 433.308L418.435 433.303L410.941 433.352C413.653 426.214 416.697 416.215 418.528 408.779Z" fill="#360584"/>
<path d="M208.064 395.625C215.667 395.789 218.344 396.266 225.3 399.208C225.056 402.684 225.015 406.478 224.911 409.988C219.539 407.83 215.723 406.829 209.881 406.503C184.206 405.072 183.724 450.396 208.98 450.285C218.682 450.242 215.988 440.896 215.839 433.688L204.879 433.859C204.682 430.665 204.734 426.923 204.7 423.683L219.553 423.658L227.247 423.693L227.258 456.084C205.465 464.396 180.578 460.912 177.783 432.265C175.834 412.313 187.027 397.181 208.064 395.625Z" fill="white"/>
<path d="M539.918 396.562L576.924 396.527L576.874 407.169C568.561 407.027 560.247 406.966 551.935 406.986C551.698 411.905 551.854 417.209 551.913 422.164C559.063 422.322 566.974 422.105 574.181 422.043L574.405 432.067C568.576 432.018 557.97 431.679 552.608 432.24C551.569 433.398 551.845 434.32 551.716 436.137C551.587 440.016 551.827 445.137 551.897 449.106C559.896 449.075 569.004 449.209 576.899 448.622L576.949 459.258C564.808 459.429 552.175 459.277 540 459.279L539.918 396.562Z" fill="white"/>
<path d="M609.661 396.078C618.939 395.201 622.52 395.837 631.106 399.101C630.608 403.218 630.63 406.069 630.651 410.217L629.935 409.884C623.647 406.988 616.323 405.115 609.673 407.621C593.624 413.671 593.292 441.999 609.184 448.539C616.637 451.607 622.464 449.631 629.351 446.872L630.307 446.668C631.216 448.177 630.814 454.552 630.823 457.002C628.935 457.851 626.986 458.556 624.992 459.109C591.553 468.143 573.932 432.314 591.526 406.743C595.587 400.84 602.846 397.811 609.661 396.078Z" fill="white"/>
<path d="M488.033 396.578L532.18 396.54L532.133 407.261L515.609 407.233C515.478 419.125 515.609 431.206 515.63 443.112L515.618 459.286L503.282 459.237L503.305 407.284L488.079 407.321L488.033 396.578Z" fill="white"/>
<path d="M549.877 475.402L556.317 475.523C556.491 492.518 556.31 509.743 556.258 526.756L549.001 526.975C542.304 514.425 531.536 499.917 524.11 486.128C524.361 491.216 525.004 524.356 523.628 526.723C521.724 526.808 518.949 527.195 517.509 526.142C517.394 525.531 517.174 524.364 517.179 523.774C517.303 507.758 516.794 491.534 517.446 475.541L525.259 475.497C530.683 485.281 538.127 494.827 543.614 504.68C545.556 508.166 547.582 511.883 549.717 515.235C549.624 508.318 548.7 480.411 549.877 475.402Z" fill="white"/>
<path d="M371.36 475.64L379.948 475.6C385.713 492.838 392.094 509.855 397.723 527.066C395.129 526.724 391.87 526.899 389.206 526.961C387.698 522.489 387.119 516.514 383.995 513.5C382.997 512.537 380.152 512.835 378.703 512.887C374.543 512.857 370.55 512.824 366.392 512.615C365.289 516.92 363.25 522.66 361.849 526.997L353.685 526.679C355.93 521.517 358.578 513.093 360.466 507.603C364.165 496.972 367.795 486.317 371.36 475.64Z" fill="white"/>
<path d="M375.176 485.145C376.752 486.358 381.523 502.969 382.517 506.119L376.924 506.099L368.411 506.041C370.799 499.12 373.055 492.154 375.176 485.145Z" fill="#360584"/>
<path d="M581.951 475.353L590.451 475.722C595.347 492.731 602.549 509.853 607.823 526.82L599.321 526.909L594.842 512.778L590.636 512.95C586.093 513.008 581.25 512.746 576.684 512.572C575.426 517.137 573.712 522.25 572.297 526.821L564 526.705C566.258 522.104 568.981 513.226 570.681 508.175C574.403 497.129 577.863 486.292 581.951 475.353Z" fill="white"/>
<path d="M585.497 484.628C586.475 485.355 591.896 503.35 592.754 506.036L586.224 506.143L578.856 505.833C581.058 500.149 583.646 490.722 585.497 484.628Z" fill="#360584"/>
<path d="M238.475 396.594L250.395 396.535L250.409 449.093C258.211 449.159 265.757 448.901 273.553 448.644L273.695 459.25L238.437 459.263L238.475 396.594Z" fill="white"/>
<path d="M454.514 396.614L466.551 396.546L466.603 449.097L489.743 449.114L489.838 459.324L454.596 459.266L454.514 396.614Z" fill="white"/>
<path d="M299.499 475.434L304.576 475.39C304.424 484.623 304.798 494.047 304.7 503.276C304.583 510.227 304.368 517.431 299.132 522.613C292.38 529.544 277.95 529.881 271.207 522.849C264.007 515.34 265.967 498.693 266.085 488.879C265.97 484.525 266.128 479.953 266.216 475.581L273.591 475.483C273.763 486.439 273.199 497.275 273.733 508.281C274.154 516.952 280.04 522.608 288.743 520.514C303.437 516.98 292.955 483.91 297.536 475.853L299.499 475.434Z" fill="white"/>
<path d="M179.845 475.644C185.884 475.594 196.332 475.241 202.029 475.691C204.021 475.543 206.115 475.081 207.618 476.244C209.196 478.593 208.976 479.193 208.1 481.909C207.862 481.982 207.179 482.225 206.989 482.2C200.741 482.604 193.845 482.465 187.543 482.466L187.575 497.181L205.694 497.116C205.73 499.416 205.841 500.97 205.293 503.214C202.425 504.305 191.271 503.695 187.523 503.579C187.462 509.017 187.557 514.592 187.588 520.042C191.004 520.021 206.115 519.369 208.227 520.521C208.555 521.743 208.625 525.943 208.204 526.06C203.17 527.467 183.93 526.79 179.829 526.787C179.729 509.739 179.734 492.691 179.845 475.644Z" fill="white"/>
<path d="M421.838 474.767C422.168 474.726 422.503 474.701 422.838 474.692C432.397 474.507 437.386 473.638 437.057 484.825C428.205 481.07 414.961 480.606 411.197 490.244C402.924 511.436 414.422 525.129 435.502 518.868L436.453 518.42L437.087 519.295C437.15 520.456 437.424 523.86 436.743 524.516C431.326 529.755 416.005 528.302 410.434 523.818C392.958 509.744 398.039 478.711 421.838 474.767Z" fill="white"/>
<path d="M333.691 474.771C339.612 474.411 342.917 474.913 348.506 476.781L348.275 484.972C313.125 468.362 308.673 531.454 346.505 518.774C347.451 518.122 347.01 518.229 348.171 518.389C348.87 520.264 348.393 523.448 348.221 525.56C339.651 528.292 330.362 529.293 322.482 523.935C310.502 515.788 309.345 496.091 316.98 484.69C321.004 478.682 326.797 476.015 333.691 474.771Z" fill="white"/>
<path d="M614.343 475.353L622.016 475.644C621.466 489.601 621.835 506.151 621.882 520.26C625.782 519.931 636.81 519.712 640.242 520.299C641.319 521.565 641.117 523.831 641.17 525.593L640.728 526.3C638.408 527.028 617.711 526.843 614.218 526.854C614.191 510.053 613.861 492.056 614.343 475.353Z" fill="white"/>
<path d="M446.001 475.635L453.539 475.618C453.631 489.426 454.34 513.626 453.382 526.722L446.132 526.737C445.632 522.066 445.929 512.927 445.924 507.93C445.917 497.33 445.603 486.18 446.001 475.635Z" fill="white"/>
<path d="M444.291 187.007L440.063 192.292L442.498 194.553L444.291 187.007Z" fill="white"/>
<path fill-rule="evenodd" clip-rule="evenodd" d="M387.939 140.449C447.101 135.883 498.786 180.085 503.454 239.238C508.124 298.391 464.013 350.155 404.868 354.926C345.576 359.71 293.658 315.465 288.977 256.167C284.297 196.867 328.631 145.026 387.939 140.449ZM455.498 303.798V240.002H401.815V259.002H436.498V294.467C425.976 301.764 413.162 306.053 399.304 306.053C363.414 306.053 334.498 277.302 334.498 242.053C334.498 206.804 363.414 178.053 399.304 178.053C414.768 178.053 428.935 183.39 440.063 192.292L444.291 187.007L447.37 174.053C433.756 164.599 417.169 159.053 399.304 159.053C353.117 159.053 315.498 196.116 315.498 242.053C315.498 287.99 353.117 325.053 399.304 325.053C419.217 325.053 437.541 318.163 451.932 306.651L455.498 303.798ZM456.724 199.539L455.998 196.553L455.257 199.598C453.872 205.292 449.3 209.658 443.549 210.777L436.998 212.053L443.548 213.328C449.3 214.448 453.873 218.814 455.257 224.507L455.998 227.553L456.724 224.566C458.116 218.842 462.728 214.463 468.517 213.371L475.498 212.053L468.516 210.735C462.728 209.642 458.116 205.263 456.724 199.539Z" fill="white"/>
</svg>
