<svg width="286" height="484" viewBox="0 0 286 484" fill="none" xmlns="http://www.w3.org/2000/svg">
<path d="M0.222168 395.057V0.222168H51.1263C73.5841 0.222163 84.0643 20.3948 84.0643 33.1256C84.0643 73.6726 85.5615 151.676 85.5615 151.277C121.456 119.92 142.454 107.352 178.387 107.352C255.275 107.352 276.561 177.98 276.203 178.696C231.886 183.083 203.506 203.789 194.856 213.593C174.893 171.218 136.466 184.18 137.464 182.684C98.3375 186.672 85.5615 221.237 84.0643 238.021C84.5634 280.894 85.2621 366.741 84.0643 367.14C78.8741 391.069 56.616 395.722 46.1357 395.057H0.222168Z" fill="white"/>
<path d="M142.953 200.133C111.413 202.526 101.531 227.054 100.533 239.018C100.367 309.975 99.9345 451.89 99.5352 451.89C111.014 482.3 137.963 482.798 139.46 483.297C173.895 485.79 182.878 452.887 183.377 451.89C181.88 392.066 187.37 333.738 187.37 334.237C197.351 283.886 247.756 289.369 248.754 288.871C276.302 282.49 284.687 257.962 284.687 246.496C284.853 229.214 285.086 194.947 284.687 196.143C248.754 199.134 237.775 205.617 237.276 205.118C211.325 212.297 190.364 241.013 182.878 253.974C183.211 248.989 183.677 239.018 182.878 239.018C178.886 197.142 142.953 200.632 142.953 200.133Z" fill="white"/>
<path d="M252.248 299.34C263.826 300.536 278.698 291.53 284.687 286.877C284.354 323.436 283.888 396.354 284.687 395.556C257.737 398.049 229.291 396.055 228.792 395.556C197.651 387.181 198.516 351.187 202.841 334.237C208.33 300.836 252.248 298.841 252.248 299.34Z" fill="white"/>
<path d="M0.222168 395.057V0.222168H51.1263C73.5841 0.222163 84.0643 20.3948 84.0643 33.1256C84.0643 73.6726 85.5615 151.676 85.5615 151.277C121.456 119.92 142.454 107.352 178.387 107.352C255.275 107.352 276.561 177.98 276.203 178.696C231.886 183.083 203.506 203.789 194.856 213.593C174.893 171.218 136.466 184.18 137.464 182.684C98.3375 186.672 85.5615 221.237 84.0643 238.021C84.5634 280.894 85.2621 366.741 84.0643 367.14C78.8741 391.069 56.616 395.722 46.1357 395.057H0.222168Z" stroke="white" stroke-width="0.444126"/>
<path d="M142.953 200.133C111.413 202.526 101.531 227.054 100.533 239.018C100.367 309.975 99.9345 451.89 99.5352 451.89C111.014 482.3 137.963 482.798 139.46 483.297C173.895 485.79 182.878 452.887 183.377 451.89C181.88 392.066 187.37 333.738 187.37 334.237C197.351 283.886 247.756 289.369 248.754 288.871C276.302 282.49 284.687 257.962 284.687 246.496C284.853 229.214 285.086 194.947 284.687 196.143C248.754 199.134 237.775 205.617 237.276 205.118C211.325 212.297 190.364 241.013 182.878 253.974C183.211 248.989 183.677 239.018 182.878 239.018C178.886 197.142 142.953 200.632 142.953 200.133Z" stroke="white" stroke-width="0.444126"/>
<path d="M252.248 299.34C263.826 300.536 278.698 291.53 284.687 286.877C284.354 323.436 283.888 396.354 284.687 395.556C257.737 398.049 229.291 396.055 228.792 395.556C197.651 387.181 198.516 351.187 202.841 334.237C208.33 300.836 252.248 298.841 252.248 299.34Z" stroke="white" stroke-width="0.444126"/>
</svg>
