<svg width="1203" height="1157" viewBox="0 0 1203 1157" fill="none" xmlns="http://www.w3.org/2000/svg">
<path d="M350.203 726.778V720.722C350.203 720.302 350.371 719.924 350.707 719.587C351.044 719.167 351.464 718.956 351.969 718.956H376.189V651.593H351.969C350.791 651.593 350.203 651.004 350.203 649.827V643.771C350.203 642.594 350.791 642.005 351.969 642.005H409.871C411.049 642.005 411.637 642.594 411.637 643.771V649.827C411.637 651.004 411.049 651.593 409.871 651.593H385.777L385.777 718.956H409.871C410.376 718.956 410.796 719.167 411.133 719.587C411.469 719.924 411.637 720.302 411.637 720.722V726.778C411.637 727.955 411.049 728.544 409.871 728.544H351.969C350.791 728.544 350.203 727.955 350.203 726.778ZM491.776 726.778V690.573L445.984 652.728L445.984 726.778C445.984 727.955 445.395 728.544 444.218 728.544H438.162C437.742 728.544 437.321 728.376 436.901 728.039C436.564 727.703 436.396 727.282 436.396 726.778V643.771C436.396 643.267 436.564 642.846 436.901 642.51C437.321 642.173 437.742 642.005 438.162 642.005H446.614C447.792 642.005 448.843 642.384 449.768 643.141L491.776 677.832L491.776 643.771C491.776 642.594 492.365 642.005 493.542 642.005H499.597C500.774 642.005 501.363 642.594 501.363 643.771V726.778C501.363 727.955 500.774 728.544 499.597 728.544H493.542C492.365 728.544 491.776 727.955 491.776 726.778ZM589.323 666.226C589.323 667.403 588.734 667.992 587.557 667.992H581.502C580.324 667.992 579.735 667.403 579.735 666.226V660.297C579.651 657.858 578.768 655.798 577.086 654.116C575.404 652.434 573.344 651.593 570.905 651.593H542.774C540.335 651.593 538.232 652.476 536.466 654.242C534.784 655.924 533.943 657.984 533.943 660.423V710.126C533.943 712.565 534.784 714.667 536.466 716.433C538.232 718.115 540.335 718.956 542.774 718.956H570.905C573.344 718.956 575.404 718.157 577.086 716.56C578.768 714.878 579.651 712.817 579.735 710.378V704.323C579.735 703.903 579.904 703.524 580.24 703.188C580.576 702.767 580.997 702.557 581.502 702.557H587.557C588.061 702.557 588.482 702.767 588.818 703.188C589.155 703.524 589.323 703.903 589.323 704.323V710.378C589.323 712.901 588.818 715.256 587.809 717.443C586.8 719.629 585.454 721.563 583.772 723.245C582.174 724.843 580.24 726.147 577.969 727.156C575.783 728.081 573.428 728.544 570.905 728.544H542.774C540.251 728.544 537.854 728.081 535.583 727.156C533.397 726.147 531.462 724.843 529.78 723.245C528.182 721.563 526.879 719.587 525.87 717.316C524.945 715.046 524.482 712.649 524.482 710.126L524.482 660.423C524.482 657.9 524.945 655.545 525.87 653.359C526.879 651.088 528.182 649.112 529.78 647.43C531.462 645.748 533.397 644.444 535.583 643.519C537.854 642.51 540.251 642.005 542.774 642.005H570.905C573.428 642.005 575.783 642.51 577.969 643.519C580.24 644.444 582.174 645.748 583.772 647.43C585.454 649.028 586.8 650.962 587.809 653.233C588.818 655.419 589.323 657.774 589.323 660.297V666.226ZM630.733 728.544C628.21 728.544 625.814 728.081 623.543 727.156C621.356 726.147 619.422 724.843 617.74 723.245C616.142 721.563 614.839 719.587 613.829 717.316C612.904 715.046 612.442 712.649 612.442 710.126V660.423C612.442 657.9 612.904 655.545 613.829 653.359C614.839 651.088 616.142 649.112 617.74 647.43C619.422 645.748 621.356 644.444 623.543 643.519C625.814 642.51 628.21 642.005 630.733 642.005H658.865C661.388 642.005 663.742 642.51 665.929 643.519C668.2 644.444 670.176 645.748 671.858 647.43C673.54 649.112 674.844 651.088 675.769 653.359C676.778 655.545 677.282 657.9 677.282 660.423V710.126C677.282 712.649 676.778 715.046 675.769 717.316C674.844 719.587 673.54 721.563 671.858 723.245C670.176 724.843 668.2 726.147 665.929 727.156C663.742 728.081 661.388 728.544 658.865 728.544H630.733ZM630.733 651.593C628.294 651.593 626.192 652.476 624.426 654.242C622.744 655.924 621.903 657.984 621.903 660.423V710.126C621.903 712.565 622.744 714.667 624.426 716.433C626.192 718.115 628.294 718.956 630.733 718.956H658.865C661.304 718.956 663.364 718.115 665.046 716.433C666.812 714.667 667.695 712.565 667.695 710.126V660.423C667.695 657.984 666.812 655.924 665.046 654.242C663.364 652.476 661.304 651.593 658.865 651.593H630.733ZM700.275 726.778L700.275 643.771C700.275 643.351 700.443 642.972 700.78 642.636C701.2 642.216 701.621 642.005 702.041 642.005H746.824C749.347 642.005 751.702 642.51 753.889 643.519C756.159 644.444 758.136 645.748 759.818 647.43C761.5 649.112 762.803 651.088 763.728 653.359C764.738 655.545 765.242 657.9 765.242 660.423V710.126C765.242 712.649 764.738 715.046 763.728 717.316C762.803 719.587 761.5 721.563 759.818 723.245C758.136 724.843 756.159 726.147 753.889 727.156C751.702 728.081 749.347 728.544 746.824 728.544H702.041C701.621 728.544 701.2 728.376 700.78 728.039C700.443 727.703 700.275 727.282 700.275 726.778ZM709.863 718.956H746.824C749.263 718.956 751.324 718.115 753.006 716.433C754.772 714.667 755.655 712.565 755.655 710.126V660.423C755.655 657.984 754.772 655.924 753.006 654.242C751.324 652.476 749.263 651.593 746.824 651.593H709.863V718.956ZM790.253 726.778L790.253 643.771C790.253 642.594 790.842 642.005 792.019 642.005H850.805C851.982 642.005 852.571 642.594 852.571 643.771V649.827C852.571 651.004 851.982 651.593 850.805 651.593L799.714 651.593V680.481H843.993C844.413 680.481 844.792 680.691 845.128 681.112C845.549 681.448 845.759 681.826 845.759 682.247V688.302C845.759 688.807 845.549 689.227 845.128 689.564C844.792 689.9 844.413 690.068 843.993 690.068H799.714V718.956H850.805C851.309 718.956 851.73 719.167 852.066 719.587C852.403 719.924 852.571 720.302 852.571 720.722V726.778C852.571 727.955 851.982 728.544 850.805 728.544H792.019C790.842 728.544 790.253 727.955 790.253 726.778Z" fill="white"/>
<path d="M359.767 823.509V779.796H344.731C344.047 779.796 343.705 779.454 343.705 778.77V775.249C343.705 774.565 344.047 774.222 344.731 774.222H380.376C381.06 774.222 381.403 774.565 381.403 775.249V778.77C381.403 779.454 381.06 779.796 380.376 779.796H365.341V823.509C365.341 823.802 365.218 824.046 364.974 824.242C364.778 824.438 364.558 824.535 364.314 824.535H360.793C360.109 824.535 359.767 824.193 359.767 823.509ZM395.944 823.509V775.249C395.944 774.565 396.286 774.222 396.971 774.222H431.148C431.833 774.222 432.175 774.565 432.175 775.249V778.77C432.175 779.454 431.833 779.796 431.148 779.796H401.445V796.592H427.188C427.432 796.592 427.652 796.714 427.848 796.958C428.093 797.154 428.215 797.374 428.215 797.619V801.139C428.215 801.432 428.093 801.677 427.848 801.872C427.652 802.068 427.432 802.166 427.188 802.166H401.445V818.961H431.148C431.442 818.961 431.686 819.084 431.882 819.328C432.077 819.524 432.175 819.744 432.175 819.988V823.509C432.175 824.193 431.833 824.535 431.148 824.535H396.971C396.286 824.535 395.944 824.193 395.944 823.509ZM483.61 788.304C483.61 788.989 483.267 789.331 482.583 789.331H479.062C478.378 789.331 478.036 788.989 478.036 788.304V784.857C477.987 783.439 477.473 782.241 476.495 781.263C475.518 780.285 474.32 779.796 472.902 779.796H456.546C455.128 779.796 453.906 780.31 452.879 781.336C451.901 782.314 451.412 783.512 451.412 784.93V813.827C451.412 815.245 451.901 816.468 452.879 817.494C453.906 818.472 455.128 818.961 456.546 818.961H472.902C474.32 818.961 475.518 818.497 476.495 817.568C477.473 816.59 477.987 815.392 478.036 813.974L478.036 810.454C478.036 810.209 478.133 809.989 478.329 809.793C478.525 809.549 478.769 809.427 479.062 809.427H482.583C482.876 809.427 483.121 809.549 483.316 809.793C483.512 809.989 483.61 810.209 483.61 810.454L483.61 813.974C483.61 815.441 483.316 816.81 482.73 818.081C482.143 819.352 481.361 820.477 480.383 821.455C479.454 822.384 478.329 823.142 477.009 823.729C475.738 824.266 474.369 824.535 472.902 824.535H456.546C455.079 824.535 453.686 824.266 452.366 823.729C451.094 823.142 449.97 822.384 448.992 821.455C448.063 820.477 447.305 819.328 446.718 818.008C446.18 816.688 445.912 815.294 445.912 813.827V784.93C445.912 783.463 446.18 782.094 446.718 780.823C447.305 779.503 448.063 778.354 448.992 777.376C449.97 776.398 451.094 775.64 452.366 775.102C453.686 774.516 455.079 774.222 456.546 774.222H472.902C474.369 774.222 475.738 774.516 477.009 775.102C478.329 775.64 479.454 776.398 480.383 777.376C481.361 778.305 482.143 779.43 482.73 780.75C483.316 782.021 483.61 783.39 483.61 784.857V788.304ZM529.175 823.509V802.166H502.552L502.552 823.509C502.552 824.193 502.209 824.535 501.525 824.535H498.078C497.393 824.535 497.051 824.193 497.051 823.509V775.249C497.051 774.565 497.393 774.222 498.078 774.222H501.525C502.209 774.222 502.552 774.565 502.552 775.249V796.592L529.175 796.592V775.249C529.175 774.565 529.517 774.222 530.202 774.222H533.722C534.407 774.222 534.749 774.565 534.749 775.249L534.749 823.509C534.749 824.193 534.407 824.535 533.722 824.535H530.202C529.517 824.535 529.175 824.193 529.175 823.509Z" fill="white"/>
<path d="M564.851 813.827V810.454C564.851 810.209 564.949 809.989 565.144 809.793C565.389 809.549 565.633 809.427 565.878 809.427H569.398C569.692 809.427 569.936 809.549 570.132 809.793C570.327 809.989 570.425 810.209 570.425 810.454V813.827C570.425 815.245 570.914 816.468 571.892 817.494C572.919 818.472 574.141 818.961 575.559 818.961H591.914C593.332 818.961 594.53 818.472 595.508 817.494C596.535 816.468 597.048 815.245 597.048 813.827V807.3C597.048 805.882 596.535 804.684 595.508 803.706C594.53 802.679 593.332 802.166 591.914 802.166H575.559C574.092 802.166 572.699 801.897 571.378 801.359C570.107 800.772 568.983 800.014 568.005 799.085C567.027 798.108 566.244 796.958 565.658 795.638C565.12 794.318 564.851 792.925 564.851 791.458V784.93C564.851 783.463 565.12 782.094 565.658 780.823C566.244 779.503 567.027 778.354 568.005 777.376C568.983 776.398 570.107 775.64 571.378 775.102C572.699 774.516 574.092 774.222 575.559 774.222H591.914C593.381 774.222 594.75 774.516 596.022 775.102C597.342 775.64 598.491 776.398 599.469 777.376C600.447 778.354 601.204 779.503 601.742 780.823C602.329 782.094 602.622 783.463 602.622 784.93V788.304C602.622 788.989 602.28 789.331 601.596 789.331H598.075C597.391 789.331 597.048 788.989 597.048 788.304V784.93C597.048 783.512 596.535 782.314 595.508 781.336C594.53 780.31 593.332 779.796 591.914 779.796H575.559C574.141 779.796 572.919 780.31 571.892 781.336C570.914 782.314 570.425 783.512 570.425 784.93V791.458C570.425 792.876 570.914 794.098 571.892 795.125C572.919 796.103 574.141 796.592 575.559 796.592H591.914C593.381 796.592 594.75 796.885 596.022 797.472C597.342 798.01 598.491 798.768 599.469 799.746C600.447 800.723 601.204 801.872 601.742 803.193C602.329 804.464 602.622 805.833 602.622 807.3V813.827C602.622 815.294 602.329 816.688 601.742 818.008C601.204 819.328 600.447 820.477 599.469 821.455C598.491 822.384 597.342 823.142 596.022 823.729C594.75 824.266 593.381 824.535 591.914 824.535H575.559C574.092 824.535 572.699 824.266 571.378 823.729C570.107 823.142 568.983 822.384 568.005 821.455C567.027 820.477 566.244 819.328 565.658 818.008C565.12 816.688 564.851 815.294 564.851 813.827ZM653.762 788.304C653.762 788.989 653.419 789.331 652.735 789.331H649.214C648.53 789.331 648.188 788.989 648.188 788.304V784.857C648.139 783.439 647.625 782.241 646.647 781.263C645.67 780.285 644.472 779.796 643.054 779.796H626.698C625.28 779.796 624.058 780.31 623.031 781.336C622.053 782.314 621.564 783.512 621.564 784.93V813.827C621.564 815.245 622.053 816.468 623.031 817.494C624.058 818.472 625.28 818.961 626.698 818.961H643.054C644.472 818.961 645.67 818.497 646.647 817.568C647.625 816.59 648.139 815.392 648.188 813.974V810.454C648.188 810.209 648.285 809.989 648.481 809.793C648.677 809.549 648.921 809.427 649.214 809.427H652.735C653.028 809.427 653.273 809.549 653.468 809.793C653.664 809.989 653.762 810.209 653.762 810.454V813.974C653.762 815.441 653.468 816.81 652.882 818.081C652.295 819.352 651.513 820.477 650.535 821.455C649.606 822.384 648.481 823.142 647.161 823.729C645.89 824.266 644.521 824.535 643.054 824.535H626.698C625.231 824.535 623.838 824.266 622.518 823.729C621.246 823.142 620.122 822.384 619.144 821.455C618.215 820.477 617.457 819.328 616.87 818.008C616.333 816.688 616.064 815.294 616.064 813.827V784.93C616.064 783.463 616.333 782.094 616.87 780.823C617.457 779.503 618.215 778.354 619.144 777.376C620.122 776.398 621.246 775.64 622.518 775.102C623.838 774.516 625.231 774.222 626.698 774.222H643.054C644.521 774.222 645.89 774.516 647.161 775.102C648.481 775.64 649.606 776.398 650.535 777.376C651.513 778.305 652.295 779.43 652.882 780.75C653.468 782.021 653.762 783.39 653.762 784.857V788.304ZM699.327 823.509V802.166H672.704V823.509C672.704 824.193 672.361 824.535 671.677 824.535H668.23C667.545 824.535 667.203 824.193 667.203 823.509V775.249C667.203 774.565 667.545 774.222 668.23 774.222H671.677C672.361 774.222 672.704 774.565 672.704 775.249V796.592H699.327V775.249C699.327 774.565 699.669 774.222 700.354 774.222H703.874C704.559 774.222 704.901 774.565 704.901 775.249L704.901 823.509C704.901 824.193 704.559 824.535 703.874 824.535H700.354C699.669 824.535 699.327 824.193 699.327 823.509ZM728.905 824.535C727.438 824.535 726.045 824.266 724.725 823.729C723.453 823.142 722.329 822.384 721.351 821.455C720.422 820.477 719.664 819.328 719.077 818.008C718.54 816.688 718.271 815.294 718.271 813.827V784.93C718.271 783.463 718.54 782.094 719.077 780.823C719.664 779.503 720.422 778.354 721.351 777.376C722.329 776.398 723.453 775.64 724.725 775.102C726.045 774.516 727.438 774.222 728.905 774.222H745.261C746.728 774.222 748.097 774.516 749.368 775.102C750.688 775.64 751.837 776.398 752.815 777.376C753.793 778.354 754.551 779.503 755.089 780.823C755.675 782.094 755.969 783.463 755.969 784.93L755.969 813.827C755.969 815.294 755.675 816.688 755.089 818.008C754.551 819.328 753.793 820.477 752.815 821.455C751.837 822.384 750.688 823.142 749.368 823.729C748.097 824.266 746.728 824.535 745.261 824.535H728.905ZM728.905 779.796C727.487 779.796 726.265 780.31 725.238 781.336C724.26 782.314 723.771 783.512 723.771 784.93V813.827C723.771 815.245 724.26 816.468 725.238 817.494C726.265 818.472 727.487 818.961 728.905 818.961H745.261C746.679 818.961 747.877 818.472 748.854 817.494C749.881 816.468 750.395 815.245 750.395 813.827V784.93C750.395 783.512 749.881 782.314 748.854 781.336C747.877 780.31 746.679 779.796 745.261 779.796H728.905ZM780.045 824.535C778.578 824.535 777.184 824.266 775.864 823.729C774.593 823.142 773.468 822.384 772.49 821.455C771.561 820.477 770.803 819.328 770.217 818.008C769.679 816.688 769.41 815.294 769.41 813.827V784.93C769.41 783.463 769.679 782.094 770.217 780.823C770.803 779.503 771.561 778.354 772.49 777.376C773.468 776.398 774.593 775.64 775.864 775.102C777.184 774.516 778.578 774.222 780.045 774.222H796.4C797.867 774.222 799.236 774.516 800.507 775.102C801.827 775.64 802.976 776.398 803.954 777.376C804.932 778.354 805.69 779.503 806.228 780.823C806.815 782.094 807.108 783.463 807.108 784.93L807.108 813.827C807.108 815.294 806.815 816.688 806.228 818.008C805.69 819.328 804.932 820.477 803.954 821.455C802.976 822.384 801.827 823.142 800.507 823.729C799.236 824.266 797.867 824.535 796.4 824.535L780.045 824.535ZM780.045 779.796C778.627 779.796 777.404 780.31 776.378 781.336C775.4 782.314 774.911 783.512 774.911 784.93V813.827C774.911 815.245 775.4 816.468 776.378 817.494C777.404 818.472 778.627 818.961 780.045 818.961H796.4C797.818 818.961 799.016 818.472 799.994 817.494C801.021 816.468 801.534 815.245 801.534 813.827V784.93C801.534 783.512 801.021 782.314 799.994 781.336C799.016 780.31 797.818 779.796 796.4 779.796H780.045ZM823.483 774.222H827.003C827.688 774.222 828.03 774.565 828.03 775.249V818.961H856.707C857.001 818.961 857.245 819.084 857.441 819.328C857.636 819.524 857.734 819.744 857.734 819.988V823.509C857.734 824.193 857.392 824.535 856.707 824.535H823.483C823.238 824.535 822.994 824.438 822.75 824.242C822.554 824.046 822.456 823.802 822.456 823.509V775.249C822.456 774.956 822.554 774.711 822.75 774.516C822.994 774.32 823.238 774.222 823.483 774.222Z" fill="white"/>
<path d="M334.137 433.352L400.412 586.988C402.077 590.848 405.878 593.349 410.083 593.349L717.599 593.349H793.226C797.43 593.349 801.232 590.848 802.897 586.988L869.172 433.352C870.332 430.663 870.32 427.612 869.139 424.933L802.923 274.664C801.239 270.844 797.459 268.379 793.284 268.379H722.635L410.019 268.379C405.845 268.379 402.069 270.844 400.386 274.664L334.17 424.933C332.989 427.612 332.977 430.663 334.137 433.352Z" fill="white"/>
<path d="M498.327 292.453L437.792 292.453C435.045 292.453 432.556 294.076 431.448 296.59L374.14 426.644C373.362 428.408 373.355 430.416 374.118 432.185L431.465 565.126C432.561 567.667 435.064 569.313 437.831 569.313H498.401C503.224 569.313 506.573 564.51 504.906 559.985L457.714 431.831C457.139 430.27 457.145 428.553 457.731 426.995L504.816 301.826C506.521 297.293 503.17 292.453 498.327 292.453Z" fill="#360584"/>
<rect x="562.535" y="292.452" width="79.7477" height="270.841" rx="6.93229" fill="#360584"/>
<path d="M706.471 292.452L767.006 292.452C769.753 292.452 772.242 294.075 773.349 296.589L830.658 426.644C831.435 428.408 831.443 430.415 830.68 432.185L773.332 565.126C772.236 567.667 769.734 569.312 766.967 569.312H706.397C701.574 569.312 698.225 564.51 699.891 559.984L747.083 431.831C747.659 430.269 747.653 428.552 747.067 426.995L699.982 301.825C698.277 297.292 701.627 292.452 706.471 292.452Z" fill="#360584"/>
</svg>
