<svg width="467" height="207" viewBox="0 0 467 207" fill="none" xmlns="http://www.w3.org/2000/svg">
<path d="M251.463 0.0171994L276.831 9.15527e-05C277.01 22.4871 276.804 44.975 276.21 67.455C276.009 73.4906 276.473 81.9749 275.694 87.6201C274.984 92.5657 273.477 97.3654 271.232 101.829C265.588 112.569 255.97 120.676 244.431 124.419C231.727 128.463 215.373 127.315 203.539 121.131C200.831 119.605 198.433 118.064 196.036 116.06C177.229 100.347 175.289 68.871 191.185 50.3837C198.825 41.372 209.74 35.7751 221.516 34.8301C231.721 34.0783 243.657 35.8224 251.675 42.6824L251.687 15.6674C251.677 11.1827 251.859 4.27949 251.463 0.0171994Z" fill="white"/>
<path d="M225.387 58.2058C237.988 56.6388 249.487 65.5428 251.124 78.1334C252.763 90.725 243.923 102.274 231.342 103.983C218.66 105.706 206.997 96.7797 205.347 84.0885C203.696 71.3972 212.686 59.7849 225.387 58.2058Z" fill="#360584"/>
<path d="M115.114 35.2638C127.213 34.6317 136.873 35.8364 147.673 41.9757C154.491 45.7962 160.028 51.547 163.587 58.5046C167.398 65.8184 168.861 74.97 170.607 83.0849L175.993 107.925C177.104 113.139 178.119 118.836 179.511 123.936L153.364 123.94C152.616 119.676 150.336 113.586 150.057 109.761C148.24 112.133 146.367 114.36 144.212 116.434C138.17 121.643 131.783 125.061 123.767 126.071C112.852 127.557 101.799 124.574 93.1122 117.799C85.3764 111.799 79.0748 102.961 76.8679 93.41C70.4353 65.5758 85.785 38.5186 115.114 35.2638Z" fill="white"/>
<path d="M118.99 58.868C148.434 55.5598 152.409 97.3353 125.343 103.179C119.697 103.952 114.519 103.257 109.691 100.022C97.972 92.1722 97.4507 70.7773 108.973 62.5204C112.166 60.2317 115.183 59.489 118.99 58.868Z" fill="#360584"/>
<path d="M416.55 35.4793C441.646 32.8222 464.135 51.0359 466.75 76.1356C469.367 101.236 451.116 123.695 426.012 126.271C400.965 128.839 378.569 110.64 375.959 85.5971C373.35 60.5548 391.512 38.1292 416.55 35.4793Z" fill="white"/>
<path d="M419.157 58.8499C447.05 56.521 451.012 98.8661 423.423 103.392C418.775 103.908 414.096 102.748 410.228 100.12C398.038 91.7475 397.419 71.6871 409.205 62.6724C412.356 60.262 415.321 59.4719 419.157 58.8499Z" fill="#360584"/>
<path d="M322.115 35.6102C347.123 32.6331 369.81 50.4914 372.79 75.4985C375.768 100.507 357.912 123.195 332.904 126.176C307.894 129.158 285.203 111.299 282.223 86.2886C279.243 61.2775 297.104 38.5872 322.115 35.6102Z" fill="white"/>
<path d="M325.657 58.8882C352.716 56.7364 357.136 99.0222 329.451 103.343C302.808 105.713 297.725 62.756 325.657 58.8882Z" fill="#360584"/>
<path d="M0.0555486 0.0885925C2.1758 0.265727 6.54905 0.129857 8.80174 0.129857L25.1407 0.176151C25.3848 24.1567 24.9316 48.269 25.2423 72.2687C35.7338 62.8232 42.4979 52.1368 46.3259 38.5347C54.9421 38.882 64.9005 38.6374 73.6667 38.6776C70.7101 55.7006 64.1266 66.1455 51.9637 77.8826C61.005 90.7148 69.9554 104.151 78.8182 117.133C80.3679 119.429 81.9579 121.697 83.5862 123.938C74.0481 123.763 63.8378 123.948 54.2176 123.933C52.1606 120.498 49.0916 116.209 46.8116 112.831C42.373 106.216 37.8883 99.6309 33.3577 93.0779C30.7284 89.2877 27.4795 84.8674 25.1432 80.9593C25.4821 94.7939 25.1674 109.95 25.1642 123.891C16.8858 124.057 8.30089 123.939 0 123.93L0.0555486 0.0885925Z" fill="white"/>
<path d="M238.873 142.03L248.176 142.084L248.178 192.336C245.294 192.403 242.24 192.344 239.342 192.333C239.309 190.402 239.409 188.451 239.486 186.52C234.128 193.515 227.168 194.894 219.157 191.475C217.273 190.497 215.573 189.2 214.133 187.641C207.171 180.158 207.402 165.806 215.087 158.915C218.51 155.849 223.027 154.301 227.61 154.623C232.488 154.976 235.974 157.301 239.063 160.918C238.592 156.062 238.867 147.135 238.873 142.03Z" fill="white"/>
<path d="M226.956 163.148C241.303 162.386 242.608 181.051 230.418 184.49C217.765 185.97 213.607 167.467 226.956 163.148Z" fill="#360584"/>
<path d="M177.922 154.761C184.533 154.177 188.772 156.004 192.846 161.185C192.84 159.296 192.913 157.305 192.953 155.408C195.878 155.365 198.867 155.388 201.798 155.382C201.62 167.585 201.778 180.196 201.772 192.432C199.176 192.267 195.627 192.334 192.967 192.313C192.946 191.27 193.01 188.012 192.6 187.299C186.3 196.712 169.855 194.08 165.303 184.449C159.515 172.198 163.586 157.538 177.922 154.761Z" fill="white"/>
<path d="M180.548 163.184C182.885 163.006 184.558 162.982 186.736 164.026C189.148 165.213 190.989 167.312 191.848 169.86C193.953 175.929 190.987 182.521 184.662 184.46C171.642 186.411 167.37 167.781 180.548 163.184Z" fill="#360584"/>
<path d="M91.441 154.728C97.149 154.346 102.361 156.257 105.568 161.171L105.686 155.39L114.713 155.413L114.723 192.309C111.873 192.427 108.549 192.354 105.661 192.35C105.67 191.286 105.838 188.177 105.247 187.485L104.753 188.047C102.322 190.587 100.213 192.234 96.6176 192.905C92.0277 193.732 87.2969 192.703 83.4648 190.046C70.7497 181.081 73.501 157.461 91.441 154.728Z" fill="white"/>
<path d="M93.4418 163.153C108.048 162.319 108.924 180.836 97.4238 184.389C92.2321 185.108 87.93 183.143 86.0381 178.009C84.911 175.002 85.0439 171.666 86.4075 168.758C88.0035 165.416 90.1812 164.224 93.4418 163.153Z" fill="#360584"/>
<path d="M330.651 162.315C335.185 154.515 344.262 151.611 351.487 158.209C356.725 162.991 355.87 172.867 355.854 179.528L355.85 192.328C352.578 192.377 349.307 192.382 346.036 192.342C345.97 186.366 346.541 171.053 345.318 165.899C345.114 165.658 344.903 165.422 344.685 165.194C343.239 163.702 342.142 163.23 340.113 163.121C332.958 162.735 332.582 169.472 332.726 174.83C332.808 177.887 332.758 181.3 332.781 184.439L332.779 192.329C329.602 192.41 326.216 192.357 323.023 192.362C323.25 184.878 323.247 176.459 322.792 168.985C322.443 163.267 315.371 161.005 311.391 164.813C308.335 167.738 309.034 174.461 309.052 178.487L309.087 192.332C305.948 192.376 302.807 192.378 299.667 192.339C299.91 189.11 299.746 182.976 299.745 179.576L299.733 155.418C302.594 155.343 305.566 155.408 308.436 155.431L308.312 160.406C311.502 157.137 313.23 155.753 317.676 154.715C324.173 154.366 327.783 156.357 330.651 162.315Z" fill="white"/>
<path d="M271.762 154.751C272.327 154.709 272.892 154.683 273.458 154.674C283.373 154.533 291.101 160.955 292.249 170.951C292.478 172.944 292.466 174.871 292.481 176.874L264.434 176.878C265.17 179.606 265.868 181.457 268.199 183.362C270.242 185.037 272.884 185.796 275.504 185.461C277.946 185.157 279.89 183.964 281.351 182.018C283.68 181.983 286.01 181.971 288.34 181.981L291.731 181.926C291.187 183.153 290.744 184.125 290.006 185.254C287.474 189.151 283.472 191.857 278.911 192.751C273.608 193.816 267.705 193.124 263.177 190.005C259.074 187.215 256.285 182.875 255.45 177.985C253.437 166.051 259.816 156.763 271.762 154.751Z" fill="white"/>
<path d="M272.61 162.114C278.483 161.865 282.196 164.154 283.381 170.062L275.795 170.109C272.004 170.109 268.213 170.086 264.422 170.04C265.867 165.692 267.885 163.085 272.61 162.114Z" fill="#360584"/>
<path d="M360.509 155.435L370.306 155.376C372.505 163.601 377.411 173.343 379.564 181.86C381.919 176.421 384.051 170.806 386.147 165.259C387.309 162.186 388.948 158.475 389.871 155.427C392.962 155.342 396.21 155.414 399.315 155.438C396.415 162.747 393.46 170.034 390.45 177.297L378.522 206.248C375.577 206.048 371.956 206.163 369.002 206.254C370.99 202.202 373.22 196.453 375.052 192.186C370.685 180.257 365.25 167.32 360.509 155.435Z" fill="white"/>
<path d="M137.957 154.756C144.557 154.254 150.824 156.011 155.245 161.161C157.076 163.294 157.811 165.413 158.797 167.994C155.456 167.894 151.983 168.07 148.607 167.965C146.64 165.085 143.993 162.657 140.197 162.932C133.749 163.399 130.938 169.113 131.339 174.972C131.685 180.025 133.694 183.651 139.016 184.618C143.961 185.598 145.786 182.638 149.174 179.99C149.174 179.99 150.458 179.915 150.598 179.907L158.647 179.926C158.103 181.704 157.378 183.44 156.36 185.002C153.755 189.011 149.648 191.804 144.964 192.754C139.636 193.861 134.268 193.125 129.707 190.112C117.898 182.316 119.073 161.635 132.575 156.228C134.526 155.447 135.874 155.129 137.957 154.756Z" fill="white"/>
</svg>
