<svg width="1038" height="1038" viewBox="0 0 1038 1038" fill="none" xmlns="http://www.w3.org/2000/svg">
<g clip-path="url(#clip0_1782_204)">
<path d="M116.924 406.668V538.374C116.924 559.768 134.251 577.111 155.625 577.111L282.048 577.115C284.899 577.115 287.209 574.802 287.209 571.95V538.374C287.209 535.521 284.899 533.209 282.048 533.209H227.424C226.055 533.209 224.743 533.753 223.775 534.722L195.044 563.481C191.28 567.248 186.176 569.364 180.853 569.364C169.77 569.364 160.785 560.371 160.785 549.277V406.668C160.785 403.815 158.475 401.503 155.625 401.503H122.084C119.234 401.503 116.924 403.815 116.924 406.668Z" fill="white"/>
<path fill-rule="evenodd" clip-rule="evenodd" d="M366.465 577.159H332.894C330.042 577.159 327.729 574.847 327.729 571.995V440.291C327.729 418.897 345.071 401.554 366.465 401.554L408.348 401.546C409.719 401.546 411.031 402.09 412.001 403.058L451.35 442.39C453.326 444.368 456.007 445.479 458.802 445.479L493.152 445.456C496.004 445.456 498.317 447.768 498.317 450.621V571.995C498.317 574.847 496.004 577.159 493.152 577.159H459.581C456.729 577.159 454.416 574.847 454.416 571.995V559.083C454.416 556.23 452.104 553.918 449.252 553.918H417.67C416.299 553.918 414.985 553.374 414.017 552.405L374.024 512.531C373.14 511.649 371.63 512.276 371.63 513.527V571.995C371.63 574.847 369.317 577.159 366.465 577.159ZM454.416 445.456H355.563C344.47 445.456 335.476 454.449 335.476 465.542C335.476 470.87 337.593 475.979 341.36 479.746L368.543 506.962C370.519 508.94 373.2 510.052 375.995 510.051L449.252 510.017C452.104 510.017 454.416 507.704 454.416 504.852V445.456Z" fill="white"/>
<path d="M704.257 577.114C706.679 577.114 708.113 574.405 706.752 572.402L665.961 512.415C665.022 511.059 663.477 510.251 661.828 510.251H629.695C625.779 510.251 623.421 514.497 625.336 517.787C625.409 517.911 625.487 518.034 625.573 518.155L665.726 574.964C666.666 576.312 668.204 577.114 669.848 577.114H704.257Z" fill="white"/>
<path d="M662.058 470.496C664.032 468.518 666.711 467.408 669.507 467.408L703.838 467.422C706.689 467.422 709 465.111 709 462.259V440.315C709 418.929 691.666 401.591 670.286 401.591H543.507C540.73 401.591 538.479 403.842 538.479 406.618V440.451C538.479 443.228 540.73 445.479 543.507 445.479H598.461C599.831 445.479 601.143 444.935 602.111 443.966L630.853 415.217C634.618 411.452 639.724 409.336 645.048 409.336C656.136 409.336 665.123 418.326 665.123 429.416V466.027C665.123 466.802 664.495 467.431 663.72 467.431H543.693C540.841 467.431 538.53 469.742 538.53 472.593V571.745C538.53 574.596 540.841 576.908 543.693 576.908H577.254C580.106 576.908 582.417 574.596 582.417 571.745V515.803C582.417 512.952 584.729 510.641 587.581 510.641L617.88 511.244C619.951 511.285 621.866 512.359 622.98 514.105L625.333 517.787C623.418 514.497 625.776 510.251 629.692 510.251H625.628C624.435 510.251 623.837 508.809 624.68 507.964L662.058 470.496Z" fill="white"/>
<path fill-rule="evenodd" clip-rule="evenodd" d="M788.069 577.159H754.498C751.645 577.159 749.333 574.847 749.333 571.995V440.291C749.333 418.897 766.675 401.554 788.069 401.554L829.951 401.546C831.322 401.546 832.634 402.09 833.604 403.058L872.953 442.39C874.929 444.368 877.61 445.479 880.405 445.479L914.756 445.456C917.608 445.456 919.92 447.768 919.92 450.621V571.995C919.92 574.847 917.608 577.159 914.756 577.159H881.185C878.332 577.159 876.02 574.847 876.02 571.995V559.083C876.02 556.23 873.708 553.918 870.855 553.918H839.273C837.903 553.918 836.589 553.374 835.62 552.405L795.628 512.531C794.743 511.649 793.233 512.276 793.233 513.527V571.995C793.233 574.847 790.921 577.159 788.069 577.159ZM876.02 445.456H777.167C766.073 445.456 757.08 454.449 757.08 465.542C757.08 470.87 759.196 475.979 762.963 479.746L790.147 506.962C792.122 508.94 794.803 510.052 797.598 510.051L870.855 510.017C873.708 510.017 876.02 507.704 876.02 504.852V445.456Z" fill="white"/>
</g>
<path d="M212.266 640.769V685.241H244.933V693.165H203.048V640.769H212.266ZM262.362 680.875V673.031H293.574V680.875H262.362ZM250.234 693.165L273.116 640.769H282.981L306.026 693.165H296.08L276.027 645.863H280.07L260.098 693.165H250.234ZM313.834 693.165V640.769H340.517C346.932 640.769 351.837 641.982 355.233 644.407C358.683 646.779 360.408 650.229 360.408 654.757C360.408 657.668 359.734 659.986 358.387 661.711C357.093 663.382 355.233 664.649 352.808 665.511C350.382 666.32 347.525 666.832 344.237 667.048L344.56 666.563C346.932 666.616 349.169 666.832 351.271 667.209C353.427 667.533 355.314 668.126 356.931 668.988C358.602 669.851 359.896 671.064 360.813 672.627C361.783 674.136 362.268 676.104 362.268 678.53C362.268 681.764 361.459 684.432 359.842 686.535C358.225 688.637 355.988 690.254 353.131 691.386C350.274 692.464 346.986 693.057 343.266 693.165H313.834ZM323.052 685.322H341.892C345.396 685.322 348.118 684.729 350.058 683.543C351.999 682.303 352.969 680.389 352.969 677.802C352.969 675.753 352.376 674.271 351.19 673.355C350.004 672.384 348.468 671.764 346.581 671.495C344.749 671.225 342.781 671.091 340.679 671.091H323.052V685.322ZM323.052 663.409H339.951C343.455 663.409 346.15 662.816 348.037 661.63C349.977 660.39 350.948 658.45 350.948 655.808C350.948 653.221 349.977 651.388 348.037 650.31C346.15 649.178 343.671 648.612 340.598 648.612H323.052V663.409ZM390.586 693.165V640.769H421.555C425.436 640.769 428.805 641.335 431.662 642.467C434.519 643.545 436.729 645.243 438.293 647.561C439.856 649.825 440.638 652.736 440.638 656.294C440.638 658.665 440.233 660.714 439.425 662.439C438.616 664.11 437.484 665.484 436.029 666.563C434.573 667.641 432.875 668.476 430.935 669.069C429.048 669.662 427.026 670.039 424.87 670.201L424.062 669.635C427.511 669.689 430.368 670.013 432.633 670.605C434.897 671.145 436.622 672.196 437.807 673.759C438.993 675.268 439.586 677.505 439.586 680.47V693.165H430.449V680.955C430.449 678.907 430.072 677.317 429.317 676.185C428.617 674.999 427.377 674.19 425.598 673.759C423.873 673.274 421.393 673.031 418.159 673.031H399.804V693.165H390.586ZM399.804 665.511H421.555C424.789 665.511 427.242 664.703 428.913 663.086C430.584 661.468 431.42 659.339 431.42 656.698C431.42 654.164 430.584 652.224 428.913 650.876C427.242 649.474 424.789 648.774 421.555 648.774H399.804V665.511ZM480.162 694.135C474.017 694.135 468.653 693.03 464.071 690.82C459.543 688.61 456.012 685.483 453.479 681.441C450.999 677.398 449.759 672.573 449.759 666.967C449.759 661.361 450.999 656.536 453.479 652.493C456.012 648.396 459.543 645.27 464.071 643.114C468.653 640.903 474.017 639.798 480.162 639.798C486.361 639.798 491.725 640.903 496.253 643.114C500.781 645.27 504.285 648.396 506.765 652.493C509.298 656.536 510.565 661.361 510.565 666.967C510.565 672.573 509.298 677.398 506.765 681.441C504.285 685.483 500.781 688.61 496.253 690.82C491.725 693.03 486.361 694.135 480.162 694.135ZM480.162 686.049C484.259 686.049 487.871 685.349 490.997 683.947C494.124 682.546 496.576 680.443 498.355 677.64C500.188 674.783 501.104 671.225 501.104 666.967C501.104 662.762 500.188 659.258 498.355 656.455C496.576 653.598 494.124 651.469 490.997 650.067C487.871 648.612 484.259 647.884 480.162 647.884C476.119 647.884 472.508 648.612 469.327 650.067C466.147 651.469 463.64 653.598 461.807 656.455C459.974 659.258 459.058 662.762 459.058 666.967C459.058 671.225 459.974 674.783 461.807 677.64C463.64 680.443 466.147 682.546 469.327 683.947C472.508 685.349 476.119 686.049 480.162 686.049ZM521.113 693.165V640.769H547.796C554.211 640.769 559.116 641.982 562.512 644.407C565.962 646.779 567.687 650.229 567.687 654.757C567.687 657.668 567.013 659.986 565.666 661.711C564.372 663.382 562.512 664.649 560.086 665.511C557.661 666.32 554.804 666.832 551.515 667.048L551.839 666.563C554.211 666.616 556.448 666.832 558.55 667.209C560.706 667.533 562.593 668.126 564.21 668.988C565.881 669.851 567.175 671.064 568.091 672.627C569.062 674.136 569.547 676.104 569.547 678.53C569.547 681.764 568.738 684.432 567.121 686.535C565.504 688.637 563.267 690.254 560.41 691.386C557.553 692.464 554.265 693.057 550.545 693.165H521.113ZM530.33 685.322H549.17C552.674 685.322 555.397 684.729 557.337 683.543C559.278 682.303 560.248 680.389 560.248 677.802C560.248 675.753 559.655 674.271 558.469 673.355C557.283 672.384 555.747 671.764 553.86 671.495C552.027 671.225 550.06 671.091 547.958 671.091H530.33V685.322ZM530.33 663.409H547.23C550.734 663.409 553.429 662.816 555.316 661.63C557.256 660.39 558.227 658.45 558.227 655.808C558.227 653.221 557.256 651.388 555.316 650.31C553.429 649.178 550.949 648.612 547.877 648.612H530.33V663.409ZM607.53 694.135C601.385 694.135 596.021 693.03 591.439 690.82C586.911 688.61 583.38 685.483 580.847 681.441C578.367 677.398 577.127 672.573 577.127 666.967C577.127 661.361 578.367 656.536 580.847 652.493C583.38 648.396 586.911 645.27 591.439 643.114C596.021 640.903 601.385 639.798 607.53 639.798C613.729 639.798 619.093 640.903 623.621 643.114C628.149 645.27 631.653 648.396 634.132 652.493C636.666 656.536 637.933 661.361 637.933 666.967C637.933 672.573 636.666 677.398 634.132 681.441C631.653 685.483 628.149 688.61 623.621 690.82C619.093 693.03 613.729 694.135 607.53 694.135ZM607.53 686.049C611.627 686.049 615.239 685.349 618.365 683.947C621.492 682.546 623.944 680.443 625.723 677.64C627.556 674.783 628.472 671.225 628.472 666.967C628.472 662.762 627.556 659.258 625.723 656.455C623.944 653.598 621.492 651.469 618.365 650.067C615.239 648.612 611.627 647.884 607.53 647.884C603.487 647.884 599.875 648.612 596.695 650.067C593.515 651.469 591.008 653.598 589.175 656.455C587.342 659.258 586.426 662.762 586.426 666.967C586.426 671.225 587.342 674.783 589.175 677.64C591.008 680.443 593.515 682.546 596.695 683.947C599.875 685.349 603.487 686.049 607.53 686.049ZM602.759 633.896L612.867 621.039H624.753L611.25 633.896H602.759ZM642.05 640.769H692.344V648.693H642.05V640.769ZM662.669 647.723H671.806V693.165H662.669V647.723ZM701.659 640.769H710.877V693.165H701.659V640.769ZM780.222 674.81C779.683 678.853 778.255 682.33 775.937 685.241C773.619 688.098 770.519 690.308 766.638 691.871C762.811 693.381 758.337 694.135 753.216 694.135C748.795 694.135 744.725 693.542 741.006 692.356C737.34 691.171 734.133 689.446 731.384 687.181C728.688 684.864 726.586 682.033 725.077 678.691C723.621 675.295 722.894 671.414 722.894 667.048C722.894 662.627 723.621 658.746 725.077 655.404C726.586 652.062 728.688 649.232 731.384 646.914C734.133 644.542 737.34 642.763 741.006 641.577C744.725 640.391 748.795 639.798 753.216 639.798C758.39 639.798 762.892 640.58 766.719 642.143C770.6 643.707 773.7 645.944 776.018 648.855C778.336 651.765 779.737 655.269 780.222 659.366H771.328C770.573 656.94 769.387 654.892 767.77 653.221C766.153 651.496 764.104 650.175 761.625 649.259C759.199 648.342 756.396 647.884 753.216 647.884C749.226 647.884 745.642 648.639 742.461 650.148C739.281 651.604 736.774 653.76 734.941 656.617C733.163 659.42 732.273 662.897 732.273 667.048C732.273 671.145 733.163 674.621 734.941 677.478C736.774 680.282 739.281 682.411 742.461 683.866C745.642 685.322 749.226 686.049 753.216 686.049C756.396 686.049 759.199 685.618 761.625 684.756C764.051 683.839 766.072 682.546 767.689 680.875C769.306 679.15 770.492 677.128 771.247 674.81H780.222ZM795.839 680.875V673.031H827.05V680.875H795.839ZM783.71 693.165L806.593 640.769H816.458L839.502 693.165H829.557L809.504 645.863H813.547L793.575 693.165H783.71Z" fill="white"/>
<defs>
<clipPath id="clip0_1782_204">
<rect width="803" height="175.782" fill="white" transform="translate(116.924 401.5)"/>
</clipPath>
</defs>
</svg>
