<svg width="971" height="971" viewBox="0 0 971 971" fill="none" xmlns="http://www.w3.org/2000/svg">
<g clip-path="url(#clip0_1782_205)">
<path d="M133.046 360.049V559.23C133.046 591.585 159.25 617.815 191.574 617.815L382.766 617.817C387.076 617.817 390.571 614.32 390.571 610.007V559.23C390.571 554.916 387.076 551.419 382.766 551.419H300.157C298.087 551.419 296.102 552.242 294.639 553.707L251.188 597.199C245.496 602.896 237.776 606.097 229.727 606.097C212.965 606.097 199.378 592.496 199.378 575.719V360.049C199.378 355.735 195.884 352.238 191.574 352.238H140.85C136.54 352.238 133.046 355.735 133.046 360.049Z" fill="white"/>
<path d="M518.343 609.591V359.812V359.811C518.343 355.498 514.846 352.002 510.53 352.002L459.758 352C455.444 352 451.947 355.496 451.947 359.809V359.81V609.591C451.947 613.905 455.444 617.402 459.758 617.402H510.53C514.846 617.402 518.343 613.905 518.343 609.591Z" fill="white"/>
<path fill-rule="evenodd" clip-rule="evenodd" d="M637.644 617.888H586.874C582.561 617.888 579.063 614.391 579.063 610.075V410.898C579.063 378.544 605.29 352.316 637.644 352.316L700.984 352.303C703.057 352.303 705.041 353.126 706.508 354.591L766.016 414.073C769.004 417.064 773.059 418.745 777.286 418.744L829.234 418.709C833.548 418.709 837.045 422.206 837.045 426.52V610.075C837.045 614.391 833.548 617.888 829.234 617.888H778.464C774.151 617.888 770.654 614.391 770.654 610.075V590.549C770.654 586.235 767.157 582.738 762.843 582.738H715.081C713.008 582.738 711.022 581.915 709.557 580.45L649.076 520.148C647.738 518.813 645.454 519.762 645.454 521.653V610.075C645.454 614.391 641.957 617.888 637.644 617.888ZM770.654 418.709H621.156C604.38 418.709 590.779 432.309 590.779 449.086C590.779 457.143 593.98 464.87 599.677 470.566L640.786 511.726C643.774 514.718 647.829 516.398 652.056 516.397L762.843 516.345C767.157 516.345 770.654 512.848 770.654 508.534V418.709Z" fill="white"/>
</g>
<path d="M348.579 684.645V735.078H385.624V744.064H338.126V684.645H348.579ZM405.389 730.126V721.232H440.784V730.126H405.389ZM391.635 744.064L417.585 684.645H428.772L454.905 744.064H443.626L420.886 690.422H425.471L402.822 744.064H391.635ZM463.759 744.064V684.645H494.018C501.293 684.645 506.856 686.021 510.707 688.771C514.619 691.461 516.575 695.374 516.575 700.508C516.575 703.809 515.811 706.438 514.283 708.394C512.816 710.289 510.707 711.726 507.956 712.704C505.205 713.621 501.965 714.202 498.236 714.446L498.603 713.896C501.293 713.957 503.83 714.202 506.214 714.629C508.659 714.996 510.799 715.669 512.632 716.647C514.528 717.625 515.995 719 517.034 720.773C518.134 722.485 518.684 724.716 518.684 727.467C518.684 731.135 517.767 734.161 515.934 736.545C514.1 738.929 511.563 740.763 508.323 742.046C505.083 743.269 501.354 743.941 497.136 744.064H463.759ZM474.212 735.169H495.577C499.551 735.169 502.638 734.497 504.838 733.152C507.039 731.746 508.139 729.576 508.139 726.642C508.139 724.319 507.467 722.638 506.122 721.598C504.777 720.498 503.035 719.795 500.896 719.489C498.817 719.184 496.586 719.031 494.202 719.031H474.212V735.169ZM474.212 710.32H493.377C497.35 710.32 500.406 709.647 502.546 708.303C504.747 706.897 505.847 704.696 505.847 701.7C505.847 698.766 504.747 696.688 502.546 695.465C500.406 694.181 497.594 693.54 494.11 693.54H474.212V710.32ZM552.54 684.645H562.993V744.064H552.54V684.645ZM587.257 730.126V721.232H622.652V730.126H587.257ZM573.503 744.064L599.453 684.645H610.64L636.773 744.064H625.494L602.754 690.422H607.339L584.69 744.064H573.503Z" fill="white"/>
<defs>
<clipPath id="clip0_1782_205">
<rect width="704" height="266.091" fill="white" transform="translate(133.046 352)"/>
</clipPath>
</defs>
</svg>
