<svg width="704" height="473" viewBox="0 0 704 473" fill="none" xmlns="http://www.w3.org/2000/svg">
<path d="M318.146 130.662L351.107 163.915C351.932 164.748 353.27 164.748 354.095 163.915L387.07 130.648C387.895 129.816 387.895 128.466 387.07 127.634L354.108 94.3805C353.284 93.5482 351.946 93.5482 351.121 94.3805L318.146 127.648C317.321 128.48 317.321 129.829 318.146 130.662Z" fill="white"/>
<path d="M417.929 0.581246C417.929 0.260233 417.671 0 417.353 0H374.146C373.828 0 373.57 0.260233 373.57 0.581246V18.3703L373.474 18.2738V81.5072C373.474 81.6614 373.535 81.8092 373.643 81.9182L412.518 121.138C416.584 125.24 416.584 131.891 412.518 135.994L373.474 175.384L370.438 178.459C369.079 179.835 369.081 182.048 370.442 183.422L396.924 210.138C398.306 211.532 400.56 211.532 401.942 210.138L464.502 147.023C474.606 136.829 474.606 120.302 464.502 110.109L418.098 63.2926C417.99 63.1836 417.929 63.0358 417.929 62.8816V0.581246Z" fill="white"/>
<path d="M331.703 175.384L352.589 196.536L383.02 227.244C383.383 227.61 383.126 228.236 382.612 228.236H321.174L240.675 147.023C230.571 136.829 230.571 120.302 240.675 110.109L330.719 19.266C331.082 18.8999 331.703 19.1592 331.703 19.677V81.5072C331.703 81.6614 331.642 81.8092 331.534 81.9182L292.659 121.138C288.593 125.24 288.593 131.891 292.659 135.994L331.703 175.384Z" fill="white"/>
<path fill-rule="evenodd" clip-rule="evenodd" d="M15.8119 261.177H88.3605C97.0931 261.177 104.172 268.283 104.172 277.048V360.448C104.172 369.213 97.0931 376.319 88.3605 376.319H15.8119C7.07922 376.319 0 369.213 0 360.448V277.048C0 268.283 7.07922 261.177 15.8119 261.177ZM30.6937 287.373C28.1252 287.373 26.0431 289.463 26.0431 292.041V345.319C26.0431 347.897 28.1253 349.987 30.6937 349.987H73.4788C76.0472 349.987 78.1293 347.897 78.1293 345.319V292.041C78.1293 289.463 76.0472 287.373 73.4788 287.373H30.6937Z" fill="white"/>
<path d="M42.3957 309.162C42.3957 308.905 42.6039 308.696 42.8607 308.696H61.9172C62.174 308.696 62.3823 308.905 62.3823 309.162V328.333C62.3823 328.591 62.174 328.8 61.9172 328.8H42.8607C42.6039 328.8 42.3957 328.591 42.3957 328.333V309.162Z" fill="white"/>
<path d="M144.319 261.177H114.432C114.044 261.177 113.827 261.627 114.067 261.933L152.442 310.783C158.815 318.895 171.087 318.831 177.376 310.653L214.842 261.929C215.078 261.622 214.86 261.177 214.473 261.177H184.582C184.433 261.177 184.294 261.249 184.206 261.37L164.992 287.95L144.688 261.36C144.6 261.245 144.463 261.177 144.319 261.177Z" fill="white"/>
<path d="M144.684 376.238H114.798C114.41 376.238 114.192 375.788 114.433 375.482L152.808 326.632C159.18 318.52 171.453 318.584 177.742 326.762L215.207 375.486C215.443 375.793 215.225 376.238 214.839 376.238H184.948C184.799 376.238 184.659 376.166 184.572 376.045L165.358 349.465L145.053 376.055C144.965 376.17 144.829 376.238 144.684 376.238Z" fill="white"/>
<path d="M256.007 261.177H225.897C225.538 261.177 225.314 261.568 225.496 261.879L262.992 326.283C269.128 336.824 284.329 336.753 290.369 326.156L327.001 261.876C327.178 261.564 326.954 261.177 326.597 261.177H296.486C296.317 261.177 296.162 261.269 296.08 261.417L276.79 296.211L256.408 261.407C256.324 261.265 256.172 261.177 256.007 261.177Z" fill="white"/>
<path d="M266.317 344.467C266.317 344.209 266.525 344 266.782 344H285.467C285.724 344 285.932 344.209 285.932 344.467V375.771C285.932 376.029 285.724 376.238 285.467 376.238H266.782C266.525 376.238 266.317 376.029 266.317 375.771V344.467Z" fill="white"/>
<path d="M373.904 308.555H393.875V328.645H373.904V308.555Z" fill="white"/>
<path d="M423.443 261.877V287.402C423.443 287.659 423.235 287.868 422.978 287.868H367.711C365.142 287.868 363.06 289.958 363.06 292.536V345.346C363.06 347.924 365.142 350.014 367.711 350.014H400.095C402.664 350.014 404.746 347.924 404.746 345.346V310.486C404.746 310.228 404.954 310.019 405.211 310.019H430.641C430.898 310.019 431.106 310.228 431.106 310.486V360.601C431.106 369.366 424.027 376.471 415.294 376.471H352.512C343.779 376.471 336.7 369.366 336.7 360.601V277.281C336.7 268.516 343.779 261.41 352.512 261.41H422.978C423.235 261.41 423.443 261.619 423.443 261.877Z" fill="white"/>
<path d="M501.562 309.022C501.562 308.764 501.77 308.555 502.027 308.555H538.035C538.292 308.555 538.5 308.764 538.5 309.022V328.178C538.5 328.436 538.292 328.645 538.035 328.645H502.027C501.77 328.645 501.562 328.436 501.562 328.178V309.022Z" fill="white"/>
<path d="M538.626 261.644V287.168C538.626 287.426 538.418 287.635 538.161 287.635H482.998C480.43 287.635 478.348 289.725 478.348 292.303V345.112C478.348 347.69 480.43 349.78 482.998 349.78H538.161C538.418 349.78 538.626 349.989 538.626 350.247V375.771C538.626 376.029 538.418 376.238 538.161 376.238H468.373C459.674 376.238 452.608 369.184 452.562 360.452L452.118 277.132C452.072 268.334 459.164 261.177 467.93 261.177H538.161C538.418 261.177 538.626 261.386 538.626 261.644Z" fill="white"/>
<path d="M629.482 375.771C629.482 376.029 629.69 376.238 629.947 376.238H654.1C654.357 376.238 654.565 376.029 654.565 375.771V277.048C654.565 268.283 647.486 261.177 638.753 261.177H575.971C567.238 261.177 560.159 268.283 560.159 277.048V375.771C560.159 376.029 560.367 376.238 560.624 376.238H584.778C585.034 376.238 585.243 376.029 585.243 375.771V294.043C585.243 291.465 587.325 289.375 589.893 289.375H624.831C627.399 289.375 629.482 291.465 629.482 294.043V375.771Z" fill="white"/>
<path d="M675.493 261.877C675.493 261.619 675.701 261.41 675.958 261.41H703.535C703.792 261.41 704 261.619 704 261.877V376.005C704 376.262 703.792 376.471 703.535 376.471H675.958C675.701 376.471 675.493 376.262 675.493 376.005V261.877Z" fill="white"/>
<path fill-rule="evenodd" clip-rule="evenodd" d="M704 392.942H508.575V473H704V392.942ZM520.507 408.376H542.184V426.696H555.509V440.255H542.184V457.781H526.142V413.785C525.448 411.695 524.875 410.52 520.507 408.376ZM551.995 408.376H573.672V457.781H557.63V413.785C556.542 410.835 555.107 409.718 551.995 408.376ZM599.592 408.376H579.307C581.835 409.19 583.166 409.916 584.36 411.585C584.769 412.156 584.942 412.858 584.942 413.56V434.418C584.942 439.788 586.747 445.002 590.067 449.225L590.374 449.615C600.051 461.922 618.82 461.57 628.028 448.909C630.96 444.878 632.539 440.023 632.539 435.04V408.448H614.242C616.386 408.883 617.394 409.324 617.822 411.477V434.526C617.822 435.643 617.615 436.75 617.21 437.791C614.35 445.154 604.073 445.55 600.654 438.429L600.496 438.099C599.901 436.859 599.592 435.502 599.592 434.128V408.376ZM639.499 408.448C642.843 409.707 643.968 410.938 645.067 413.785V423.45H654.68V420.565H671.866C672.669 420.565 673.447 420.845 674.065 421.357L674.185 421.456C675.878 422.858 675.77 425.486 673.967 426.745C673.408 427.135 672.743 427.345 672.061 427.345H654.68L645.067 439.606H673.108L675.163 442.779L673.108 446.53H645.067V458.575H675.203C677.518 458.575 679.797 457.933 681.775 456.729C690.297 451.542 689.726 438.947 680.732 434.629C689.958 428.889 689.254 415.244 679.486 410.483L678.209 409.861C676.205 408.884 674.004 408.378 671.774 408.383L639.499 408.448Z" fill="white"/>
</svg>
