<svg width="481" height="319" viewBox="0 0 481 319" fill="none" xmlns="http://www.w3.org/2000/svg">
<path d="M404.261 11.488C405.512 11.4883 406.526 12.5032 406.526 13.7546V29.3523C406.526 30.0348 406.027 30.6151 405.352 30.7156C392.498 32.6289 377.937 35.8791 362.232 41.2703C313.227 58.0932 285.792 79.7472 279.245 85.78C283.928 91.1611 297.973 100.198 322.395 97.5056C334.371 84.1699 365.492 56.1173 401.908 41.4431L403.281 40.8972C403.739 40.7176 404.198 40.5403 404.658 40.365C405.082 40.2036 405.557 40.2603 405.931 40.5173C406.304 40.7744 406.526 41.1989 406.526 41.6521V197.823C406.526 199.074 405.512 200.089 404.261 200.09H76.1611C74.9097 200.089 73.8955 199.074 73.8955 197.823V18.4998C73.8955 18.0692 74.0967 17.6636 74.4394 17.4031C74.7822 17.1426 75.2268 17.0574 75.6416 17.1726C77.378 17.6549 79.085 18.1467 80.7627 18.6482C115.763 29.1109 138.041 43.535 151.179 52.78C153.48 54.3995 155.802 56.0008 158.126 57.6003C158.457 57.8283 158.788 58.057 159.119 58.2849L159.123 58.2869L159.133 58.2937C160.279 59.0819 161.425 59.8707 162.567 60.6599C179.686 72.487 196.395 84.7495 203.55 102.962C207.864 113.944 209.684 124.472 207.979 134.099C206.267 143.768 201.023 152.389 191.479 159.548C183.8 165.306 174.153 168.08 164.555 169.413C154.95 170.746 145.259 170.652 137.443 170.578L137.27 170.577L136.705 170.571C135.646 170.561 134.627 170.553 133.649 170.55C142.929 174.083 155.202 177.193 167.298 179.55C182.17 182.447 196.59 184.17 204.591 184.17C212.606 184.17 224.906 182.829 237.346 180.514C249.796 178.198 262.25 174.932 270.615 171.13C285.605 164.316 301.227 153.861 319.209 141.822L319.219 141.815L319.223 141.813C319.224 141.812 319.224 141.811 319.226 141.81L320.136 141.202L320.497 140.96L320.572 140.91L320.93 140.671C322.656 139.515 324.404 138.346 326.175 137.166C334.165 131.839 344.592 128.865 354.432 127.13C364.293 125.391 373.705 124.874 379.721 124.544C381.455 124.448 382.883 124.368 383.966 124.281C382.288 122.616 379.908 120.831 376.907 119.049C372.884 116.658 367.84 114.324 362.104 112.316C350.628 108.299 336.483 105.627 322.367 106.39C309.034 107.111 300.212 106.01 292.321 102.922C284.482 99.8534 277.654 94.8521 268.328 88.0339L268.323 88.03L267.737 87.6013C266.355 86.5912 264.917 85.5403 263.408 84.448C263.397 84.4397 263.385 84.4312 263.374 84.4226C209.931 43.1566 185.003 29.785 142.419 16.2332C140.278 15.5517 138.092 14.8694 135.854 14.1833C135.202 13.9834 134.794 13.3363 134.895 12.6619C134.997 11.9874 135.577 11.488 136.259 11.488H404.261Z" fill="white" stroke="white" stroke-width="2.75539" stroke-linejoin="round"/>
<path d="M480.101 247.499H433.64V318.74H480.101V303.253H452.224V290.863H469.26V275.376H452.224V262.986H480.101V247.499Z" fill="white"/>
<path d="M322.132 247.499V318.74H340.717L339.943 278.474L364.722 318.74H383.307V247.499H365.496L364.722 286.992L343.04 247.499H322.132Z" fill="white"/>
<path d="M385.63 247.499V262.986H399.568V318.74H418.153V262.986H432.091V247.499H385.63Z" fill="white"/>
<path d="M0 247.499V262.986H12.3897V318.74H30.9743V247.499H0Z" fill="white"/>
<path d="M63.4973 247.499H34.0717V318.74H54.205L101.441 247.499H79.7587L52.6563 289.095V262.986H63.4973V247.499Z" fill="white"/>
<path d="M151 247.499H130.092L85.6839 315.643L84.4049 317.966H107.636L133.189 277.699V317.191H151.774L177.328 277.699V317.966H194.364V247.499H175.005L151 285.443V247.499Z" fill="white"/>
<path d="M216.82 247.499H198.235V318.74H216.82V247.499Z" fill="white"/>
<path fill-rule="evenodd" clip-rule="evenodd" d="M219.917 247.499V318.74H237.727V291.638L257.086 318.74L277.994 317.966L301.224 279.248V318.74H319.035V247.499H298.901L267.927 302.479L259.409 291.638C265.604 289.315 277.374 280.642 274.896 264.535C272.418 248.428 251.666 247.499 247.794 247.499H219.917ZM247.904 259.889H236.952V278.473H247.904C252.975 278.473 257.086 274.363 257.086 269.292V269.07C257.086 264 252.975 259.889 247.904 259.889Z" fill="white"/>
</svg>
