<svg width="1052" height="1052" viewBox="0 0 1052 1052" fill="none" xmlns="http://www.w3.org/2000/svg">
<g clip-path="url(#clip0_1782_206)">
<path d="M98.5869 433.157V573.159C98.5869 595.9 117.005 614.337 139.725 614.337L274.112 614.339C277.141 614.339 279.597 611.881 279.597 608.849V573.159C279.597 570.126 277.141 567.668 274.112 567.668H216.047C214.592 567.668 213.197 568.247 212.168 569.276L181.627 599.847C177.626 603.851 172.2 606.101 166.543 606.101C154.761 606.101 145.211 596.541 145.211 584.748V433.157C145.211 430.125 142.755 427.667 139.726 427.667H104.072C101.043 427.667 98.5869 430.125 98.5869 433.157Z" fill="white"/>
<path d="M504 468.858V562.195C504 565.228 501.542 567.686 498.51 567.686L461.997 567.652C459.025 567.651 456.175 568.833 454.075 570.936L412.278 612.746C411.249 613.776 409.852 614.355 408.395 614.355H328.159C325.127 614.355 322.669 611.897 322.669 608.863V433.17C322.669 430.138 325.127 427.68 328.159 427.68H363.99C366.942 427.68 369.334 430.072 369.334 433.023V479.839V562.195C369.334 565.119 371.619 567.51 374.502 567.677H455.842C456.667 567.677 457.335 567.008 457.335 566.183V457.268V433.023C457.335 430.072 459.727 427.68 462.679 427.68H498.656C501.608 427.68 504 430.072 504 433.023V468.858Z" fill="white"/>
<path d="M593.491 608.557V432.991V432.99C593.491 429.959 591.033 427.501 587.999 427.501L552.312 427.5C549.28 427.5 546.822 429.957 546.822 432.989V432.989V608.557C546.822 611.589 549.28 614.047 552.312 614.047H587.999C591.033 614.047 593.491 611.589 593.491 608.557Z" fill="white"/>
<mask id="mask0_1782_206" style="mask-type:luminance" maskUnits="userSpaceOnUse" x="636" y="427" width="228" height="188">
<path d="M863.993 427.664H636.171V614.339H863.993V427.664Z" fill="white"/>
</mask>
<g mask="url(#mask0_1782_206)">
<path d="M762.016 614.399V567.493L753.63 567.457C752.177 567.457 750.78 568.036 749.752 569.066L719.211 599.636C715.21 603.64 709.785 605.89 704.127 605.89C692.344 605.89 682.795 596.33 682.795 584.538V475.624C682.795 474.799 683.461 474.131 684.286 474.131L811.695 474.122C814.725 474.122 817.18 471.663 817.18 468.631V432.947C817.18 429.914 814.725 427.456 811.695 427.456L731.69 427.453C730.235 427.453 728.84 428.032 727.811 429.062L686.051 470.872C683.953 472.975 681.107 474.156 678.137 474.155L641.655 474.121C638.627 474.121 636.171 476.58 636.171 479.612V572.948C636.171 595.69 654.589 614.125 677.309 614.125L762.016 614.399Z" fill="white"/>
<path d="M811.863 567.707L762.017 567.494V614.4H822.846C845.595 614.4 864.036 595.954 864.036 573.2V549.854C864.036 546.82 861.578 544.36 858.544 544.36L822.018 544.394C819.045 544.395 816.195 543.213 814.093 541.109L772.282 499.276C771.252 498.246 769.856 497.667 768.399 497.667H713.625C710.592 497.667 708.134 500.127 708.134 503.161V538.867C708.134 541.901 710.592 544.36 713.625 544.36L815.862 544.37C816.687 544.37 817.355 545.039 817.355 545.864V562.214C817.355 565.248 814.897 567.707 811.863 567.707Z" fill="white"/>
</g>
<path d="M953.483 608.557V432.991V432.99C953.483 429.959 951.025 427.501 947.992 427.501L912.304 427.5C909.273 427.5 906.814 429.957 906.814 432.989V432.989V608.557C906.814 611.589 909.273 614.047 912.304 614.047H947.992C951.025 614.047 953.483 611.589 953.483 608.557Z" fill="white"/>
</g>
<path d="M256.192 680.254V730.686H293.237V739.673H245.739V680.254H256.192ZM313.003 725.735V716.841H348.397V725.735H313.003ZM299.248 739.673L325.198 680.254H336.385L362.518 739.673H351.239L328.499 686.031H333.084L310.435 739.673H299.248ZM371.372 739.673V680.254H401.632C408.906 680.254 414.469 681.63 418.32 684.38C422.233 687.07 424.189 690.982 424.189 696.117C424.189 699.418 423.425 702.047 421.896 704.003C420.429 705.898 418.32 707.335 415.569 708.313C412.818 709.23 409.579 709.811 405.85 710.055L406.216 709.505C408.906 709.566 411.443 709.811 413.827 710.238C416.272 710.605 418.412 711.278 420.246 712.256C422.141 713.234 423.608 714.609 424.647 716.382C425.747 718.094 426.298 720.325 426.298 723.076C426.298 726.744 425.381 729.77 423.547 732.154C421.713 734.538 419.176 736.372 415.936 737.655C412.696 738.878 408.967 739.55 404.749 739.673H371.372ZM381.826 730.778H403.19C407.164 730.778 410.251 730.106 412.452 728.761C414.652 727.355 415.753 725.185 415.753 722.251C415.753 719.928 415.08 718.247 413.735 717.207C412.391 716.107 410.648 715.404 408.509 715.098C406.43 714.793 404.199 714.64 401.815 714.64H381.826V730.778ZM381.826 705.929H400.99C404.963 705.929 408.02 705.256 410.159 703.911C412.36 702.506 413.46 700.305 413.46 697.309C413.46 694.375 412.36 692.297 410.159 691.074C408.02 689.79 405.208 689.149 401.723 689.149H381.826V705.929ZM489.312 740.773C484.238 740.773 479.654 740.101 475.558 738.756C471.462 737.411 467.947 735.455 465.013 732.887C462.14 730.259 459.909 727.049 458.319 723.259C456.791 719.469 456.027 715.19 456.027 710.422C456.027 705.593 456.852 701.252 458.503 697.401C460.153 693.55 462.507 690.279 465.563 687.59C468.62 684.839 472.257 682.76 476.475 681.354C480.693 679.887 485.339 679.154 490.413 679.154C496.342 679.154 501.477 680.071 505.817 681.905C510.158 683.739 513.612 686.306 516.179 689.607C518.746 692.847 520.214 696.698 520.58 701.161H510.952C510.158 698.532 508.843 696.27 507.009 694.375C505.237 692.48 502.944 691.013 500.132 689.974C497.381 688.873 494.142 688.323 490.413 688.323C485.522 688.323 481.274 689.271 477.667 691.166C474.121 693 471.401 695.598 469.506 698.96C467.611 702.261 466.664 706.082 466.664 710.422C466.664 714.762 467.489 718.522 469.139 721.7C470.851 724.818 473.418 727.263 476.842 729.036C480.265 730.748 484.514 731.603 489.587 731.603C493.5 731.603 496.923 731.023 499.857 729.861C502.853 728.639 505.328 726.958 507.285 724.818C509.241 722.678 510.616 720.203 511.411 717.391L516.087 716.29C515.231 724.176 512.419 730.228 507.651 734.446C502.944 738.664 496.831 740.773 489.312 740.773ZM513.612 739.673C513.612 737.716 513.703 735.516 513.887 733.071C514.07 730.564 514.284 728.027 514.528 725.46C514.834 722.831 515.109 720.478 515.354 718.399H490.779V710.88H522.873V739.673H513.612ZM543.942 725.735V716.841H579.336V725.735H543.942ZM530.188 739.673L556.137 680.254H567.324L593.457 739.673H582.179L559.438 686.031H564.023L541.374 739.673H530.188ZM644.125 734.263H639.448L670.991 680.254H681.353V739.673H670.991V695.2L673.375 695.842L647.517 739.673H636.147L610.289 696.026L612.765 695.292V739.673H602.312V680.254H612.765L644.125 734.263ZM706.072 714.365V730.686H747.793V739.673H695.619V680.254H747.701V689.24H706.072V705.745H740.182V714.365H706.072ZM756.507 719.958H766.685C766.93 722.22 767.816 724.268 769.344 726.102C770.934 727.875 773.012 729.28 775.58 730.32C778.208 731.298 781.204 731.787 784.566 731.787C787.561 731.787 790.037 731.42 791.993 730.686C793.949 729.953 795.386 728.944 796.303 727.661C797.281 726.316 797.77 724.757 797.77 722.984C797.77 721.211 797.189 719.836 796.028 718.858C794.927 717.819 793.216 716.963 790.893 716.29C788.57 715.557 785.605 714.854 781.998 714.181C779.003 713.631 776.099 712.898 773.287 711.981C770.475 711.064 767.938 709.902 765.676 708.496C763.476 707.09 761.734 705.379 760.45 703.361C759.166 701.283 758.524 698.838 758.524 696.026C758.524 692.847 759.411 689.974 761.183 687.406C763.017 684.839 765.707 682.822 769.253 681.354C772.798 679.887 777.108 679.154 782.182 679.154C789.945 679.154 795.875 680.957 799.97 684.564C804.066 688.109 806.053 692.939 805.931 699.052H795.936C795.752 695.2 794.347 692.419 791.718 690.707C789.089 688.996 785.758 688.14 781.723 688.14C778.116 688.14 775.091 688.782 772.645 690.066C770.2 691.349 768.978 693.428 768.978 696.301C768.978 697.523 769.253 698.593 769.803 699.51C770.414 700.366 771.392 701.161 772.737 701.894C774.082 702.567 775.916 703.239 778.239 703.911C780.623 704.523 783.526 705.195 786.95 705.929C789.884 706.418 792.635 707.09 795.202 707.946C797.77 708.802 800.001 709.872 801.896 711.155C803.852 712.439 805.38 714.09 806.481 716.107C807.581 718.124 808.131 720.6 808.131 723.534C808.131 726.896 807.276 729.892 805.564 732.52C803.852 735.088 801.224 737.136 797.678 738.664C794.194 740.131 789.67 740.865 784.107 740.865C779.889 740.865 776.191 740.376 773.012 739.398C769.894 738.358 767.235 737.044 765.035 735.455C762.834 733.804 761.061 732.031 759.716 730.136C758.433 728.241 757.516 726.407 756.965 724.635C756.476 722.801 756.324 721.242 756.507 719.958Z" fill="white"/>
<defs>
<clipPath id="clip0_1782_206">
<rect width="855" height="186.853" fill="white" transform="translate(98.5869 427.5)"/>
</clipPath>
</defs>
</svg>
