<svg width="717" height="717" viewBox="0 0 717 717" fill="none" xmlns="http://www.w3.org/2000/svg">
<path fill-rule="evenodd" clip-rule="evenodd" d="M348.351 393.999C348.142 394.541 347.973 414.672 347.974 438.736C347.977 485.533 348.134 488.395 351.218 497.413C356.295 512.259 368.968 525.909 383.36 532.033C393.509 536.352 395.377 536.602 419.546 536.891C435.962 537.087 441.778 536.965 442.444 536.412C443.681 535.386 443.014 529.188 441.117 524.074C439.119 518.686 436.288 514.968 432.006 512.108C426.775 508.615 423.112 507.74 413.657 507.728C400.446 507.71 394.296 505.742 387.911 499.49C384.325 495.978 382.077 492.448 380.324 487.572C379.235 484.545 379.143 482.679 379.294 466.843L379.46 449.44L394.112 449.057C409.971 448.641 412.123 448.293 418.765 445.072C427.008 441.075 432.054 434.422 433.406 425.763C434.014 421.869 433.972 421.332 432.997 420.619C432.155 420.003 425.939 419.823 405.508 419.823C384.917 419.823 379.062 419.652 378.898 419.044C378.782 418.615 378.371 416.587 377.985 414.535C376.034 404.171 368.819 396.827 357.762 393.952C352.917 392.692 348.844 392.712 348.351 393.999ZM494.573 420.519C488.15 421.264 482.412 422.773 477.663 424.967C461.774 432.306 449.807 445.793 444.829 461.97C443.246 467.115 443.12 468.321 443.112 478.433C443.105 487.773 443.297 490.023 444.452 494.05C447.361 504.191 451.887 511.762 459.731 519.607C469.376 529.251 480.058 534.566 493.451 536.382C498.581 537.078 534.838 537.316 536.534 536.665C537.818 536.173 537.821 532.819 536.543 527.262C534.439 518.118 528.542 511.776 519.314 508.731C517.629 508.175 512.81 507.74 506.344 507.562C493.049 507.194 488.378 505.626 482.056 499.405C470.339 487.877 470.368 469.217 482.12 457.718C488.417 451.556 493.273 449.774 503.85 449.746C518.08 449.708 524.995 447.53 530.453 441.367C533.949 437.417 535.406 434.634 536.578 429.663C537.821 424.392 537.804 420.689 536.534 420.202C535.061 419.637 499.886 419.902 494.573 420.519ZM231.362 421.164C215.427 422.38 200.654 430.774 189.991 444.671C187.113 448.421 183.117 455.725 182.047 459.191C179.379 467.831 179.441 466.885 179.177 502.346L178.923 536.548L182.235 536.144C193.615 534.755 200.681 530.458 205.018 522.289C207.875 516.907 208.305 513.162 208.305 493.68C208.305 484.016 208.587 474.598 208.93 472.751C209.884 467.617 213.126 461.771 217.388 457.494C223.308 451.553 229.1 449.128 237.368 449.128C248.53 449.128 258.461 455.468 263.257 465.654C265.921 471.314 266.291 474.635 266.304 493.015C266.319 512.729 266.799 517.087 269.52 522.192C272.103 527.038 277.498 531.962 282.239 533.798C286.466 535.436 294.302 536.718 295.116 535.904C295.415 535.605 295.565 520.447 295.451 502.065C295.25 469.883 295.197 468.602 293.855 463.781C289.405 447.793 278.639 434.766 263.269 426.769C254.318 422.112 243.603 420.23 231.362 421.164ZM307.236 420.863C306.481 421.617 306.754 511.727 307.521 515.346C309.958 526.831 318.701 534.656 331.052 536.408C333.463 536.75 335.882 536.859 336.426 536.65C337.321 536.307 337.399 531.637 337.238 488.179L337.061 440.087L334.936 435.74C331.12 427.931 324.766 422.958 316.298 421.151C312.638 420.371 307.88 420.219 307.236 420.863ZM499.674 460.297C486.239 464.877 481.999 481.916 491.845 491.762C496.122 496.04 499.41 497.411 505.409 497.423C511.21 497.434 514.642 496.158 518.716 492.477C524.633 487.132 526.498 477.405 522.94 470.444C519.916 464.524 516.047 461.373 509.908 459.827C506.066 458.86 503.552 458.975 499.674 460.297Z" fill="white"/>
<path d="M251.784 187.198C255.645 178.615 260.373 175.435 274.563 171.879C278.336 170.934 281.633 170.136 281.89 170.106C282.882 169.989 282.29 171.199 280.913 172.101C280.118 172.622 277.357 175.139 274.776 177.695C269.697 182.724 265.186 186.003 258.352 189.635C255.951 190.911 253.22 192.62 252.283 193.435C250.379 195.087 240.582 207.472 240.582 208.226C240.582 209.246 241.631 208.588 244.761 205.605C248.778 201.779 250.821 200.899 260.098 198.995C268.152 197.343 269.263 197.224 269.263 198.016C269.263 199.031 260.833 207.296 258.664 208.408C254.965 210.304 250.493 211.188 244.555 211.195C240.768 211.2 238.65 211.463 238.223 211.982C237.055 213.401 231.151 225.622 231.348 226.213C231.455 226.532 232.892 225.535 234.543 223.997C237.862 220.906 241.342 219.158 247.071 217.704C249.16 217.174 251.775 216.422 252.881 216.034C253.987 215.646 255.077 215.514 255.304 215.741C255.929 216.365 250.758 223.97 248.038 226.428C244.395 229.72 242.255 230.562 235.694 231.285C232.381 231.651 229.387 232.17 229.041 232.44C228.695 232.708 228.049 234.283 227.605 235.939C226.815 238.878 226.454 240.288 224.973 246.201C223.77 251.004 224.469 251.912 226.591 248.302C229.533 243.296 232.881 240.477 240.477 236.611C244.351 234.639 247.643 233.026 247.792 233.026C249.344 233.026 244.133 244.323 240.961 247.833C238.283 250.798 235.117 252.388 228.917 253.885C226.445 254.482 224.147 255.302 223.811 255.707C223.475 256.113 223.003 259.973 222.763 264.286C222.094 276.331 223.405 280.171 225.454 272.166C227.096 265.75 229.079 263.46 240.22 255.122C242.25 253.602 244.012 252.46 244.136 252.583C244.622 253.07 242.865 262.21 241.67 265.412C239.884 270.193 235.806 274.09 230.294 276.279C223.295 279.058 222.988 279.35 223.457 282.787C223.803 285.32 225.726 295.306 226.697 299.612C227.334 302.435 228.413 300.484 229.105 295.257C229.494 292.329 230.425 288.702 231.177 287.198C232.684 284.18 243.533 272.556 244.209 273.234C244.963 273.987 244.392 285.807 243.473 288.474C241.78 293.389 238.394 296.946 232.164 300.357C227.593 302.86 227.602 302.829 229.948 308.619C232.954 316.039 236.795 323.537 237.398 323.164C237.683 322.989 237.777 320.202 237.608 316.972C237.383 312.661 237.555 310.354 238.256 308.299C239.225 305.452 247.991 291.978 248.525 292.513C249.196 293.183 250.556 302.224 250.551 305.977C250.544 311.526 248.683 315.371 244.058 319.391C242.091 321.101 239.943 322.753 239.285 323.063C236.994 324.14 237.509 325.334 244.494 335.126C247.246 338.984 249.846 342.14 250.272 342.14C250.698 342.14 251.215 342.813 251.421 343.634C251.901 345.543 264.919 357.957 265.663 357.214C266.151 356.726 265.347 354.226 263.576 350.722C263.275 350.127 263.038 347.602 263.05 345.111C263.066 341.595 263.484 339.535 264.918 335.905C265.934 333.333 266.766 330.614 266.767 329.863C266.772 327.132 267.99 327.861 270.288 331.97C276.39 342.882 276.19 346.094 268.796 355.861C267.156 358.028 266.914 358.71 267.524 359.445C269.309 361.596 283.482 370.199 285.24 370.199C285.831 370.199 285.223 368.897 283.47 366.412L280.798 362.625L280.583 353.942C280.464 349.166 280.52 345.258 280.708 345.258C281.538 345.258 289.041 353.621 290.307 355.959C291.972 359.032 292.058 361.386 290.702 366.783C289.511 371.527 289.743 372.436 292.291 372.995C295.331 373.663 294.526 374.365 290.307 374.726C288.164 374.909 283.352 375.927 279.616 376.989C269.578 379.839 263.546 380.571 256.945 379.737C251.119 379.002 245.449 377.269 242.262 375.251C239.933 373.777 240.064 373.718 247.752 372.761C266.68 370.407 267.273 370.402 280.721 372.475C283.947 372.972 283.539 371.71 279.821 369.694C276.307 367.789 267.349 362.044 266.23 360.978C265.29 360.084 262.576 360.315 255.318 361.909C248.545 363.397 238.922 362.799 233.411 360.55C228.591 358.582 218.135 352.326 218.135 351.409C218.135 351.086 219.456 350.966 221.097 351.138C222.726 351.31 227.812 351.612 232.398 351.811C243.17 352.276 248.676 353.551 257.728 357.676C261.19 359.253 263.029 359.773 263.025 359.173C263.022 358.893 259.762 355.447 255.779 351.515L248.538 344.366L238.169 344.333C228.165 344.3 227.648 344.235 223.485 342.488C221.112 341.491 217.044 339.064 214.444 337.094C209.57 333.399 202.75 326.745 204.433 327.325C204.956 327.505 208.043 328.272 211.292 329.028C225.599 332.359 228.021 333.032 231.754 334.718C233.93 335.7 238.073 337.953 240.963 339.725C243.853 341.498 246.377 342.788 246.573 342.592C246.768 342.397 245.799 340.709 244.42 338.842C243.04 336.975 240.471 333.24 238.709 330.542C235.035 324.913 234.796 324.708 231.853 324.68C228.8 324.651 219.652 322.988 216.11 321.819C210.363 319.922 203.83 314.088 197.811 305.479C194.336 300.509 194.187 299.071 197.378 301.305C198.116 301.823 200.998 303.221 203.781 304.412C216.383 309.806 221.214 312.798 229.359 320.253C234.849 325.279 234.877 325.012 230.013 314.082C228.258 310.139 226.441 306.053 225.975 305.004C225.228 303.324 224.453 302.89 219.46 301.358C205.887 297.195 200.608 292.884 195.72 281.971C194.016 278.17 191.942 272.106 192.242 271.806C192.702 271.346 209.887 284.82 213.275 288.297C215.232 290.305 218.334 294.052 220.169 296.624C222.005 299.196 223.771 301.16 224.094 300.989C224.788 300.621 224.829 300.997 223.268 293.506C220.721 281.284 220.535 279.469 220.603 267.542L220.672 255.52L218.627 253.782C208.657 245.305 205.099 239.754 204.644 231.968C204.32 226.402 205.593 217.356 206.756 216.969C207.185 216.827 207.536 217.03 207.536 217.42C207.536 217.811 209.114 221.272 211.043 225.111C215.779 234.536 217.19 238.477 218.416 245.695C219.579 252.546 219.886 253.602 220.716 253.602C221.41 253.602 221.439 253.502 222.778 246.431C223.362 243.345 224.241 239.436 224.729 237.744C225.218 236.053 225.618 234 225.618 233.181C225.618 231.833 222.815 227.068 220.835 225.052C220.401 224.61 219.15 222.37 218.055 220.075C214.753 213.158 215.507 205.759 220.512 195.927L222.099 192.809L223.245 198.109C226.151 211.553 226.351 213.226 225.994 221.179C225.493 232.302 226.196 232.694 229.871 223.34C230.55 221.614 232.115 218.363 233.349 216.117C234.584 213.872 235.594 211.671 235.594 211.226C235.594 210.782 236.506 209.366 237.62 208.079C238.734 206.792 240.702 204.226 241.991 202.378C243.28 200.529 245.302 197.9 246.485 196.536C248.77 193.899 248.765 193.908 251.784 187.198Z" fill="white"/>
<path d="M435.274 172.098C434.502 171.579 433.871 170.901 433.871 170.591C433.871 170.003 434.12 170.04 440.73 171.627C448.561 173.506 449.565 173.831 453.598 175.798C458.847 178.357 463.106 182.942 465.042 188.119C466.333 191.573 475.741 205.347 479.363 209.086C480.062 209.808 480.634 210.698 480.634 211.064C480.634 211.429 481.835 214.065 483.302 216.922C484.77 219.777 486.775 224.008 487.758 226.323C488.741 228.638 489.78 230.532 490.066 230.532C490.353 230.532 490.409 226.616 490.192 221.831C489.812 213.5 489.885 212.718 491.911 203.438C493.075 198.106 494.208 193.744 494.43 193.744C494.652 193.744 495.296 194.72 495.862 195.914C500.929 206.591 501.596 213.226 498.28 219.943C497.182 222.166 494.961 225.799 493.343 228.015L490.402 232.046L491.435 236.744C492.642 242.232 494.337 250.189 494.726 252.199C494.877 252.971 495.218 253.602 495.485 253.602C496.125 253.602 497.469 249.844 497.469 248.056C497.469 243.996 500.455 235.186 504.956 225.964L509.785 216.068L510.615 219.403C511.071 221.237 511.44 225.964 511.435 229.908C511.428 236.523 511.292 237.344 509.679 240.508C508.517 242.79 505.853 245.945 501.716 249.94L495.499 255.944L495.564 267.71C495.631 280.067 494.87 287.198 492.515 296.259C491.81 298.974 491.333 301.295 491.456 301.418C492.126 302.088 493.764 300.414 496.677 296.08C500.759 290.005 505.461 285.277 512.359 280.313C515.315 278.185 519.078 275.338 520.72 273.985C522.363 272.632 523.835 271.654 523.992 271.811C524.422 272.241 521.576 280.264 519.636 284.092C515.051 293.137 510.506 296.752 498.734 300.714C494.456 302.154 490.758 303.716 490.514 304.187C490.271 304.657 489.176 307.286 488.082 310.03C486.988 312.773 485.286 316.623 484.299 318.585C481.576 323.999 481.957 324.806 485.622 321.392C493.636 313.928 497.957 310.988 506.822 306.968C509.737 305.646 514.181 303.597 516.696 302.415C519.213 301.233 521.379 300.374 521.511 300.506C522.181 301.176 513.177 312.921 509.316 316.416C504.79 320.51 498.475 322.925 489.364 324.042C480.879 325.084 481.123 324.984 479.083 328.247C478.059 329.887 475.608 333.474 473.639 336.217C470.511 340.572 469.392 342.764 470.297 342.764C470.441 342.764 472.756 341.402 475.441 339.737C478.126 338.073 481.565 336.077 483.085 335.303C485.984 333.825 494.163 331.304 498.404 330.58C499.776 330.346 503.413 329.497 506.486 328.694C509.56 327.89 512.214 327.372 512.384 327.543C512.844 328.002 505.935 334.112 500.587 337.977C492.865 343.556 490.298 344.282 477.971 344.373L467.513 344.449L460.358 351.556C451.33 360.524 451.153 361.164 458.682 357.642C464.195 355.063 468.654 353.556 473.225 352.727C476.725 352.092 498.169 350.792 498.603 351.189C498.797 351.367 495.282 353.719 489.052 357.582C480.779 362.71 471.261 363.905 458.514 361.414L451.851 360.113L448.317 362.506C446.373 363.822 444.502 365.039 444.159 365.21C440.563 367.009 433.247 371.698 433.247 372.206C433.247 372.604 434.156 372.723 435.586 372.511C436.637 372.355 439.031 372 441.369 371.653L442.912 371.424C448.629 370.574 457.409 370.954 464.634 372.363C467.322 372.887 470.742 373.316 472.235 373.316C476.085 373.316 476.19 374.267 472.542 376.115C467.254 378.794 462.331 379.786 454.447 379.758C447.278 379.732 445.557 379.428 432.043 375.805C429.494 375.122 426.197 374.563 424.716 374.563C421.606 374.563 421.132 373.611 423.937 372.995C426.503 372.431 426.787 371.336 425.558 366.725C424.11 361.292 424.257 359.14 426.32 355.543C427.875 352.832 435.074 345.005 435.562 345.495C435.66 345.592 435.785 349.156 435.842 353.414C435.953 361.699 435.618 362.993 432.176 367.59C429.006 371.823 431.666 370.889 442.421 363.993C445.924 361.748 448.936 359.548 449.115 359.104C449.294 358.66 447.929 356.314 446.081 353.889C440.347 346.363 440.205 342.952 445.223 333.411C448.046 328.045 448.685 327.223 449.057 328.475C449.202 328.961 450.38 332.654 451.676 336.683C453.857 343.462 453.984 344.252 453.374 347.283C453.013 349.084 452.13 352.018 451.413 353.803C450.696 355.588 450.36 357.203 450.666 357.392C451.373 357.829 464.237 345.579 464.742 343.989C465.021 343.109 464.235 341.956 461.69 339.51C457.495 335.481 455.07 330.876 455.07 326.939C455.07 324.619 458.853 311.376 459.792 310.408C459.922 310.273 460.212 310.694 460.437 311.343C460.661 311.992 462.227 315.419 463.915 318.958C467.618 326.716 468.061 329.615 466.587 336.437C465.981 339.243 465.679 341.734 465.917 341.971C466.474 342.529 468.377 340.203 473.772 332.366C478.045 326.16 478.943 323.877 477.349 323.265C476.914 323.098 474.824 321.513 472.706 319.743C470.085 317.553 468.324 315.441 467.197 313.138C465.696 310.069 465.57 309.269 465.859 304.591C466.17 299.537 467.125 294.061 467.917 292.778C468.136 292.423 468.913 293.139 469.643 294.368C470.373 295.597 472.437 298.729 474.23 301.328C478.238 307.138 478.95 309.654 478.671 317.023C478.55 320.207 478.709 322.868 479.025 322.959C479.75 323.167 481.513 319.835 485.349 311.006C487.713 305.565 488.232 303.804 487.714 302.979C487.35 302.399 485.331 300.942 483.226 299.742C474.488 294.757 472.382 291.095 472.019 280.257C471.884 276.228 471.992 272.931 472.26 272.931C472.527 272.931 475.232 275.526 478.271 278.698C484.577 285.284 486.604 288.935 487.181 294.753C487.688 299.873 488.081 301.274 488.804 300.55C490.384 298.971 493.621 280.85 492.553 279.564C492.173 279.106 489.966 277.935 487.651 276.962C479.655 273.604 476.701 270.976 474.657 265.405C473.788 263.038 471.908 254.864 471.906 253.446C471.904 252.278 473.913 253.416 479.699 257.86C486.282 262.916 489.125 266.383 490.524 271.06C491.894 275.639 492.451 276.764 493.133 276.342C494.095 275.748 493.393 256.036 492.389 255.415C491.967 255.154 489.781 254.48 487.531 253.917C478.314 251.608 474.887 248.958 471.269 241.341C468.887 236.328 467.72 233.026 468.331 233.026C469.415 233.026 483.698 240.816 485.18 242.215C486.182 243.162 487.841 245.41 488.866 247.211C491.435 251.724 492.129 251.985 491.578 248.234C490.861 243.355 488.141 233.402 487.315 232.635C486.898 232.249 483.892 231.641 480.634 231.284C474.658 230.627 473.196 230.134 469.603 227.559C467.589 226.117 462.529 219.785 460.95 216.73L460.073 215.035L462.092 215.665C463.203 216.011 465.234 216.564 466.605 216.893C469.547 217.599 476.08 219.832 477.762 220.705C478.412 221.043 480.172 222.451 481.672 223.834C483.173 225.217 484.538 226.213 484.705 226.045C485.082 225.668 480.981 216.716 478.977 213.541L477.501 211.203H471.651C464.901 211.203 458.844 209.642 455.956 207.158C454.954 206.297 453.969 205.592 453.765 205.592C453.177 205.591 446.894 197.971 447.216 197.649C447.636 197.23 455.852 198.65 461.304 200.085C466.63 201.487 468.807 202.683 471.905 205.913C473.105 207.164 474.6 208.466 475.226 208.807C476.204 209.339 476.278 209.266 475.754 208.288C474.472 205.898 465.894 195.08 464.073 193.557C463.023 192.679 460.497 191.06 458.461 189.958C451.709 186.307 446.477 182.532 441.549 177.76C438.869 175.164 436.046 172.617 435.274 172.098Z" fill="white"/>
<path d="M233.2 185.843C234.284 183.686 236.563 180.359 238.264 178.451C239.965 176.543 241.437 175.065 241.537 175.166C241.637 175.268 241.48 180.121 241.188 185.95C240.65 196.714 240.472 197.582 236.965 206.48C235.561 210.041 235.516 209.998 232.862 202.592C230.5 196 230.601 191.017 233.2 185.843Z" fill="white"/>
<path d="M475.669 194.991C475.336 193.105 474.96 187.844 474.833 183.301C474.707 178.757 474.686 175.039 474.788 175.039C475.25 175.039 478.482 178.813 480.974 182.262C485.566 188.619 486.345 194.598 483.569 202.162C481.199 208.62 481.103 208.803 480.462 208.162C479.389 207.089 476.313 198.637 475.669 194.991Z" fill="white"/>
<path d="M199.958 263.196C198.275 259.39 196.336 250.203 196.355 246.119L196.371 242.69L198.056 244.838C198.984 246.019 201.566 249.112 203.795 251.712C208.837 257.591 211.994 261.903 213.627 265.14C215.341 268.535 219.353 278.542 219.001 278.542C218.845 278.542 217.314 277.831 215.6 276.962C207.248 272.73 202.217 268.302 199.958 263.196Z" fill="white"/>
<path d="M516.809 246.743C516.99 246.572 517.693 245.589 518.371 244.561L519.604 242.69L519.79 246.25C520.025 250.742 518.458 258.443 516.353 263.136C514.335 267.639 509.853 271.853 502.965 275.726C500.185 277.29 497.784 278.441 497.629 278.286C497.189 277.846 501.106 268.019 503.244 264.201C504.878 261.283 508.176 256.532 509.303 255.472C509.486 255.301 511.175 253.337 513.057 251.108C514.939 248.879 516.627 246.914 516.809 246.743Z" fill="white"/>
<path d="M249.682 335.905C248.356 329.055 248.89 326.195 253.121 317.489C255.436 312.724 256.503 311.092 256.871 311.748C257.152 312.252 258.233 315.2 259.27 318.298C261.61 325.281 261.697 328.967 259.619 333.137C257.817 336.753 252.087 342.694 251.261 341.801C250.957 341.473 250.246 338.82 249.682 335.905Z" fill="white"/>
<path fill-rule="evenodd" clip-rule="evenodd" d="M346.267 166.278C322.271 168.25 297.398 181.721 281.164 201.538C271.671 213.126 265.778 224.737 261.225 240.82C258.379 250.873 257.745 270.674 259.896 282.283C263.682 302.714 272.49 319.867 286.596 334.278C293.415 341.244 300.999 347.286 307.298 350.771C313.4 354.147 323.957 359.013 327.836 360.237L332.475 361.702L333.76 359.94C334.466 358.972 336.1 357.026 337.391 355.615C339.483 353.329 339.689 352.816 339.293 350.87C337.742 343.247 341.991 335.494 349.105 332.967L352.14 331.889L353.532 325.948C355.141 319.075 355.495 318.447 357.759 318.447C360.165 318.447 361.348 319.65 361.742 322.5C362.431 336.131 366.891 333.88 368.667 336.131C375.213 342.989 373.966 345.883 373.966 348.913C373.966 350.707 372.408 350.87 373.125 352.433C375.037 353.75 377.868 356.473 379.416 358.485C381.373 361.028 382.545 362.045 383.266 361.823C383.835 361.648 386.266 360.908 388.666 360.177C393.675 358.654 404.195 353.711 410.156 350.081C432.835 336.269 450.296 311.998 455.567 286.96C457.634 277.137 457.836 275.117 457.776 264.825C457.707 253.097 456.908 247.147 454.088 237.345C451.375 227.915 445.912 216.067 441.458 209.956C440.584 208.755 438.752 206.23 437.387 204.344C433.237 198.607 420.945 186.885 414.854 182.853C403.558 175.378 391.761 170.355 378.69 167.453C372.412 166.06 356.108 165.469 346.267 166.278ZM320.029 288.185C320.506 286.284 325.854 278.353 330.01 273.379C331.953 271.054 333.811 269.317 334.138 269.519C334.465 269.721 334.732 270.946 334.732 272.242C334.732 277.149 337.12 289.979 339.734 299.118C341.91 306.726 341.916 306.876 340.06 307.721C339.161 308.131 337.047 309.755 335.363 311.33C332.622 313.894 330.991 314.446 330.991 312.812C330.991 312.496 328.449 307.127 325.343 300.88C321.533 293.22 319.803 289.086 320.029 288.185ZM357.44 207.315C356.265 208.114 350.581 216.952 348.196 221.685C341.976 234.038 339.717 244.804 339.73 262.019C339.743 278.631 342.297 292.021 348.115 305.977C348.249 306.298 348.377 306.605 348.498 306.897C349.735 309.882 350.352 311.37 351.466 312.111C352.573 312.846 354.171 312.843 357.359 312.837C357.673 312.836 358.002 312.835 358.348 312.835H365.1L367.038 308.627C370.836 300.384 373.805 289.916 375.925 277.295C376.965 271.107 376.971 252.019 375.935 246.431C373.113 231.204 369.092 221.181 361.613 210.735C358.718 206.691 358.555 206.558 357.44 207.315ZM351.269 241.502C351.866 240.244 353.089 238.816 353.987 238.327C356.401 237.016 360.716 237.16 362.768 238.621C366.56 241.322 366.929 247.525 363.48 250.606C356.974 256.42 347.531 249.379 351.269 241.502ZM380.562 280.413C381.094 276.812 381.675 272.954 381.853 271.839C382.031 270.725 382.44 269.813 382.763 269.813C384.353 269.813 396.46 286.599 396.46 288.803C396.46 289.858 384.668 314.082 384.154 314.082C383.964 314.082 382.516 312.885 380.937 311.422C379.358 309.959 377.268 308.189 376.292 307.489L374.518 306.217L376.531 299.394C378.745 291.889 379.138 290.04 380.562 280.413Z" fill="white"/>
</svg>
