<svg width="474" height="230" viewBox="0 0 474 230" fill="none" xmlns="http://www.w3.org/2000/svg">
<path fill-rule="evenodd" clip-rule="evenodd" d="M244.232 1.70277C233.308 7.88916 237.204 23.2819 249.694 23.2819C252.814 23.2819 254.249 22.8649 256.17 21.4003C261.134 17.614 262.496 10.0345 259.061 5.31332C257.359 2.97341 251.765 -0.0164629 249.122 6.825e-05C248.073 0.00683098 245.872 0.773273 244.232 1.70277ZM274.823 1.43677C271.47 3.54975 269.388 7.21966 269.385 11.0226C269.381 14.9788 270.283 17.3607 273.119 20.8901C276.458 25.0455 276.717 27.6619 274.241 32.2124C272.673 35.0926 271.543 36.2182 269.562 36.872C266.071 38.0239 260.658 37.3348 258.628 35.4796C256.161 33.2254 252.45 31.5474 249.932 31.5474C239.612 31.5474 234.43 43.6482 241.269 51.7755C246.215 57.6538 244.739 65.5888 238.114 68.7319C234.483 70.4549 230.867 69.8192 227.104 66.7948C221.406 62.2157 214.641 62.2427 210.02 66.8639C202.413 74.4712 207.876 86.7321 218.833 86.6411C222.263 86.6133 223.272 86.2143 226.792 83.4995C230.1 80.9469 231.41 80.3894 234.095 80.3894C243.009 80.3894 247.72 90.683 241.946 97.5449C234.769 106.076 239.586 117.96 250.221 117.96C255.546 117.96 259.852 114.674 261.211 109.572C262.366 105.238 261.408 101.445 258.112 97.2977C254.638 92.926 255.01 86.2219 258.936 82.4528C260.731 80.729 262.087 75.5841 261.478 72.8083C261.213 71.6016 259.832 68.9228 258.411 66.8571C253.526 59.7548 254.552 53.2333 261.105 49.7452C264.218 48.0883 264.46 48.0703 268.334 49.1959C271.756 50.1915 272.618 50.834 274.243 53.6067C276.938 58.2061 276.696 60.6061 272.977 66.1756C270.23 70.2896 269.818 71.437 269.867 74.8266C270.048 87.3602 286.247 90.7671 292.004 79.4824C294.022 75.527 293.584 71.5993 290.673 67.5387C286.976 62.3787 286.589 61.3681 286.897 57.6681C287.206 53.9539 288.581 52.0468 292.923 49.3071C295.526 47.6653 299.526 48.1544 303.198 50.5657C308.124 53.7998 308.886 54.0681 313.181 54.0786C317.198 54.0891 317.769 53.8682 320.64 51.1902C323.484 48.5369 323.775 47.9132 324.059 43.8639C324.319 40.1346 324.088 39.0248 322.589 36.8186C320.5 33.7446 315.72 30.8261 312.746 30.8081C310.559 30.7953 306.863 32.5671 302.521 35.7103C297.793 39.133 290.299 37.4107 287.583 32.2763C286.12 29.5104 286.796 22.9114 288.757 20.824C294.068 15.1704 293.704 6.72974 287.955 2.22877C284.86 -0.193794 278.061 -0.604067 274.823 1.43677ZM456.082 81.5819C451.818 83.7903 450.473 86.8049 450.473 94.1493C450.473 98.5796 450.194 100.678 449.606 100.678C449.129 100.678 446.976 99.8435 444.821 98.8238C442.665 97.8041 439.498 96.7454 437.781 96.4704C436.064 96.1961 434.478 95.6776 434.257 95.3192C434.035 94.96 430.086 94.6662 425.483 94.6662C418.734 94.6662 415.941 95.0239 411.063 96.514C392.908 102.057 379.537 117.197 376.527 135.618C375.096 144.373 375.592 182.169 377.252 190.918C378.611 198.078 383.038 207.194 387.833 212.706C390.986 216.331 400.022 223.909 401.191 223.909C401.408 223.909 403.372 224.719 405.553 225.708C420.213 232.356 437.902 230.756 452.468 221.464C455.283 219.668 462.31 213.108 464.471 210.258C466.71 207.305 469.366 202.599 470.431 199.697C473.795 190.527 473.749 191.369 473.746 139.375L473.742 89.782L472.064 86.847C471.14 85.233 469.469 83.2327 468.35 82.4031C465.666 80.4127 459.178 79.9791 456.082 81.5819ZM309.261 93.5789C306.605 94.1553 302.973 95.3117 301.192 96.1488C299.41 96.9866 297.738 97.6719 297.476 97.6719C295.316 97.6719 279.902 111.349 279.902 113.265C279.902 113.625 279.31 114.575 278.587 115.376C276.013 118.228 273.237 125.455 271.679 133.364C270.544 139.13 271.015 182.469 272.285 188.969C274.824 201.97 285.865 216.29 297.936 222.238C307.843 227.12 308.3 227.185 334.526 227.493C361.624 227.811 362.226 227.717 366.157 222.564C367.803 220.405 368.168 219.136 368.168 215.57C368.168 210.862 366.94 208.472 363.018 205.546C361.027 204.062 359.995 203.997 338.267 203.997C317.643 203.997 315.254 203.866 311.837 202.543C302.433 198.904 294.93 188.784 294.93 179.739V176.57H327.123C359.226 176.57 359.325 176.566 362.627 174.847C364.961 173.632 366.455 172.135 367.686 169.775C369.4 166.492 369.428 166.096 369.081 149.519C368.741 133.256 367.742 125.549 365.627 122.887C365.28 122.451 364.737 121.248 364.422 120.214C362.231 113.036 349.147 100.157 340.766 96.9302C339.32 96.3727 337.798 95.6656 337.385 95.359C335.819 94.1958 324.829 92.4142 319.57 92.4714C316.556 92.5044 311.917 93.0026 309.261 93.5789ZM186.629 93.8983C183.567 94.812 180.154 97.6531 179.121 100.148C178.412 101.859 178.171 112.693 178.134 144.562L178.085 186.714L176.086 190.472C173.039 196.196 169.311 200.057 164.454 202.517C160.445 204.549 159.379 204.748 152.537 204.748C145.651 204.748 144.695 204.567 141.091 202.569C133.602 198.42 128.985 191.974 127.375 183.419C126.924 181.02 126.613 163.897 126.613 141.388C126.613 104.573 126.566 103.308 125.065 100.209C123.368 96.7018 118.896 93.9148 114.966 93.9148C111.023 93.9148 106.566 96.7011 104.855 100.236C103.315 103.416 103.299 104.034 103.73 144.336C104.223 190.502 104.404 192.304 109.598 202.432C112.898 208.868 121.774 218.704 126.238 220.872C127.477 221.473 128.999 222.351 129.619 222.822C130.239 223.293 133.113 224.61 136.006 225.748C140.315 227.444 142.828 227.886 149.907 228.192C165.015 228.844 176.474 224.84 186.611 215.365C190.154 212.054 195.17 204.787 197.533 199.543C201.497 190.744 201.793 186.304 201.309 142.861C201.054 119.96 200.551 102.265 200.115 100.832C199.168 97.7215 196.133 94.8579 193.15 94.2605C191.89 94.0088 190.352 93.6916 189.732 93.5549C189.112 93.4189 187.715 93.5737 186.629 93.8983ZM212.29 94.4371C210.851 95.1832 208.888 96.9708 207.925 98.4105L206.177 101.028L206.45 144.998L206.725 188.969L208.823 194.557C210.929 200.167 211.613 201.493 215.213 206.945C223.219 219.072 239.025 227.667 253.321 227.667C258.483 227.667 259.643 227.41 262.138 225.714C269.138 220.957 268.676 210.718 261.267 206.39C259.802 205.535 256.738 204.787 253.756 204.556C244.392 203.832 236.188 198.115 232.109 189.468C230.392 185.83 230.047 183.93 229.736 176.383L229.371 167.553H243.44C258.532 167.553 260.632 167.136 264.094 163.451C267.572 159.748 267.458 152.031 263.867 148.133C260.56 144.544 259.097 144.26 243.914 144.26H229.643L229.412 123.032C229.216 104.999 228.994 101.466 227.939 99.5504C224.945 94.1139 217.562 91.7019 212.29 94.4371ZM39.2719 95.0945C39.036 95.3297 36.8877 96.033 34.4974 96.6575C19.542 100.563 6.70412 113.187 1.37283 129.231C0.105949 133.045 0 136.756 0 177.322V221.28L1.81091 224.193C6.1879 231.234 16.3876 231.368 20.9464 224.444L23.0293 221.28L22.7859 179.576L22.5424 137.873L24.998 132.852C29.4442 123.764 37.2408 118.555 47.1092 118.082C58.9101 117.516 68.0676 123.731 72.4589 135.285C73.9136 139.112 74.0188 141.021 74.0932 164.923C74.1375 178.975 74.3908 197.633 74.6575 206.386C75.0993 220.918 75.2774 222.484 76.7104 224.42C79.8505 228.66 85.6552 230.194 90.6566 228.105C93.7878 226.796 95.2763 225.178 96.9332 221.28C98.0844 218.572 98.1617 215.885 97.7124 194.229C97.4381 181.004 97.0767 162.575 96.9091 153.277C96.5612 133.985 96.3516 132.176 93.6841 125.474C86.0865 106.382 68.5132 94.6662 47.4736 94.6662C43.198 94.6662 39.5071 94.8586 39.2719 95.0945ZM312.403 116.007C307.457 117.621 301.967 121.51 299.205 125.357C294.553 131.836 293.913 134.004 293.567 144.447L293.25 154.028H320.089H346.929L346.622 144.447C346.356 136.122 346.062 134.312 344.371 130.63C340.18 121.501 331.41 115.629 321.334 115.207C317.829 115.06 314.351 115.371 312.403 116.007ZM413.874 119.473C408.297 122.221 403.19 127.114 400.972 131.833C397.981 138.195 397.64 141.947 398.067 163.796C398.397 180.701 398.712 185.212 399.8 188.593C402.273 196.287 407.312 201.857 414.908 205.295C417.707 206.562 420.013 206.946 424.982 206.97C430.665 206.999 431.951 206.739 435.877 204.769C441.05 202.174 447.303 196.243 449.262 192.075C451.375 187.576 451.63 183.178 451.202 158.536L450.805 135.618L448.426 131.486C445.383 126.196 441.404 122.366 436.196 119.712C432.735 117.949 430.963 117.571 425.3 117.391C419.049 117.191 418.185 117.348 413.874 119.473ZM42.7262 132.347C36.5495 135.51 34.5921 143.733 38.6745 149.368C41.5149 153.289 43.0387 154.074 47.9229 154.132C55.1328 154.218 59.7374 149.785 59.7374 142.757C59.7374 138.311 58.0092 135.198 54.2123 132.8C50.2636 130.308 46.9634 130.178 42.7262 132.347ZM317.532 133.115C315.537 133.47 313.358 134.521 312.079 135.746C309.992 137.746 308.128 142.371 308.904 143.625C309.119 143.974 314.159 144.26 320.102 144.26C326.046 144.26 331.086 143.974 331.301 143.625C332.083 142.36 330.204 137.738 328.081 135.703C325.446 133.178 321.974 132.327 317.532 133.115ZM147.813 169.401C142.887 172.121 140.42 176.913 141.37 181.917C141.998 185.227 142.738 186.609 145.228 189.134C147.079 191.01 147.789 191.212 152.565 191.217C159.205 191.224 161.858 189.419 163.714 183.628C164.83 180.149 164.837 179.487 163.793 176.528C162.439 172.691 161.013 170.962 157.936 169.427C155.258 168.091 150.209 168.078 147.813 169.401ZM420.041 169.973C415.797 172.05 414.153 174.585 413.837 179.542C413.631 182.765 413.919 184.263 415.108 186.158C417.592 190.115 420.842 191.726 425.71 191.415C432.573 190.977 436.515 186.811 436.363 180.156C436.252 175.291 433.905 171.563 429.86 169.829C425.869 168.119 423.765 168.15 420.041 169.973ZM244.09 179.992C243.353 181.913 246.195 187.108 249.04 189.042C250.506 190.038 252.798 190.847 254.152 190.847H256.608V184.836V178.825H250.573C245.809 178.825 244.444 179.07 244.09 179.992Z" fill="white"/>
</svg>
