<svg width="362" height="381" viewBox="0 0 362 381" fill="none" xmlns="http://www.w3.org/2000/svg">
<path d="M0.00144239 337.343C0.0182689 332.281 0.837018 327.257 2.42415 322.478C3.97606 317.651 6.35973 313.164 9.45634 309.242C12.586 305.307 16.437 302.073 20.7804 299.732C25.523 297.221 30.7773 295.962 36.0879 296.064C42.8872 296.064 48.6854 297.755 53.4824 301.138C58.1369 304.344 61.8529 308.843 64.2167 314.135L59.7161 316.932C58.4905 314.282 56.8718 311.854 54.9206 309.738C51.5205 306.061 47.1714 303.507 42.4078 302.391C40.1908 301.853 37.9233 301.578 35.6479 301.572C31.1604 301.473 26.7229 302.577 22.754 304.778C19.0977 306.855 15.8823 309.692 13.3036 313.116C10.7018 316.58 8.71898 320.511 7.45103 324.717C6.14654 328.917 5.47753 333.306 5.46841 337.724C5.44535 347.112 8.56021 356.21 14.27 363.433C16.9556 366.772 20.2467 369.517 23.9517 371.509C27.6669 373.53 31.7948 374.572 35.9791 374.544C38.3682 374.529 40.7472 374.216 43.0657 373.61C45.5077 372.991 47.8571 372.023 50.048 370.732C52.3359 369.362 54.4321 367.665 56.2771 365.691C58.2464 363.555 59.8666 361.092 61.0727 358.402L65.8001 360.851C64.5308 363.919 62.7484 366.723 60.5373 369.131C58.3599 371.479 55.8761 373.491 53.1603 375.106C50.45 376.735 47.5429 377.972 44.5175 378.784C41.5878 379.581 38.5746 379.991 35.5481 380.004C30.5453 380.062 25.6109 378.78 21.2114 376.278C16.9103 373.815 13.0999 370.507 9.98716 366.535C3.58236 358.282 0.0601354 347.975 0.00597929 337.329L0.00144239 337.343Z" fill="white"/>
<path d="M258.372 310.29C253.433 304.303 246.452 301.309 237.43 301.309C229.989 301.309 224.566 302.845 221.161 305.917C217.758 308.985 216.06 313.125 216.066 318.338C215.988 320.609 216.43 322.867 217.354 324.922C218.293 326.765 219.68 328.314 221.374 329.41C223.521 330.804 225.848 331.866 228.284 332.564C231.078 333.422 234.442 334.314 238.374 335.242C242.457 336.176 246.162 337.206 249.489 338.334C252.502 339.303 255.361 340.737 257.973 342.589C260.22 344.206 262.063 346.368 263.345 348.892C264.679 351.754 265.323 354.917 265.223 358.102C265.296 361.408 264.615 364.685 263.236 367.659C261.925 370.37 260.011 372.709 257.656 374.477C255.059 376.401 252.148 377.806 249.067 378.622C245.435 379.59 241.699 380.06 237.952 380.018C226.074 380.018 216.023 375.898 207.799 367.659L210.703 362.88C214.022 366.606 218.044 369.564 222.513 371.566C227.469 373.77 232.81 374.863 238.192 374.772C244.852 374.772 250.059 373.451 253.813 370.808C257.569 368.166 259.449 364.164 259.452 358.802C259.523 356.392 259.008 354.003 257.955 351.86C256.863 349.859 255.333 348.161 253.491 346.905C251.178 345.343 248.667 344.132 246.032 343.308C243.025 342.292 239.517 341.331 235.506 340.426C231.496 339.527 227.896 338.534 224.709 337.448C221.916 336.563 219.273 335.225 216.873 333.484C214.848 332.009 213.2 330.032 212.078 327.728C210.911 325.041 210.359 322.104 210.467 319.152C210.402 315.733 211.082 312.343 212.454 309.242C213.752 306.401 215.649 303.908 218.003 301.953C220.524 299.887 223.407 298.361 226.487 297.46C230.055 296.41 233.747 295.898 237.453 295.94C241.961 295.86 246.443 296.673 250.664 298.336C254.604 299.987 258.18 302.467 261.172 305.626L258.372 310.29Z" fill="white"/>
<path d="M362 373.949V379.318H311.196V296.522H361.991V301.892H316.676V334.423H361.991V339.554H316.676V373.954L362 373.949Z" fill="white"/>
<path d="M136.829 303.774L139.179 296.542H134.465L102.025 379.342H107.938L119.855 347.153L136.829 303.774Z" fill="white"/>
<path d="M171.405 379.342L139.177 296.542L136.827 303.774L154.966 352.061L165.601 379.342H171.405Z" fill="white"/>
<path d="M0.00983446 252.418V256.139C3.34316 256.139 5.96149 256.35 8.49422 256.139C40.4378 252.952 64.466 224.307 64.5767 199.344C64.6439 184.062 64.664 168.784 64.6372 153.509H0.0148697C-0.0153418 183.861 0.00983446 221.987 0.00983446 252.418Z" fill="white"/>
<path d="M361.89 11.4533V0.0937114C358.567 0.0937114 355.966 -0.117139 353.445 0.0937114C321.647 3.27228 297.724 24.1518 297.618 49.0638C297.553 64.2977 297.548 87.1908 297.553 102.435H361.88C361.917 72.115 361.92 41.7877 361.89 11.4533Z" fill="white"/>
<path d="M156.743 0.021C152.226 -0.0844948 147.624 0.205616 142.976 0.933529L68.0711 12.6645C49.1462 15.627 31.8647 25.6167 19.3718 40.8155C6.87888 56.0144 0.00508037 75.412 0.00144239 95.4779V212.661C11.6557 190.096 46.2765 185.444 46.2765 185.444L127.484 172.732L127.519 172.721L166.577 166.613C184.37 163.827 200.744 154.819 213.045 141.052C225.345 127.284 232.851 109.563 234.344 90.7623C234.531 88.4572 234.636 86.1205 234.636 83.7733V83.1983C234.578 72.0507 232.387 61.0287 228.193 50.7851C216.111 21.2518 188.381 0.775287 156.743 0.021ZM127.263 52.3042C131.742 52.0792 136.218 52.8104 140.419 54.4533C144.621 56.0962 148.461 58.6166 151.706 61.8619C154.951 65.1071 157.534 69.0095 159.298 73.3327C161.062 77.6558 161.971 82.3096 161.969 87.012L161.939 86.9856C161.943 95.3081 159.095 103.355 153.914 109.66C148.734 115.965 141.566 120.108 133.716 121.335L83.7895 129.173C83.7895 129.173 69.3939 131.098 64.5954 140.461V91.8805C64.5976 83.5524 67.4509 75.5019 72.6361 69.1939C77.8213 62.886 84.9938 58.74 92.8484 57.5104L123.928 52.647C125.035 52.473 126.141 52.3569 127.263 52.3042Z" fill="white"/>
<path d="M361.91 43.2825C350.306 65.8565 315.713 70.5084 315.713 70.5084L234.582 83.2352H234.567L195.549 89.3481C177.776 92.1321 161.42 101.138 149.133 114.904C136.846 128.671 129.348 146.391 127.856 165.192C127.67 167.497 127.564 169.834 127.564 172.181V172.745H127.589C127.64 183.895 129.825 194.923 134.01 205.166C147.794 238.911 182 260.831 219.114 255.008L293.926 243.278C312.831 240.315 330.093 230.323 342.571 215.122C355.049 199.92 361.912 180.519 361.91 160.451V43.2825ZM297.417 115.477L297.478 164.106C297.477 172.434 294.628 180.485 289.449 186.794C284.27 193.102 277.106 197.249 269.26 198.478L238.184 203.331C218.175 206.479 200.18 190.198 200.196 168.953C200.194 160.634 203.039 152.591 208.212 146.289C213.384 139.987 220.541 135.845 228.378 134.617L278.237 126.774C278.237 126.774 292.625 124.839 297.417 115.477Z" fill="white"/>
<path d="M166.622 166.702C184.403 163.912 200.766 154.885 213.059 141.085C225.352 127.285 232.854 109.522 234.35 90.6746C234.536 88.3638 234.636 86.0266 234.636 83.6682V83.1024L195.578 89.231C177.797 92.0232 161.434 101.052 149.142 114.854C136.849 128.656 129.349 146.421 127.856 165.269C127.67 167.58 127.564 169.917 127.564 172.276V172.842L166.622 166.702Z" fill="white"/>
</svg>
