<svg width="492" height="390" viewBox="0 0 492 390" fill="none" xmlns="http://www.w3.org/2000/svg">
<path fill-rule="evenodd" clip-rule="evenodd" d="M171.867 0.752433C166.424 2.39513 162.934 5.4763 160.434 10.8453C155.481 21.483 159.169 31.6996 169.817 36.8358C172.761 38.2556 175.08 39.7491 174.972 40.1536C174.864 40.5581 174.776 45.5294 174.776 51.1998V61.5097H167.315C158.805 61.5097 154.036 63.2584 152.329 67.0033C151.586 68.6333 151.211 77.8512 151.211 94.449C151.211 108.194 151.1 119.444 150.965 119.448C150.831 119.452 144.534 119.707 136.973 120.014L123.227 120.574L121.043 115.792C117.231 107.447 108.322 103.171 99.6076 105.502C93.3068 107.187 89.6934 110.2 86.7429 116.231C83.5625 122.731 83.9415 128.31 88.0085 134.858C94.6294 145.518 109.768 146.794 118.407 137.42L121.442 134.126L136.326 140.773L151.211 147.418V177.569C151.211 198.023 151.57 208.507 152.329 210.172C154.526 214.995 157.973 215.666 180.57 215.666C191.965 215.666 201.287 215.868 201.287 216.115C201.287 216.362 197.496 221.853 192.861 228.317L184.437 240.07L180.465 238.669C175.074 236.767 171.18 236.938 165.965 239.303C158.048 242.895 154.682 248.145 154.682 256.905C154.682 265.672 158.091 270.831 166.43 274.685C171.972 277.246 176.632 276.996 182.73 273.809C186.967 271.596 188.485 270.078 190.698 265.841C194.108 259.314 194.161 254.828 190.907 248.298C189.341 245.155 188.689 242.725 189.189 241.896C189.633 241.161 193.92 234.958 198.717 228.112L207.439 215.666H253.031C300.404 215.666 301.051 215.613 304.412 211.462C305.986 209.517 306.022 209.519 313.534 211.749C318.843 213.325 321.084 214.454 321.099 215.564C321.14 218.545 324.84 225.323 327.943 228.102C337.933 237.044 352.664 233.651 358.491 221.066C360.801 216.076 360.799 211.321 358.485 206.338C355.008 198.851 349.627 195.129 340.877 194.156L335.639 193.574L321.029 165.59L306.419 137.606L306.384 102.896L306.349 68.1865L303.01 64.8481L299.672 61.5097H272.674H245.676L233.748 53.4091C201.658 31.6161 195.901 27.4215 196.249 26.0822C198.746 16.4685 195.538 7.43516 188.074 3.05987C182.961 0.0641355 176.973 -0.788149 171.867 0.752433ZM189.544 34.5451C187.676 35.8657 184.693 37.4259 182.916 38.0121L179.685 39.0784V50.2945V61.5097H208.356C224.303 61.5097 236.613 61.1375 236.095 60.6702C234.426 59.1679 195.188 32.8925 194.048 32.5135C193.44 32.3103 191.412 33.2254 189.544 34.5451ZM157.649 68.6018C156.365 70.434 156.12 74.6817 156.12 95.1128C156.12 110.677 156.474 119.441 157.102 119.441C157.642 119.441 158.084 118.386 158.084 117.098C158.084 115.81 159.311 112.408 160.811 109.537C163.07 105.211 164.518 103.8 169.27 101.293C172.422 99.6285 174.951 97.9504 174.889 97.5626C174.827 97.1748 174.776 90.0089 174.776 81.6384V66.4191H166.977C160.03 66.4191 159.01 66.6577 157.649 68.6018ZM179.71 82.3748L179.735 98.3304L185.764 101.276C191.687 104.17 192.497 105.111 197.026 114.362C197.191 114.701 259.149 95.2905 259.719 94.72C259.904 94.5364 259.553 92.5108 258.941 90.2201C258.093 87.0397 258.118 84.9768 259.046 81.5048C259.716 79.003 260.138 76.8605 259.986 76.7446C259.834 76.6288 256.305 74.2575 252.144 71.4758L244.578 66.4191H212.132H179.685L179.71 82.3748ZM254.309 66.8629C254.309 67.1074 256.187 68.5724 258.482 70.1189L262.655 72.93L268.012 69.675L273.369 66.4191H263.839C258.598 66.4191 254.309 66.6184 254.309 66.8629ZM286.22 68.7472C293.182 72.0217 297.544 78.8734 297.49 86.4486C297.463 90.3644 294.386 97.1266 291.17 100.342L288.655 102.858L294.802 114.832L300.948 126.805L301.21 98.9186C301.531 64.5889 302.167 66.4152 289.88 66.4289L281.311 66.4387L286.22 68.7472ZM243.999 104.711C234.278 107.855 219.842 112.46 211.918 114.945C198.27 119.226 197.478 119.613 196.889 122.292C196.547 123.848 194.967 127.171 193.377 129.679C191.787 132.186 190.486 134.438 190.486 134.684C190.486 135.119 191.897 136.731 207.162 153.73C211.203 158.231 215.006 162.593 215.614 163.423C216.603 164.778 217.138 164.765 220.805 163.298C225.46 161.435 229.46 161.223 233.189 162.641L235.763 163.619L250.791 132.939C264.505 104.939 265.688 102.108 264.33 100.54C263.511 99.5941 262.578 98.8607 262.257 98.9078C261.936 98.9549 253.72 101.567 243.999 104.711ZM265.951 112.515C263.984 116.595 257.428 130.113 251.383 142.558L240.391 165.183L243.668 170.455C246.411 174.869 246.945 176.663 246.945 181.49V187.254L253.327 189.12C256.837 190.146 268.798 193.667 279.906 196.943C291.014 200.22 300.403 202.901 300.771 202.901C301.139 202.901 301.439 188.256 301.439 170.355V137.807L292.97 121.498L284.5 105.189L277.014 105.144L269.528 105.098L265.951 112.515ZM130.449 125.076C124.96 125.363 123.844 125.722 123.422 127.337C123.146 128.394 123.232 129.45 123.614 129.686C124.7 130.358 150.461 142.024 150.857 142.024C151.052 142.024 151.211 138.048 151.211 133.187V124.35L144.092 124.543C140.176 124.649 134.037 124.889 130.449 125.076ZM156.12 134.509V144.668L183.472 157.092C198.514 163.926 211.328 169.517 211.946 169.517C212.564 169.517 213.07 169.098 213.07 168.585C213.07 168.074 206.844 160.588 199.237 151.951C186.306 137.273 185.245 136.308 182.972 137.172C175.518 140.006 164.68 135.304 160.635 127.483C159.744 125.76 158.364 124.35 157.567 124.35C156.385 124.35 156.12 126.212 156.12 134.509ZM306.368 176.05L306.349 204.674L313.129 206.734C316.858 207.866 320.34 208.793 320.865 208.793C321.39 208.793 322.38 207.443 323.064 205.794C323.746 204.145 325.788 201.396 327.601 199.686C329.413 197.976 330.881 196.122 330.863 195.567C330.844 195.01 325.33 183.951 318.609 170.99L306.389 147.425L306.368 176.05ZM156.12 178.724C156.12 205.479 156.248 207.622 157.937 209.15C159.544 210.604 162.382 210.763 182.65 210.53L205.547 210.266L210.403 203.594C214.881 197.438 215.137 196.789 213.71 195.211C210.215 191.351 207.904 184.126 208.502 178.932L209.076 173.936L184.423 162.644C170.864 156.434 158.95 151.035 157.945 150.647C156.192 149.971 156.12 151.072 156.12 178.724ZM243.508 193.035C243.508 193.55 241.521 195.338 239.092 197.009C234.264 200.331 227.401 201.63 222.397 200.17C219.637 199.365 219.22 199.62 215.77 204.229C213.745 206.934 212.088 209.51 212.088 209.952C212.088 210.394 231.475 210.757 255.171 210.757C292.269 210.757 298.423 210.552 299.476 209.284C300.148 208.474 300.515 207.811 300.293 207.811C300.07 207.811 287.993 204.276 273.456 199.956C247.009 192.096 243.508 191.288 243.508 193.035ZM79.2854 316.238C69.445 319.749 64.2891 327.607 64.3519 338.994C64.3824 344.464 64.9244 347.007 66.8597 350.777C69.7867 356.476 73.7662 358.983 84.404 361.83C93.3588 364.227 96.0305 366.931 92.7186 370.244C90.6233 372.338 84.1085 372.2 72.6597 369.822C67.5293 368.756 63.2208 367.878 63.0863 367.871C62.9517 367.864 62.8408 371.788 62.8408 376.589V385.321L69.9595 387.118C80.5727 389.797 93.4462 389.6 99.4131 386.669C108.084 382.408 112.917 374.446 112.917 364.422C112.917 352.648 108.306 346.795 95.8764 342.792C82.9528 338.63 82.4785 338.386 82.4785 335.933C82.4785 333.269 84.1271 332.511 89.9232 332.511C94.0884 332.511 94.2612 332.627 94.2612 335.456V338.402H102.116H109.971V328.621V318.84L106.2 317.824C94.2838 314.616 85.3123 314.086 79.2854 316.238ZM265.652 316.465C249.262 321.494 240.233 339.035 243.495 359.512C245.594 372.687 251.367 381.497 261.003 386.23C265.854 388.612 267.736 388.969 275.419 388.969C283.259 388.969 284.901 388.642 289.973 386.073C299.949 381.018 305.468 372.367 307.35 358.837C308.481 350.706 307.457 341.006 304.792 334.596C298.384 319.187 281.806 311.507 265.652 316.465ZM458.294 316.238C448.311 319.8 443.329 327.557 443.427 339.384C443.537 352.568 448.163 357.764 463.413 361.835C469.697 363.513 473.312 365.704 473.255 367.801C473.123 372.577 462.739 372.713 444.059 368.182C441.891 367.655 441.849 367.813 441.849 376.51V385.375L448.968 386.999C465.537 390.78 475.849 389.733 483.362 383.508C490.436 377.647 493.655 366.25 490.957 356.618C488.944 349.427 484.585 345.847 473.529 342.305C463.086 338.96 461.487 338.048 461.487 335.441C461.487 333.264 463.401 332.511 468.932 332.511C473.097 332.511 473.27 332.627 473.27 335.456V338.402H481.125H488.98V328.66V318.916L485.789 317.892C481.349 316.468 470.609 314.844 465.906 314.887C463.745 314.906 460.321 315.514 458.294 316.238ZM0 324.655V333.492H3.46509H6.93016L6.83983 360.74L6.74851 387.987L15.556 388.268L24.3626 388.55L24.9399 384.831C25.2581 382.787 25.4672 376.916 25.4053 371.786L25.2934 362.458L33.0209 361.856C37.2715 361.525 42.3282 360.587 44.2586 359.77C56.651 354.524 60.174 333.454 50.4572 322.7C45.0303 316.691 41.0341 315.818 18.972 315.818H0V324.655ZM116.845 324.655V333.492H120.281H123.718V352.148V370.804H120.281H116.845V379.641V388.478H132.555H148.265V379.641V370.804H145.319C143.642 370.804 142.353 370.276 142.327 369.577C142.285 368.48 142.309 339.494 142.355 335.211C142.369 333.96 143.176 333.492 145.319 333.492H148.265V324.655V315.818H132.555H116.845V324.655ZM151.211 324.621C151.211 333.392 151.238 333.492 153.627 333.492C155.593 333.492 156.225 334.18 157.015 337.175C157.548 339.2 160.239 349.915 162.993 360.985C165.747 372.056 168.439 382.771 168.972 384.796L169.942 388.478H176.658H183.374L184.339 384.796C191.281 358.276 193.757 349.2 193.982 349.426C194.13 349.574 196.294 357.648 198.791 367.369C201.288 377.088 203.564 385.815 203.848 386.76C204.275 388.18 205.537 388.478 211.106 388.478C216.677 388.478 217.935 388.18 218.355 386.76C218.635 385.815 221.557 374.879 224.849 362.458C232.884 332.14 232.399 333.492 235.239 333.492C237.578 333.492 237.617 333.351 237.617 324.655V315.818H229.488H221.359L217.088 333.247C214.74 342.832 212.512 351.016 212.138 351.433C211.764 351.849 209.983 345.442 208.182 337.195C206.381 328.948 204.513 320.765 204.033 319.01L203.158 315.818H195.415C188.899 315.818 187.589 316.09 187.14 317.537C186.847 318.481 184.853 326.706 182.709 335.812C180.565 344.918 178.656 352.523 178.467 352.712C178.278 352.9 176.597 344.787 174.732 334.683L171.339 316.309L161.275 316.03L151.211 315.75V324.621ZM313.222 324.57V333.492H316.659H320.095V361.023V388.552L329.178 388.27L338.26 387.987L338.29 374.538C338.306 367.142 338.567 360.843 338.869 360.541C340.004 359.405 342.652 363.817 348.122 375.959L353.761 388.478H363.44H373.117V379.641V370.804H369.848C366.887 370.804 366.364 370.343 364.28 365.896C363.016 363.196 361.188 360.269 360.219 359.392C358.542 357.874 358.604 357.698 361.529 355.71C373.128 347.823 371.191 324.798 358.398 318.491C354.336 316.489 352.288 316.282 333.596 315.979L313.222 315.647V324.57ZM375.081 324.655V333.492H378.518H381.954V360.985V388.478H391.374H400.795L400.476 377.739C400.302 371.833 400.398 366.761 400.69 366.468C400.983 366.176 405.316 371.008 410.319 377.207L419.415 388.478H428.177H436.94V379.641V370.804H434.092C431.665 370.804 429.926 369.212 422.31 360.016C417.395 354.083 413.375 348.814 413.375 348.307C413.375 347.516 416.974 342.765 435.202 319.501L438.087 315.818H427.903H417.717L409.539 326.128C405.042 331.799 401.082 336.439 400.741 336.439C400.399 336.44 400.269 331.801 400.454 326.129L400.789 315.818H387.935H375.081V324.655ZM25.4476 331.934C25.2227 332.157 25.1864 335.25 25.3671 338.807L25.697 345.275H29.5401C34.2512 345.275 37.3117 342.568 37.3117 338.402C37.3117 334.267 34.2473 331.529 29.6206 331.529C27.5498 331.529 25.6724 331.711 25.4476 331.934ZM267.797 335.384C265.164 337.696 264.008 339.719 263.219 343.397C260.949 353.98 262.848 365.392 267.625 369.88C271.289 373.321 279.557 373.315 283.226 369.867C287.043 366.282 289.06 358.206 288.321 349.466C287.354 338.023 284.053 333.515 276.079 332.749C271.815 332.339 270.952 332.614 267.797 335.384ZM338.589 338.891L338.919 345.275H342.762C347.41 345.275 350.534 342.574 350.534 338.554C350.534 334.607 347.784 332.511 342.601 332.509L338.26 332.507L338.589 338.891Z" fill="#ECE3FC"/>
</svg>
