<svg width="703" height="703" viewBox="0 0 703 703" fill="none" xmlns="http://www.w3.org/2000/svg">
<path d="M78.4229 429.128V328.832L180.922 429.128H78.4229Z" fill="white"/>
<path d="M78.4229 328.832H149.934V392.711H78.4229V328.832Z" fill="white"/>
<path d="M180.922 360.771C180.922 378.411 167.182 392.711 150.232 392.711C133.282 392.711 119.542 378.411 119.542 360.771C119.542 343.132 133.282 328.832 150.232 328.832C167.182 328.832 180.922 343.132 180.922 360.771Z" fill="white"/>
<path d="M78.4229 392.711V328.832L143.975 392.711H78.4229Z" fill="white"/>
<path d="M235.495 377.965V427.934H220.209V421.128C218.66 423.337 216.544 425.128 213.863 426.501C211.241 427.814 208.321 428.471 205.103 428.471C201.289 428.471 197.922 427.635 195.002 425.963C192.082 424.232 189.817 421.755 188.208 418.531C186.599 415.307 185.795 411.516 185.795 407.158V377.965H200.991V405.098C200.991 408.442 201.855 411.038 203.583 412.889C205.311 414.74 207.635 415.665 210.555 415.665C213.535 415.665 215.889 414.74 217.617 412.889C219.345 411.038 220.209 408.442 220.209 405.098V377.965H235.495Z" fill="white"/>
<path d="M261.561 386.293C263.349 383.547 265.584 381.398 268.265 379.845C270.947 378.234 273.927 377.428 277.204 377.428V393.636H273.003C269.189 393.636 266.329 394.472 264.422 396.143C262.515 397.755 261.561 400.621 261.561 404.74V427.934H246.276V377.965H261.561V386.293Z" fill="white"/>
<path d="M281.273 402.86C281.273 397.725 282.226 393.218 284.133 389.338C286.1 385.457 288.751 382.472 292.089 380.383C295.426 378.293 299.15 377.248 303.262 377.248C306.778 377.248 309.847 377.965 312.469 379.398C315.151 380.83 317.207 382.711 318.637 385.039V377.965H333.923V427.934H318.637V420.859C317.147 423.187 315.062 425.068 312.38 426.501C309.758 427.934 306.689 428.65 303.173 428.65C299.121 428.65 295.426 427.605 292.089 425.516C288.751 423.366 286.1 420.352 284.133 416.471C282.226 412.531 281.273 407.994 281.273 402.86ZM318.637 402.949C318.637 399.128 317.564 396.114 315.419 393.905C313.333 391.696 310.771 390.591 307.732 390.591C304.692 390.591 302.1 391.696 299.955 393.905C297.869 396.054 296.826 399.039 296.826 402.86C296.826 406.68 297.869 409.725 299.955 411.994C302.1 414.203 304.692 415.307 307.732 415.307C310.771 415.307 313.333 414.203 315.419 411.994C317.564 409.785 318.637 406.77 318.637 402.949Z" fill="white"/>
<path d="M360.068 361.667V427.934H344.782V361.667H360.068Z" fill="white"/>
<path d="M416.088 365.07V377.338H399.461V427.934H384.176V377.338H367.55V365.07H416.088Z" fill="white"/>
<path d="M438.846 386.293C440.634 383.547 442.869 381.398 445.55 379.845C448.232 378.234 451.212 377.428 454.489 377.428V393.636H450.288C446.474 393.636 443.613 394.472 441.707 396.143C439.8 397.755 438.846 400.621 438.846 404.74V427.934H423.561V377.965H438.846V386.293Z" fill="white"/>
<path d="M458.557 402.86C458.557 397.725 459.511 393.218 461.418 389.338C463.384 385.457 466.036 382.472 469.373 380.383C472.711 378.293 476.435 377.248 480.547 377.248C484.063 377.248 487.132 377.965 489.754 379.398C492.436 380.83 494.492 382.711 495.922 385.039V377.965H511.208V427.934H495.922V420.859C494.432 423.187 492.346 425.068 489.665 426.501C487.043 427.934 483.974 428.65 480.458 428.65C476.405 428.65 472.711 427.605 469.373 425.516C466.036 423.366 463.384 420.352 461.418 416.471C459.511 412.531 458.557 407.994 458.557 402.86ZM495.922 402.949C495.922 399.128 494.849 396.114 492.704 393.905C490.618 391.696 488.056 390.591 485.017 390.591C481.977 390.591 479.385 391.696 477.24 393.905C475.154 396.054 474.111 399.039 474.111 402.86C474.111 406.68 475.154 409.725 477.24 411.994C479.385 414.203 481.977 415.307 485.017 415.307C488.056 415.307 490.618 414.203 492.704 411.994C494.849 409.785 495.922 406.77 495.922 402.949Z" fill="white"/>
<path d="M519.028 402.949C519.028 397.755 520.071 393.218 522.157 389.338C524.302 385.457 527.252 382.472 531.006 380.383C534.82 378.293 539.17 377.248 544.057 377.248C550.314 377.248 555.528 378.89 559.7 382.174C563.931 385.457 566.702 390.084 568.013 396.054H551.744C550.374 392.233 547.722 390.323 543.789 390.323C540.988 390.323 538.753 391.427 537.085 393.636C535.416 395.785 534.582 398.89 534.582 402.949C534.582 407.009 535.416 410.143 537.085 412.352C538.753 414.501 540.988 415.576 543.789 415.576C547.722 415.576 550.374 413.665 551.744 409.845H568.013C566.702 415.695 563.931 420.292 559.7 423.635C555.469 426.978 550.255 428.65 544.057 428.65C539.17 428.65 534.82 427.605 531.006 425.516C527.252 423.426 524.302 420.441 522.157 416.561C520.071 412.68 519.028 408.143 519.028 402.949Z" fill="white"/>
<path d="M606.472 427.934L591.276 406.979V427.934H575.991V361.667H591.276V398.293L606.383 377.965H625.244L604.506 403.039L625.423 427.934H606.472Z" fill="white"/>
<path d="M246.423 308.362V104.282L454.987 308.362H246.423Z" fill="white"/>
<path d="M246.423 104.282H391.933V234.261H246.423V104.282Z" fill="white"/>
<path d="M454.987 169.272C454.987 205.164 427.028 234.261 392.539 234.261C358.05 234.261 330.091 205.164 330.091 169.272C330.091 133.379 358.05 104.282 392.539 104.282C427.028 104.282 454.987 133.379 454.987 169.272Z" fill="white"/>
<path d="M246.423 234.261V104.282L379.807 234.261H246.423Z" fill="white"/>
</svg>
