<svg width="352" height="499" viewBox="0 0 352 499" fill="none" xmlns="http://www.w3.org/2000/svg">
<path fill-rule="evenodd" clip-rule="evenodd" d="M168.644 3.73828C151.54 14.2151 136.389 26.9332 124.665 40.656C121.972 43.8081 115.192 53.1273 112.242 57.7317C101.909 73.8592 93.3179 94.0146 88.6778 113.016C85.6664 125.348 84.8226 133.748 84.8512 151.092C84.8728 164.162 85.08 167.855 86.1892 174.954C87.4828 183.228 90.8485 197.359 93.2928 204.775C97.4158 217.287 105.835 233.96 114.222 246.224C116.492 249.544 118.235 252.376 118.094 252.516C117.249 253.362 101.734 245.188 94.2141 239.936C79.9264 229.958 66.437 215.58 56.8249 200.084C52.9463 193.83 46.9088 181.476 44.6442 175.157C39.524 160.871 36.1216 143.432 36.1076 131.41C36.1035 127.521 36.0002 127.166 34.79 126.871C34.0676 126.694 25.9937 126.623 16.8472 126.714L0.217342 126.877L0.0382063 133.004C-0.753026 160.067 10.8091 196.451 28.7793 223.447C45.6444 248.783 69.3358 269.828 95.9495 283.113C139.422 304.813 193.13 307.583 238.251 290.452C262.59 281.21 282.152 268.592 300.474 250.314C320.214 230.622 333.311 209.596 342.78 182.392C348.49 165.985 352.211 144.719 351.677 131.545L351.487 126.877H333.69H315.893L315.428 132.712C313.277 159.665 306.946 180.371 294.91 199.815C289.629 208.346 286.371 212.601 279.473 219.977C271.879 228.095 263.8 235.038 255.209 240.827C245.296 247.507 233.328 253.8 233.328 252.331C233.328 252.101 235.813 248.184 238.85 243.624C262.578 208.007 271.488 167.35 265.072 123.966C263.227 111.492 258.231 94.8549 252.318 81.4973C238.931 51.2601 217.07 25.971 187.814 6.8822C178.43 0.759483 177.032 -0.0405036 175.783 0.00150874C175.179 0.0213479 171.967 1.70301 168.644 3.73828ZM173.154 39.7615C169.291 42.5577 159.066 52.6646 153.793 58.8987C139.888 75.3372 128.665 97.8547 123.983 118.708C121.026 131.881 120.442 137.572 120.453 153.135C120.461 165.718 120.646 168.751 121.795 175.21C124.538 190.636 128.665 203.143 135.632 217.142C141.763 229.462 148.496 239.213 158.289 249.958C163.16 255.302 174.539 265.459 175.656 265.459C177.415 265.459 192.012 251.683 198.63 243.778C208.61 231.855 218.408 214.85 223.119 201.274C225.865 193.358 228.857 181.669 230.213 173.557C231.88 163.58 231.733 139.521 229.943 129.245C228.042 118.336 225.75 109.984 221.767 99.4523C219.105 92.4135 214.634 83.207 211.361 78.0202C210.605 76.8228 209.987 75.7107 209.987 75.5479C209.987 75.014 203.394 65.6983 199.855 61.2328C195.701 55.99 180.028 40.3503 177.499 38.9242C175.723 37.9223 175.685 37.9293 173.154 39.7615ZM52.1493 328.704C45.0824 330.425 39.8583 334.469 36.9449 340.476C35.4418 343.574 35.2621 344.558 35.2457 349.776C35.2329 353.926 35.5305 356.479 36.2762 358.615C38.8419 365.967 42.9025 369.564 55.8954 375.995C65.7531 380.874 69.7367 383.533 71.9622 386.719C73.4396 388.835 73.7541 389.908 73.9327 393.447C74.2332 399.404 73.2967 402.317 70.0308 405.581C66.7655 408.843 62.9406 410.169 56.7911 410.169C50.858 410.169 46.9409 409.31 42.1486 406.96C39.8572 405.837 37.8126 404.917 37.6054 404.917C37.026 404.917 34.9353 410.103 34.9394 411.53C34.951 415.423 52.7398 419.87 62.3408 418.38C73.3912 416.666 79.9124 411.666 82.512 402.914C83.7974 398.588 83.6451 389.324 82.2278 385.593C79.6143 378.715 75.8862 375.421 63.7225 369.239C54.481 364.543 52.4317 363.366 49.3555 360.983C45.3246 357.86 43.6622 352.606 44.8683 346.798C46.1561 340.593 52.7322 336.04 60.3568 336.073C63.7663 336.089 69.826 337.503 73.9898 339.256C76.0134 340.107 78.0131 340.671 78.435 340.51C78.8563 340.348 79.6569 338.77 80.2141 337.004C81.5054 332.906 81.2125 332.543 75.032 330.586C66.2094 327.794 58.4931 327.159 52.1493 328.704ZM290.131 328.685C282.849 330.544 277.618 334.58 274.641 340.637C273.627 342.699 273.252 344.625 273.092 348.596C272.818 355.365 273.652 358.908 276.572 363.377C279.619 368.041 283.575 370.829 295.179 376.493C309.086 383.282 311.491 385.968 311.491 394.706C311.491 400.255 310.386 403.156 307.211 405.945C304.073 408.7 301.344 409.665 295.763 409.995C289.856 410.344 284.581 409.272 279.29 406.647C277.323 405.671 275.424 404.984 275.071 405.119C274.718 405.255 273.947 406.893 273.359 408.758C272.29 412.148 272.29 412.152 273.547 413.169C275.017 414.36 280.004 416.297 284.968 417.607C290.295 419.012 300.903 418.807 305.39 417.214C310.765 415.305 314.758 412.361 317.292 408.44C320.395 403.64 320.993 401.009 320.76 393.185C320.589 387.46 320.347 386.078 319.015 383.237C317.409 379.813 313.894 375.95 310.327 373.69C309.191 372.97 304.295 370.347 299.446 367.862C289 362.507 285.526 360.009 283.697 356.54C282.197 353.694 281.896 349.072 282.96 345.238C285.335 336.688 298.39 333.593 310.458 338.718C316.253 341.18 316.849 341.055 318.213 337.092C319.674 332.85 319.528 332.693 311.809 330.219C307.057 328.696 304.782 328.308 299.555 328.133C295.466 327.995 292.046 328.196 290.131 328.685ZM95.1664 330.367C94.2538 331.471 94.1739 415.84 95.0841 416.936C95.6449 417.611 99.5707 417.754 117.553 417.754C138.498 417.754 139.366 417.71 139.946 416.626C140.648 415.314 140.763 410.369 140.1 409.959C139.853 409.806 131.945 409.61 122.527 409.523C108.89 409.397 105.239 409.201 104.596 408.558C103.502 407.464 103.403 378.113 104.49 377.026C104.997 376.518 109.222 376.325 119.836 376.325C130.449 376.325 134.674 376.133 135.182 375.625C136.143 374.664 136.085 369.051 135.106 368.238C134.595 367.814 129.244 367.54 119.497 367.437L104.665 367.281V352.985V338.689L122.17 338.376C131.798 338.203 139.753 338.007 139.848 337.938C139.942 337.87 139.942 336.041 139.848 333.875L139.675 329.937L117.725 329.784C100.615 329.665 95.6408 329.793 95.1664 330.367ZM150.741 330.367C150.587 330.772 150.528 350.534 150.61 374.283L150.762 417.462L172.935 417.616C193.262 417.758 195.169 417.688 195.837 416.776C196.765 415.511 196.791 410.376 195.873 409.809C195.491 409.573 187.705 409.414 178.569 409.455C168.599 409.499 161.529 409.299 160.882 408.953C159.877 408.415 159.806 407.34 159.806 392.677C159.806 380.758 159.982 376.864 160.535 376.506C160.937 376.246 168.092 375.902 176.436 375.742L191.607 375.45L191.791 372.871C191.892 371.453 191.822 369.68 191.634 368.932L191.293 367.573H175.904C162.409 367.573 160.471 367.459 160.16 366.65C159.701 365.452 159.713 341.431 160.174 339.71L160.525 338.398H177.599C191.612 338.398 194.796 338.249 195.359 337.571C195.763 337.084 195.972 335.349 195.868 333.341L195.691 329.937L173.357 329.784C155.801 329.664 150.962 329.788 150.741 330.367ZM207.212 330.128C206.632 330.496 206.51 339.667 206.629 374.028L206.778 417.462L221.949 417.458C234.531 417.455 237.747 417.282 240.792 416.442C252.031 413.348 258.752 406.553 261.719 395.289C262.652 391.747 262.794 388.841 262.792 373.408C262.79 358.194 262.639 355.06 261.755 351.818C258.506 339.901 251.173 333.039 239.041 330.563C234.186 329.572 208.638 329.223 207.212 330.128ZM216.206 344.559C215.714 352.609 215.712 397.867 216.204 404.188L216.579 409.002L225.099 408.995C236.693 408.985 241.51 407.651 246.515 403.065C249.892 399.97 252.313 394.921 253.219 389.08C254.219 382.638 253.611 357.087 252.366 353.189C251.091 349.201 248.199 345 245.118 342.662C241.02 339.553 237.774 338.833 226.564 338.543L216.59 338.286L216.206 344.559ZM195.504 431.098C194.885 431.49 194.729 436.544 194.712 456.718C194.7 470.539 194.866 482.131 195.08 482.478C195.604 483.326 198.496 483.278 199.368 482.407C200.375 481.399 200.375 432.299 199.368 431.292C198.56 430.484 196.626 430.387 195.504 431.098ZM41.5003 435.646C40.9903 435.852 40.7709 437.572 40.7709 441.372C40.7709 447.345 40.6665 447.513 36.97 447.513C34.8378 447.513 33.955 448.842 34.6441 451.014C34.9907 452.106 35.7849 452.431 37.8289 452.318C38.2974 452.291 39.1505 452.522 39.7253 452.83C40.6741 453.337 40.7709 454.416 40.7709 464.474C40.7709 476.337 41.1129 478.179 43.7591 480.566C45.3923 482.039 50.5884 483.293 53.8998 483.013C56.2011 482.818 56.2338 482.782 56.2338 480.481V478.147L53.0245 477.837C49.4412 477.491 47.5087 476.624 46.6194 474.963C46.2757 474.32 46.0225 469.375 46.0225 463.306C46.0225 453.679 46.1112 452.759 47.0436 452.703C47.6055 452.668 48.4586 452.582 48.94 452.511C49.4214 452.439 51.2022 452.336 52.8967 452.281C56.2437 452.172 56.9241 451.513 56.2916 448.994C55.9502 447.635 55.6812 447.551 51.1229 447.39L46.3142 447.221L46.1672 442.553C45.9589 435.936 45.7371 435.25 43.8232 435.305C42.9468 435.331 41.9018 435.484 41.5003 435.646ZM277.694 436.971C276.704 438.822 277.001 440.426 278.518 441.419C279.746 442.224 280.175 442.246 281.582 441.575C283.398 440.708 284.092 438.124 282.896 436.683C281.845 435.416 278.425 435.606 277.694 436.971ZM72.1156 446.983C64.9945 448.66 62.3945 452.718 61.9183 462.898C61.5659 470.425 62.3005 474.349 64.7541 478.054C68.0037 482.96 75.7328 484.97 83.1188 482.831C87.1946 481.65 88.0377 481.059 88.0261 479.389C88.0062 476.618 87.2938 476.405 82.8323 477.839C76.1115 480 72.0684 478.98 68.8982 474.32C67.8876 472.835 67.6011 471.702 67.7312 469.706L67.9039 467.06L78.6987 466.769L89.4936 466.477L89.4014 461.749C89.2363 453.335 86.2108 448.612 80.0566 447.164C76.2334 446.265 75.2596 446.243 72.1156 446.983ZM105.071 447.416C101.349 448.746 99.0257 450.851 97.2991 454.455C96.2284 456.692 96.0055 458.213 95.9629 463.559C95.9349 467.09 96.121 471.199 96.3766 472.69C96.9881 476.26 99.6652 480.207 102.59 481.851C105.845 483.681 111.856 484.142 116.156 482.892C119.708 481.859 120.402 480.986 119.517 478.66C119.057 477.451 118.674 477.217 117.637 477.512C110.765 479.47 108.092 479.28 104.673 476.591C102.161 474.615 101.455 472.172 101.459 465.474C101.462 458.246 102.052 455.863 104.389 453.625C105.927 452.151 106.699 451.895 110.206 451.697C112.43 451.571 115.086 451.76 116.108 452.116C118.414 452.92 119.544 452.159 119.544 449.803C119.544 448.395 119.221 448.059 117.356 447.525C113.011 446.282 108.359 446.241 105.071 447.416ZM132.02 447.177C129.415 447.593 126.986 448.116 126.623 448.341C126.156 448.629 125.963 453.69 125.963 465.59V482.43L127.737 482.82C131.153 483.571 131.214 483.297 131.214 467.301C131.214 450.453 130.73 451.597 137.853 451.597C141.644 451.597 142.457 451.788 143.873 453.005L145.51 454.412L145.687 468.008C145.803 476.869 146.091 481.876 146.513 482.385C146.87 482.815 147.956 483.087 148.928 482.991C151.515 482.733 151.748 480.972 151.211 465.732C150.763 453.033 150.685 452.394 149.35 450.604C146.753 447.12 140.335 445.851 132.02 447.177ZM170.309 446.744C165.458 447.54 161.883 450.183 159.881 454.453C158.47 457.462 158.347 458.335 158.347 465.351C158.347 472.684 158.415 473.11 160.106 476.418C161.453 479.051 162.538 480.274 164.729 481.629C167.372 483.263 167.999 483.398 172.889 483.387C179.238 483.375 181.855 482.312 184.682 478.597C187.196 475.292 188.036 470.982 187.672 463.253C187.433 458.16 187.125 456.602 185.868 454.122C183.835 450.11 180.94 447.817 176.875 447.001C173.577 446.338 172.935 446.313 170.309 446.744ZM216.989 447.275C212.949 448.364 210.111 450.633 208.239 454.27C206.892 456.888 206.778 457.725 206.778 465.002C206.778 473.921 207.537 476.508 211.198 480.066C215.188 483.943 223.902 484.783 229.707 481.85C231.969 480.707 232.76 479.848 234.203 476.971C235.907 473.572 235.953 473.254 235.953 465.018C235.953 455.595 235.416 453.779 231.503 449.952C228.505 447.021 222.226 445.863 216.989 447.275ZM249.952 448.018C244.063 450.693 241.735 456.289 242.241 466.557C242.858 479.091 246.424 482.734 258.126 482.788L263.962 482.815L263.895 486.151C263.753 493.291 259.909 494.826 248.943 492.12C247.108 491.667 246.396 492.709 246.972 495.004C247.256 496.136 248.024 496.585 251.103 497.419C258.722 499.481 265.7 497.448 268.181 492.443C269.45 489.883 269.484 489.306 269.522 469.452C269.547 456.606 269.346 448.871 268.978 448.503C267.217 446.742 253.53 446.393 249.952 448.018ZM297.221 447.184C296.9 447.309 295.934 447.565 295.074 447.755C293.011 448.208 291.678 449.605 291.678 451.313C291.678 453.32 292.415 453.506 296.109 452.432C298.253 451.808 300.746 451.556 303.208 451.712C306.614 451.93 307.178 452.15 308.707 453.861C310.159 455.487 310.385 456.171 310.235 458.497L310.058 461.225L305.899 461.023C299.663 460.721 295.589 461.757 292.881 464.335C287.669 469.298 288.674 478.842 294.749 482.071C296.952 483.242 298.048 483.383 304.807 483.374C310.337 483.366 312.867 483.128 314.143 482.494L315.893 481.624L315.871 468.447C315.849 455.552 315.817 455.21 314.386 452.431C312.252 448.283 310.188 447.285 303.363 447.104C300.306 447.023 297.542 447.058 297.221 447.184ZM277.952 448.214C277.789 448.639 277.725 456.594 277.81 465.893C277.956 481.741 278.033 482.812 279.033 483.005C279.62 483.118 280.74 483.05 281.521 482.853L282.943 482.496L282.788 465.151L282.634 447.805L280.441 447.623C279.021 447.506 278.144 447.714 277.952 448.214ZM71.7142 452.344C69.3288 453.551 67.5322 456.759 67.7306 459.456L67.9039 461.809L75.4895 461.955C79.6615 462.035 83.4368 461.868 83.8785 461.583C84.539 461.157 84.5589 460.56 83.99 458.228C83.2466 455.179 82.0195 453.334 80.0256 452.267C78.3731 451.382 73.526 451.427 71.7142 452.344ZM167.467 453.125C164.493 455.521 163.89 457.599 163.89 465.446C163.89 473.467 164.65 475.57 168.327 477.734C171.148 479.393 175.905 479.269 178.356 477.472C181.284 475.326 181.977 473.021 181.978 465.437C181.979 457.923 181.412 455.76 178.816 453.366C177.543 452.19 176.531 451.889 173.344 451.732C169.812 451.558 169.244 451.693 167.467 453.125ZM217.233 452.163C215.172 452.997 212.998 456.119 212.592 458.83C212.381 460.237 212.299 464.026 212.411 467.247C212.629 473.564 213.207 474.971 216.631 477.527C218.908 479.228 224.424 479.214 226.72 477.502C230.055 475.016 230.703 473.024 230.687 465.31C230.674 459.205 230.505 457.992 229.368 455.84C228.651 454.482 227.292 452.973 226.349 452.485C224.516 451.537 219.241 451.351 217.233 452.163ZM252.07 452.595C248.576 454.317 247.92 456.172 247.917 464.346C247.915 473.111 248.551 474.877 252.375 476.728C254.437 477.727 255.742 477.939 258.678 477.752C264.427 477.385 264.253 477.803 264.253 464.384C264.253 453.534 264.182 452.767 263.125 452.201C261.328 451.24 254.314 451.49 252.07 452.595ZM299.523 466.225C296.584 467.079 294.879 469.364 294.943 472.36C295.007 475.297 296.22 477.009 299.099 478.227C301.282 479.152 306.688 479.277 308.853 478.453C310.316 477.897 310.35 477.757 310.35 472.312C310.35 466.867 310.316 466.727 308.853 466.171C307.044 465.483 301.976 465.512 299.523 466.225Z" fill="white"/>
</svg>
