<svg width="502" height="195" viewBox="0 0 502 195" fill="none" xmlns="http://www.w3.org/2000/svg">
<path fill-rule="evenodd" clip-rule="evenodd" d="M396.494 1.06063L379.101 1.50788V29.6096V57.7113L370.226 53.4077C362.524 49.6721 359.428 49.0275 346.773 48.5277C323.319 47.6005 309.144 52.8313 293.753 68.0933C283.481 78.2807 278.274 87.1789 274.846 100.406C272.004 111.373 271.976 131.845 274.785 142.635C283.796 177.23 315.732 198.82 349.639 193.242C359.562 191.609 370.654 187.236 377.326 182.326C380.483 180.002 380.52 180.034 380.52 185.117V190.26H403.948H427.375V95.1301V0L420.631 0.306688C416.921 0.47565 406.061 0.814995 396.494 1.06063ZM18.4581 33.3665V51.1147H9.22904H0V71.7025V92.2904H9.22904H18.4581V100.809V109.329H26.2673H34.0764V117.138V124.947H26.2673H18.4581V138.286C18.4581 163.854 26.7472 179.529 43.7925 186.198C50.5325 188.835 55.4239 189.439 74.1873 189.949L96.5499 190.558V169.972V149.385L85.2209 148.87C75.7463 148.44 73.3652 147.829 70.6675 145.134C67.5992 142.07 67.4217 140.709 66.9971 117.102L66.5499 92.2904H81.5506H96.5499V71.7025V51.1147H81.6415H66.733V33.3665V15.6184H42.5956H18.4581V33.3665ZM165.566 48.9324C138.762 56.6152 118.546 76.9091 112.097 102.607C109.662 112.313 111.079 140.824 114.409 149.084C123.442 171.502 141.287 186.782 164.951 192.36C176.889 195.176 200.963 195.132 212.063 192.275C222.197 189.667 236.049 183.28 241.907 178.515L245.988 175.194L237.006 159.5L228.023 143.807L220.513 148.612C204.572 158.808 185.629 160.098 172.654 151.87C166.948 148.251 160.465 140.55 160.449 137.371C160.446 136.786 181.755 136.306 207.802 136.306H255.163L255.977 127.432C259.254 91.677 242.877 62.5942 212.85 50.8492C202.978 46.9886 176.147 45.8996 165.566 48.9324ZM178.954 84.0041C171.805 86.0757 166.617 90.233 162.579 97.1221C160.624 100.459 159.023 103.612 159.023 104.129C159.023 104.646 170.844 105.069 185.291 105.069C199.738 105.069 211.558 104.555 211.558 103.927C211.558 103.298 209.674 99.8142 207.372 96.1836C201.058 86.2304 189.042 81.0792 178.954 84.0041ZM343.072 84.3903C327.666 90.0115 318.29 110.57 322.306 129.918C323.721 136.73 325.199 139.297 331.317 145.57C343.83 158.4 355.582 159.191 367.933 148.032C379.551 137.537 382.791 124.412 377.81 108.015C371.969 88.7833 357.675 79.063 343.072 84.3903ZM448.183 144.582C446.241 146.729 445.834 150.504 445.834 166.37C445.834 192.066 444.588 190.97 473.795 190.97C502.146 190.97 501.208 191.816 501.208 166.282C501.208 140.729 502.633 141.985 473.66 141.985C453.058 141.985 450.276 142.269 448.183 144.582ZM456.231 152.777C455.142 155.614 458.595 157.966 460.965 155.999C463.113 154.216 461.871 150.504 459.126 150.504C458.013 150.504 456.711 151.527 456.231 152.777ZM469.931 165.692C467.219 173.265 464.789 179.973 464.529 180.601C464.267 181.228 465.636 181.741 467.569 181.741C470.133 181.741 471.324 180.781 471.974 178.191C472.737 175.153 473.674 174.642 478.49 174.642C483.306 174.642 484.243 175.153 485.006 178.191C485.659 180.793 486.845 181.741 489.444 181.741C491.682 181.741 492.753 181.085 492.344 179.966C491.986 178.991 489.595 172.282 487.028 165.058C482.738 152.985 482.058 151.924 478.611 151.924C475.153 151.924 474.475 153 469.931 165.692ZM476.142 164.703C474.645 170.31 474.675 170.382 478.49 170.382C482.305 170.382 482.335 170.31 480.839 164.703C480.005 161.579 478.949 159.023 478.49 159.023C478.032 159.023 476.975 161.579 476.142 164.703ZM455.772 171.092C455.772 180.794 456.025 181.741 458.612 181.741C461.199 181.741 461.452 180.794 461.452 171.092C461.452 161.39 461.199 160.443 458.612 160.443C456.025 160.443 455.772 161.39 455.772 171.092Z" fill="white"/>
</svg>
